<svg width="17" height="17" viewBox="0 0 17 17" fill="none" xmlns="http://www.w3.org/2000/svg">
<path d="M8.98151 2.06642C8.53763 1.31119 7.46546 1.31119 7.02158 2.06642L0.164626 13.7331C-0.292407 14.5107 0.256279 15.5 1.14459 15.5H14.8585C15.7468 15.5 16.2955 14.5107 15.8385 13.7331L8.98151 2.06642ZM8 5.5C8.53541 5.5 8.95377 5.96228 8.9005 6.49504L8.54975 10.0025C8.52151 10.2849 8.28384 10.5 8 10.5C7.71616 10.5 7.47849 10.2849 7.45025 10.0025L7.0995 6.49504C7.04623 5.96229 7.46459 5.5 8 5.5ZM8.00154 11.5C8.55383 11.5 9.00154 11.9477 9.00154 12.5C9.00154 13.0523 8.55383 13.5 8.00154 13.5C7.44926 13.5 7.00154 13.0523 7.00154 12.5C7.00154 11.9477 7.44926 11.5 8.00154 11.5Z" fill="#0E0E0E"/>
</svg>
