<svg width="49" height="36" viewBox="0 0 49 36" fill="none" xmlns="http://www.w3.org/2000/svg">
<path fill-rule="evenodd" clip-rule="evenodd" d="M18.5 4.5C18.5 2.01472 20.5147 0 23 0H26C28.4853 0 30.5 2.01472 30.5 4.5V7.5C30.5 9.98528 28.4853 12 26 12V15H42.5C43.3284 15 44 15.6716 44 16.5V19.5C44 20.3284 43.3284 21 42.5 21C41.6716 21 41 20.3284 41 19.5V18H26V19.5C26 20.3284 25.3284 21 24.5 21C23.6716 21 23 20.3284 23 19.5V18H8V19.5C8 20.3284 7.32843 21 6.5 21C5.67157 21 5 20.3284 5 19.5V16.5C5 15.6716 5.67157 15 6.5 15H23V12C20.5147 12 18.5 9.98528 18.5 7.5V4.5ZM26 9C26.8284 9 27.5 8.32843 27.5 7.5V4.5C27.5 3.67157 26.8284 3 26 3H23C22.1716 3 21.5 3.67157 21.5 4.5V7.5C21.5 8.32843 22.1716 9 23 9H26ZM0.5 28.5C0.5 26.0147 2.51472 24 5 24H8C10.4853 24 12.5 26.0147 12.5 28.5V31.5C12.5 33.9853 10.4853 36 8 36H5C2.51472 36 0.5 33.9853 0.5 31.5V28.5ZM5 27C4.17157 27 3.5 27.6716 3.5 28.5V31.5C3.5 32.3284 4.17157 33 5 33H8C8.82843 33 9.5 32.3284 9.5 31.5V28.5C9.5 27.6716 8.82843 27 8 27H5ZM18.5 28.5C18.5 26.0147 20.5147 24 23 24H26C28.4853 24 30.5 26.0147 30.5 28.5V31.5C30.5 33.9853 28.4853 36 26 36H23C20.5147 36 18.5 33.9853 18.5 31.5V28.5ZM23 27C22.1716 27 21.5 27.6716 21.5 28.5V31.5C21.5 32.3284 22.1716 33 23 33H26C26.8284 33 27.5 32.3284 27.5 31.5V28.5C27.5 27.6716 26.8284 27 26 27H23ZM36.5 28.5C36.5 26.0147 38.5147 24 41 24H44C46.4853 24 48.5 26.0147 48.5 28.5V31.5C48.5 33.9853 46.4853 36 44 36H41C38.5147 36 36.5 33.9853 36.5 31.5V28.5ZM41 27C40.1716 27 39.5 27.6716 39.5 28.5V31.5C39.5 32.3284 40.1716 33 41 33H44C44.8284 33 45.5 32.3284 45.5 31.5V28.5C45.5 27.6716 44.8284 27 44 27H41Z" fill="#3C3E3E"/>
</svg>
