<svg xmlns="http://www.w3.org/2000/svg" width="56" height="55" fill="#11067a" xmlns:v="https://vecta.io/nano"><path d="M49.681 10.521h1.699c.593 0 1.074-.481 1.074-1.073s-.481-1.074-1.074-1.074h-4.079c-.593 0-1.074.481-1.074 1.074v4.079c0 .593.481 1.073 1.074 1.073s1.074-.481 1.074-1.073v-1.181A25.27 25.27 0 0 1 53.403 27.5c0 13.98-11.373 25.353-25.353 25.353S2.697 41.48 2.697 27.5 14.07 2.147 28.05 2.147a25.68 25.68 0 0 1 3.093.187c.588.071 1.124-.348 1.195-.936S31.991.274 31.402.202C30.298.068 29.17 0 28.05 0 20.704 0 13.798 2.86 8.604 8.055A27.32 27.32 0 0 0 .55 27.5c0 7.345 2.86 14.251 8.055 19.445S20.704 55 28.05 55s14.251-2.861 19.445-8.055A27.32 27.32 0 0 0 55.55 27.5a27.41 27.41 0 0 0-5.868-16.979zm-37.486 5.69c-.501-.317-1.164-.168-1.481.333-2.451 3.871-3.536 8.526-3.055 13.108.488 4.65 2.581 9.035 5.893 12.347a20.44 20.44 0 0 0 14.499 5.996c5.251 0 10.501-1.998 14.499-5.996 7.995-7.995 7.995-21.003 0-28.997-3.307-3.307-7.685-5.399-12.327-5.891-4.573-.485-9.223.592-13.092 3.03-.502.316-.652.979-.336 1.481s.979.652 1.481.336A18.25 18.25 0 0 1 41.03 14.52c7.157 7.157 7.157 18.803 0 25.961s-18.803 7.157-25.961 0c-6.021-6.021-7.09-15.605-2.542-22.788.317-.501.168-1.164-.333-1.482zm29.811 12.38h1.324c.593 0 1.073-.481 1.073-1.074s-.481-1.074-1.073-1.074h-1.324c-.593 0-1.074.481-1.074 1.074s.481 1.074 1.074 1.074zm-30.309-1.108c0 .593.481 1.073 1.074 1.073h1.324c.593 0 1.074-.481 1.074-1.073s-.481-1.074-1.074-1.074H12.77c-.593 0-1.074.481-1.074 1.074zm17.444-13.939V12.22c0-.593-.481-1.074-1.073-1.074s-1.073.481-1.073 1.074v1.324c0 .593.481 1.073 1.073 1.073s1.073-.481 1.073-1.073zm-2.182 27.912v1.324c0 .593.481 1.074 1.073 1.074s1.074-.481 1.074-1.074v-1.324c0-.593-.481-1.074-1.074-1.074s-1.073.481-1.073 1.074zm-4.29-20.855c-.419-.419-1.099-.419-1.518 0s-.419 1.099 0 1.518l3.638 3.638c-.279.52-.437 1.113-.437 1.743 0 2.039 1.659 3.698 3.698 3.698s3.698-1.659 3.698-3.698c0-.63-.159-1.223-.437-1.743l7.341-7.341c.419-.419.419-1.099 0-1.518s-1.099-.419-1.518 0l-7.341 7.341c-.52-.279-1.113-.437-1.743-.437a3.68 3.68 0 0 0-1.743.437l-3.638-3.638zm6.932 6.899c0 .855-.696 1.551-1.551 1.551s-1.551-.696-1.551-1.551.696-1.551 1.551-1.551 1.551.696 1.551 1.551zM15.069 14.519a1.08 1.08 0 0 0 .316-.759 1.08 1.08 0 0 0-1.075-1.073 1.08 1.08 0 0 0-1.073 1.073 1.08 1.08 0 0 0 1.832.759zM35.486 3.208a1.08 1.08 0 0 0 1.075-1.074 1.08 1.08 0 0 0-.315-.759c-.2-.2-.477-.315-.76-.315a1.08 1.08 0 0 0-.759.315 1.08 1.08 0 0 0-.315.759 1.08 1.08 0 0 0 1.074 1.074z"/></svg>