<svg xmlns="http://www.w3.org/2000/svg" width="44" height="44" fill="none" xmlns:v="https://vecta.io/nano"><path d="M0 22C0 9.85 9.85 0 22 0s22 9.85 22 22-9.85 22-22 22S0 34.15 0 22z" fill="#fff"/><mask id="A" fill="#fff"><path d="M22 41.25C11.369 41.25 2.75 32.632 2.75 22S11.369 2.75 22 2.75 41.25 11.369 41.25 22 32.632 41.25 22 41.25zM22 44c12.15 0 22-9.85 22-22S34.15 0 22 0 0 9.85 0 22s9.85 22 22 22zm8.167-30.333a.67.67 0 0 0-.055.062l-9.549 12.168-5.757-5.757c-.806-.805-2.111-.805-2.917 0s-.805 2.111 0 2.917l7.278 7.278c.805.805 2.111.805 2.917 0a.68.68 0 0 0 .051-.057l10.979-13.723c.776-.807.766-2.091-.029-2.887a2.06 2.06 0 0 0-2.917 0z"/></mask><path d="M22 41.25C11.369 41.25 2.75 32.632 2.75 22S11.369 2.75 22 2.75 41.25 11.369 41.25 22 32.632 41.25 22 41.25zM22 44c12.15 0 22-9.85 22-22S34.15 0 22 0 0 9.85 0 22s9.85 22 22 22zm8.167-30.333a.67.67 0 0 0-.055.062l-9.549 12.168-5.757-5.757c-.806-.805-2.111-.805-2.917 0s-.805 2.111 0 2.917l7.278 7.278c.805.805 2.111.805 2.917 0a.68.68 0 0 0 .051-.057l10.979-13.723c.776-.807.766-2.091-.029-2.887a2.06 2.06 0 0 0-2.917 0z" fill="#11067a"/><path d="M33.083 13.667l.212-.212-.212.212zm-2.917 0l-.212-.212h0l.212.212zm2.946 2.887l-.216-.208-.018.02.234.187zM22.134 30.277l-.234-.187h0l.234.188zm-.051.057l-.212-.212h0l.212.212zm-2.917 0l.212-.212-.212.212zm-7.278-7.278l.212-.212-.212.212zm0-2.917l.212.212-.212-.212zm2.917 0l-.212.212.212-.212zm5.757 5.757l-.212.212a.3.3 0 0 0 .448-.027l-.236-.185zm9.549-12.168l-.236-.185h0l.236.185zM40.95 22c0 10.466-8.484 18.95-18.95 18.95v.6c10.797 0 19.55-8.753 19.55-19.55h-.6zM22 3.05c10.466 0 18.95 8.484 18.95 18.95h.6c0-10.797-8.753-19.55-19.55-19.55v.6zM3.05 22C3.05 11.534 11.534 3.05 22 3.05v-.6C11.203 2.45 2.45 11.203 2.45 22h.6zM22 40.95C11.534 40.95 3.05 32.466 3.05 22h-.6c0 10.797 8.753 19.55 19.55 19.55v-.6zM43.7 22c0 11.985-9.715 21.7-21.7 21.7v.6c12.316 0 22.3-9.984 22.3-22.3h-.6zM22 .3C33.985.3 43.7 10.015 43.7 22h.6C44.3 9.684 34.316-.3 22-.3v.6zM.3 22C.3 10.015 10.015.3 22 .3v-.6C9.684-.3-.3 9.684-.3 22h.6zM22 43.7C10.015 43.7.3 33.985.3 22h-.6c0 12.316 9.984 22.3 22.3 22.3v-.6zm11.295-30.246c-.923-.923-2.418-.923-3.341 0l.424.424c.688-.688 1.804-.688 2.493 0l.424-.424zm.034 3.307c.889-.925.878-2.396-.034-3.307l-.424.424c.68.68.688 1.777.025 2.467l.433.416zM22.368 30.464l10.978-13.723-.468-.375L21.9 30.089l.469.375zm-.073.081c.026-.026.05-.053.073-.081l-.469-.375c-.009.011-.018.022-.028.032l.424.424zm-3.341 0c.923.923 2.419.923 3.341 0l-.424-.424c-.688.688-1.804.688-2.493 0l-.424.424zm-7.278-7.278l7.278 7.278.424-.424-7.278-7.278-.424.424zm0-3.341c-.923.923-.923 2.418 0 3.341l.424-.424c-.688-.688-.688-1.804 0-2.492l-.424-.424zm3.341 0c-.923-.923-2.418-.923-3.341 0l.424.424c.688-.688 1.804-.688 2.492 0l.424-.424zm5.757 5.757l-5.757-5.757-.424.424 5.757 5.757.424-.424zm9.101-12.141l-9.549 12.168.472.37 9.549-12.168-.472-.37zm.078-.089c-.028.028-.054.058-.078.089l.472.37c.009-.012.02-.024.031-.035l-.424-.424z" fill="#fff" mask="url(#A)"/></svg>