<svg width="49" height="48" viewBox="0 0 49 48" fill="none" xmlns="http://www.w3.org/2000/svg">
<path d="M15.4419 3C14.9862 3 14.5552 3.20713 14.2706 3.56296L5.12095 15H18.5C19.3284 15 20 15.6716 20 16.5C20 18.9853 22.0147 21 24.5 21C26.9853 21 29 18.9853 29 16.5C29 15.6716 29.6716 15 30.5 15H43.8791L34.7294 3.56296C34.4448 3.20713 34.0138 3 33.5581 3H15.4419ZM45.3008 18H31.85C31.1551 21.4234 28.1285 24 24.5 24C20.8716 24 17.8449 21.4234 17.15 18H3.69919L4.65995 25.6861C4.75378 26.4367 5.39188 27 6.14836 27H42.8517C43.6082 27 44.2463 26.4367 44.3401 25.6861L45.3008 18ZM11.928 1.68887C12.782 0.621403 14.0749 0 15.4419 0H33.5581C34.9252 0 36.2181 0.621404 37.0721 1.68887L48.1713 15.563C48.4243 15.8792 48.5387 16.2842 48.4884 16.6861L47.3169 26.0582C47.0354 28.3101 45.1211 30 42.8517 30H6.14836C3.87891 30 1.9646 28.3101 1.68311 26.0582L0.511598 16.6861C0.46137 16.2842 0.575741 15.8792 0.828711 15.563L11.928 1.68887Z" fill="#3C3E3E"/>
<path d="M0.875491 33.5073C1.16023 33.1847 1.56976 33 2.00001 33H18.5C19.3284 33 20 33.6716 20 34.5C20 36.9853 22.0147 39 24.5 39C26.9853 39 29 36.9853 29 34.5C29 33.6716 29.6716 33 30.5 33H47C47.4303 33 47.8398 33.1847 48.1245 33.5073C48.4093 33.8298 48.5418 34.2591 48.4884 34.6861L47.3169 44.0582C47.0354 46.3101 45.1211 48 42.8517 48H6.14836C3.8789 48 1.9646 46.3101 1.6831 44.0582L0.511592 34.6861C0.458226 34.2591 0.590753 33.8298 0.875491 33.5073ZM3.69918 36L4.65994 43.6861C4.75377 44.4367 5.39187 45 6.14836 45H42.8517C43.6082 45 44.2463 44.4367 44.3401 43.6861L45.3008 36H31.85C31.1551 39.4234 28.1284 42 24.5 42C20.8716 42 17.8449 39.4234 17.15 36H3.69918Z" fill="#3C3E3E"/>
</svg>
