<svg xmlns="http://www.w3.org/2000/svg" width="42" height="55" fill="#11067a" xmlns:v="https://vecta.io/nano"><path d="M39.371 30.501l-8.212-12.874c1.163-.611 1.959-1.832 1.959-3.235 0-1.536-.953-2.852-2.299-3.391l2.488-8.698c.107-.375.003-.779-.273-1.055a4.25 4.25 0 0 0-6.002 0 2.08 2.08 0 0 1-1.482.614c-.56 0-1.086-.218-1.485-.616l-.005-.005c-1.649-1.649-4.337-1.654-5.993-.01l-.031.031a2.1 2.1 0 0 1-2.959-.005l-.008-.008a4.25 4.25 0 0 0-6.002 0c-.276.276-.381.68-.273 1.056L11.287 11c-1.349.537-2.305 1.856-2.305 3.394 0 1.403.796 2.623 1.959 3.235L2.729 30.501a15.72 15.72 0 0 0-.539 16.226A15.72 15.72 0 0 0 16.161 55h9.779a15.72 15.72 0 0 0 13.97-8.273c2.84-5.18 2.639-11.246-.538-16.226zM13.55 2.767l.008.008c1.649 1.649 4.337 1.654 5.993.01l.031-.031a2.1 2.1 0 0 1 2.961.008l.005.005a4.25 4.25 0 0 0 6.003 0 2.1 2.1 0 0 1 2.491-.355L28.66 10.74H13.448L11.06 2.411a2.1 2.1 0 0 1 2.49.356zm24.475 42.928a13.6 13.6 0 0 1-12.086 7.157H16.16c-5.111 0-9.629-2.675-12.086-7.157a13.6 13.6 0 0 1 .466-14.038l8.683-13.612h2.992c.593 0 1.074-.481 1.074-1.074s-.481-1.074-1.074-1.074h-3.581c-.829 0-1.504-.675-1.504-1.504s.675-1.504 1.504-1.504h.004 16.827c.829 0 1.504.675 1.504 1.504s-.675 1.504-1.504 1.504h-3.581c-.593 0-1.074.481-1.074 1.074s.481 1.074 1.074 1.074h2.992l8.683 13.612a13.6 13.6 0 0 1 .466 14.038zM22.944 35.084l-.82-.297v-4.869c.728.214 1.215.562 1.235.577.473.354 1.143.26 1.5-.211s.265-1.147-.208-1.505c-.063-.048-1.062-.789-2.528-1.07V26.64c0-.593-.481-1.074-1.074-1.074s-1.074.481-1.074 1.074v1.061l-.553.135c-1.512.454-2.642 1.747-2.95 3.374-.28 1.486.196 2.919 1.242 3.74.568.445 1.278.852 2.261 1.284v6.23c-.846-.053-1.412-.246-2.355-.863-.497-.325-1.162-.186-1.487.311s-.186 1.162.311 1.487c1.376.9 2.307 1.155 3.532 1.215v1.111c0 .593.481 1.074 1.074 1.074s1.074-.481 1.074-1.074v-1.223c2.3-.504 3.646-2.423 3.948-4.219.395-2.348-.833-4.389-3.128-5.2zm-3.903-1.825c-.413-.324-.588-.956-.457-1.65.121-.638.55-1.408 1.392-1.693v3.934c-.353-.188-.672-.385-.934-.591zm4.912 6.668c-.155.92-.776 1.896-1.829 2.327v-5.182l.104.037c1.926.681 1.808 2.329 1.725 2.818zM21.05 18.045a1.08 1.08 0 0 0 .759-.315c.199-.2.315-.477.315-.759a1.08 1.08 0 0 0-1.074-1.074 1.08 1.08 0 0 0-1.074 1.074 1.08 1.08 0 0 0 1.074 1.074z"/></svg>