<svg xmlns="http://www.w3.org/2000/svg" xmlns:xlink="http://www.w3.org/1999/xlink" width="56" height="56" fill="none" xmlns:v="https://vecta.io/nano"><g fill="#11067a"><path d="M54.408 48.978H53.1l.921-10.247c.035-.386-.095-.77-.356-1.056s-.633-.449-1.02-.449h-9.037c-.387 0-.759.164-1.02.45s-.391.671-.356 1.056l.921 10.247H41a2.5 2.5 0 0 0 .156-.872v-1.953a1.88 1.88 0 0 0-1.878-1.878h-.897a2.04 2.04 0 0 0 .041-.408V24.634a2.05 2.05 0 0 0-2.047-2.047h-2.343c.143-1.918-.312-3.812-.973-5.625 1.239-.462 2.123-1.657 2.123-3.055 0-1.797-1.462-3.26-3.26-3.26h-.221v-.759A9.9 9.9 0 0 0 21.815 0a9.9 9.9 0 0 0-9.888 9.888v.759h-.22c-1.798 0-3.26 1.462-3.26 3.26 0 1.398.885 2.593 2.123 3.055-.661 1.813-1.115 3.707-.972 5.625H7.254a2.05 2.05 0 0 0-2.047 2.047v1.987a.82.82 0 0 0 .819.819.82.82 0 0 0 .819-.819v-1.987a.41.41 0 0 1 .409-.409h29.122a.41.41 0 0 1 .409.409v19.233a.41.41 0 0 1-.409.409H7.254a.41.41 0 0 1-.409-.409v-13.41a.82.82 0 0 0-.819-.819.82.82 0 0 0-.819.819v13.41a2.03 2.03 0 0 0 .041.408h-.897a1.88 1.88 0 0 0-1.878 1.878v1.953a2.5 2.5 0 0 0 .156.872H1.594a1.56 1.56 0 0 0-1.556 1.556v3.911A1.56 1.56 0 0 0 1.594 56h52.814a1.56 1.56 0 0 0 1.556-1.556v-3.911a1.56 1.56 0 0 0-1.556-1.556zM31.703 12.285h.221c.894 0 1.622.728 1.622 1.622s-.728 1.622-1.622 1.622h-.221v-3.244zM13.566 9.888a8.26 8.26 0 0 1 8.25-8.249 8.26 8.26 0 0 1 8.25 8.249v1.889c-1.637-.17-5.363-.896-7.585-3.982a.82.82 0 0 0-1.329 0c-2.222 3.087-5.949 3.812-7.585 3.982V9.888zm-3.48 4.019c0-.894.728-1.622 1.622-1.622h.22v3.244h-.22c-.894 0-1.622-.728-1.622-1.622zm1.155 8.68c-.145-1.641.25-3.331.84-4.977a9.86 9.86 0 0 0 2.486 4.977H11.24zm15.359 0h-9.569a8.24 8.24 0 0 1-3.465-6.713v-2.447c1.681-.145 5.542-.808 8.25-3.846 2.708 3.037 6.569 3.702 8.25 3.846v2.447c0 2.766-1.37 5.216-3.465 6.713zm5.79 0h-3.327a9.86 9.86 0 0 0 2.487-4.978c.591 1.646.985 3.336.84 4.978zm19.975 16.276l-.183 2.036-3.38.001a.82.82 0 0 0-.819.819.82.82 0 0 0 .819.819l3.232-.001-.245 2.732-7.325-.001-.245-2.73h.78a.82.82 0 0 0 .819-.819.82.82 0 0 0-.819-.819h0-.928l-.183-2.038h8.477 0zm-.723 8.044l-.186 2.07h-6.659l-.186-2.071 7.031.001zm-47.529-.755a.24.24 0 0 1 .24-.24H39.28a.24.24 0 0 1 .24.24v1.953c0 .481-.391.872-.872.872H4.984c-.481 0-.872-.391-.872-.872v-1.953zm50.214 8.209H1.676v-3.746h52.65v3.746h0zM26.428 34.25a4.62 4.62 0 0 0-4.613-4.613 4.62 4.62 0 0 0-4.613 4.613 4.62 4.62 0 0 0 4.613 4.613 4.62 4.62 0 0 0 4.613-4.613zm-7.588 0a2.98 2.98 0 0 1 2.975-2.975 2.98 2.98 0 0 1 2.975 2.975 2.98 2.98 0 0 1-2.975 2.975 2.98 2.98 0 0 1-2.975-2.975z"/><use xlink:href="#B"/><use xlink:href="#B" x="7.902"/><path d="M23.722 18.206a.82.82 0 0 0-1.151.13.97.97 0 0 1-1.518.007.82.82 0 0 0-1.152-.119.82.82 0 0 0-.119 1.152 2.6 2.6 0 0 0 4.071-.019.82.82 0 0 0-.13-1.151z"/></g><defs ><path id="B" d="M18.048 13.851a.82.82 0 0 0-.819.819v1.087a.82.82 0 0 0 .819.819.82.82 0 0 0 .819-.819V14.67a.82.82 0 0 0-.819-.819z"/></defs></svg>