<svg xmlns="http://www.w3.org/2000/svg" xmlns:xlink="http://www.w3.org/1999/xlink" width="55" height="55" fill="none" xmlns:v="https://vecta.io/nano"><g fill="#11067a"><path d="M.295 18.924c0 7.607 3.514 12.582 10.234 14.716-2.08 1.042-3.28 3.219-3.014 5.471l.842 7.332c.303 2.615 2.486 4.652 5.197 4.851v.04c0 2.025 1.696 3.666 3.788 3.666h3.788c2.092 0 3.788-1.641 3.788-3.666v-.04c2.712-.199 4.894-2.236 5.197-4.851l.089-.772a14.09 14.09 0 0 0 3.106 1.855l-1.144 2.096c-.632 1.158-.577 2.555.143 3.663s1.998 1.761 3.35 1.712 2.575-.794 3.207-1.952l5.238-9.598c3.877.281 7.537-1.761 9.227-5.149s1.066-7.432-1.572-10.195a.98.98 0 0 0-.818-.286c-.305.039-.571.218-.714.481l-3.748 6.874a.94.94 0 0 1-.558.448c-.24.072-.5.048-.722-.066l-1.675-.856c-.46-.238-.636-.791-.395-1.238l3.749-6.87a.89.89 0 0 0 .008-.842c-.139-.265-.402-.449-.706-.493-3.846-.551-7.648 1.232-9.586 4.494s-1.615 7.339.812 10.278l-1.431 2.621c-2.061-.934-3.797-2.428-4.995-4.301-.047-1.989-1.213-3.794-3.04-4.707 6.724-2.134 10.237-7.107 10.237-14.716.014-2.924-.633-5.815-1.894-8.472v-5.11c1.305-.446 2.087-1.737 1.853-3.057S36.718 0 35.335 0s-2.566.965-2.8 2.285.549 2.611 1.853 3.057v1.992C30.859 2.663 25.213-.065 19.235.011 13.258-.065 7.611 2.663 4.083 7.333V5.342c1.305-.446 2.087-1.737 1.853-3.057S4.52 0 3.136 0 .57.965.336 2.285.884 4.895 2.189 5.342v5.11C.928 13.109.281 16 .295 18.924zm35.04-17.079c.523 0 .947.41.947.916s-.424.916-.947.916-.947-.41-.947-.916.424-.916.947-.916zm-32.199 0c.523 0 .947.41.947.916s-.424.916-.947.916-.947-.41-.947-.916.424-.916.947-.916zm17.993 32.993v1.833c0 1.012-.848 1.833-1.894 1.833s-1.894-.821-1.894-1.833v-1.833h3.788zm0 18.33h-3.788c-1.046 0-1.894-.821-1.894-1.833h7.576c0 1.012-.848 1.833-1.894 1.833zM39.238 39.28c-2.006-2.101-2.564-5.139-1.43-7.781s3.753-4.402 6.706-4.509l-3.061 5.614c-.732 1.343-.201 3.005 1.186 3.715l1.674.856c1.387.71 3.106.197 3.839-1.145l3.062-5.613c1.575 2.421 1.55 5.507-.064 7.903s-4.523 3.663-7.447 3.245c-.397-.054-.785.138-.974.479l-5.538 10.145c-.308.594-.923.98-1.609 1.01s-1.334-.302-1.695-.867a1.78 1.78 0 0 1-.045-1.855l5.537-10.149c.187-.343.131-.763-.141-1.048zm-4.157 4.998l-.885 1.622c-1.387-.601-2.652-1.437-3.736-2.467l.274-2.383a12.11 12.11 0 0 0 4.347 3.228zm-6.007-5.371l-.69 6.013h-6.307c-.523 0-.947.41-.947.916s.424.916.947.916h6.047c-.427 1.617-1.932 2.749-3.656 2.749H14.004c-1.725 0-3.23-1.132-3.656-2.749h6.047c.523 0 .947-.41.947-.916s-.424-.916-.947-.916h-6.307l-.69-6.01a3.59 3.59 0 0 1 .942-2.85c.718-.777 1.745-1.221 2.822-1.221h2.286v1.833c0 2.025 1.696 3.666 3.788 3.666s3.788-1.641 3.788-3.666v-1.833h2.286c1.078 0 2.104.444 2.822 1.221a3.59 3.59 0 0 1 .942 2.85v-.003h0zM19.235 1.844c9.718 0 17.047 7.343 17.047 17.079 0 9.343-5.735 14.081-17.046 14.081S2.189 28.267 2.189 18.924c0-9.737 7.328-17.079 17.046-17.079z"/><use xlink:href="#B"/><use xlink:href="#B" x="15.152"/><path d="M13.553 29.339h11.364c5.23 0 9.47-4.103 9.47-9.165s-4.24-9.165-9.47-9.165H13.553c-5.23 0-9.47 4.103-9.47 9.165s4.24 9.165 9.47 9.165zm0-16.496h11.364c4.184 0 7.576 3.283 7.576 7.332s-3.392 7.332-7.576 7.332H13.553c-4.184 0-7.576-3.283-7.576-7.332s3.392-7.332 7.576-7.332zm5.682 11.913a5.14 5.14 0 0 0 3.511-1.185.89.89 0 0 0 .006-1.283c-.363-.359-.956-.37-1.333-.026a3.36 3.36 0 0 1-2.183.662 3.36 3.36 0 0 1-2.178-.657.97.97 0 0 0-1.301.046c-.352.347-.363.9-.025 1.259.969.813 2.223 1.237 3.504 1.185zm-1.893-14.663h3.788c.523 0 .947-.41.947-.916s-.424-.916-.947-.916h-3.788c-.523 0-.947.41-.947.916s.424.916.947.916zm.946-2.75h1.894c.523 0 .947-.41.947-.916s-.424-.916-.947-.916h-1.894c-.523 0-.947.41-.947.916s.424.916.947.916z"/></g><defs ><path id="B" d="M11.659 22.007c1.569 0 2.841-1.231 2.841-2.749s-1.272-2.749-2.841-2.749-2.841 1.231-2.841 2.749 1.272 2.749 2.841 2.749zm0-3.666c.523 0 .947.41.947.916s-.424.916-.947.916-.947-.41-.947-.916.424-.916.947-.916z"/></defs></svg>
