<svg xmlns="http://www.w3.org/2000/svg" width="42" height="42" fill="#01ffa9" xmlns:v="https://vecta.io/nano"><path d="M10.35 2.625v.15h.15 21 .15v-.15-1.312c0-.642.52-1.162 1.163-1.162s1.163.52 1.163 1.163v1.313.15h.15 2.625a5.1 5.1 0 0 1 5.1 5.1V36.75a5.1 5.1 0 0 1-5.1 5.1H5.25a5.1 5.1 0 0 1-5.1-5.1V7.875a5.1 5.1 0 0 1 5.1-5.1h2.625.15v-.15-1.312C8.025.67 8.545.15 9.188.15s1.162.52 1.162 1.163v1.313zM2.475 10.5v.15h.15 36.75.15v-.15-2.625c0-1.533-1.242-2.775-2.775-2.775H5.25c-1.533 0-2.775 1.242-2.775 2.775V10.5zm37.05 2.625v-.15h-.15-36.75-.15v.15V36.75c0 1.533 1.242 2.775 2.775 2.775h31.5c1.533 0 2.775-1.242 2.775-2.775V13.125z" stroke="#0e0e0e" stroke-width=".3"/><path d="M23.625 21.375c0-.552.588-1 1.313-1h14.438v4H24.938c-.725 0-1.312-.448-1.312-1v-2zm-5.25 6v2c0 .552-.588 1-1.312 1H2.625v-4h14.438c.725 0 1.313.448 1.313 1z"/></svg>