<svg width="50" height="50" viewBox="0 0 50 50" fill="none" xmlns="http://www.w3.org/2000/svg">
<circle cx="25" cy="25" r="17" fill="#01FFA9"/>
<circle cx="25" cy="25" r="2" fill="white"/>
<mask id="path-3-outside-1_4450_46094" maskUnits="userSpaceOnUse" x="-0.0384521" y="-0.0390625" width="50" height="50" fill="black">
<rect fill="white" x="-0.0384521" y="-0.0390625" width="50" height="50"/>
<path d="M43.9088 10.1572H45.3942C45.9124 10.1572 46.3326 9.73701 46.3326 9.21883C46.3326 8.70066 45.9124 8.28045 45.3942 8.28045H41.8284C41.3102 8.28045 40.89 8.70066 40.89 9.21883V12.7847C40.89 13.3029 41.3102 13.7231 41.8284 13.7231C42.3466 13.7231 42.7668 13.3029 42.7668 12.7847V11.7522C45.614 15.564 47.1617 20.189 47.1617 24.9994C47.1617 37.2194 37.2201 47.1611 25 47.1611C12.78 47.1611 2.83832 37.2194 2.83832 24.9994C2.83832 12.7794 12.78 2.83771 25 2.83771C25.9038 2.83771 26.8133 2.89261 27.7037 3.0008C28.2175 3.06292 28.686 2.69705 28.7485 2.18253C28.8111 1.66811 28.4447 1.20023 27.9302 1.13773C26.965 1.02043 25.9792 0.960938 25 0.960938C18.5791 0.960938 12.5425 3.46136 8.00226 8.00165C3.46197 12.5418 0.961548 18.5785 0.961548 24.9994C0.961548 31.4203 3.46197 37.4569 8.00226 41.9971C12.5425 46.5374 18.5791 49.0379 25 49.0379C31.4209 49.0379 37.4576 46.5374 41.9978 41.9971C46.538 37.4569 49.0385 31.4203 49.0385 24.9994C49.0385 19.5811 47.2283 14.3794 43.9088 10.1572Z"/>
</mask>
<path d="M43.9088 10.1572H45.3942C45.9124 10.1572 46.3326 9.73701 46.3326 9.21883C46.3326 8.70066 45.9124 8.28045 45.3942 8.28045H41.8284C41.3102 8.28045 40.89 8.70066 40.89 9.21883V12.7847C40.89 13.3029 41.3102 13.7231 41.8284 13.7231C42.3466 13.7231 42.7668 13.3029 42.7668 12.7847V11.7522C45.614 15.564 47.1617 20.189 47.1617 24.9994C47.1617 37.2194 37.2201 47.1611 25 47.1611C12.78 47.1611 2.83832 37.2194 2.83832 24.9994C2.83832 12.7794 12.78 2.83771 25 2.83771C25.9038 2.83771 26.8133 2.89261 27.7037 3.0008C28.2175 3.06292 28.686 2.69705 28.7485 2.18253C28.8111 1.66811 28.4447 1.20023 27.9302 1.13773C26.965 1.02043 25.9792 0.960938 25 0.960938C18.5791 0.960938 12.5425 3.46136 8.00226 8.00165C3.46197 12.5418 0.961548 18.5785 0.961548 24.9994C0.961548 31.4203 3.46197 37.4569 8.00226 41.9971C12.5425 46.5374 18.5791 49.0379 25 49.0379C31.4209 49.0379 37.4576 46.5374 41.9978 41.9971C46.538 37.4569 49.0385 31.4203 49.0385 24.9994C49.0385 19.5811 47.2283 14.3794 43.9088 10.1572Z" fill="#0E0E0E"/>
<path d="M43.9088 10.1572H45.3942C45.9124 10.1572 46.3326 9.73701 46.3326 9.21883C46.3326 8.70066 45.9124 8.28045 45.3942 8.28045H41.8284C41.3102 8.28045 40.89 8.70066 40.89 9.21883V12.7847C40.89 13.3029 41.3102 13.7231 41.8284 13.7231C42.3466 13.7231 42.7668 13.3029 42.7668 12.7847V11.7522C45.614 15.564 47.1617 20.189 47.1617 24.9994C47.1617 37.2194 37.2201 47.1611 25 47.1611C12.78 47.1611 2.83832 37.2194 2.83832 24.9994C2.83832 12.7794 12.78 2.83771 25 2.83771C25.9038 2.83771 26.8133 2.89261 27.7037 3.0008C28.2175 3.06292 28.686 2.69705 28.7485 2.18253C28.8111 1.66811 28.4447 1.20023 27.9302 1.13773C26.965 1.02043 25.9792 0.960938 25 0.960938C18.5791 0.960938 12.5425 3.46136 8.00226 8.00165C3.46197 12.5418 0.961548 18.5785 0.961548 24.9994C0.961548 31.4203 3.46197 37.4569 8.00226 41.9971C12.5425 46.5374 18.5791 49.0379 25 49.0379C31.4209 49.0379 37.4576 46.5374 41.9978 41.9971C46.538 37.4569 49.0385 31.4203 49.0385 24.9994C49.0385 19.5811 47.2283 14.3794 43.9088 10.1572Z" stroke="#0E0E0E" stroke-width="0.6" mask="url(#path-3-outside-1_4450_46094)"/>
<mask id="path-4-outside-2_4450_46094" maskUnits="userSpaceOnUse" x="6.07776" y="6.07812" width="38" height="38" fill="black">
<rect fill="white" x="6.07776" y="6.07812" width="38" height="38"/>
<path d="M11.1404 15.1326C10.7024 14.8554 10.1228 14.9859 9.84548 15.4235C7.70324 18.807 6.7549 22.876 7.17521 26.8811C7.6017 30.9456 9.43109 34.7786 12.3264 37.674C15.8205 41.1681 20.4102 42.9151 25 42.9151C29.5899 42.9151 34.1795 41.1681 37.6737 37.674C44.662 30.6857 44.662 19.3149 37.6737 12.3267C34.7828 9.43595 30.9562 7.60722 26.8984 7.17744C22.9007 6.75376 18.8361 7.69468 15.454 9.82641C15.0155 10.1028 14.8842 10.6822 15.1605 11.1206C15.4369 11.5591 16.0163 11.6904 16.4547 11.4142C22.8299 7.39599 31.0096 8.31683 36.3465 13.6538C42.6031 19.9103 42.6031 30.0903 36.3465 36.3468C30.0901 42.6034 19.91 42.6034 13.6535 36.3468C8.39032 31.0836 7.45569 22.7063 11.4313 16.4276C11.7084 15.9896 11.5782 15.4099 11.1404 15.1326Z"/>
</mask>
<path d="M11.1404 15.1326C10.7024 14.8554 10.1228 14.9859 9.84548 15.4235C7.70324 18.807 6.7549 22.876 7.17521 26.8811C7.6017 30.9456 9.43109 34.7786 12.3264 37.674C15.8205 41.1681 20.4102 42.9151 25 42.9151C29.5899 42.9151 34.1795 41.1681 37.6737 37.674C44.662 30.6857 44.662 19.3149 37.6737 12.3267C34.7828 9.43595 30.9562 7.60722 26.8984 7.17744C22.9007 6.75376 18.8361 7.69468 15.454 9.82641C15.0155 10.1028 14.8842 10.6822 15.1605 11.1206C15.4369 11.5591 16.0163 11.6904 16.4547 11.4142C22.8299 7.39599 31.0096 8.31683 36.3465 13.6538C42.6031 19.9103 42.6031 30.0903 36.3465 36.3468C30.0901 42.6034 19.91 42.6034 13.6535 36.3468C8.39032 31.0836 7.45569 22.7063 11.4313 16.4276C11.7084 15.9896 11.5782 15.4099 11.1404 15.1326Z" fill="#0E0E0E"/>
<path d="M11.1404 15.1326C10.7024 14.8554 10.1228 14.9859 9.84548 15.4235C7.70324 18.807 6.7549 22.876 7.17521 26.8811C7.6017 30.9456 9.43109 34.7786 12.3264 37.674C15.8205 41.1681 20.4102 42.9151 25 42.9151C29.5899 42.9151 34.1795 41.1681 37.6737 37.674C44.662 30.6857 44.662 19.3149 37.6737 12.3267C34.7828 9.43595 30.9562 7.60722 26.8984 7.17744C22.9007 6.75376 18.8361 7.69468 15.454 9.82641C15.0155 10.1028 14.8842 10.6822 15.1605 11.1206C15.4369 11.5591 16.0163 11.6904 16.4547 11.4142C22.8299 7.39599 31.0096 8.31683 36.3465 13.6538C42.6031 19.9103 42.6031 30.0903 36.3465 36.3468C30.0901 42.6034 19.91 42.6034 13.6535 36.3468C8.39032 31.0836 7.45569 22.7063 11.4313 16.4276C11.7084 15.9896 11.5782 15.4099 11.1404 15.1326Z" stroke="#0E0E0E" stroke-width="0.6" mask="url(#path-4-outside-2_4450_46094)"/>
<mask id="path-5-outside-3_4450_46094" maskUnits="userSpaceOnUse" x="35.261" y="23.0762" width="5" height="4" fill="black">
<rect fill="white" x="35.261" y="23.0762" width="5" height="4"/>
<path d="M37.1994 25.9529H38.3566C38.8748 25.9529 39.295 25.5327 39.295 25.0146C39.295 24.4964 38.8748 24.0762 38.3566 24.0762H37.1994C36.6812 24.0762 36.261 24.4964 36.261 25.0146C36.261 25.5327 36.6811 25.9529 37.1994 25.9529Z"/>
</mask>
<path d="M37.1994 25.9529H38.3566C38.8748 25.9529 39.295 25.5327 39.295 25.0146C39.295 24.4964 38.8748 24.0762 38.3566 24.0762H37.1994C36.6812 24.0762 36.261 24.4964 36.261 25.0146C36.261 25.5327 36.6811 25.9529 37.1994 25.9529Z" fill="#0E0E0E"/>
<path d="M37.1994 25.9529H38.3566C38.8748 25.9529 39.295 25.5327 39.295 25.0146C39.295 24.4964 38.8748 24.0762 38.3566 24.0762H37.1994C36.6812 24.0762 36.261 24.4964 36.261 25.0146C36.261 25.5327 36.6811 25.9529 37.1994 25.9529Z" stroke="#0E0E0E" stroke-width="0.6" mask="url(#path-5-outside-3_4450_46094)"/>
<mask id="path-6-outside-4_4450_46094" maskUnits="userSpaceOnUse" x="9.70532" y="23.0469" width="5" height="4" fill="black">
<rect fill="white" x="9.70532" y="23.0469" width="5" height="4"/>
<path d="M10.7053 24.9853C10.7053 25.5034 11.1255 25.9236 11.6437 25.9236H12.8009C13.3191 25.9236 13.7393 25.5034 13.7393 24.9853C13.7393 24.4671 13.3191 24.0469 12.8009 24.0469H11.6437C11.1255 24.0469 10.7053 24.467 10.7053 24.9853Z"/>
</mask>
<path d="M10.7053 24.9853C10.7053 25.5034 11.1255 25.9236 11.6437 25.9236H12.8009C13.3191 25.9236 13.7393 25.5034 13.7393 24.9853C13.7393 24.4671 13.3191 24.0469 12.8009 24.0469H11.6437C11.1255 24.0469 10.7053 24.467 10.7053 24.9853Z" fill="#0E0E0E"/>
<path d="M10.7053 24.9853C10.7053 25.5034 11.1255 25.9236 11.6437 25.9236H12.8009C13.3191 25.9236 13.7393 25.5034 13.7393 24.9853C13.7393 24.4671 13.3191 24.0469 12.8009 24.0469H11.6437C11.1255 24.0469 10.7053 24.467 10.7053 24.9853Z" stroke="#0E0E0E" stroke-width="0.6" mask="url(#path-6-outside-4_4450_46094)"/>
<mask id="path-7-outside-5_4450_46094" maskUnits="userSpaceOnUse" x="23.077" y="9.70508" width="4" height="5" fill="black">
<rect fill="white" x="23.077" y="9.70508" width="4" height="5"/>
<path d="M25.9538 12.8007V11.6435C25.9538 11.1253 25.5336 10.7051 25.0154 10.7051C24.4972 10.7051 24.077 11.1253 24.077 11.6435V12.8007C24.077 13.3189 24.4972 13.7391 25.0154 13.7391C25.5336 13.7391 25.9538 13.3189 25.9538 12.8007Z"/>
</mask>
<path d="M25.9538 12.8007V11.6435C25.9538 11.1253 25.5336 10.7051 25.0154 10.7051C24.4972 10.7051 24.077 11.1253 24.077 11.6435V12.8007C24.077 13.3189 24.4972 13.7391 25.0154 13.7391C25.5336 13.7391 25.9538 13.3189 25.9538 12.8007Z" fill="#0E0E0E"/>
<path d="M25.9538 12.8007V11.6435C25.9538 11.1253 25.5336 10.7051 25.0154 10.7051C24.4972 10.7051 24.077 11.1253 24.077 11.6435V12.8007C24.077 13.3189 24.4972 13.7391 25.0154 13.7391C25.5336 13.7391 25.9538 13.3189 25.9538 12.8007Z" stroke="#0E0E0E" stroke-width="0.6" mask="url(#path-7-outside-5_4450_46094)"/>
<mask id="path-8-outside-6_4450_46094" maskUnits="userSpaceOnUse" x="23.0464" y="35.2598" width="4" height="5" fill="black">
<rect fill="white" x="23.0464" y="35.2598" width="4" height="5"/>
<path d="M24.0464 37.1982V38.3554C24.0464 38.8735 24.4666 39.2938 24.9848 39.2938C25.5029 39.2938 25.9232 38.8735 25.9232 38.3554V37.1982C25.9232 36.68 25.5029 36.2598 24.9848 36.2598C24.4666 36.2598 24.0464 36.6799 24.0464 37.1982Z"/>
</mask>
<path d="M24.0464 37.1982V38.3554C24.0464 38.8735 24.4666 39.2938 24.9848 39.2938C25.5029 39.2938 25.9232 38.8735 25.9232 38.3554V37.1982C25.9232 36.68 25.5029 36.2598 24.9848 36.2598C24.4666 36.2598 24.0464 36.6799 24.0464 37.1982Z" fill="#0E0E0E"/>
<path d="M24.0464 37.1982V38.3554C24.0464 38.8735 24.4666 39.2938 24.9848 39.2938C25.5029 39.2938 25.9232 38.8735 25.9232 38.3554V37.1982C25.9232 36.68 25.5029 36.2598 24.9848 36.2598C24.4666 36.2598 24.0464 36.6799 24.0464 37.1982Z" stroke="#0E0E0E" stroke-width="0.6" mask="url(#path-8-outside-6_4450_46094)"/>
<mask id="path-9-outside-7_4450_46094" maskUnits="userSpaceOnUse" x="17.6945" y="14.457" width="18" height="15" fill="black">
<rect fill="white" x="17.6945" y="14.457" width="18" height="15"/>
<path d="M20.2964 18.9685C19.9299 18.6021 19.3359 18.6021 18.9693 18.9685C18.6028 19.3349 18.6028 19.9291 18.9693 20.2956L22.1496 23.4759C21.9059 23.9301 21.7673 24.4487 21.7673 24.9992C21.7673 26.7818 23.2175 28.2319 25 28.2319C26.7826 28.2319 28.2328 26.7818 28.2328 24.9992C28.2328 24.4487 28.0941 23.9301 27.8505 23.4759L34.2674 17.059C34.6339 16.6925 34.6339 16.0983 34.2674 15.7318C33.9009 15.3654 33.3069 15.3654 32.9403 15.7318L26.5233 22.1488C26.0691 21.9051 25.5505 21.7665 25 21.7665C24.4496 21.7665 23.9309 21.9052 23.4767 22.1488L20.2964 18.9685ZM26.356 24.9992C26.356 25.7469 25.7477 26.3552 25 26.3552C24.2523 26.3552 23.644 25.7469 23.644 24.9992C23.644 24.2515 24.2523 23.6432 25 23.6432C25.7477 23.6432 26.356 24.2515 26.356 24.9992Z"/>
</mask>
<path d="M20.2964 18.9685C19.9299 18.6021 19.3359 18.6021 18.9693 18.9685C18.6028 19.3349 18.6028 19.9291 18.9693 20.2956L22.1496 23.4759C21.9059 23.9301 21.7673 24.4487 21.7673 24.9992C21.7673 26.7818 23.2175 28.2319 25 28.2319C26.7826 28.2319 28.2328 26.7818 28.2328 24.9992C28.2328 24.4487 28.0941 23.9301 27.8505 23.4759L34.2674 17.059C34.6339 16.6925 34.6339 16.0983 34.2674 15.7318C33.9009 15.3654 33.3069 15.3654 32.9403 15.7318L26.5233 22.1488C26.0691 21.9051 25.5505 21.7665 25 21.7665C24.4496 21.7665 23.9309 21.9052 23.4767 22.1488L20.2964 18.9685ZM26.356 24.9992C26.356 25.7469 25.7477 26.3552 25 26.3552C24.2523 26.3552 23.644 25.7469 23.644 24.9992C23.644 24.2515 24.2523 23.6432 25 23.6432C25.7477 23.6432 26.356 24.2515 26.356 24.9992Z" fill="#0E0E0E"/>
<path d="M20.2964 18.9685C19.9299 18.6021 19.3359 18.6021 18.9693 18.9685C18.6028 19.3349 18.6028 19.9291 18.9693 20.2956L22.1496 23.4759C21.9059 23.9301 21.7673 24.4487 21.7673 24.9992C21.7673 26.7818 23.2175 28.2319 25 28.2319C26.7826 28.2319 28.2328 26.7818 28.2328 24.9992C28.2328 24.4487 28.0941 23.9301 27.8505 23.4759L34.2674 17.059C34.6339 16.6925 34.6339 16.0983 34.2674 15.7318C33.9009 15.3654 33.3069 15.3654 32.9403 15.7318L26.5233 22.1488C26.0691 21.9051 25.5505 21.7665 25 21.7665C24.4496 21.7665 23.9309 21.9052 23.4767 22.1488L20.2964 18.9685ZM26.356 24.9992C26.356 25.7469 25.7477 26.3552 25 26.3552C24.2523 26.3552 23.644 25.7469 23.644 24.9992C23.644 24.2515 24.2523 23.6432 25 23.6432C25.7477 23.6432 26.356 24.2515 26.356 24.9992Z" stroke="#0E0E0E" stroke-width="0.6" mask="url(#path-9-outside-7_4450_46094)"/>
<mask id="path-10-outside-8_4450_46094" maskUnits="userSpaceOnUse" x="11.0511" y="11.0508" width="4" height="4" fill="black">
<rect fill="white" x="11.0511" y="11.0508" width="4" height="4"/>
<path d="M13.653 13.6526C13.8284 13.4781 13.9288 13.236 13.9288 12.9892C13.9288 12.7424 13.8284 12.5012 13.653 12.3257C13.4784 12.1513 13.2372 12.0508 12.9895 12.0508C12.7427 12.0508 12.5006 12.1512 12.3261 12.3257C12.1516 12.5003 12.0511 12.7424 12.0511 12.9892C12.0511 13.2369 12.1516 13.4781 12.3261 13.6526C12.5006 13.8271 12.7427 13.9276 12.9895 13.9276C13.2372 13.9276 13.4784 13.8271 13.653 13.6526Z"/>
</mask>
<path d="M13.653 13.6526C13.8284 13.4781 13.9288 13.236 13.9288 12.9892C13.9288 12.7424 13.8284 12.5012 13.653 12.3257C13.4784 12.1513 13.2372 12.0508 12.9895 12.0508C12.7427 12.0508 12.5006 12.1512 12.3261 12.3257C12.1516 12.5003 12.0511 12.7424 12.0511 12.9892C12.0511 13.2369 12.1516 13.4781 12.3261 13.6526C12.5006 13.8271 12.7427 13.9276 12.9895 13.9276C13.2372 13.9276 13.4784 13.8271 13.653 13.6526Z" fill="#0E0E0E"/>
<path d="M13.653 13.6526C13.8284 13.4781 13.9288 13.236 13.9288 12.9892C13.9288 12.7424 13.8284 12.5012 13.653 12.3257C13.4784 12.1513 13.2372 12.0508 12.9895 12.0508C12.7427 12.0508 12.5006 12.1512 12.3261 12.3257C12.1516 12.5003 12.0511 12.7424 12.0511 12.9892C12.0511 13.2369 12.1516 13.4781 12.3261 13.6526C12.5006 13.8271 12.7427 13.9276 12.9895 13.9276C13.2372 13.9276 13.4784 13.8271 13.653 13.6526Z" stroke="#0E0E0E" stroke-width="0.6" mask="url(#path-10-outside-8_4450_46094)"/>
<mask id="path-11-outside-9_4450_46094" maskUnits="userSpaceOnUse" x="29.5616" y="0.888672" width="4" height="4" fill="black">
<rect fill="white" x="29.5616" y="0.888672" width="4" height="4"/>
<path d="M31.5 3.76544C31.7479 3.76544 31.99 3.66588 32.1644 3.4905C32.3389 3.31596 32.4394 3.0747 32.4394 2.82706C32.4394 2.58026 32.339 2.33816 32.1644 2.16362C31.99 1.98917 31.7479 1.88867 31.5 1.88867C31.2532 1.88867 31.0111 1.98908 30.8367 2.16362C30.6621 2.33816 30.5616 2.58026 30.5616 2.82706C30.5616 3.07479 30.6621 3.31596 30.8367 3.4905C31.0111 3.66588 31.2532 3.76544 31.5 3.76544Z"/>
</mask>
<path d="M31.5 3.76544C31.7479 3.76544 31.99 3.66588 32.1644 3.4905C32.3389 3.31596 32.4394 3.0747 32.4394 2.82706C32.4394 2.58026 32.339 2.33816 32.1644 2.16362C31.99 1.98917 31.7479 1.88867 31.5 1.88867C31.2532 1.88867 31.0111 1.98908 30.8367 2.16362C30.6621 2.33816 30.5616 2.58026 30.5616 2.82706C30.5616 3.07479 30.6621 3.31596 30.8367 3.4905C31.0111 3.66588 31.2532 3.76544 31.5 3.76544Z" fill="#0E0E0E"/>
<path d="M31.5 3.76544C31.7479 3.76544 31.99 3.66588 32.1644 3.4905C32.3389 3.31596 32.4394 3.0747 32.4394 2.82706C32.4394 2.58026 32.339 2.33816 32.1644 2.16362C31.99 1.98917 31.7479 1.88867 31.5 1.88867C31.2532 1.88867 31.0111 1.98908 30.8367 2.16362C30.6621 2.33816 30.5616 2.58026 30.5616 2.82706C30.5616 3.07479 30.6621 3.31596 30.8367 3.4905C31.0111 3.66588 31.2532 3.76544 31.5 3.76544Z" stroke="#0E0E0E" stroke-width="0.6" mask="url(#path-11-outside-9_4450_46094)"/>
</svg>
