<svg xmlns="http://www.w3.org/2000/svg" width="50" height="50" fill="none" xmlns:v="https://vecta.io/nano"><mask id="A" maskUnits="userSpaceOnUse" x="0" y="16" width="34" height="34" fill="#000"><path fill="#fff" d="M0 16h34v34H0z"/><path d="M30.6 29h-.88c-.331.001-.627-.206-.741-.517l-.315-.754a.79.79 0 0 1 .16-.893l.627-.628c.931-.939.929-2.454-.004-3.391l-2.261-2.261c-.938-.933-2.454-.933-3.392 0l-.627.626a.79.79 0 0 1-.893.16l-.755-.32c-.312-.113-.52-.41-.519-.742v-.88a2.4 2.4 0 0 0-2.4-2.4h-3.2a2.4 2.4 0 0 0-2.4 2.4v.88c.001.331-.206.627-.517.741l-.754.315a.79.79 0 0 1-.893-.16l-.628-.627c-.938-.932-2.453-.932-3.391 0l-2.261 2.268c-.933.938-.933 2.454 0 3.392l.626.627a.79.79 0 0 1 .16.893l-.316.755c-.114.313-.413.519-.746.516H3.4A2.4 2.4 0 0 0 1 31.4v3.2A2.4 2.4 0 0 0 3.4 37h.88c.331-.001.627.206.741.517l.315.754a.79.79 0 0 1-.16.893l-.627.628c-.932.938-.932 2.453 0 3.391l2.261 2.261c.938.933 2.454.933 3.392 0l.627-.626a.79.79 0 0 1 .893-.16l.755.32c.314.112.524.409.523.742v.88a2.4 2.4 0 0 0 2.4 2.4h3.2a2.4 2.4 0 0 0 2.4-2.4v-.88c-.001-.331.206-.627.517-.741l.754-.315a.79.79 0 0 1 .893.16l.628.627c.939.931 2.454.929 3.391-.004l2.261-2.261c.933-.938.933-2.454 0-3.392l-.626-.627a.79.79 0 0 1-.16-.893l.32-.755c.113-.312.41-.52.742-.519h.88a2.4 2.4 0 0 0 2.4-2.4v-3.2a2.4 2.4 0 0 0-2.4-2.4zm.8 5.6a.8.8 0 0 1-.8.8h-.88a2.41 2.41 0 0 0-2.24 1.547l-.275.662c-.411.908-.22 1.976.48 2.685l.626.626a.8.8 0 0 1 .001 1.131l-2.261 2.261a.8.8 0 0 1-1.131 0l-.627-.626c-.709-.701-1.777-.892-2.685-.48l-.66.275c-.928.355-1.542 1.245-1.546 2.238v.88a.8.8 0 0 1-.8.8h-3.2a.8.8 0 0 1-.8-.8v-.88a2.41 2.41 0 0 0-1.547-2.24l-.662-.275a2.41 2.41 0 0 0-2.685.48l-.626.626a.8.8 0 0 1-1.131.001l-2.261-2.259a.8.8 0 0 1 0-1.131l.626-.627c.7-.709.891-1.777.48-2.685l-.275-.66c-.355-.929-1.244-1.544-2.238-1.549H3.4a.8.8 0 0 1-.8-.8v-3.2a.8.8 0 0 1 .8-.8h.88a2.41 2.41 0 0 0 2.24-1.547l.275-.662c.411-.908.22-1.976-.48-2.685l-.629-.626a.8.8 0 0 1-.001-1.131l2.261-2.261a.8.8 0 0 1 1.131 0l.627.626c.709.701 1.777.892 2.685.48l.66-.275c.929-.354 1.545-1.244 1.55-2.238v-.88a.8.8 0 0 1 .8-.8h3.2a.8.8 0 0 1 .8.8v.88a2.41 2.41 0 0 0 1.547 2.24l.662.275c.908.412 1.976.221 2.685-.48l.626-.626c.314-.31.818-.31 1.132 0l2.261 2.261a.8.8 0 0 1 0 1.131l-.626.627c-.7.709-.891 1.777-.48 2.685l.275.66c.355.928 1.245 1.542 2.238 1.546h.88a.8.8 0 0 1 .8.8v3.2z"/></mask><path d="M30.6 29h-.88c-.331.001-.627-.206-.741-.517l-.315-.754a.79.79 0 0 1 .16-.893l.627-.628c.931-.939.929-2.454-.004-3.391l-2.261-2.261c-.938-.933-2.454-.933-3.392 0l-.627.626a.79.79 0 0 1-.893.16l-.755-.32c-.312-.113-.52-.41-.519-.742v-.88a2.4 2.4 0 0 0-2.4-2.4h-3.2a2.4 2.4 0 0 0-2.4 2.4v.88c.001.331-.206.627-.517.741l-.754.315a.79.79 0 0 1-.893-.16l-.628-.627c-.938-.932-2.453-.932-3.391 0l-2.261 2.268c-.933.938-.933 2.454 0 3.392l.626.627a.79.79 0 0 1 .16.893l-.316.755c-.114.313-.413.519-.746.516H3.4A2.4 2.4 0 0 0 1 31.4v3.2A2.4 2.4 0 0 0 3.4 37h.88c.331-.001.627.206.741.517l.315.754a.79.79 0 0 1-.16.893l-.627.628c-.932.938-.932 2.453 0 3.391l2.261 2.261c.938.933 2.454.933 3.392 0l.627-.626a.79.79 0 0 1 .893-.16l.755.32c.314.112.524.409.523.742v.88a2.4 2.4 0 0 0 2.4 2.4h3.2a2.4 2.4 0 0 0 2.4-2.4v-.88c-.001-.331.206-.627.517-.741l.754-.315a.79.79 0 0 1 .893.16l.628.627c.939.931 2.454.929 3.391-.004l2.261-2.261c.933-.938.933-2.454 0-3.392l-.626-.627a.79.79 0 0 1-.16-.893l.32-.755c.113-.312.41-.52.742-.519h.88a2.4 2.4 0 0 0 2.4-2.4v-3.2a2.4 2.4 0 0 0-2.4-2.4zm.8 5.6a.8.8 0 0 1-.8.8h-.88a2.41 2.41 0 0 0-2.24 1.547l-.275.662c-.411.908-.22 1.976.48 2.685l.626.626a.8.8 0 0 1 .001 1.131l-2.261 2.261a.8.8 0 0 1-1.131 0l-.627-.626c-.709-.701-1.777-.892-2.685-.48l-.66.275c-.928.355-1.542 1.245-1.546 2.238v.88a.8.8 0 0 1-.8.8h-3.2a.8.8 0 0 1-.8-.8v-.88a2.41 2.41 0 0 0-1.547-2.24l-.662-.275a2.41 2.41 0 0 0-2.685.48l-.626.626a.8.8 0 0 1-1.131.001l-2.261-2.259a.8.8 0 0 1 0-1.131l.626-.627c.7-.709.891-1.777.48-2.685l-.275-.66c-.355-.929-1.244-1.544-2.238-1.549H3.4a.8.8 0 0 1-.8-.8v-3.2a.8.8 0 0 1 .8-.8h.88a2.41 2.41 0 0 0 2.24-1.547l.275-.662c.411-.908.22-1.976-.48-2.685l-.629-.626a.8.8 0 0 1-.001-1.131l2.261-2.261a.8.8 0 0 1 1.131 0l.627.626c.709.701 1.777.892 2.685.48l.66-.275c.929-.354 1.545-1.244 1.55-2.238v-.88a.8.8 0 0 1 .8-.8h3.2a.8.8 0 0 1 .8.8v.88a2.41 2.41 0 0 0 1.547 2.24l.662.275c.908.412 1.976.221 2.685-.48l.626-.626c.314-.31.818-.31 1.132 0l2.261 2.261a.8.8 0 0 1 0 1.131l-.626.627c-.7.709-.891 1.777-.48 2.685l.275.66c.355.928 1.245 1.542 2.238 1.546h.88a.8.8 0 0 1 .8.8v3.2z" fill="#0e0e0e"/><path d="M30.6 29h-.88c-.331.001-.627-.206-.741-.517l-.315-.754a.79.79 0 0 1 .16-.893l.627-.628c.931-.939.929-2.454-.004-3.391l-2.261-2.261c-.938-.933-2.454-.933-3.392 0l-.627.626a.79.79 0 0 1-.893.16l-.755-.32c-.312-.113-.52-.41-.519-.742v-.88a2.4 2.4 0 0 0-2.4-2.4h-3.2a2.4 2.4 0 0 0-2.4 2.4v.88c.001.331-.206.627-.517.741l-.754.315a.79.79 0 0 1-.893-.16l-.628-.627c-.938-.932-2.453-.932-3.391 0l-2.261 2.268c-.933.938-.933 2.454 0 3.392l.626.627a.79.79 0 0 1 .16.893l-.316.755c-.114.313-.413.519-.746.516H3.4A2.4 2.4 0 0 0 1 31.4v3.2A2.4 2.4 0 0 0 3.4 37h.88c.331-.001.627.206.741.517l.315.754a.79.79 0 0 1-.16.893l-.627.628c-.932.938-.932 2.453 0 3.391l2.261 2.261c.938.933 2.454.933 3.392 0l.627-.626a.79.79 0 0 1 .893-.16l.755.32c.314.112.524.409.523.742v.88a2.4 2.4 0 0 0 2.4 2.4h3.2a2.4 2.4 0 0 0 2.4-2.4v-.88c-.001-.331.206-.627.517-.741l.754-.315a.79.79 0 0 1 .893.16l.628.627c.939.931 2.454.929 3.391-.004l2.261-2.261c.933-.938.933-2.454 0-3.392l-.626-.627a.79.79 0 0 1-.16-.893l.32-.755c.113-.312.41-.52.742-.519h.88a2.4 2.4 0 0 0 2.4-2.4v-3.2a2.4 2.4 0 0 0-2.4-2.4zm.8 5.6a.8.8 0 0 1-.8.8h-.88a2.41 2.41 0 0 0-2.24 1.547l-.275.662c-.411.908-.22 1.976.48 2.685l.626.626a.8.8 0 0 1 .001 1.131l-2.261 2.261a.8.8 0 0 1-1.131 0l-.627-.626c-.709-.701-1.777-.892-2.685-.48l-.66.275c-.928.355-1.542 1.245-1.546 2.238v.88a.8.8 0 0 1-.8.8h-3.2a.8.8 0 0 1-.8-.8v-.88a2.41 2.41 0 0 0-1.547-2.24l-.662-.275a2.41 2.41 0 0 0-2.685.48l-.626.626a.8.8 0 0 1-1.131.001l-2.261-2.259a.8.8 0 0 1 0-1.131l.626-.627c.7-.709.891-1.777.48-2.685l-.275-.66c-.355-.929-1.244-1.544-2.238-1.549H3.4a.8.8 0 0 1-.8-.8v-3.2a.8.8 0 0 1 .8-.8h.88a2.41 2.41 0 0 0 2.24-1.547l.275-.662c.411-.908.22-1.976-.48-2.685l-.629-.626a.8.8 0 0 1-.001-1.131l2.261-2.261a.8.8 0 0 1 1.131 0l.627.626c.709.701 1.777.892 2.685.48l.66-.275c.929-.354 1.545-1.244 1.55-2.238v-.88a.8.8 0 0 1 .8-.8h3.2a.8.8 0 0 1 .8.8v.88a2.41 2.41 0 0 0 1.547 2.24l.662.275c.908.412 1.976.221 2.685-.48l.626-.626c.314-.31.818-.31 1.132 0l2.261 2.261a.8.8 0 0 1 0 1.131l-.626.627c-.7.709-.891 1.777-.48 2.685l.275.66c.355.928 1.245 1.542 2.238 1.546h.88a.8.8 0 0 1 .8.8v3.2z" stroke="#0e0e0e" stroke-width=".2" mask="url(#A)"/><mask id="B" maskUnits="userSpaceOnUse" x="8.796" y="24.801" width="16" height="16" fill="#000"><path fill="#fff" d="M8.796 24.801h16v16h-16z"/><path d="M24.184 32.681l-.045-.574-.098-.607-.1-.389-.151-.487-.122-.331c-.103-.256-.221-.506-.353-.749-.01-.018-.017-.038-.027-.057-.208-.37-.449-.722-.72-1.049l-.074-.084-.343-.378-.194-.188-.24-.218-.297-.245-.131-.098A7.15 7.15 0 0 0 17 25.801c-.08 0-.16.012-.24.015l-.514.032-.272.033c-.261.034-.52.083-.775.145-3.852.995-6.168 4.925-5.172 8.777.656 2.538 2.639 4.52 5.178 5.174.013 0 .026.004.04.007a7.63 7.63 0 0 0 .838.16c.186.023.373.028.56.037.125.006.24.025.37.025a7.19 7.19 0 0 0 .706-.039c.026 0 .051-.007.08-.01.194-.022.391-.05.592-.09.08-.015.154-.035.231-.053a7.55 7.55 0 0 0 .425-.11c.112-.034.221-.073.33-.111l.337-.123c.114-.043.209-.093.312-.141.134-.062.268-.122.4-.194h.005a9.47 9.47 0 0 0 2.05-1.481 2.52 2.52 0 0 0 .429-.525 8.54 8.54 0 0 0 1.205-3.288 6.87 6.87 0 0 0 .054-.466 7.88 7.88 0 0 0 .022-.433c0-.046.006-.089.006-.134.001-.113-.01-.217-.015-.326zm-1.594.524c0 .066-.006.133-.01.198-.014.194-.039.387-.072.582a5.61 5.61 0 0 1-2.811 3.92 6.26 6.26 0 0 1-.294.146l-.066.032a5.78 5.78 0 0 1-1.459.442l-.107.017c-.1.014-.198.026-.296.035a5.69 5.69 0 0 1-.39.02h-.167c-.189-.002-.378-.014-.566-.035l-.096-.011a5.92 5.92 0 0 1-.654-.123 5.6 5.6 0 0 1-.006-10.849v-.001c.46-.116.932-.175 1.406-.176a5.53 5.53 0 0 1 .684.046c.061.007.121.018.181.027.173.027.344.062.513.105l.165.042a5.65 5.65 0 0 1 1.22.514c.062.036.122.074.182.111.126.08.249.16.37.251.065.047.13.094.193.144a5.77 5.77 0 0 1 .45.4c.057.058.109.121.164.181.092.1.182.202.267.31.059.074.116.151.172.229.08.115.16.235.232.357l.121.199a5.49 5.49 0 0 1 .275.586c.032.08.059.16.088.24a5.51 5.51 0 0 1 .136.446c.02.08.042.151.059.229a5.64 5.64 0 0 1 .102.655c.005.058.005.118.009.176.011.184.014.369.007.554z"/></mask><path d="M24.184 32.681l-.045-.574-.098-.607-.1-.389-.151-.487-.122-.331c-.103-.256-.221-.506-.353-.749-.01-.018-.017-.038-.027-.057-.208-.37-.449-.722-.72-1.049l-.074-.084-.343-.378-.194-.188-.24-.218-.297-.245-.131-.098A7.15 7.15 0 0 0 17 25.801c-.08 0-.16.012-.24.015l-.514.032-.272.033c-.261.034-.52.083-.775.145-3.852.995-6.168 4.925-5.172 8.777.656 2.538 2.639 4.52 5.178 5.174.013 0 .026.004.04.007a7.63 7.63 0 0 0 .838.16c.186.023.373.028.56.037.125.006.24.025.37.025a7.19 7.19 0 0 0 .706-.039c.026 0 .051-.007.08-.01.194-.022.391-.05.592-.09.08-.015.154-.035.231-.053a7.55 7.55 0 0 0 .425-.11c.112-.034.221-.073.33-.111l.337-.123c.114-.043.209-.093.312-.141.134-.062.268-.122.4-.194h.005a9.47 9.47 0 0 0 2.05-1.481 2.52 2.52 0 0 0 .429-.525 8.54 8.54 0 0 0 1.205-3.288 6.87 6.87 0 0 0 .054-.466 7.88 7.88 0 0 0 .022-.433c0-.046.006-.089.006-.134.001-.113-.01-.217-.015-.326zm-1.594.524c0 .066-.006.133-.01.198-.014.194-.039.387-.072.582a5.61 5.61 0 0 1-2.811 3.92 6.26 6.26 0 0 1-.294.146l-.066.032a5.78 5.78 0 0 1-1.459.442l-.107.017c-.1.014-.198.026-.296.035a5.69 5.69 0 0 1-.39.02h-.167c-.189-.002-.378-.014-.566-.035l-.096-.011a5.92 5.92 0 0 1-.654-.123 5.6 5.6 0 0 1-.006-10.849v-.001c.46-.116.932-.175 1.406-.176a5.53 5.53 0 0 1 .684.046c.061.007.121.018.181.027.173.027.344.062.513.105l.165.042a5.65 5.65 0 0 1 1.22.514c.062.036.122.074.182.111.126.08.249.16.37.251.065.047.13.094.193.144a5.77 5.77 0 0 1 .45.4c.057.058.109.121.164.181.092.1.182.202.267.31.059.074.116.151.172.229.08.115.16.235.232.357l.121.199a5.49 5.49 0 0 1 .275.586c.032.08.059.16.088.24a5.51 5.51 0 0 1 .136.446c.02.08.042.151.059.229a5.64 5.64 0 0 1 .102.655c.005.058.005.118.009.176.011.184.014.369.007.554z" fill="#0e0e0e"/><path d="M24.184 32.681l-.045-.574-.098-.607-.1-.389-.151-.487-.122-.331c-.103-.256-.221-.506-.353-.749-.01-.018-.017-.038-.027-.057-.208-.37-.449-.722-.72-1.049l-.074-.084-.343-.378-.194-.188-.24-.218-.297-.245-.131-.098A7.15 7.15 0 0 0 17 25.801c-.08 0-.16.012-.24.015l-.514.032-.272.033c-.261.034-.52.083-.775.145-3.852.995-6.168 4.925-5.172 8.777.656 2.538 2.639 4.52 5.178 5.174.013 0 .026.004.04.007a7.63 7.63 0 0 0 .838.16c.186.023.373.028.56.037.125.006.24.025.37.025a7.19 7.19 0 0 0 .706-.039c.026 0 .051-.007.08-.01.194-.022.391-.05.592-.09.08-.015.154-.035.231-.053a7.55 7.55 0 0 0 .425-.11c.112-.034.221-.073.33-.111l.337-.123c.114-.043.209-.093.312-.141.134-.062.268-.122.4-.194h.005a9.47 9.47 0 0 0 2.05-1.481 2.52 2.52 0 0 0 .429-.525 8.54 8.54 0 0 0 1.205-3.288 6.87 6.87 0 0 0 .054-.466 7.88 7.88 0 0 0 .022-.433c0-.046.006-.089.006-.134.001-.113-.01-.217-.015-.326zm-1.594.524c0 .066-.006.133-.01.198-.014.194-.039.387-.072.582a5.61 5.61 0 0 1-2.811 3.92 6.26 6.26 0 0 1-.294.146l-.066.032a5.78 5.78 0 0 1-1.459.442l-.107.017c-.1.014-.198.026-.296.035a5.69 5.69 0 0 1-.39.02h-.167c-.189-.002-.378-.014-.566-.035l-.096-.011a5.92 5.92 0 0 1-.654-.123 5.6 5.6 0 0 1-.006-10.849v-.001c.46-.116.932-.175 1.406-.176a5.53 5.53 0 0 1 .684.046c.061.007.121.018.181.027.173.027.344.062.513.105l.165.042a5.65 5.65 0 0 1 1.22.514c.062.036.122.074.182.111.126.08.249.16.37.251.065.047.13.094.193.144a5.77 5.77 0 0 1 .45.4c.057.058.109.121.164.181.092.1.182.202.267.31.059.074.116.151.172.229.08.115.16.235.232.357l.121.199a5.49 5.49 0 0 1 .275.586c.032.08.059.16.088.24a5.51 5.51 0 0 1 .136.446c.02.08.042.151.059.229a5.64 5.64 0 0 1 .102.655c.005.058.005.118.009.176.011.184.014.369.007.554z" stroke="#0e0e0e" stroke-width=".2" mask="url(#B)"/><mask id="C" maskUnits="userSpaceOnUse" x="8.727" y="0" width="41" height="41" fill="#000"><path fill="#fff" d="M8.727 0h41v41h-41z"/><path d="M46.6 17.8h-2.516a.78.78 0 0 1-.746-.525 16.66 16.66 0 0 0-.898-2.169c-.149-.303-.087-.667.154-.903l1.784-1.786a2.4 2.4 0 0 0 0-3.393l-3.402-3.396a2.4 2.4 0 0 0-3.393 0L35.8 7.41c-.236.24-.6.302-.902.154a16.62 16.62 0 0 0-2.17-.903.78.78 0 0 1-.528-.746V3.4A2.4 2.4 0 0 0 29.8 1H25a2.4 2.4 0 0 0-2.4 2.4v2.516a.78.78 0 0 1-.525.746 16.67 16.67 0 0 0-2.169.902.78.78 0 0 1-.903-.154l-1.786-1.784c-.938-.934-2.455-.934-3.393 0l-3.395 3.395a2.4 2.4 0 0 0 0 3.394l2.623 2.628a.8.8 0 0 0 1.133-1.13l-2.625-2.627a.8.8 0 0 1 0-1.131l3.395-3.395a.8.8 0 0 1 1.131 0l1.787 1.784a2.38 2.38 0 0 0 2.749.451c.634-.317 1.289-.59 1.961-.815A2.38 2.38 0 0 0 24.2 5.916V3.4a.8.8 0 0 1 .8-.8h4.8a.8.8 0 0 1 .8.8v2.516a2.38 2.38 0 0 0 1.617 2.263 15.09 15.09 0 0 1 1.962.816c.918.456 2.024.274 2.748-.452l1.787-1.783a.8.8 0 0 1 1.131 0l3.395 3.396a.8.8 0 0 1 0 1.13l-1.784 1.787a2.38 2.38 0 0 0-.451 2.749c.317.634.59 1.289.815 1.961a2.38 2.38 0 0 0 2.264 1.617H46.6a.8.8 0 0 1 .8.8V25a.8.8 0 0 1-.8.8h-2.516a2.38 2.38 0 0 0-2.263 1.617c-.225.672-.498 1.328-.816 1.962a2.38 2.38 0 0 0 .452 2.748l1.784 1.787a.8.8 0 0 1 0 1.131l-3.397 3.395a.8.8 0 0 1-1.13 0l-2.629-2.623a.8.8 0 0 0-1.149 1.113l.02.02 2.628 2.623a2.4 2.4 0 0 0 3.393 0l3.395-3.394a2.4 2.4 0 0 0 0-3.394L42.59 31c-.24-.236-.302-.6-.154-.902a16.62 16.62 0 0 0 .903-2.17.78.78 0 0 1 .746-.528H46.6A2.4 2.4 0 0 0 49 25v-4.8a2.4 2.4 0 0 0-2.4-2.4z"/></mask><path d="M46.6 17.8h-2.516a.78.78 0 0 1-.746-.525 16.66 16.66 0 0 0-.898-2.169c-.149-.303-.087-.667.154-.903l1.784-1.786a2.4 2.4 0 0 0 0-3.393l-3.402-3.396a2.4 2.4 0 0 0-3.393 0L35.8 7.41c-.236.24-.6.302-.902.154a16.62 16.62 0 0 0-2.17-.903.78.78 0 0 1-.528-.746V3.4A2.4 2.4 0 0 0 29.8 1H25a2.4 2.4 0 0 0-2.4 2.4v2.516a.78.78 0 0 1-.525.746 16.67 16.67 0 0 0-2.169.902.78.78 0 0 1-.903-.154l-1.786-1.784c-.938-.934-2.455-.934-3.393 0l-3.395 3.395a2.4 2.4 0 0 0 0 3.394l2.623 2.628a.8.8 0 0 0 1.133-1.13l-2.625-2.627a.8.8 0 0 1 0-1.131l3.395-3.395a.8.8 0 0 1 1.131 0l1.787 1.784a2.38 2.38 0 0 0 2.749.451c.634-.317 1.289-.59 1.961-.815A2.38 2.38 0 0 0 24.2 5.916V3.4a.8.8 0 0 1 .8-.8h4.8a.8.8 0 0 1 .8.8v2.516a2.38 2.38 0 0 0 1.617 2.263 15.09 15.09 0 0 1 1.962.816c.918.456 2.024.274 2.748-.452l1.787-1.783a.8.8 0 0 1 1.131 0l3.395 3.396a.8.8 0 0 1 0 1.13l-1.784 1.787a2.38 2.38 0 0 0-.451 2.749c.317.634.59 1.289.815 1.961a2.38 2.38 0 0 0 2.264 1.617H46.6a.8.8 0 0 1 .8.8V25a.8.8 0 0 1-.8.8h-2.516a2.38 2.38 0 0 0-2.263 1.617c-.225.672-.498 1.328-.816 1.962a2.38 2.38 0 0 0 .452 2.748l1.784 1.787a.8.8 0 0 1 0 1.131l-3.397 3.395a.8.8 0 0 1-1.13 0l-2.629-2.623a.8.8 0 0 0-1.149 1.113l.02.02 2.628 2.623a2.4 2.4 0 0 0 3.393 0l3.395-3.394a2.4 2.4 0 0 0 0-3.394L42.59 31c-.24-.236-.302-.6-.154-.902a16.62 16.62 0 0 0 .903-2.17.78.78 0 0 1 .746-.528H46.6A2.4 2.4 0 0 0 49 25v-4.8a2.4 2.4 0 0 0-2.4-2.4z" fill="#0e0e0e"/><path d="M46.6 17.8h-2.516a.78.78 0 0 1-.746-.525 16.66 16.66 0 0 0-.898-2.169c-.149-.303-.087-.667.154-.903l1.784-1.786a2.4 2.4 0 0 0 0-3.393l-3.402-3.396a2.4 2.4 0 0 0-3.393 0L35.8 7.41c-.236.24-.6.302-.902.154a16.62 16.62 0 0 0-2.17-.903.78.78 0 0 1-.528-.746V3.4A2.4 2.4 0 0 0 29.8 1H25a2.4 2.4 0 0 0-2.4 2.4v2.516a.78.78 0 0 1-.525.746 16.67 16.67 0 0 0-2.169.902.78.78 0 0 1-.903-.154l-1.786-1.784c-.938-.934-2.455-.934-3.393 0l-3.395 3.395a2.4 2.4 0 0 0 0 3.394l2.623 2.628a.8.8 0 0 0 1.133-1.13l-2.625-2.627a.8.8 0 0 1 0-1.131l3.395-3.395a.8.8 0 0 1 1.131 0l1.787 1.784a2.38 2.38 0 0 0 2.749.451c.634-.317 1.289-.59 1.961-.815A2.38 2.38 0 0 0 24.2 5.916V3.4a.8.8 0 0 1 .8-.8h4.8a.8.8 0 0 1 .8.8v2.516a2.38 2.38 0 0 0 1.617 2.263 15.09 15.09 0 0 1 1.962.816c.918.456 2.024.274 2.748-.452l1.787-1.783a.8.8 0 0 1 1.131 0l3.395 3.396a.8.8 0 0 1 0 1.13l-1.784 1.787a2.38 2.38 0 0 0-.451 2.749c.317.634.59 1.289.815 1.961a2.38 2.38 0 0 0 2.264 1.617H46.6a.8.8 0 0 1 .8.8V25a.8.8 0 0 1-.8.8h-2.516a2.38 2.38 0 0 0-2.263 1.617c-.225.672-.498 1.328-.816 1.962a2.38 2.38 0 0 0 .452 2.748l1.784 1.787a.8.8 0 0 1 0 1.131l-3.397 3.395a.8.8 0 0 1-1.13 0l-2.629-2.623a.8.8 0 0 0-1.149 1.113l.02.02 2.628 2.623a2.4 2.4 0 0 0 3.393 0l3.395-3.394a2.4 2.4 0 0 0 0-3.394L42.59 31c-.24-.236-.302-.6-.154-.902a16.62 16.62 0 0 0 .903-2.17.78.78 0 0 1 .746-.528H46.6A2.4 2.4 0 0 0 49 25v-4.8a2.4 2.4 0 0 0-2.4-2.4z" stroke="#0e0e0e" stroke-width=".2" mask="url(#C)"/><mask id="D" maskUnits="userSpaceOnUse" x="18.822" y="11.205" width="20" height="20" fill="#000"><path fill="#fff" d="M18.822 11.205h20v20h-20z"/><path d="M34.754 15.247c-4.064-4.055-10.643-4.055-14.707 0a.8.8 0 0 0 1.131 1.131 8.8 8.8 0 1 1 12.528 12.361l-.083.083a.8.8 0 1 0 1.112 1.151l.02-.02c4.055-4.064 4.055-10.643 0-14.707z"/></mask><path d="M34.754 15.247c-4.064-4.055-10.643-4.055-14.707 0a.8.8 0 0 0 1.131 1.131 8.8 8.8 0 1 1 12.528 12.361l-.083.083a.8.8 0 1 0 1.112 1.151l.02-.02c4.055-4.064 4.055-10.643 0-14.707z" fill="#0e0e0e"/><path d="M34.754 15.247c-4.064-4.055-10.643-4.055-14.707 0a.8.8 0 0 0 1.131 1.131 8.8 8.8 0 1 1 12.528 12.361l-.083.083a.8.8 0 1 0 1.112 1.151l.02-.02c4.055-4.064 4.055-10.643 0-14.707z" stroke="#0e0e0e" stroke-width=".2" mask="url(#D)"/></svg>