<svg width="42" height="42" viewBox="0 0 42 42" fill="none" xmlns="http://www.w3.org/2000/svg">
<path d="M5.25 8.75H36.75L24.9375 24.9375V36.3125L18.375 41.5625L17.0625 39.8125V24.9375L5.25 8.75Z" fill="#01FFA9"/>
<path d="M41.8079 1.10394C41.4885 0.401434 40.8497 0 40.1652 0H1.83481C1.15034 0 0.511497 0.451613 0.192077 1.10394C-0.127343 1.80645 -0.03608 2.60932 0.374603 3.21147L16.4825 25.491V39.9928C16.4825 40.7455 16.8475 41.3979 17.4408 41.7491C17.7145 41.8996 17.9883 42 18.3077 42C18.6728 42 19.0379 41.8996 19.3573 41.6487L24.4224 37.7849C25.1525 37.1828 25.5631 36.2796 25.5631 35.3262V25.4409L41.6254 3.21147C42.0361 2.60932 42.1273 1.80645 41.8079 1.10394ZM23.9204 24.4875C23.8291 24.638 23.7379 24.8387 23.7379 25.0896V35.276C23.7379 35.6272 23.601 35.9283 23.3728 36.129L18.3077 39.9928V25.0896C18.3077 24.7383 18.1709 24.4373 17.9427 24.2867L7.63 10.0358H24.1942C24.6961 10.0358 25.1068 9.58423 25.1068 9.03226C25.1068 8.48029 24.6961 8.02867 24.1942 8.02867H6.39795C6.35232 8.02867 6.26105 8.02867 6.21542 8.02867L1.83481 2.00717H40.1652L23.9204 24.4875Z" fill="#0E0E0E"/>
</svg>
