<svg xmlns="http://www.w3.org/2000/svg" width="40" height="42" fill="none" xmlns:v="https://vecta.io/nano"><path d="M32.222 28.225c-2.194 0-4.15 1.032-5.412 2.635l-12.64-7.298c.319-.793.496-1.657.496-2.562a6.85 6.85 0 0 0-.496-2.562l12.64-7.298c1.262 1.603 3.218 2.635 5.412 2.635a6.9 6.9 0 0 0 6.887-6.888A6.9 6.9 0 0 0 32.222 0a6.9 6.9 0 0 0-6.887 6.887 6.85 6.85 0 0 0 .496 2.563l-12.64 7.298c-1.262-1.603-3.218-2.635-5.412-2.635A6.9 6.9 0 0 0 .891 21a6.9 6.9 0 0 0 6.887 6.887c2.194 0 4.15-1.032 5.412-2.636l12.64 7.298a6.85 6.85 0 0 0-.496 2.563A6.9 6.9 0 0 0 32.222 42a6.9 6.9 0 0 0 6.887-6.887 6.9 6.9 0 0 0-6.887-6.888zm0-26.272a4.94 4.94 0 0 1 4.935 4.934 4.94 4.94 0 0 1-4.934 4.935 4.94 4.94 0 0 1-4.935-4.935 4.94 4.94 0 0 1 4.935-4.934zM7.778 25.935A4.94 4.94 0 0 1 2.844 21a4.94 4.94 0 0 1 4.935-4.935A4.94 4.94 0 0 1 12.713 21a4.94 4.94 0 0 1-4.935 4.935zm24.444 14.112a4.94 4.94 0 0 1-4.935-4.934 4.94 4.94 0 0 1 4.935-4.935 4.94 4.94 0 0 1 4.935 4.935 4.94 4.94 0 0 1-4.934 4.934z" fill="#01ffa9"/></svg>