<svg xmlns="http://www.w3.org/2000/svg" width="42" height="42" fill="none" xmlns:v="https://vecta.io/nano"><g fill="#01ffa9"><circle cx="8.5" cy="20.5" r="5.5"/><circle cx="33.5" cy="6.5" r="5.5"/><circle cx="33.5" cy="34.5" r="5.5"/></g><path d="M33.222 28.225c-2.194 0-4.15 1.032-5.412 2.635l-12.64-7.298a6.85 6.85 0 0 0 0-5.124l12.64-7.298c1.262 1.603 3.218 2.635 5.412 2.635a6.9 6.9 0 0 0 6.887-6.888A6.9 6.9 0 0 0 33.222 0a6.9 6.9 0 0 0-6.887 6.887 6.85 6.85 0 0 0 .496 2.563l-12.64 7.298c-1.262-1.603-3.218-2.635-5.412-2.635A6.9 6.9 0 0 0 1.891 21a6.9 6.9 0 0 0 6.887 6.887c2.194 0 4.15-1.032 5.412-2.636l12.64 7.298a6.85 6.85 0 0 0-.496 2.563A6.9 6.9 0 0 0 33.222 42a6.9 6.9 0 0 0 6.887-6.887 6.9 6.9 0 0 0-6.887-6.888zm0-26.272a4.94 4.94 0 0 1 4.935 4.934 4.94 4.94 0 0 1-4.934 4.935 4.94 4.94 0 0 1-4.935-4.935 4.94 4.94 0 0 1 4.935-4.934zM8.778 25.935A4.94 4.94 0 0 1 3.844 21a4.94 4.94 0 0 1 4.935-4.935A4.94 4.94 0 0 1 13.713 21a4.94 4.94 0 0 1-4.935 4.935zm24.444 14.112a4.94 4.94 0 0 1-4.935-4.934 4.94 4.94 0 0 1 4.935-4.935 4.94 4.94 0 0 1 4.935 4.935 4.94 4.94 0 0 1-4.934 4.934zM8.778 18.098a2.91 2.91 0 0 0-2.903 2.903c0 .539.437.976.976.976s.977-.437.977-.976a.95.95 0 0 1 .95-.95c.539 0 .977-.437.977-.976s-.437-.977-.977-.977z" fill="#0e0e0e"/></svg>