<svg xmlns="http://www.w3.org/2000/svg" width="37" height="37" fill="none" xmlns:v="https://vecta.io/nano"><g clip-path="url(#A)"><g fill="#01ffa9"><path d="M29 14h6v21h-6zm-14 8h6v13h-6zM2 27h6v8H2z"/></g><g fill="#0e0e0e"><path d="M21.903 21.594h-6.802a1.03 1.03 0 0 0-1.031 1.031V35.97a1.03 1.03 0 0 0 1.031 1.031h6.802a1.03 1.03 0 0 0 1.031-1.031V22.624a1.03 1.03 0 0 0-1.031-1.03zm-1.03 13.346h-4.741V23.655h4.741V34.94zm14.53-21.436H28.55a1.03 1.03 0 0 0-1.031 1.031V35.97a1.03 1.03 0 0 0 1.031 1.031h6.853a1.03 1.03 0 0 0 1.031-1.031V14.535a1.03 1.03 0 0 0-1.031-1.031zm-1.03 21.436h-4.792V15.565h4.792V34.94zM8.454 26.592H1.601a1.03 1.03 0 0 0-1.031 1.03v8.348a1.03 1.03 0 0 0 1.031 1.031h6.853a1.03 1.03 0 0 0 1.031-1.031v-8.348a1.03 1.03 0 0 0-1.031-1.031zM7.423 34.94H2.631v-6.286h4.792v6.286zM36.537 1.034c-.157-.216-.403-.349-.67-.361l-9.378-.67c-.569-.043-1.065.384-1.108.953s.384 1.065.953 1.108l6.637.451-12.202 9.546-9.327-7.317a1.03 1.03 0 0 0-1.34.051L.519 13.967a1.03 1.03 0 0 0-.051 1.443.93.93 0 0 0 .773.361 1.03 1.03 0 0 0 .721-.309l8.914-8.554 9.224 7.265a1.03 1.03 0 0 0 1.288 0L34.579 3.908l-.515 6.401a1.08 1.08 0 0 0 .979 1.082h.052a1.03 1.03 0 0 0 1.03-.927l.67-8.708a.82.82 0 0 0-.258-.721z"/></g></g><defs><clipPath id="A"><path fill="#fff" d="M0 0h37v37H0z"/></clipPath></defs></svg>