<svg xmlns="http://www.w3.org/2000/svg" width="44" height="44" fill="none" xmlns:v="https://vecta.io/nano"><style><![CDATA[.B{fill:#0e0e0e}.C{stroke:#0e0e0e}.D{stroke-width:.2}]]></style><path fill="#e5e5e5" d="M0 0h44v44H0z"/><path fill="#fafafa" stroke="#d0d0d0" stroke-width=".5" d="M-17.75-15.75h236.5v76.5h-236.5z"/><rect x="5" y="16" width="34" height="20" rx="10" fill="#01ffa9"/><mask id="A" maskUnits="userSpaceOnUse" x="2.806" y="14.707" width="38" height="23" fill="#000"><path fill="#fff" d="M2.806 14.707h38v23h-38z"/><path d="M14.303 15.707A10.5 10.5 0 0 0 3.806 26.204a10.5 10.5 0 0 0 10.497 10.497h15.396a10.5 10.5 0 0 0 10.497-10.497 10.5 10.5 0 0 0-10.497-10.497H14.303zm24.493 10.497a9.11 9.11 0 0 1-9.097 9.097H14.303a9.1 9.1 0 0 1-9.097-9.097 9.1 9.1 0 0 1 9.097-9.097h15.396a9.11 9.11 0 0 1 9.097 9.098z"/></mask><path d="M14.303 15.707A10.5 10.5 0 0 0 3.806 26.204a10.5 10.5 0 0 0 10.497 10.497h15.396a10.5 10.5 0 0 0 10.497-10.497 10.5 10.5 0 0 0-10.497-10.497H14.303zm24.493 10.497a9.11 9.11 0 0 1-9.097 9.097H14.303a9.1 9.1 0 0 1-9.097-9.097 9.1 9.1 0 0 1 9.097-9.097h15.396a9.11 9.11 0 0 1 9.097 9.098z" class="B"/><path d="M14.303 15.707A10.5 10.5 0 0 0 3.806 26.204a10.5 10.5 0 0 0 10.497 10.497h15.396a10.5 10.5 0 0 0 10.497-10.497 10.5 10.5 0 0 0-10.497-10.497H14.303zm24.493 10.497a9.11 9.11 0 0 1-9.097 9.097H14.303a9.1 9.1 0 0 1-9.097-9.097 9.1 9.1 0 0 1 9.097-9.097h15.396a9.11 9.11 0 0 1 9.097 9.098z" mask="url(#A)" class="C D"/><mask id="B" maskUnits="userSpaceOnUse" x="18.201" y="11.908" width="7" height="3" fill="#000"><path fill="#fff" d="M18.201 11.908h7v3h-7z"/><path d="M19.901 14.308H24.1a.7.7 0 0 0 .7-.7.7.7 0 0 0-.7-.7h-4.199a.7.7 0 0 0-.7.7.7.7 0 0 0 .7.7z"/></mask><path d="M19.901 14.308H24.1a.7.7 0 0 0 .7-.7.7.7 0 0 0-.7-.7h-4.199a.7.7 0 0 0-.7.7.7.7 0 0 0 .7.7z" class="B"/><path d="M19.901 14.308H24.1a.7.7 0 0 0 .7-.7.7.7 0 0 0-.7-.7h-4.199a.7.7 0 0 0-.7.7.7.7 0 0 0 .7.7z" mask="url(#B)" class="C D"/><mask id="C" maskUnits="userSpaceOnUse" x="19.601" y="9.809" width="4" height="3" fill="#000"><path fill="#fff" d="M19.601 9.809h4v3h-4z"/><path d="M21.3 12.208h1.4a.7.7 0 0 0 .7-.7.7.7 0 0 0-.7-.7h-1.4a.7.7 0 0 0-.7.7.7.7 0 0 0 .7.7z"/></mask><path d="M21.3 12.208h1.4a.7.7 0 0 0 .7-.7.7.7 0 0 0-.7-.7h-1.4a.7.7 0 0 0-.7.7.7.7 0 0 0 .7.7z" class="B"/><path d="M21.3 12.208h1.4a.7.7 0 0 0 .7-.7.7.7 0 0 0-.7-.7h-1.4a.7.7 0 0 0-.7.7.7.7 0 0 0 .7.7z" mask="url(#C)" class="C D"/><mask id="D" maskUnits="userSpaceOnUse" x=".005" y="0" width="44" height="44" fill="#000"><path fill="#fff" d="M.005 0h44v44h-44z"/><path d="M38.797 5.082a2.1 2.1 0 0 0-.7-4.079 2.1 2.1 0 0 0-.7 4.079v2.939c-3.85-4.488-9.483-7.052-15.396-7.009A20.09 20.09 0 0 0 6.606 8.018V5.079A2.1 2.1 0 0 0 5.906 1a2.1 2.1 0 0 0-.7 4.079v4.736a24.45 24.45 0 0 0-4.199 14.036C1.007 36.378 8.267 43 22.001 43s20.994-6.622 20.994-19.149a24.45 24.45 0 0 0-4.199-14.033V5.082zm-.7-2.67a.7.7 0 0 1 .7.7.7.7 0 0 1-.7.7.7.7 0 0 1-.7-.7.7.7 0 0 1 .7-.7zm-32.191 0a.7.7 0 0 1 .7.7.7.7 0 0 1-.7.7.7.7 0 0 1-.7-.7.7.7 0 0 1 .7-.7zM22.001 41.6c-8.939 0-19.595-3.079-19.595-17.749 0-12.223 8.424-21.44 19.595-21.44s19.595 9.217 19.595 21.44c0 14.67-10.656 17.749-19.595 17.749z"/></mask><path d="M38.797 5.082a2.1 2.1 0 0 0-.7-4.079 2.1 2.1 0 0 0-.7 4.079v2.939c-3.85-4.488-9.483-7.052-15.396-7.009A20.09 20.09 0 0 0 6.606 8.018V5.079A2.1 2.1 0 0 0 5.906 1a2.1 2.1 0 0 0-.7 4.079v4.736a24.45 24.45 0 0 0-4.199 14.036C1.007 36.378 8.267 43 22.001 43s20.994-6.622 20.994-19.149a24.45 24.45 0 0 0-4.199-14.033V5.082zm-.7-2.67a.7.7 0 0 1 .7.7.7.7 0 0 1-.7.7.7.7 0 0 1-.7-.7.7.7 0 0 1 .7-.7zm-32.191 0a.7.7 0 0 1 .7.7.7.7 0 0 1-.7.7.7.7 0 0 1-.7-.7.7.7 0 0 1 .7-.7zM22.001 41.6c-8.939 0-19.595-3.079-19.595-17.749 0-12.223 8.424-21.44 19.595-21.44s19.595 9.217 19.595 21.44c0 14.67-10.656 17.749-19.595 17.749z" class="B"/><path d="M38.797 5.082a2.1 2.1 0 0 0-.7-4.079 2.1 2.1 0 0 0-.7 4.079v2.939c-3.85-4.488-9.483-7.052-15.396-7.009A20.09 20.09 0 0 0 6.606 8.018V5.079A2.1 2.1 0 0 0 5.906 1a2.1 2.1 0 0 0-.7 4.079v4.736a24.45 24.45 0 0 0-4.199 14.036C1.007 36.378 8.267 43 22.001 43s20.994-6.622 20.994-19.149a24.45 24.45 0 0 0-4.199-14.033V5.082zm-.7-2.67a.7.7 0 0 1 .7.7.7.7 0 0 1-.7.7.7.7 0 0 1-.7-.7.7.7 0 0 1 .7-.7zm-32.191 0a.7.7 0 0 1 .7.7.7.7 0 0 1-.7.7.7.7 0 0 1-.7-.7.7.7 0 0 1 .7-.7zM22.001 41.6c-8.939 0-19.595-3.079-19.595-17.749 0-12.223 8.424-21.44 19.595-21.44s19.595 9.217 19.595 21.44c0 14.67-10.656 17.749-19.595 17.749z" mask="url(#D)" class="C D"/><mask id="E" maskUnits="userSpaceOnUse" x="5.604" y="18.904" width="32" height="13" fill="#000"><path fill="#fff" d="M5.604 18.904h32v13h-32z"/><path d="M28.348 23.405a.69.69 0 0 0-.676.385l-1.371 2.744-2.244-6.169a.7.7 0 0 0-1.313.006l-2.82 7.888-.759-2.276a.7.7 0 0 0-.663-.479h-2.953l-1.267-5.068a.7.7 0 0 0-.642-.53.69.69 0 0 0-.694.46l-2.328 6.398-.63-.949a.7.7 0 0 0-.584-.311H7.304a.7.7 0 0 0-.7.7.7.7 0 0 0 .7.7h1.725l1.19 1.788a.7.7 0 0 0 1.239-.149l2.018-5.548.845 3.379a.7.7 0 0 0 .681.53h2.995l1.241 3.72a.7.7 0 0 0 .656.479h.008a.7.7 0 0 0 .659-.465l2.847-7.969 2.136 5.874a.7.7 0 0 0 1.284.073l1.343-2.688 1.566 4.696a.7.7 0 0 0 1.33 0l1.238-3.72h4.394a.7.7 0 0 0 .7-.7.7.7 0 0 0-.7-.7h-4.899a.7.7 0 0 0-.663.479l-.736 2.207-1.436-4.307a.7.7 0 0 0-.614-.479z"/></mask><path d="M28.348 23.405a.69.69 0 0 0-.676.385l-1.371 2.744-2.244-6.169a.7.7 0 0 0-1.313.006l-2.82 7.888-.759-2.276a.7.7 0 0 0-.663-.479h-2.953l-1.267-5.068a.7.7 0 0 0-.642-.53.69.69 0 0 0-.694.46l-2.328 6.398-.63-.949a.7.7 0 0 0-.584-.311H7.304a.7.7 0 0 0-.7.7.7.7 0 0 0 .7.7h1.725l1.19 1.788a.7.7 0 0 0 1.239-.149l2.018-5.548.845 3.379a.7.7 0 0 0 .681.53h2.995l1.241 3.72a.7.7 0 0 0 .656.479h.008a.7.7 0 0 0 .659-.465l2.847-7.969 2.136 5.874a.7.7 0 0 0 1.284.073l1.343-2.688 1.566 4.696a.7.7 0 0 0 1.33 0l1.238-3.72h4.394a.7.7 0 0 0 .7-.7.7.7 0 0 0-.7-.7h-4.899a.7.7 0 0 0-.663.479l-.736 2.207-1.436-4.307a.7.7 0 0 0-.614-.479z" class="B"/><path d="M28.348 23.405a.69.69 0 0 0-.676.385l-1.371 2.744-2.244-6.169a.7.7 0 0 0-1.313.006l-2.82 7.888-.759-2.276a.7.7 0 0 0-.663-.479h-2.953l-1.267-5.068a.7.7 0 0 0-.642-.53.69.69 0 0 0-.694.46l-2.328 6.398-.63-.949a.7.7 0 0 0-.584-.311H7.304a.7.7 0 0 0-.7.7.7.7 0 0 0 .7.7h1.725l1.19 1.788a.7.7 0 0 0 1.239-.149l2.018-5.548.845 3.379a.7.7 0 0 0 .681.53h2.995l1.241 3.72a.7.7 0 0 0 .656.479h.008a.7.7 0 0 0 .659-.465l2.847-7.969 2.136 5.874a.7.7 0 0 0 1.284.073l1.343-2.688 1.566 4.696a.7.7 0 0 0 1.33 0l1.238-3.72h4.394a.7.7 0 0 0 .7-.7.7.7 0 0 0-.7-.7h-4.899a.7.7 0 0 0-.663.479l-.736 2.207-1.436-4.307a.7.7 0 0 0-.614-.479z" mask="url(#E)" class="C D"/><rect x="-661.5" y="-411.5" width="1121" height="739" rx="4.5" stroke="#7b61ff" stroke-dasharray="10 5"/></svg>