<svg xmlns="http://www.w3.org/2000/svg" width="42" height="42" fill="none" xmlns:v="https://vecta.io/nano"><style><![CDATA[.B{fill:#fff}.C{fill:#01ffa9}.D{stroke:#01ffa9}.E{stroke-width:.2}]]></style><g clip-path="url(#F)"><mask id="A" maskUnits="userSpaceOnUse" x="1.806" y="13.707" width="38" height="23" fill="#000"><path d="M1.806 13.707h38v23h-38z" class="B"/><path d="M13.303 14.707A10.5 10.5 0 0 0 2.806 25.204a10.5 10.5 0 0 0 10.497 10.497h15.396a10.5 10.5 0 0 0 10.497-10.497 10.5 10.5 0 0 0-10.497-10.497H13.303zm24.493 10.497a9.11 9.11 0 0 1-9.097 9.097H13.303a9.1 9.1 0 0 1-9.097-9.097 9.1 9.1 0 0 1 9.097-9.097h15.396a9.11 9.11 0 0 1 9.097 9.098z"/></mask><path d="M13.303 14.707A10.5 10.5 0 0 0 2.806 25.204a10.5 10.5 0 0 0 10.497 10.497h15.396a10.5 10.5 0 0 0 10.497-10.497 10.5 10.5 0 0 0-10.497-10.497H13.303zm24.493 10.497a9.11 9.11 0 0 1-9.097 9.097H13.303a9.1 9.1 0 0 1-9.097-9.097 9.1 9.1 0 0 1 9.097-9.097h15.396a9.11 9.11 0 0 1 9.097 9.098z" class="C"/><path d="M13.303 14.707A10.5 10.5 0 0 0 2.806 25.204a10.5 10.5 0 0 0 10.497 10.497h15.396a10.5 10.5 0 0 0 10.497-10.497 10.5 10.5 0 0 0-10.497-10.497H13.303zm24.493 10.497a9.11 9.11 0 0 1-9.097 9.097H13.303a9.1 9.1 0 0 1-9.097-9.097 9.1 9.1 0 0 1 9.097-9.097h15.396a9.11 9.11 0 0 1 9.097 9.098z" mask="url(#A)" class="D E"/><mask id="B" maskUnits="userSpaceOnUse" x="17.201" y="10.908" width="7" height="3" fill="#000"><path d="M17.201 10.908h7v3h-7z" class="B"/><path d="M18.901 13.308H23.1a.7.7 0 0 0 .7-.7.7.7 0 0 0-.7-.7h-4.199a.7.7 0 0 0-.7.7.7.7 0 0 0 .7.7z"/></mask><path d="M18.901 13.308H23.1a.7.7 0 0 0 .7-.7.7.7 0 0 0-.7-.7h-4.199a.7.7 0 0 0-.7.7.7.7 0 0 0 .7.7z" class="C"/><path d="M18.901 13.308H23.1a.7.7 0 0 0 .7-.7.7.7 0 0 0-.7-.7h-4.199a.7.7 0 0 0-.7.7.7.7 0 0 0 .7.7z" mask="url(#B)" class="D E"/><mask id="C" maskUnits="userSpaceOnUse" x="18.601" y="8.809" width="4" height="3" fill="#000"><path d="M18.601 8.809h4v3h-4z" class="B"/><path d="M20.3 11.208h1.4a.7.7 0 0 0 .7-.7.7.7 0 0 0-.7-.7h-1.4a.7.7 0 0 0-.7.7.7.7 0 0 0 .7.7z"/></mask><path d="M20.3 11.208h1.4a.7.7 0 0 0 .7-.7.7.7 0 0 0-.7-.7h-1.4a.7.7 0 0 0-.7.7.7.7 0 0 0 .7.7z" class="C"/><path d="M20.3 11.208h1.4a.7.7 0 0 0 .7-.7.7.7 0 0 0-.7-.7h-1.4a.7.7 0 0 0-.7.7.7.7 0 0 0 .7.7z" mask="url(#C)" class="D E"/><mask id="D" maskUnits="userSpaceOnUse" x="-.995" y="-1" width="44" height="44" fill="#000"><path d="M-.995-1h44v44h-44z" class="B"/><path d="M37.797 4.082a2.1 2.1 0 0 0-.7-4.079 2.1 2.1 0 0 0-.7 4.079v2.939C32.547 2.533 26.915-.032 21.001.011A20.09 20.09 0 0 0 5.606 7.018V4.079A2.1 2.1 0 0 0 4.906 0a2.1 2.1 0 0 0-.7 4.079v4.736A24.45 24.45 0 0 0 .007 22.851C.007 35.378 7.267 42 21.001 42s20.994-6.622 20.994-19.149a24.45 24.45 0 0 0-4.199-14.033V4.082zm-.7-2.67a.7.7 0 0 1 .7.7.7.7 0 0 1-.7.7.7.7 0 0 1-.7-.7.7.7 0 0 1 .7-.7zm-32.191 0a.7.7 0 0 1 .7.7.7.7 0 0 1-.7.7.7.7 0 0 1-.7-.7.7.7 0 0 1 .7-.7zM21.001 40.6c-8.939 0-19.595-3.079-19.595-17.749 0-12.223 8.424-21.44 19.595-21.44s19.595 9.217 19.595 21.44c0 14.67-10.656 17.749-19.595 17.749z"/></mask><path d="M37.797 4.082a2.1 2.1 0 0 0-.7-4.079 2.1 2.1 0 0 0-.7 4.079v2.939C32.547 2.533 26.915-.032 21.001.011A20.09 20.09 0 0 0 5.606 7.018V4.079A2.1 2.1 0 0 0 4.906 0a2.1 2.1 0 0 0-.7 4.079v4.736A24.45 24.45 0 0 0 .007 22.851C.007 35.378 7.267 42 21.001 42s20.994-6.622 20.994-19.149a24.45 24.45 0 0 0-4.199-14.033V4.082zm-.7-2.67a.7.7 0 0 1 .7.7.7.7 0 0 1-.7.7.7.7 0 0 1-.7-.7.7.7 0 0 1 .7-.7zm-32.191 0a.7.7 0 0 1 .7.7.7.7 0 0 1-.7.7.7.7 0 0 1-.7-.7.7.7 0 0 1 .7-.7zM21.001 40.6c-8.939 0-19.595-3.079-19.595-17.749 0-12.223 8.424-21.44 19.595-21.44s19.595 9.217 19.595 21.44c0 14.67-10.656 17.749-19.595 17.749z" class="C"/><path d="M37.797 4.082a2.1 2.1 0 0 0-.7-4.079 2.1 2.1 0 0 0-.7 4.079v2.939C32.547 2.533 26.915-.032 21.001.011A20.09 20.09 0 0 0 5.606 7.018V4.079A2.1 2.1 0 0 0 4.906 0a2.1 2.1 0 0 0-.7 4.079v4.736A24.45 24.45 0 0 0 .007 22.851C.007 35.378 7.267 42 21.001 42s20.994-6.622 20.994-19.149a24.45 24.45 0 0 0-4.199-14.033V4.082zm-.7-2.67a.7.7 0 0 1 .7.7.7.7 0 0 1-.7.7.7.7 0 0 1-.7-.7.7.7 0 0 1 .7-.7zm-32.191 0a.7.7 0 0 1 .7.7.7.7 0 0 1-.7.7.7.7 0 0 1-.7-.7.7.7 0 0 1 .7-.7zM21.001 40.6c-8.939 0-19.595-3.079-19.595-17.749 0-12.223 8.424-21.44 19.595-21.44s19.595 9.217 19.595 21.44c0 14.67-10.656 17.749-19.595 17.749z" mask="url(#D)" class="D E"/><mask id="E" maskUnits="userSpaceOnUse" x="4.604" y="17.904" width="32" height="13" fill="#000"><path d="M4.604 17.904h32v13h-32z" class="B"/><path d="M27.348 22.405a.69.69 0 0 0-.676.385l-1.371 2.744-2.244-6.169a.7.7 0 0 0-1.313.006l-2.82 7.888-.759-2.276a.7.7 0 0 0-.663-.479h-2.953l-1.267-5.068a.7.7 0 0 0-.642-.53.69.69 0 0 0-.694.46l-2.328 6.398-.63-.949a.7.7 0 0 0-.584-.311H6.304a.7.7 0 0 0-.7.7.7.7 0 0 0 .7.7h1.725l1.19 1.788a.7.7 0 0 0 1.239-.149l2.018-5.548.845 3.379a.7.7 0 0 0 .681.53h2.995l1.241 3.72a.7.7 0 0 0 .656.479h.008a.7.7 0 0 0 .659-.465l2.847-7.969 2.136 5.874a.7.7 0 0 0 1.284.073l1.343-2.688 1.566 4.696a.7.7 0 0 0 1.33 0l1.238-3.72h4.394a.7.7 0 0 0 .7-.7.7.7 0 0 0-.7-.7h-4.899a.7.7 0 0 0-.663.479l-.736 2.207-1.436-4.307a.7.7 0 0 0-.614-.479z"/></mask><path d="M27.348 22.405a.69.69 0 0 0-.676.385l-1.371 2.744-2.244-6.169a.7.7 0 0 0-1.313.006l-2.82 7.888-.759-2.276a.7.7 0 0 0-.663-.479h-2.953l-1.267-5.068a.7.7 0 0 0-.642-.53.69.69 0 0 0-.694.46l-2.328 6.398-.63-.949a.7.7 0 0 0-.584-.311H6.304a.7.7 0 0 0-.7.7.7.7 0 0 0 .7.7h1.725l1.19 1.788a.7.7 0 0 0 1.239-.149l2.018-5.548.845 3.379a.7.7 0 0 0 .681.53h2.995l1.241 3.72a.7.7 0 0 0 .656.479h.008a.7.7 0 0 0 .659-.465l2.847-7.969 2.136 5.874a.7.7 0 0 0 1.284.073l1.343-2.688 1.566 4.696a.7.7 0 0 0 1.33 0l1.238-3.72h4.394a.7.7 0 0 0 .7-.7.7.7 0 0 0-.7-.7h-4.899a.7.7 0 0 0-.663.479l-.736 2.207-1.436-4.307a.7.7 0 0 0-.614-.479z" class="C"/><path d="M27.348 22.405a.69.69 0 0 0-.676.385l-1.371 2.744-2.244-6.169a.7.7 0 0 0-1.313.006l-2.82 7.888-.759-2.276a.7.7 0 0 0-.663-.479h-2.953l-1.267-5.068a.7.7 0 0 0-.642-.53.69.69 0 0 0-.694.46l-2.328 6.398-.63-.949a.7.7 0 0 0-.584-.311H6.304a.7.7 0 0 0-.7.7.7.7 0 0 0 .7.7h1.725l1.19 1.788a.7.7 0 0 0 1.239-.149l2.018-5.548.845 3.379a.7.7 0 0 0 .681.53h2.995l1.241 3.72a.7.7 0 0 0 .656.479h.008a.7.7 0 0 0 .659-.465l2.847-7.969 2.136 5.874a.7.7 0 0 0 1.284.073l1.343-2.688 1.566 4.696a.7.7 0 0 0 1.33 0l1.238-3.72h4.394a.7.7 0 0 0 .7-.7.7.7 0 0 0-.7-.7h-4.899a.7.7 0 0 0-.663.479l-.736 2.207-1.436-4.307a.7.7 0 0 0-.614-.479z" mask="url(#E)" class="D E"/></g><defs><clipPath id="F"><path d="M0 0h42v42H0z" class="B"/></clipPath></defs></svg>