<svg xmlns="http://www.w3.org/2000/svg" width="46" height="44" fill="none" xmlns:v="https://vecta.io/nano"><path d="M37.309 23.206a.69.69 0 0 0-.69.69c0 .421-.342.763-.763.763s-.763-.342-.763-.763a.69.69 0 0 0-1.381 0c0 1.182.962 2.144 2.144 2.144s2.144-.962 2.144-2.144a.69.69 0 0 0-.69-.69z" fill="#01ffa9" stroke="#01ffa9" stroke-width=".1"/><mask id="A" maskUnits="userSpaceOnUse" x="0" y="-.561" width="46" height="45" fill="#000"><path fill="#fff" d="M0-.561h46v45H0z"/><path d="M43.319 23.36l-1.802-.577c-.231-.074-.413-.258-.487-.493-.38-1.208-.953-2.341-1.704-3.37-.342-.469-.722-.917-1.138-1.343.266-1.166.41-2.487.392-3.627-.027-1.632-.353-2.588-.997-2.926-.347-.182-1.402-.734-7.114 1.88a2.08 2.08 0 0 0-.379.225l-1.175-.285-.145-.03c.463-1.011.733-2.109.784-3.243a.64.64 0 1 0-1.279-.057 7.44 7.44 0 0 1-2.177 4.939c-.789.789-1.713 1.362-2.697 1.723a18.57 18.57 0 0 0-5.154 0c-.985-.361-1.908-.934-2.697-1.723a7.41 7.41 0 0 1-2.185-5.275 7.41 7.41 0 0 1 2.185-5.274 7.41 7.41 0 0 1 5.275-2.185 7.41 7.41 0 0 1 5.275 2.185c.566.566 1.034 1.212 1.391 1.92a.64.64 0 1 0 1.144-.576 8.73 8.73 0 0 0-1.629-2.25 8.68 8.68 0 0 0-6.18-2.56 8.68 8.68 0 0 0-6.18 2.56 8.68 8.68 0 0 0-2.56 6.18 8.68 8.68 0 0 0 2.56 6.18c.476.476.994.886 1.542 1.229l-1.184.35a.64.64 0 1 0 .406 1.215c3.492-1.167 7.339-1.167 10.831 0 .067.023.136.033.203.033a.64.64 0 0 0 .203-1.248 18.04 18.04 0 0 0-1.184-.35 8.73 8.73 0 0 0 1.543-1.229 8.77 8.77 0 0 0 1.116-1.37l.524.108a23.83 23.83 0 0 1 .686.16c-.007.028-.015.056-.02.084-.312 1.482-.292 2.793.06 3.896.317.991.888 1.794 1.698 2.387.955.698 2.108 1 3.152 1 .786 0 1.511-.171 2.043-.472.602-.341 1.106-1.059 1.505-2.138a10.79 10.79 0 0 1 .524.662 10.34 10.34 0 0 1 1.516 2.999c.199.631.691 1.128 1.318 1.328l1.802.577c.473.151.791.587.791 1.083v2.989c0 .496-.318.932-.791 1.083l-2.904.93a1.98 1.98 0 0 0-1.107.899c-1.141 1.972-2.934 3.603-5.331 4.849-.277.144-.469.402-.526.707l-.93 4.925c-.026.136-.144.234-.283.234h-3.024c-.138 0-.257-.099-.283-.234l-.515-2.721c-.101-.535-.604-.891-1.144-.809-1.303.197-2.645.297-3.989.297a25.55 25.55 0 0 1-2.935-.166c-.524-.06-1.012.297-1.11.814l-.49 2.586c-.026.136-.144.234-.283.234h-3.024c-.138 0-.257-.099-.283-.236l-.895-4.651c-.058-.3-.246-.554-.517-.699-4.086-2.181-6.245-5.825-6.245-10.538 0-2.381.521-4.487 1.548-6.258.959-1.653 2.359-3.02 4.162-4.063a.64.64 0 1 0-.641-1.109c-3.496 2.022-5.604 5.142-6.185 9.105l-.185-.017a3.19 3.19 0 0 0-.235-1.278c-.372-.924-1.135-1.59-1.944-1.698-.638-.085-1.245.185-1.666.742-.611.807-.511 1.446-.32 1.84.323.665 1.152 1.135 2.527 1.43-.038.057-.079.113-.125.171-.813 1.02-1.771 1.245-2.392 1.266-.364.012-.656.305-.656.669v.003a.67.67 0 0 0 .642.669 3.02 3.02 0 0 0 .144.003c.787 0 2.05-.29 3.263-1.812a3.65 3.65 0 0 0 .468-.755l.348.036a16.8 16.8 0 0 0-.034 1.057c0 2.666.636 5.044 1.889 7.067 1.156 1.865 2.811 3.392 4.92 4.54l.871 4.522a1.57 1.57 0 0 0 1.541 1.277h3.024a1.57 1.57 0 0 0 1.541-1.277l.443-2.338c.919.097 1.871.147 2.833.147a28.13 28.13 0 0 0 3.923-.273l.467 2.465a1.57 1.57 0 0 0 1.541 1.277h3.024a1.57 1.57 0 0 0 1.541-1.277l.906-4.795c2.558-1.353 4.486-3.13 5.732-5.283a.7.7 0 0 1 .389-.321l2.904-.93A2.41 2.41 0 0 0 45 28.652v-2.989a2.41 2.41 0 0 0-1.681-2.303zm-6.116-7.61c-.247 2.108-.908 3.911-1.572 4.287-.755.428-2.498.51-3.807-.447s-1.747-2.682-1.261-4.985c.049-.231.213-.431.44-.535 3.206-1.467 5.054-1.947 5.741-1.947a.67.67 0 0 1 .232.031c.206.22.477 1.47.228 3.597zM2.798 22.859c-.066-.137.09-.377.189-.508.157-.208.302-.25.411-.25a.49.49 0 0 1 .064.005c.294.039.707.363.925.907.051.128.118.34.134.604-.886-.184-1.575-.448-1.725-.757z"/></mask><path d="M43.319 23.36l-1.802-.577c-.231-.074-.413-.258-.487-.493-.38-1.208-.953-2.341-1.704-3.37-.342-.469-.722-.917-1.138-1.343.266-1.166.41-2.487.392-3.627-.027-1.632-.353-2.588-.997-2.926-.347-.182-1.402-.734-7.114 1.88a2.08 2.08 0 0 0-.379.225l-1.175-.285-.145-.03c.463-1.011.733-2.109.784-3.243a.64.64 0 1 0-1.279-.057 7.44 7.44 0 0 1-2.177 4.939c-.789.789-1.713 1.362-2.697 1.723a18.57 18.57 0 0 0-5.154 0c-.985-.361-1.908-.934-2.697-1.723a7.41 7.41 0 0 1-2.185-5.275 7.41 7.41 0 0 1 2.185-5.274 7.41 7.41 0 0 1 5.275-2.185 7.41 7.41 0 0 1 5.275 2.185c.566.566 1.034 1.212 1.391 1.92a.64.64 0 1 0 1.144-.576 8.73 8.73 0 0 0-1.629-2.25 8.68 8.68 0 0 0-6.18-2.56 8.68 8.68 0 0 0-6.18 2.56 8.68 8.68 0 0 0-2.56 6.18 8.68 8.68 0 0 0 2.56 6.18c.476.476.994.886 1.542 1.229l-1.184.35a.64.64 0 1 0 .406 1.215c3.492-1.167 7.339-1.167 10.831 0 .067.023.136.033.203.033a.64.64 0 0 0 .203-1.248 18.04 18.04 0 0 0-1.184-.35 8.73 8.73 0 0 0 1.543-1.229 8.77 8.77 0 0 0 1.116-1.37l.524.108a23.83 23.83 0 0 1 .686.16c-.007.028-.015.056-.02.084-.312 1.482-.292 2.793.06 3.896.317.991.888 1.794 1.698 2.387.955.698 2.108 1 3.152 1 .786 0 1.511-.171 2.043-.472.602-.341 1.106-1.059 1.505-2.138a10.79 10.79 0 0 1 .524.662 10.34 10.34 0 0 1 1.516 2.999c.199.631.691 1.128 1.318 1.328l1.802.577c.473.151.791.587.791 1.083v2.989c0 .496-.318.932-.791 1.083l-2.904.93a1.98 1.98 0 0 0-1.107.899c-1.141 1.972-2.934 3.603-5.331 4.849-.277.144-.469.402-.526.707l-.93 4.925c-.026.136-.144.234-.283.234h-3.024c-.138 0-.257-.099-.283-.234l-.515-2.721c-.101-.535-.604-.891-1.144-.809-1.303.197-2.645.297-3.989.297a25.55 25.55 0 0 1-2.935-.166c-.524-.06-1.012.297-1.11.814l-.49 2.586c-.026.136-.144.234-.283.234h-3.024c-.138 0-.257-.099-.283-.236l-.895-4.651c-.058-.3-.246-.554-.517-.699-4.086-2.181-6.245-5.825-6.245-10.538 0-2.381.521-4.487 1.548-6.258.959-1.653 2.359-3.02 4.162-4.063a.64.64 0 1 0-.641-1.109c-3.496 2.022-5.604 5.142-6.185 9.105l-.185-.017a3.19 3.19 0 0 0-.235-1.278c-.372-.924-1.135-1.59-1.944-1.698-.638-.085-1.245.185-1.666.742-.611.807-.511 1.446-.32 1.84.323.665 1.152 1.135 2.527 1.43-.038.057-.079.113-.125.171-.813 1.02-1.771 1.245-2.392 1.266-.364.012-.656.305-.656.669v.003a.67.67 0 0 0 .642.669 3.02 3.02 0 0 0 .144.003c.787 0 2.05-.29 3.263-1.812a3.65 3.65 0 0 0 .468-.755l.348.036a16.8 16.8 0 0 0-.034 1.057c0 2.666.636 5.044 1.889 7.067 1.156 1.865 2.811 3.392 4.92 4.54l.871 4.522a1.57 1.57 0 0 0 1.541 1.277h3.024a1.57 1.57 0 0 0 1.541-1.277l.443-2.338c.919.097 1.871.147 2.833.147a28.13 28.13 0 0 0 3.923-.273l.467 2.465a1.57 1.57 0 0 0 1.541 1.277h3.024a1.57 1.57 0 0 0 1.541-1.277l.906-4.795c2.558-1.353 4.486-3.13 5.732-5.283a.7.7 0 0 1 .389-.321l2.904-.93A2.41 2.41 0 0 0 45 28.652v-2.989a2.41 2.41 0 0 0-1.681-2.303zm-6.116-7.61c-.247 2.108-.908 3.911-1.572 4.287-.755.428-2.498.51-3.807-.447s-1.747-2.682-1.261-4.985c.049-.231.213-.431.44-.535 3.206-1.467 5.054-1.947 5.741-1.947a.67.67 0 0 1 .232.031c.206.22.477 1.47.228 3.597zM2.798 22.859c-.066-.137.09-.377.189-.508.157-.208.302-.25.411-.25a.49.49 0 0 1 .064.005c.294.039.707.363.925.907.051.128.118.34.134.604-.886-.184-1.575-.448-1.725-.757z" fill="#01ffa9"/><path d="M43.319 23.36l.061-.191-.061.191zm-1.802-.577l-.061.191h0l.061-.191zm-.487-.493l-.191.06h0l.191-.06zm-1.704-3.37l-.161.118h0l.161-.118zm-1.138-1.343l-.195-.044-.024.106.076.078.143-.14zm.392-3.627l.2-.003h0l-.2.003zm-.997-2.926l-.093.177h0l.093-.177zm-7.114 1.88l.083.182h0l-.083-.182zm-.379.225l-.052.193.094.025.078-.058-.12-.16zm-1.175-.285l-.043.195h0l.042-.195zm-.145-.03l-.182-.083-.104.227.245.052.041-.196zm.784-3.243l.2.009h0l-.2-.009zm-.611-.668l-.01.2h.001l.009-.2zm-.668.611l.2.009h0l-.2-.009zm-2.177 4.939l.142.141h0l-.142-.141zm-2.697 1.723l-.028.198.05.007.047-.017-.069-.188zm-5.154 0l-.069.188.047.017.05-.007-.028-.198zM15.55 3.905l.142.141h0l-.142-.141zm10.549 0l-.141.141h0l.141-.141zm1.391 1.92l.179-.09h0l-.179.09zm.86.284l-.09-.179h0l.09.179zm.284-.86l-.179.09h0l.179-.09zm-1.629-2.25l.142-.141h0l-.142.141zm-12.36 0l-.141-.141h0l.141.141zm.359 13.939l-.063-.19h0l.063.19zm-.404.81l.19-.063h0l-.19.063zm.81.404l.063.19h0l-.063-.19zm10.831 0l-.063.19h0l.063-.19zm.81-.404l.19.063h0l-.19-.063zm-.404-.81l.063-.19h0l-.063.19zm-1.184-.35l-.106-.169-.394.246.45.117.05-.194zm2.659-2.599l.038-.196-.131-.026-.074.112.167.11zm.524.108l.042-.195h0l-.042.195zm.686.16l.194.05.05-.195-.196-.049-.048.194zm-.02.084l.196.041h0l-.196-.041zm.06 3.896l.191-.061h0l-.191.061zm1.698 2.387l-.118.161h0l.118-.161zm5.194.528l.099.174h0l-.099-.174zm1.505-2.138l.152-.13-.221-.258-.118.319.188.07zm.524.662l-.162.118h0l.162-.118zm1.516 2.999l.191-.06h0l-.191.06zm1.318 1.328l-.061.191h0l.061-.191zm1.802.577l.061-.191h0l-.061.191zm0 5.155l.061.191h0l-.061-.191zm-2.904.93l-.061-.191h0l.061.19zm-1.107.899l.173.1h0l-.173-.1zm-5.331 4.849l-.092-.178h0l.092.177zm-.526.707l-.197-.037h0l.197.037zm-.93 4.925l.197.037h0l-.197-.037zm-3.589 0l-.197.037h0l.197-.037zm-.515-2.721l.197-.037h0l-.197.037zm-1.144-.809l.03.198h0l-.03-.198zm-6.924.131l.023-.199h0l-.023.199zm-1.11.814l.197.037h0l-.197-.037zm-.49 2.586l.197.037h0l-.197-.037zm-3.589-.002l.197-.037h0l-.196.038zm-.895-4.651l-.196.038h0l.196-.038zm-.517-.699l.094-.176h0l-.094.176zM8.66 19.897l.173.1h0l-.173-.1zm4.162-4.063l.1.173h0l-.1-.173zm.234-.875l.173-.1h0l-.173.1zm-.875-.234l-.1-.173h0l.1.173zM5.996 23.83l-.018.199.189.017.027-.187-.198-.029zm-.185-.017l-.2-.005-.005.185.184.019.021-.199zm-.235-1.278l-.186.075h0l.186-.075zm-1.944-1.698l-.027.198h0l.026-.198zm-1.666.742l-.159-.121h0l.159.121zm-.32 1.84l-.18.087h0l.18-.087zm2.527 1.43l.166.111.163-.245-.288-.062-.042.196zm-.125.171l.156.125h0l-.156-.125zm-2.392 1.266l.007.2h0l-.007-.2zm-.013 1.341l.009-.2h0l-.009.2zm3.407-1.808l-.156-.125h0l.156.125zm.468-.755l.022-.199-.144-.016-.06.132.182.083zm2.204 8.159l-.17.105h0l.17-.105zm4.92 4.54l.196-.038-.018-.093-.083-.045-.096.176zm.871 4.522l.197-.037h0l-.196.038zm6.106 0l-.197-.037h0l.197.037zm.443-2.338l.021-.199-.183-.019-.034.181.197.037zm6.756-.127l.197-.037-.035-.187-.189.027.028.198zm.467 2.465l-.196.037h0l.196-.037zm6.106 0l.197.037h0l-.197-.037zm.906-4.795l-.093-.177-.085.045-.018.095.197.037zm5.732-5.283l-.173-.1h0l.173.1zm.389-.321l-.061-.191h0l.061.19zm2.904-.93l.061.191h0l-.061-.191zM37.204 15.75l-.199-.023h0l.199.023zm-1.572 4.287l-.099-.174h0l.099.174zm-3.807-.447l.118-.161h0l-.118.161zm-1.261-4.985l-.196-.041h0l.196.041zm.44-.535l.083.182h0l-.083-.182zm5.973-1.916l.146-.137-.031-.033-.042-.016-.073.186zM2.798 22.859l.18-.087h0l-.18.087zm.189-.508l-.159-.121h0l.16.121zm.476-.246l-.027.198h0l.026-.198zm.925.907l-.186.075h0l.186-.075zm.134.604l-.041.196.256.053-.015-.261-.2.012zm38.858-.446l-1.802-.577-.122.381 1.802.577.122-.381zm-1.802-.577c-.168-.054-.302-.189-.357-.363l-.382.12c.093.296.323.529.616.623l.122-.381zm-.357-.363a11.82 11.82 0 0 0-1.733-3.428l-.323.236a11.42 11.42 0 0 1 1.674 3.312l.382-.12zm-1.733-3.428a12.57 12.57 0 0 0-1.157-1.364l-.286.279c.409.42.784.86 1.12 1.321l.323-.236zm-1.105-1.18c.269-1.181.416-2.517.397-3.675l-.4.006a15.68 15.68 0 0 1-.387 3.579l.39.089zm.397-3.675c-.014-.826-.103-1.496-.278-2.009s-.443-.89-.826-1.09l-.186.354c.261.137.478.408.633.865s.243 1.081.256 1.887l.4-.006zm-1.104-3.1c-.096-.05-.249-.13-.517-.171s-.628-.043-1.153.042c-1.047.17-2.758.694-5.62 2.005l.166.364c2.85-1.305 4.523-1.812 5.518-1.973.496-.081.817-.074 1.028-.042s.314.089.392.13l.186-.354zm-7.29 1.876c-.149.068-.287.152-.415.247l.239.321c.106-.079.221-.148.342-.204l-.166-.364zm-.243.214l-1.184-.287-.085.391 1.165.283.104-.386zm-1.184-.287l-.146-.03-.083.391.144.03.085-.391zm-.006.249c.474-1.034.75-2.158.802-3.317l-.4-.018c-.05 1.108-.314 2.181-.766 3.169l.364.167zm.802-3.317a.84.84 0 0 0-.802-.877l-.018.4a.44.44 0 0 1 .42.46l.4.018zm-.801-.877a.84.84 0 0 0-.878.802l.4.018a.44.44 0 0 1 .459-.42l.02-.399zm-.878.802a7.24 7.24 0 0 1-2.119 4.806l.283.283a7.64 7.64 0 0 0 2.236-5.071l-.4-.018zm-2.119 4.806a7.21 7.21 0 0 1-2.625 1.677l.138.376c1.011-.371 1.96-.959 2.77-1.769l-.283-.283zm-2.528 1.666c-1.726-.242-3.484-.242-5.21 0l.056.396a18.37 18.37 0 0 1 5.099 0l.056-.396zm-5.113.01a7.21 7.21 0 0 1-2.625-1.677l-.283.283c.81.81 1.759 1.399 2.77 1.769l.138-.376zm-2.625-1.677a7.21 7.21 0 0 1-2.126-5.133h-.4a7.61 7.61 0 0 0 2.243 5.416l.283-.283zM13.565 9.18a7.21 7.21 0 0 1 2.126-5.133l-.283-.283a7.61 7.61 0 0 0-2.243 5.416h.4zm2.126-5.133a7.21 7.21 0 0 1 5.133-2.126v-.4a7.61 7.61 0 0 0-5.416 2.243l.283.283zm5.133-2.126a7.21 7.21 0 0 1 5.133 2.126l.283-.283a7.61 7.61 0 0 0-5.416-2.243v.4zm5.133 2.126c.551.551 1.006 1.18 1.353 1.869l.357-.18c-.366-.727-.847-1.39-1.428-1.972l-.283.283zm1.353 1.869a.84.84 0 0 0 1.129.373l-.18-.357a.44.44 0 0 1-.591-.195l-.357.18zm1.128.373a.84.84 0 0 0 .373-1.129l-.357.18a.44.44 0 0 1-.195.591l.18.357zm.373-1.128a8.93 8.93 0 0 0-1.666-2.301l-.283.283c.648.648 1.183 1.388 1.592 2.198l.357-.18zm-1.666-2.301A8.88 8.88 0 0 0 20.824.239v.4a8.48 8.48 0 0 1 6.039 2.501l.283-.283zM20.824.239a8.88 8.88 0 0 0-6.321 2.618l.283.283A8.48 8.48 0 0 1 20.824.639v-.4zm-6.321 2.618a8.88 8.88 0 0 0-2.619 6.322h.4a8.48 8.48 0 0 1 2.501-6.039l-.283-.283zm-2.619 6.322a8.88 8.88 0 0 0 2.619 6.322l.283-.283a8.48 8.48 0 0 1-2.501-6.039h-.4zm2.619 6.322a8.93 8.93 0 0 0 1.577 1.257l.212-.339c-.535-.335-1.042-.735-1.507-1.201l-.283.283zm1.633.894l-1.197.354.127.379 1.17-.346-.101-.387zm-1.197.354a.84.84 0 0 0-.53 1.064l.379-.127a.44.44 0 0 1 .278-.557l-.127-.379zm-.53 1.064a.84.84 0 0 0 1.063.531l-.127-.379a.44.44 0 0 1-.557-.278l-.379.127zm1.063.531c3.451-1.154 7.253-1.154 10.704 0l.127-.379c-3.533-1.181-7.424-1.181-10.958 0l.127.379zm10.704 0a.84.84 0 0 0 .266.043v-.4a.44.44 0 0 1-.14-.023l-.127.379zm.266.043a.84.84 0 0 0 .797-.574l-.379-.127a.44.44 0 0 1-.418.301v.4zm.797-.574a.84.84 0 0 0-.53-1.064l-.127.379a.44.44 0 0 1 .278.557l.379.127zm-.53-1.064c-.395-.132-.795-.25-1.197-.354l-.101.387a17.81 17.81 0 0 1 1.171.346l.127-.379zm-1.141.009c.561-.351 1.091-.77 1.578-1.257l-.283-.283c-.465.465-.972.865-1.507 1.201l.212.339zm1.578-1.257c.431-.431.811-.902 1.141-1.401l-.334-.22c-.316.478-.679.928-1.09 1.339l.283.283zm.936-1.315l.52.107.085-.391-.529-.108-.076.393zm.52.107c.228.05.455.103.68.159l.096-.388-.691-.161-.085.391zm.534-.085c-.007.026-.015.059-.022.092l.392.082c.005-.023.011-.045.018-.075l-.387-.099zm-.022.092c-.317 1.506-.3 2.853.065 3.998l.381-.122c-.339-1.061-.362-2.335-.055-3.793l-.391-.082zm.065 3.998c.329 1.03.925 1.869 1.771 2.488l.236-.323c-.775-.567-1.321-1.334-1.626-2.286l-.381.122zm1.771 2.488c.994.727 2.19 1.039 3.27 1.039v-.4c-1.008 0-2.118-.292-3.034-.962l-.236.323zm3.27 1.039c.812 0 1.572-.176 2.141-.498l-.197-.348c-.495.281-1.184.446-1.944.446v.4zm2.141-.498c.663-.375 1.189-1.147 1.594-2.242l-.375-.139c-.393 1.062-.875 1.727-1.416 2.033l.197.348zm1.255-2.182c.181.212.353.428.514.65l.323-.236a11.03 11.03 0 0 0-.534-.674l-.304.26zm.514.65a10.14 10.14 0 0 1 1.487 2.941l.382-.12a10.54 10.54 0 0 0-1.546-3.057l-.323.236zm1.487 2.941c.218.693.759 1.238 1.447 1.459l.122-.381c-.564-.181-1.009-.628-1.188-1.198l-.382.12zm1.447 1.459l1.802.577.122-.381-1.802-.577-.122.381zm1.802.577c.39.125.652.483.652.893h.4c0-.584-.374-1.096-.93-1.274l-.122.381zm.652.893v2.989h.4v-2.989h-.4zm0 2.989c0 .409-.261.768-.652.893l.122.381c.556-.178.93-.69.93-1.274h-.4zm-.652.893l-2.904.93.122.381 2.904-.93-.122-.381zm-2.904.93a2.18 2.18 0 0 0-1.219.989l.346.2a1.78 1.78 0 0 1 .995-.809l-.122-.381zm-1.219.989c-1.118 1.933-2.881 3.54-5.25 4.772l.184.355c2.424-1.26 4.249-2.916 5.412-4.927l-.346-.2zm-5.25 4.772c-.331.172-.562.481-.631.847l.393.074c.046-.245.2-.451.422-.567l-.185-.355zm-.631.847l-.93 4.925.393.074.93-4.925-.393-.074zm-.93 4.924c-.008.041-.044.071-.086.071v.4a.49.49 0 0 0 .479-.397l-.393-.074zm-.086.071h-3.024v.4h3.024v-.4zm-3.024 0c-.042 0-.078-.03-.086-.071l-.393.074a.49.49 0 0 0 .479.397v-.4zm-.086-.071l-.515-2.721-.393.074.515 2.722.393-.074zm-.515-2.722c-.122-.642-.724-1.068-1.371-.97l.06.395c.434-.066.836.219.918.649l.393-.075zm-1.371-.97a26.56 26.56 0 0 1-3.959.294v.4c1.354 0 2.706-.1 4.019-.299l-.06-.395zm-3.959.294c-.993 0-1.972-.055-2.912-.164l-.046.397c.955.111 1.95.167 2.958.167v-.4zm-2.912-.164c-.627-.072-1.211.355-1.329.975l.393.074c.078-.413.47-.701.89-.652l.046-.397zm-1.329.975l-.489 2.586.393.074.49-2.586-.393-.074zm-.489 2.586c-.008.041-.044.071-.086.071v.4a.49.49 0 0 0 .479-.397l-.393-.074zm-.086.071h-3.024v.4h3.024v-.4zm-3.024 0c-.041 0-.078-.029-.087-.073l-.393.074a.49.49 0 0 0 .479.399v-.4zm-.087-.074l-.896-4.651-.393.076.895 4.651.393-.076zm-.896-4.651c-.069-.359-.295-.665-.619-.838l-.188.353c.218.116.368.32.415.56l.393-.076zm-.619-.838c-4.019-2.146-6.14-5.721-6.14-10.362h-.4c0 4.785 2.199 8.498 6.351 10.715l.188-.353zm-6.14-10.362c0-2.352.514-4.422 1.521-6.158l-.346-.201c-1.048 1.807-1.575 3.948-1.575 6.359h.4zm1.521-6.158c.94-1.62 2.314-2.963 4.089-3.99l-.2-.346c-1.83 1.059-3.257 2.45-4.235 4.136l.346.201zm4.089-3.991a.84.84 0 0 0 .307-1.148l-.346.2a.44.44 0 0 1-.161.602l.2.346zm.307-1.148a.84.84 0 0 0-1.148-.307l.2.346a.44.44 0 0 1 .602.161l.346-.2zm-1.148-.307c-3.549 2.053-5.693 5.226-6.283 9.249l.396.058c.572-3.902 2.644-6.969 6.087-8.961l-.2-.346zM6.014 23.63l-.182-.017-.041.398.187.018.036-.398zm-.003.187c.012-.456-.071-.914-.249-1.357l-.371.149a2.99 2.99 0 0 1 .22 1.198l.4.011zm-.249-1.357c-.391-.973-1.206-1.702-2.103-1.822l-.053.396c.721.096 1.434.701 1.785 1.574l.371-.149zm-2.103-1.822c-.717-.096-1.392.212-1.853.82l.319.241c.382-.505.921-.739 1.48-.665l.053-.396zm-1.853.82c-.325.429-.469.825-.501 1.178a1.64 1.64 0 0 0 .16.87l.36-.175a1.24 1.24 0 0 1-.121-.66c.024-.267.135-.594.421-.972l-.319-.241zm-.341 2.048c.366.754 1.279 1.241 2.665 1.538l.084-.391c-1.366-.293-2.11-.747-2.389-1.322l-.36.175zm2.541 1.232c-.035.052-.073.104-.115.157l.313.249a2.71 2.71 0 0 0 .135-.184l-.333-.222zm-.115.157c-.768.963-1.665 1.171-2.243 1.191l.014.4c.666-.023 1.684-.266 2.542-1.341l-.313-.249zm-2.243 1.191c-.468.016-.849.393-.849.869h.4c0-.253.202-.46.462-.469l-.014-.4zm-.849.869v.003h.4v-.003H.8zm0 .003a.87.87 0 0 0 .833.869l.018-.4a.47.47 0 0 1-.452-.469H.8zm.833.869a3.29 3.29 0 0 0 .153.003v-.4a2.88 2.88 0 0 1-.135-.003l-.019.4zm.153.003c.843 0 2.166-.315 3.419-1.887l-.313-.249C3.72 27.164 2.517 27.43 1.787 27.43v.4zm3.419-1.887a3.85 3.85 0 0 0 .493-.797l-.364-.167c-.113.246-.26.486-.442.714l.313.249zm.289-.681l.352.036.037-.398-.344-.035-.045.397zm.171-.176c-.022.351-.034.707-.034 1.069h.4a16.6 16.6 0 0 1 .033-1.044l-.399-.025zm-.034 1.069c0 2.699.644 5.114 1.919 7.172l.34-.211c-1.232-1.987-1.859-4.327-1.859-6.961h-.4zm1.919 7.172c1.176 1.897 2.858 3.447 4.995 4.61l.191-.351c-2.082-1.133-3.71-2.637-4.846-4.47l-.34.211zm4.894 4.472l.871 4.522.393-.076-.871-4.522-.393.076zm.87 4.521a1.77 1.77 0 0 0 1.737 1.44v-.4a1.37 1.37 0 0 1-1.344-1.114l-.393.074zm1.737 1.44h3.024v-.4h-3.024v.4zm3.024 0a1.77 1.77 0 0 0 1.738-1.44l-.393-.074a1.37 1.37 0 0 1-1.344 1.114v.4zm1.738-1.439l.442-2.338-.393-.074-.443 2.338.393.074zm.225-2.177c.926.098 1.885.148 2.854.148v-.4c-.955 0-1.9-.049-2.812-.146l-.042.398zm2.854.148a28.32 28.32 0 0 0 3.951-.276l-.056-.396c-1.276.18-2.585.272-3.895.272v.4zm3.727-.436l.467 2.465.393-.074-.466-2.465-.393.074zm.467 2.465a1.77 1.77 0 0 0 1.737 1.439v-.4a1.37 1.37 0 0 1-1.344-1.114l-.393.074zm1.737 1.439h3.024v-.4h-3.024v.4zm3.024 0a1.77 1.77 0 0 0 1.738-1.44l-.393-.074a1.37 1.37 0 0 1-1.344 1.114v.4zm1.738-1.44l.906-4.794-.393-.074-.906 4.795.393.074zm.803-4.655c2.586-1.367 4.544-3.169 5.812-5.36l-.346-.2c-1.224 2.116-3.122 3.868-5.653 5.206l.187.354zm5.812-5.36a.5.5 0 0 1 .277-.23l-.122-.381a.9.9 0 0 0-.501.411l.346.2zm.277-.23l2.904-.93-.122-.381-2.904.93.122.381zm2.904-.93a2.61 2.61 0 0 0 1.82-2.494h-.4a2.21 2.21 0 0 1-1.542 2.113l.122.381zm1.82-2.494v-2.989h-.4v2.989h.4zm0-2.989a2.61 2.61 0 0 0-1.82-2.493l-.122.381a2.21 2.21 0 0 1 1.542 2.113h.4zm-8.195-9.936c-.122 1.041-.346 2.003-.618 2.747-.136.372-.283.685-.433.925s-.297.394-.42.464l.197.348c.208-.118.396-.334.562-.6s.327-.61.47-.999c.286-.779.515-1.772.64-2.838l-.397-.046zm-1.472 4.136c-.334.189-.916.314-1.584.27s-1.388-.253-2.006-.705l-.236.323c.691.505 1.492.734 2.216.781s1.386-.083 1.808-.321l-.197-.348zm-3.59-.434c-1.22-.892-1.661-2.517-1.184-4.782l-.391-.082c-.493 2.34-.062 4.163 1.339 5.188l.236-.323zm-1.184-4.782c.035-.165.155-.316.327-.394l-.166-.364c-.28.128-.489.379-.552.676l.391.082zm.327-.394c1.598-.731 2.854-1.215 3.793-1.515.945-.302 1.554-.414 1.865-.414v-.4c-.376 0-1.035.129-1.987.433-.958.306-2.229.797-3.837 1.533l.166.364zm5.658-1.929c.095 0 .142.011.159.017l.146-.373c-.086-.034-.192-.045-.305-.045v.4zm.086-.032c.016.017.061.094.111.272.047.168.09.399.121.694.061.589.067 1.418-.056 2.47l.397.046c.126-1.076.121-1.935.057-2.557-.032-.311-.079-.566-.133-.761-.051-.184-.117-.345-.204-.439l-.292.274zM2.978 22.772c.008-.019.017-.048.034-.085a1.26 1.26 0 0 1 .135-.215l-.319-.241c-.053.07-.127.176-.179.289-.026.056-.05.122-.061.19s-.01.154.03.237l.36-.175zm.169-.3c.065-.085.119-.126.157-.147s.068-.024.095-.024v-.4c-.179 0-.38.077-.571.329l.319.242zm.252-.171c.012 0 .025.001.038.003l.053-.396a.69.69 0 0 0-.091-.006v.4zm.038.003c.094.013.234.077.382.213s.286.325.384.57l.371-.149a1.97 1.97 0 0 0-.484-.715c-.186-.171-.399-.288-.6-.315l-.053.396zm.766.783c.046.113.106.304.12.541l.399-.024c-.017-.291-.091-.524-.148-.667l-.371.149zm.36.333c-.436-.09-.816-.199-1.101-.32-.143-.06-.256-.122-.34-.181a.44.44 0 0 1-.144-.147l-.36.175c.058.119.158.217.272.298a2.19 2.19 0 0 0 .416.224 6.49 6.49 0 0 0 1.176.343l.081-.392z" fill="#01ffa9" mask="url(#A)"/><path d="M22.875 9.165c-.39-.36-.898-.576-1.38-.754V6.208c.358.033.608.13.801.221l.127.062.142.068c.08.036.157.062.235.062.194 0 .331-.123.418-.265a.89.89 0 0 0 .129-.428c0-.157-.077-.288-.198-.395s-.286-.191-.473-.258c-.358-.128-.803-.193-1.18-.209V4.81c0-.089-.055-.167-.126-.22s-.167-.089-.263-.089c-.21 0-.377.138-.377.31v.283c-.527.062-1.056.233-1.456.565-.414.343-.688.854-.688 1.579 0 .738.29 1.215.71 1.552.408.326.938.519 1.435.696v2.563a2.07 2.07 0 0 1-1.126-.459l-.182-.15-.002-.002-.158-.13c-.1-.076-.201-.135-.311-.135-.164 0-.306.107-.406.24s-.164.305-.164.453.065.314.18.468.282.306.492.439c.411.26.989.454 1.676.474v.301c0 .171.167.31.377.31.096 0 .191-.035.263-.089s.126-.132.126-.22v-.341c.599-.091 1.109-.327 1.471-.715.371-.397.584-.949.584-1.654 0-.781-.274-1.303-.675-1.674zm-2.078-2.931v1.925c-.271-.105-.509-.213-.684-.362-.186-.159-.3-.365-.3-.672 0-.279.106-.482.286-.626.171-.137.411-.223.698-.265zm1.269 5.453c-.152.163-.369.274-.639.333V9.775c.245.11.46.238.617.411.17.188.276.432.276.776 0 .311-.093.55-.255.724z" fill="#01ffa9" stroke="#01ffa9" stroke-width=".1"/></svg>