<svg width="54" height="54" viewBox="0 0 54 54" fill="none" xmlns="http://www.w3.org/2000/svg">
<g clip-path="url(#clip0_4632_47814)">
<ellipse cx="19.473" cy="20.5" rx="12.6486" ry="8" fill="#01FFA9"/>
<path d="M41.081 26.5H43.7162L40.5 33L45 36L48.9864 28.5L50.5675 31L51.0946 35L48.4594 39.5L42.1351 41L38.9729 46.5L35.8108 51H33.1756L32.1216 48L36.8648 40.5V38L35.8108 36V32L36.8648 29.5L37.9189 27.5L41.081 26.5Z" fill="#01FFA9"/>
<ellipse cx="12.5" cy="20" rx="1" ry="1.5" fill="white"/>
<ellipse cx="26.5" cy="20" rx="1" ry="1.5" fill="white"/>
<mask id="path-5-outside-1_4632_47814" maskUnits="userSpaceOnUse" x="2" y="0.929688" width="50" height="53" fill="black">
<rect fill="white" x="2" y="0.929688" width="50" height="53"/>
<path d="M3.00032 19.4772C3.00032 26.5308 6.12471 31.1444 12.1005 33.1229C10.2504 34.089 9.18377 36.1078 9.41993 38.1963L10.1686 44.995C10.4384 47.4199 12.379 49.3086 14.7903 49.4931V49.5304C14.7903 51.4078 16.2985 52.9297 18.1588 52.9297H21.5275C23.3879 52.9297 24.896 51.4078 24.896 49.5304V49.4931C27.3073 49.3086 29.2479 47.4199 29.5177 44.995L29.5969 44.2794C30.4393 44.9719 31.368 45.5502 32.3591 45.9994L31.3418 47.943C30.78 49.017 30.8285 50.3119 31.4693 51.3399C32.1101 52.368 33.2457 52.973 34.4484 52.927C35.6511 52.881 36.7381 52.191 37.2999 51.1171L41.9579 42.2168C45.4055 42.4776 48.6601 40.5836 50.1632 37.4418C51.6662 34.3 51.1116 30.5502 48.7649 27.9883C48.5782 27.7879 48.3079 27.6894 48.0373 27.7232C47.7665 27.7591 47.5297 27.9254 47.4023 28.1693L44.0691 34.543C43.9648 34.7425 43.7862 34.8919 43.5726 34.9583C43.359 35.0247 43.1281 35.0028 42.9305 34.8973L41.4408 34.1036C41.0317 33.8827 40.8751 33.3707 41.0897 32.9555L44.4237 26.5852C44.5512 26.3415 44.5537 26.0505 44.4303 25.8046C44.307 25.5587 44.0732 25.3884 43.803 25.3479C40.3829 24.8372 37.0015 26.4902 35.2785 29.5149C33.5555 32.5396 33.8419 36.3201 36.0005 39.0453L34.728 41.4758C32.8948 40.6101 31.3511 39.2243 30.2857 37.4876C30.2436 35.6432 29.2069 33.9693 27.5824 33.1229C33.5617 31.1444 36.686 26.5325 36.686 19.4772C36.698 16.7661 36.1233 14.0851 35.0017 11.6215V6.88283C36.1618 6.46894 36.8576 5.27189 36.6496 4.04804C36.4416 2.82419 35.3901 1.92969 34.1597 1.92969C32.9292 1.92969 31.8777 2.82419 31.6696 4.04804C31.4616 5.27189 32.1575 6.46894 33.3175 6.88283V8.72951C30.1798 4.39899 25.1589 1.86904 19.8433 1.94024C14.5276 1.86904 9.50658 4.39899 6.36887 8.72951V6.88283C7.52896 6.46894 8.22481 5.27189 8.01678 4.04804C7.80874 2.82419 6.75721 1.92969 5.52676 1.92969C4.2963 1.92969 3.24477 2.82419 3.03664 4.04804C2.8285 5.27189 3.52446 6.46894 4.68455 6.88283V11.6215C3.56304 14.0851 2.98828 16.7661 3.00032 19.4772ZM34.1597 3.63993C34.6248 3.63993 35.0018 4.02045 35.0018 4.48972C35.0018 4.95898 34.6247 5.33951 34.1597 5.33951C33.6945 5.33951 33.3175 4.95898 33.3175 4.48972C33.3175 4.02045 33.6945 3.63993 34.1597 3.63993ZM5.52676 3.63993C5.99188 3.63993 6.36887 4.02045 6.36887 4.48972C6.36887 4.95898 5.99178 5.33951 5.52676 5.33951C5.06173 5.33951 4.68464 4.95898 4.68464 4.48972C4.68464 4.02045 5.06164 3.63993 5.52676 3.63993ZM21.5275 34.2336V35.9333C21.5275 36.872 20.7734 37.633 19.8432 37.633C18.9129 37.633 18.1588 36.872 18.1588 35.9333V34.2336H21.5275ZM21.5275 51.23H18.1589C17.2287 51.23 16.4746 50.469 16.4746 49.5303H23.2118C23.2118 50.469 22.4577 51.23 21.5275 51.23ZM37.6309 38.3527C35.8473 36.4047 35.3506 33.5872 36.3589 31.138C37.3673 28.6887 39.6962 27.0558 42.3226 26.9565L39.6008 32.1617C38.9496 33.4067 39.4217 34.9486 40.6552 35.6061L42.1441 36.3998C43.3773 37.0579 44.9057 36.5827 45.5581 35.3384L48.2808 30.1341C49.6817 32.3786 49.6595 35.2406 48.2239 37.4626C46.7883 39.6845 44.202 40.8596 41.6017 40.4713C41.2491 40.4216 40.9032 40.5991 40.7351 40.9158L35.8102 50.3233C35.5368 50.8739 34.9895 51.2321 34.3798 51.2596C33.7701 51.2871 33.1934 50.9796 32.8723 50.4559C32.5511 49.9322 32.5359 49.2741 32.8324 48.7358L37.7564 39.3249C37.9228 39.0067 37.8725 38.6173 37.6309 38.3527ZM33.934 42.9867L33.1474 44.4909C31.9143 43.9332 30.7893 43.1586 29.8251 42.2032L30.0685 39.9936C31.1143 41.2753 32.4365 42.2991 33.934 42.9867ZM28.5922 38.0059L27.9783 43.5816H22.3696C21.9045 43.5816 21.5275 43.962 21.5275 44.4314C21.5275 44.9007 21.9046 45.2812 22.3696 45.2812H27.7467C27.3673 46.7808 26.0289 47.8302 24.4952 47.8306H15.1912C13.6574 47.8302 12.319 46.7808 11.9397 45.2812H17.3167C17.7818 45.2812 18.1588 44.9007 18.1588 44.4314C18.1588 43.962 17.7817 43.5816 17.3167 43.5816H11.708L11.0941 38.0084C10.9882 37.0475 11.2929 36.0864 11.9318 35.3659C12.5707 34.6454 13.4835 34.2336 14.4416 34.2334H16.4746V35.9331C16.4746 37.8104 17.9828 39.3323 19.8432 39.3323C21.7035 39.3323 23.2117 37.8104 23.2117 35.9331V34.2334H25.2446C26.2028 34.2335 27.1154 34.6454 27.7545 35.3659C28.3934 36.0864 28.698 37.0474 28.5921 38.0084L28.5922 38.0059ZM19.8432 3.63993C28.4853 3.63993 35.0018 10.4487 35.0018 19.4772C35.0018 28.1411 29.9017 32.5339 19.8432 32.5339C9.78459 32.5339 4.68455 28.1411 4.68455 19.4772C4.68455 10.4487 11.2011 3.63993 19.8432 3.63993Z"/>
</mask>
<path d="M3.00032 19.4772C3.00032 26.5308 6.12471 31.1444 12.1005 33.1229C10.2504 34.089 9.18377 36.1078 9.41993 38.1963L10.1686 44.995C10.4384 47.4199 12.379 49.3086 14.7903 49.4931V49.5304C14.7903 51.4078 16.2985 52.9297 18.1588 52.9297H21.5275C23.3879 52.9297 24.896 51.4078 24.896 49.5304V49.4931C27.3073 49.3086 29.2479 47.4199 29.5177 44.995L29.5969 44.2794C30.4393 44.9719 31.368 45.5502 32.3591 45.9994L31.3418 47.943C30.78 49.017 30.8285 50.3119 31.4693 51.3399C32.1101 52.368 33.2457 52.973 34.4484 52.927C35.6511 52.881 36.7381 52.191 37.2999 51.1171L41.9579 42.2168C45.4055 42.4776 48.6601 40.5836 50.1632 37.4418C51.6662 34.3 51.1116 30.5502 48.7649 27.9883C48.5782 27.7879 48.3079 27.6894 48.0373 27.7232C47.7665 27.7591 47.5297 27.9254 47.4023 28.1693L44.0691 34.543C43.9648 34.7425 43.7862 34.8919 43.5726 34.9583C43.359 35.0247 43.1281 35.0028 42.9305 34.8973L41.4408 34.1036C41.0317 33.8827 40.8751 33.3707 41.0897 32.9555L44.4237 26.5852C44.5512 26.3415 44.5537 26.0505 44.4303 25.8046C44.307 25.5587 44.0732 25.3884 43.803 25.3479C40.3829 24.8372 37.0015 26.4902 35.2785 29.5149C33.5555 32.5396 33.8419 36.3201 36.0005 39.0453L34.728 41.4758C32.8948 40.6101 31.3511 39.2243 30.2857 37.4876C30.2436 35.6432 29.2069 33.9693 27.5824 33.1229C33.5617 31.1444 36.686 26.5325 36.686 19.4772C36.698 16.7661 36.1233 14.0851 35.0017 11.6215V6.88283C36.1618 6.46894 36.8576 5.27189 36.6496 4.04804C36.4416 2.82419 35.3901 1.92969 34.1597 1.92969C32.9292 1.92969 31.8777 2.82419 31.6696 4.04804C31.4616 5.27189 32.1575 6.46894 33.3175 6.88283V8.72951C30.1798 4.39899 25.1589 1.86904 19.8433 1.94024C14.5276 1.86904 9.50658 4.39899 6.36887 8.72951V6.88283C7.52896 6.46894 8.22481 5.27189 8.01678 4.04804C7.80874 2.82419 6.75721 1.92969 5.52676 1.92969C4.2963 1.92969 3.24477 2.82419 3.03664 4.04804C2.8285 5.27189 3.52446 6.46894 4.68455 6.88283V11.6215C3.56304 14.0851 2.98828 16.7661 3.00032 19.4772ZM34.1597 3.63993C34.6248 3.63993 35.0018 4.02045 35.0018 4.48972C35.0018 4.95898 34.6247 5.33951 34.1597 5.33951C33.6945 5.33951 33.3175 4.95898 33.3175 4.48972C33.3175 4.02045 33.6945 3.63993 34.1597 3.63993ZM5.52676 3.63993C5.99188 3.63993 6.36887 4.02045 6.36887 4.48972C6.36887 4.95898 5.99178 5.33951 5.52676 5.33951C5.06173 5.33951 4.68464 4.95898 4.68464 4.48972C4.68464 4.02045 5.06164 3.63993 5.52676 3.63993ZM21.5275 34.2336V35.9333C21.5275 36.872 20.7734 37.633 19.8432 37.633C18.9129 37.633 18.1588 36.872 18.1588 35.9333V34.2336H21.5275ZM21.5275 51.23H18.1589C17.2287 51.23 16.4746 50.469 16.4746 49.5303H23.2118C23.2118 50.469 22.4577 51.23 21.5275 51.23ZM37.6309 38.3527C35.8473 36.4047 35.3506 33.5872 36.3589 31.138C37.3673 28.6887 39.6962 27.0558 42.3226 26.9565L39.6008 32.1617C38.9496 33.4067 39.4217 34.9486 40.6552 35.6061L42.1441 36.3998C43.3773 37.0579 44.9057 36.5827 45.5581 35.3384L48.2808 30.1341C49.6817 32.3786 49.6595 35.2406 48.2239 37.4626C46.7883 39.6845 44.202 40.8596 41.6017 40.4713C41.2491 40.4216 40.9032 40.5991 40.7351 40.9158L35.8102 50.3233C35.5368 50.8739 34.9895 51.2321 34.3798 51.2596C33.7701 51.2871 33.1934 50.9796 32.8723 50.4559C32.5511 49.9322 32.5359 49.2741 32.8324 48.7358L37.7564 39.3249C37.9228 39.0067 37.8725 38.6173 37.6309 38.3527ZM33.934 42.9867L33.1474 44.4909C31.9143 43.9332 30.7893 43.1586 29.8251 42.2032L30.0685 39.9936C31.1143 41.2753 32.4365 42.2991 33.934 42.9867ZM28.5922 38.0059L27.9783 43.5816H22.3696C21.9045 43.5816 21.5275 43.962 21.5275 44.4314C21.5275 44.9007 21.9046 45.2812 22.3696 45.2812H27.7467C27.3673 46.7808 26.0289 47.8302 24.4952 47.8306H15.1912C13.6574 47.8302 12.319 46.7808 11.9397 45.2812H17.3167C17.7818 45.2812 18.1588 44.9007 18.1588 44.4314C18.1588 43.962 17.7817 43.5816 17.3167 43.5816H11.708L11.0941 38.0084C10.9882 37.0475 11.2929 36.0864 11.9318 35.3659C12.5707 34.6454 13.4835 34.2336 14.4416 34.2334H16.4746V35.9331C16.4746 37.8104 17.9828 39.3323 19.8432 39.3323C21.7035 39.3323 23.2117 37.8104 23.2117 35.9331V34.2334H25.2446C26.2028 34.2335 27.1154 34.6454 27.7545 35.3659C28.3934 36.0864 28.698 37.0474 28.5921 38.0084L28.5922 38.0059ZM19.8432 3.63993C28.4853 3.63993 35.0018 10.4487 35.0018 19.4772C35.0018 28.1411 29.9017 32.5339 19.8432 32.5339C9.78459 32.5339 4.68455 28.1411 4.68455 19.4772C4.68455 10.4487 11.2011 3.63993 19.8432 3.63993Z" fill="#0E0E0E"/>
<path d="M3.00032 19.4772C3.00032 26.5308 6.12471 31.1444 12.1005 33.1229C10.2504 34.089 9.18377 36.1078 9.41993 38.1963L10.1686 44.995C10.4384 47.4199 12.379 49.3086 14.7903 49.4931V49.5304C14.7903 51.4078 16.2985 52.9297 18.1588 52.9297H21.5275C23.3879 52.9297 24.896 51.4078 24.896 49.5304V49.4931C27.3073 49.3086 29.2479 47.4199 29.5177 44.995L29.5969 44.2794C30.4393 44.9719 31.368 45.5502 32.3591 45.9994L31.3418 47.943C30.78 49.017 30.8285 50.3119 31.4693 51.3399C32.1101 52.368 33.2457 52.973 34.4484 52.927C35.6511 52.881 36.7381 52.191 37.2999 51.1171L41.9579 42.2168C45.4055 42.4776 48.6601 40.5836 50.1632 37.4418C51.6662 34.3 51.1116 30.5502 48.7649 27.9883C48.5782 27.7879 48.3079 27.6894 48.0373 27.7232C47.7665 27.7591 47.5297 27.9254 47.4023 28.1693L44.0691 34.543C43.9648 34.7425 43.7862 34.8919 43.5726 34.9583C43.359 35.0247 43.1281 35.0028 42.9305 34.8973L41.4408 34.1036C41.0317 33.8827 40.8751 33.3707 41.0897 32.9555L44.4237 26.5852C44.5512 26.3415 44.5537 26.0505 44.4303 25.8046C44.307 25.5587 44.0732 25.3884 43.803 25.3479C40.3829 24.8372 37.0015 26.4902 35.2785 29.5149C33.5555 32.5396 33.8419 36.3201 36.0005 39.0453L34.728 41.4758C32.8948 40.6101 31.3511 39.2243 30.2857 37.4876C30.2436 35.6432 29.2069 33.9693 27.5824 33.1229C33.5617 31.1444 36.686 26.5325 36.686 19.4772C36.698 16.7661 36.1233 14.0851 35.0017 11.6215V6.88283C36.1618 6.46894 36.8576 5.27189 36.6496 4.04804C36.4416 2.82419 35.3901 1.92969 34.1597 1.92969C32.9292 1.92969 31.8777 2.82419 31.6696 4.04804C31.4616 5.27189 32.1575 6.46894 33.3175 6.88283V8.72951C30.1798 4.39899 25.1589 1.86904 19.8433 1.94024C14.5276 1.86904 9.50658 4.39899 6.36887 8.72951V6.88283C7.52896 6.46894 8.22481 5.27189 8.01678 4.04804C7.80874 2.82419 6.75721 1.92969 5.52676 1.92969C4.2963 1.92969 3.24477 2.82419 3.03664 4.04804C2.8285 5.27189 3.52446 6.46894 4.68455 6.88283V11.6215C3.56304 14.0851 2.98828 16.7661 3.00032 19.4772ZM34.1597 3.63993C34.6248 3.63993 35.0018 4.02045 35.0018 4.48972C35.0018 4.95898 34.6247 5.33951 34.1597 5.33951C33.6945 5.33951 33.3175 4.95898 33.3175 4.48972C33.3175 4.02045 33.6945 3.63993 34.1597 3.63993ZM5.52676 3.63993C5.99188 3.63993 6.36887 4.02045 6.36887 4.48972C6.36887 4.95898 5.99178 5.33951 5.52676 5.33951C5.06173 5.33951 4.68464 4.95898 4.68464 4.48972C4.68464 4.02045 5.06164 3.63993 5.52676 3.63993ZM21.5275 34.2336V35.9333C21.5275 36.872 20.7734 37.633 19.8432 37.633C18.9129 37.633 18.1588 36.872 18.1588 35.9333V34.2336H21.5275ZM21.5275 51.23H18.1589C17.2287 51.23 16.4746 50.469 16.4746 49.5303H23.2118C23.2118 50.469 22.4577 51.23 21.5275 51.23ZM37.6309 38.3527C35.8473 36.4047 35.3506 33.5872 36.3589 31.138C37.3673 28.6887 39.6962 27.0558 42.3226 26.9565L39.6008 32.1617C38.9496 33.4067 39.4217 34.9486 40.6552 35.6061L42.1441 36.3998C43.3773 37.0579 44.9057 36.5827 45.5581 35.3384L48.2808 30.1341C49.6817 32.3786 49.6595 35.2406 48.2239 37.4626C46.7883 39.6845 44.202 40.8596 41.6017 40.4713C41.2491 40.4216 40.9032 40.5991 40.7351 40.9158L35.8102 50.3233C35.5368 50.8739 34.9895 51.2321 34.3798 51.2596C33.7701 51.2871 33.1934 50.9796 32.8723 50.4559C32.5511 49.9322 32.5359 49.2741 32.8324 48.7358L37.7564 39.3249C37.9228 39.0067 37.8725 38.6173 37.6309 38.3527ZM33.934 42.9867L33.1474 44.4909C31.9143 43.9332 30.7893 43.1586 29.8251 42.2032L30.0685 39.9936C31.1143 41.2753 32.4365 42.2991 33.934 42.9867ZM28.5922 38.0059L27.9783 43.5816H22.3696C21.9045 43.5816 21.5275 43.962 21.5275 44.4314C21.5275 44.9007 21.9046 45.2812 22.3696 45.2812H27.7467C27.3673 46.7808 26.0289 47.8302 24.4952 47.8306H15.1912C13.6574 47.8302 12.319 46.7808 11.9397 45.2812H17.3167C17.7818 45.2812 18.1588 44.9007 18.1588 44.4314C18.1588 43.962 17.7817 43.5816 17.3167 43.5816H11.708L11.0941 38.0084C10.9882 37.0475 11.2929 36.0864 11.9318 35.3659C12.5707 34.6454 13.4835 34.2336 14.4416 34.2334H16.4746V35.9331C16.4746 37.8104 17.9828 39.3323 19.8432 39.3323C21.7035 39.3323 23.2117 37.8104 23.2117 35.9331V34.2334H25.2446C26.2028 34.2335 27.1154 34.6454 27.7545 35.3659C28.3934 36.0864 28.698 37.0474 28.5921 38.0084L28.5922 38.0059ZM19.8432 3.63993C28.4853 3.63993 35.0018 10.4487 35.0018 19.4772C35.0018 28.1411 29.9017 32.5339 19.8432 32.5339C9.78459 32.5339 4.68455 28.1411 4.68455 19.4772C4.68455 10.4487 11.2011 3.63993 19.8432 3.63993Z" stroke="#0E0E0E" stroke-width="0.5" mask="url(#path-5-outside-1_4632_47814)"/>
<path d="M11.7917 20.4297V20.4297C11.7916 20.0385 12.1088 19.7214 12.5 19.7214C12.8912 19.7214 13.2083 20.0386 13.2083 20.4297C13.2083 20.8209 12.8911 21.138 12.5 21.138C12.1088 21.138 11.7917 20.8208 11.7917 20.4297ZM12.5 23.0547C13.9497 23.0547 15.125 21.8794 15.125 20.4297C15.125 18.9799 13.9497 17.8047 12.5 17.8047C11.0503 17.8047 9.875 18.98 9.875 20.4297C9.875 21.8795 11.0502 23.0547 12.5 23.0547Z" fill="#0E0E0E" stroke="#0E0E0E" stroke-width="0.25"/>
<path d="M26.5 23.0547C27.9497 23.0547 29.125 21.8794 29.125 20.4297C29.125 18.9799 27.9497 17.8047 26.5 17.8047C25.0503 17.8047 23.875 18.98 23.875 20.4297C23.875 21.8795 25.0503 23.0547 26.5 23.0547ZM26.5 19.7214C26.8912 19.7214 27.2083 20.0386 27.2083 20.4297C27.2083 20.8209 26.8912 21.138 26.5 21.138C26.1088 21.138 25.7917 20.8208 25.7917 20.4297C25.7917 20.0385 26.1088 19.7214 26.5 19.7214Z" fill="#0E0E0E" stroke="#0E0E0E" stroke-width="0.25"/>
<path d="M14.4375 29.0547H24.5625C29.2851 29.0547 33.125 25.4232 33.125 20.9297C33.125 16.4362 29.2851 12.8047 24.5625 12.8047H14.4375C9.71492 12.8046 5.875 16.4361 5.875 20.9296C5.875 25.4231 9.71492 29.0547 14.4375 29.0547ZM14.4375 14.6546H24.5625C28.2278 14.6546 31.1876 17.4702 31.1876 20.9297C31.1876 24.3891 28.2278 27.2047 24.5625 27.2047H14.4375C10.7722 27.2047 7.81244 24.3891 7.81244 20.9297C7.81244 17.4702 10.7723 14.6546 14.4375 14.6546Z" fill="#0E0E0E" stroke="#0E0E0E" stroke-width="0.25"/>
<path d="M22.8121 24.1689L22.8122 24.1691L22.8188 24.1641C23.0153 24.0156 23.1238 23.8124 23.125 23.5993C23.1262 23.3862 23.02 23.1821 22.8251 23.0322C22.4453 22.7383 21.8378 22.7285 21.4426 23.0067C20.8879 23.3311 20.1945 23.4961 19.4882 23.4682L19.4882 23.4678L19.4783 23.4682C18.7733 23.4961 18.081 23.332 17.5266 23.009C17.1326 22.7486 16.5459 22.7641 16.176 23.0493C15.9869 23.1951 15.8804 23.3921 15.8752 23.5997C15.87 23.8076 15.9666 24.0085 16.1492 24.1605L16.1546 24.1651L16.1605 24.169C17.0834 24.7751 18.2717 25.089 19.4832 25.0515C20.6969 25.0903 21.8877 24.7763 22.8121 24.1689Z" fill="#0E0E0E" stroke="#0E0E0E" stroke-width="0.25"/>
<path d="M21.1667 12.0047H17.8333C17.3194 12.0047 16.9249 11.5099 16.925 10.9297L21.1667 12.0047ZM21.1667 12.0047C21.6806 12.0047 22.075 11.5099 22.075 10.9297M21.1667 12.0047L22.075 10.9297M22.075 10.9297C22.075 10.3493 21.6806 9.85469 21.1667 9.85469M22.075 10.9297L21.1667 9.85469M21.1667 9.85469H17.8333M21.1667 9.85469H17.8333M17.8333 9.85469C17.3194 9.85469 16.925 10.3494 16.925 10.9297L17.8333 9.85469Z" fill="#0E0E0E" stroke="#0E0E0E" stroke-width="0.15"/>
<path d="M18.75 9.00469H20.25C20.486 9.00469 20.694 8.87694 20.8404 8.68176C20.9867 8.48661 21.075 8.22045 21.075 7.92969C21.075 7.63892 20.9867 7.37276 20.8403 7.17761C20.6939 6.98244 20.486 6.85469 20.25 6.85469H18.75C18.514 6.85469 18.306 6.98243 18.1596 7.17761C18.0133 7.37277 17.925 7.63892 17.925 7.92969C17.925 8.22045 18.0133 8.48661 18.1596 8.68176C18.306 8.87694 18.514 9.00469 18.75 9.00469Z" fill="#0E0E0E" stroke="#0E0E0E" stroke-width="0.15"/>
</g>
<defs>
<clipPath id="clip0_4632_47814">
<rect width="53" height="53" fill="white" transform="translate(0.5 0.5)"/>
</clipPath>
</defs>
</svg>
