<svg width="24" height="25" viewBox="0 0 24 25" fill="none" xmlns="http://www.w3.org/2000/svg">
<path d="M14.107 2.07558C13.4878 -0.0251933 10.5122 -0.0251926 9.89301 2.07558L9.74284 2.58505C9.3472 3.92735 7.81403 4.56241 6.58512 3.89302L6.11869 3.63896C4.19539 2.59133 2.09133 4.69539 3.13896 6.6187L3.39302 7.08512C4.06241 8.31403 3.42735 9.8472 2.08505 10.2428L1.57558 10.393C-0.525193 11.0122 -0.525193 13.9878 1.57558 14.607L2.08505 14.7572C3.42735 15.1528 4.06241 16.686 3.39302 17.9149L3.13896 18.3813C2.09133 20.3046 4.19538 22.4087 6.11869 21.361L6.58512 21.107C7.81403 20.4376 9.3472 21.0727 9.74284 22.415L9.89301 22.9244C10.5122 25.0252 13.4878 25.0252 14.107 22.9244L14.2572 22.415C14.6528 21.0727 16.186 20.4376 17.4149 21.107L17.8813 21.361C19.8046 22.4087 21.9087 20.3046 20.861 18.3813L20.607 17.9149C19.9376 16.686 20.5727 15.1528 21.915 14.7572L22.4244 14.607C24.5252 13.9878 24.5252 11.0122 22.4244 10.393L21.915 10.2428C20.5727 9.8472 19.9376 8.31403 20.607 7.08512L20.861 6.61869C21.9087 4.69538 19.8046 2.59133 17.8813 3.63896L17.4149 3.89302C16.186 4.56241 14.6528 3.92735 14.2572 2.58505L14.107 2.07558ZM12 16.8932C9.57369 16.8932 7.60678 14.9263 7.60678 12.5C7.60678 10.0737 9.57369 8.10678 12 8.10678C14.4263 8.10678 16.3932 10.0737 16.3932 12.5C16.3932 14.9263 14.4263 16.8932 12 16.8932Z" fill="#3424C4"/>
</svg>
