<svg width="22" height="22" viewBox="0 0 16 17" fill="none" xmlns="http://www.w3.org/2000/svg">
<path d="M8 15.5C4.13401 15.5 1 12.366 1 8.5C1 4.63401 4.13401 1.5 8 1.5C11.866 1.5 15 4.63401 15 8.5C15 12.366 11.866 15.5 8 15.5ZM8 16.5C12.4183 16.5 16 12.9183 16 8.5C16 4.08172 12.4183 0.5 8 0.5C3.58172 0.5 0 4.08172 0 8.5C0 12.9183 3.58172 16.5 8 16.5Z" fill="#3C3E3E"/>
<path d="M8.9307 7.08789L6.63969 7.375L6.55766 7.75586L7.00883 7.83789C7.3018 7.9082 7.36039 8.01367 7.29594 8.30664L6.55766 11.7754C6.3643 12.6719 6.66313 13.0938 7.36625 13.0938C7.91117 13.0938 8.54398 12.8418 8.83109 12.4961L8.91898 12.0801C8.71977 12.2559 8.4268 12.3262 8.23344 12.3262C7.95805 12.3262 7.85844 12.1328 7.92875 11.793L8.9307 7.08789Z" fill="#3C3E3E"/>
<path d="M9 5C9 5.55228 8.55228 6 8 6C7.44772 6 7 5.55228 7 5C7 4.44772 7.44772 4 8 4C8.55228 4 9 4.44772 9 5Z" fill="#3C3E3E"/>
</svg>
