<svg xmlns="http://www.w3.org/2000/svg" width="32" height="32" fill="none" xmlns:v="https://vecta.io/nano"><path d="M23.125 4.633l-5.245 5.245.707 3.536 3.536.707 5.245-5.245h0c.649 1.533.805 3.229.444 4.854s-1.218 3.097-2.454 4.212-2.789 1.816-4.443 2.006-3.325-.139-4.782-.943h0L9.122 27.12a3 3 0 0 1-4.241-.001 3 3 0 0 1-.001-4.241l8.116-7.011h0c-.804-1.457-1.134-3.129-.943-4.783s.892-3.206 2.006-4.442 2.587-2.094 4.212-2.454 3.322-.205 4.854.444v.001z" stroke="#0e0e0e" stroke-width="2" stroke-linejoin="round"/></svg>