<svg width="19" height="16" viewBox="0 0 19 16" fill="none" xmlns="http://www.w3.org/2000/svg">
<path d="M2.66667 8.15H2.81667V8C2.81667 3.66507 6.33173 0.15 10.6667 0.15C15.0016 0.15 18.5167 3.66507 18.5167 8C18.5167 12.3349 15.0016 15.85 10.6667 15.85C8.93129 15.85 7.32592 15.2805 6.02321 14.3294L7.07619 13.2616C8.1018 13.955 9.33706 14.3722 10.6667 14.3722C14.1895 14.3722 17.0389 11.5228 17.0389 8C17.0389 4.47716 14.1895 1.62778 10.6667 1.62778C7.14382 1.62778 4.29444 4.47716 4.29444 8V8.15H4.44444H6.74898L3.55556 11.3434L0.362132 8.15H2.66667Z" fill="#AAAAAA" stroke="#F2F2F2" stroke-width="0.3"/>
</svg>
