<svg width="54" height="82" fill="none" xmlns="http://www.w3.org/2000/svg"><path d="M19.066 50.943l-8.92 5.107 8.92-5.107zM20.965 52.516a.442.442 0 00-.44-.767L2.212 62.236a.442.442 0 10.44.767l18.314-10.487zM23.25 53.828a.44.44 0 00-.438-.765L4.497 63.548a.442.442 0 00.439.767L23.25 53.828zM25.576 55.16a.442.442 0 10-.439-.766L6.823 64.88a.442.442 0 10.439.767L25.576 55.16zM27.819 56.45a.442.442 0 10-.44-.767L9.065 66.17a.44.44 0 00.438.765l18.316-10.486zM30.14 57.78a.441.441 0 00-.44-.766L11.388 67.499a.442.442 0 10.44.767L30.139 57.78zM32.426 59.093a.442.442 0 00-.44-.768L13.675 68.811a.441.441 0 10.439.767l18.313-10.485zM34.477 60.58c.21-.12.311-.375.185-.582a2.156 2.156 0 00-.039-.061c-.13-.197-.394-.233-.6-.116L16.49 69.861c-.385.22-.313.77.127.83a.493.493 0 00.31-.063l17.55-10.048zM35.181 61.818a.489.489 0 00-.168.06l-15.84 9.069a.43.43 0 00-.19.204 1.347 1.347 0 00-.087.315c-.049.322.32.474.603.312l16.087-9.212c.428-.245.285-.833-.205-.775a6.324 6.324 0 00-.2.027zM39.502 62.565a5.146 5.146 0 00-.311-.164.481.481 0 00-.448.021l-18.41 10.54c-.238.137-.26.472-.02.608l.115.066c.157.09.348.09.505 0L39.5 63.003a.253.253 0 000-.438zM41.503 64.482a.442.442 0 00-.44-.768L22.748 74.2a.442.442 0 00.44.767l18.315-10.486zM43.826 65.815a.442.442 0 10-.439-.767L25.073 75.535a.442.442 0 00.439.767l18.314-10.487zM46.069 67.1a.44.44 0 00-.439-.766L27.315 76.82a.442.442 0 10.439.767L46.068 67.1zM48.391 68.432a.442.442 0 00-.439-.767L29.637 78.151a.442.442 0 00.44.768L48.39 68.432zM50.678 69.746a.442.442 0 10-.44-.767L31.925 79.467a.44.44 0 10.438.765l18.316-10.486zM52.929 71.12c.265-.153.335-.505.104-.705l-.018-.016a.47.47 0 00-.54-.038L34.444 80.687c-.352.201-.326.704.064.815.124.035.26.017.371-.047L52.93 71.12zM17.968 51.571c.397-.227.306-.794-.15-.828l-.016-.001a.489.489 0 00-.279.065L.3 60.67c-.18.103-.286.31-.21.504l.039.094c.106.233.398.289.621.161l9.396-5.38 7.823-4.478z" fill="#000"/><path d="M31.13 31.254l-25.95.039a.532.532 0 00-.534.53l.01 22.635h.007c.057.787.648 1.601 1.77 2.246l7.81 4.48c2.16 1.24 5.433 1.375 7.305.302l8.86-5.082c.898-.517 1.299-1.219 1.246-1.944h.007V31.785a.526.526 0 00-.532-.531z" fill="#05FFA3"/><path d="M21.952 62.175l8.858-5.081c.816-.467 1.354-1.112 1.559-1.837h.094V31.786c0-.732-.598-1.327-1.336-1.327l-25.95.039c-.735 0-1.333.595-1.333 1.326l.009 22.637.007.796h.163c.299.812.991 1.555 2.008 2.136l7.808 4.48c1.311.753 2.955 1.135 4.526 1.135 1.336 0 2.612-.275 3.587-.833zM5.446 32.09l25.419-.04v21.615h-.07l.063.854c.041.564-.44.962-.849 1.198l-8.857 5.082c-1.621.93-4.601.789-6.505-.302l-7.812-4.48c-.832-.479-1.333-1.066-1.372-1.615l-.007-.069-.01-22.243z" fill="#000"/><path d="M31.127 31.277l-11.943.019v30.89c.885-.084 1.713-.304 2.363-.676l8.86-5.082c.9-.517 1.3-1.22 1.247-1.944h.006V31.808a.53.53 0 00-.533-.53z" fill="#000"/><path d="M30.409 33.239l-8.86 5.081c-1.872 1.075-5.144.94-7.306-.302l-7.809-4.48c-2.161-1.24-2.396-3.117-.524-4.19l8.86-5.081c1.872-1.075 5.144-.94 7.305.302l7.81 4.48c2.16 1.24 2.398 3.115.524 4.19z" fill="#fff"/><path d="M21.954 39.01l8.857-5.082c1.074-.615 1.665-1.505 1.665-2.506 0-1.146-.798-2.262-2.19-3.058l-7.81-4.48c-2.42-1.389-5.981-1.521-8.106-.302l-8.858 5.081c-1.073.618-1.664 1.508-1.664 2.51 0 1.145.798 2.261 2.189 3.057l7.809 4.48c1.31.753 2.955 1.135 4.525 1.135 1.332-.003 2.608-.277 3.583-.835zm-.276-13.752l7.809 4.48c.869.499 1.389 1.128 1.389 1.681 0 .524-.47.904-.865 1.132l-8.857 5.082c-1.622.93-4.602.79-6.506-.302l-7.811-4.48c-.87-.499-1.389-1.128-1.389-1.683 0-.526.47-.906.865-1.132l8.857-5.082c.725-.414 1.716-.618 2.764-.618 1.302.005 2.688.318 3.744.922z" fill="#000"/><path d="M15.887 38.432h-1.6v23.126h1.6V38.432z" fill="#000"/><path d="M29.246 36.291h-1.23v18.827h1.23V36.29zM49.112 55.315l-25.95.038a.532.532 0 00-.533.53l.01 7.955h.006c.058.787.649 1.601 1.77 2.246l7.81 4.48c2.161 1.24 5.433 1.375 7.305.302l8.86-5.082c.899-.516 1.3-1.219 1.246-1.944h.007v-7.995a.526.526 0 00-.531-.53z" fill="#05FFA3"/><path d="M39.932 71.552l8.858-5.082c.816-.467 1.355-1.112 1.56-1.837h.093v-8.79c0-.733-.597-1.327-1.336-1.327l-25.95.038c-.735 0-1.333.595-1.333 1.327l.01 7.954.009.794h.163c.299.812.99 1.555 2.007 2.138l7.81 4.48c1.31.753 2.954 1.135 4.525 1.135 1.333.004 2.61-.27 3.584-.83zM23.43 56.146l25.416-.039v6.935h-.069l.062.853c.042.565-.439.963-.848 1.198l-8.858 5.082c-1.62.928-4.6.791-6.505-.3l-7.809-4.48c-.832-.478-1.334-1.066-1.373-1.615l-.007-.07-.009-7.564z" fill="#000"/><path d="M49.108 55.338l-11.944.018v16.21c.885-.084 1.713-.304 2.364-.676l8.86-5.082c.899-.517 1.299-1.22 1.246-1.944h.007V55.87a.533.533 0 00-.533-.533z" fill="#000"/><path d="M48.391 57.297l-8.86 5.082c-1.871 1.075-5.144.94-7.305-.302l-7.81-4.48c-2.16-1.24-2.395-3.117-.523-4.19l8.86-5.082c1.871-1.075 5.143-.94 7.305.302l7.809 4.48c2.161 1.24 2.396 3.117.524 4.19z" fill="#fff"/><path d="M39.932 63.068l8.857-5.082c1.074-.617 1.665-1.507 1.665-2.509 0-1.146-.798-2.262-2.189-3.057l-7.809-4.48c-2.421-1.389-5.98-1.52-8.106-.303l-8.857 5.082c-1.074.615-1.665 1.505-1.665 2.507 0 1.145.798 2.261 2.19 3.057l7.808 4.48c1.31.753 2.955 1.135 4.526 1.135 1.329.005 2.605-.27 3.58-.83zm-.276-13.752l7.809 4.48c.87.499 1.389 1.128 1.389 1.684 0 .526-.47.905-.865 1.132l-8.857 5.081c-1.621.929-4.602.792-6.506-.301l-7.809-4.48c-.869-.5-1.388-1.128-1.388-1.684 0-.524.469-.903.864-1.132l8.858-5.082c.724-.414 1.715-.617 2.764-.617 1.299.002 2.685.315 3.74.919z" fill="#000"/><path d="M33.866 62.492h-1.6v8.446h1.6v-8.446z" fill="#000"/><path d="M47.226 60.352h-1.23v4.146h1.23v-4.146zM27.027.64c-.074-.12-.267-.102-.41.152L14.854 21.75l-.977.098-3.178-1.9-.694-.826-4.438-2.246c-.212-.125-.557.37-.41.588l9.058 13.128 4.132 2.218a.066.066 0 00.097-.048l.8-6.408 10.718-20.49 1.462-2.9a.177.177 0 00-.082-.24L27.027.641z" fill="#05FFA3"/><path d="M18.972 33.123l.825-6.6L30.473 6.116l1.462-2.898a.729.729 0 00.04-.576.733.733 0 00-.383-.428L27.375.176A.674.674 0 0026.891 0c-.308.005-.586.192-.768.515L14.5 21.215l-.492.05-2.934-1.754-.632-.753-4.58-2.367c-.313-.187-.702-.116-.99.185-.291.307-.45.82-.186 1.206l9.058 13.13.078.114 4.261 2.284.327.138.563-.325zM6.052 17.759l3.589 1.816.62.736 3.484 2.12 1.463-.149 11.8-21.022 3.728 1.802L18.738 26.09l-.769 5.871-3.361-1.804L6.05 17.759z" fill="#000"/><path d="M9.594 19.71l9.058 13.127c.03.041.1.002.133-.073L31.457 3.17c.17-.4-.186-.52-.402-.135l-11.996 21.37c-.03.055-.083.085-.113.066l-8.945-5.351c-.21-.124-.554.372-.407.59z" fill="#000"/><path d="M18.747 33.419a.697.697 0 00.563-.432L31.982 3.393c.228-.531-.002-.934-.313-1.087-.335-.164-.825-.06-1.112.453L18.793 23.717l-8.495-5.08c-.315-.189-.703-.114-.989.188-.292.307-.448.82-.183 1.203l9.057 13.13.228.295.335-.034zm-.095-8.462a.64.64 0 00.476.069l.313-.13 8.841-15.75L18.6 31.759l-8.025-11.634 8.078 4.833z" fill="#000"/></svg>