<svg width="18" height="16" viewBox="0 0 18 16" fill="none" xmlns="http://www.w3.org/2000/svg">
<path d="M9 4.25C11.07 4.25 12.75 5.93 12.75 8C12.75 8.4875 12.6525 8.945 12.48 9.3725L14.67 11.5625C15.8025 10.6175 16.695 9.395 17.2425 8C15.945 4.7075 12.7425 2.375 8.9925 2.375C7.9425 2.375 6.9375 2.5625 6.0075 2.9L7.6275 4.52C8.055 4.3475 8.5125 4.25 9 4.25ZM1.5 2.2025L3.21 3.9125L3.555 4.2575C2.31 5.225 1.335 6.515 0.75 8C2.0475 11.2925 5.25 13.625 9 13.625C10.1625 13.625 11.2725 13.4 12.285 12.995L12.6 13.31L14.7975 15.5L15.75 14.5475L2.4525 1.25L1.5 2.2025ZM5.6475 6.35L6.81 7.5125C6.7725 7.67 6.75 7.835 6.75 8C6.75 9.245 7.755 10.25 9 10.25C9.165 10.25 9.33 10.2275 9.4875 10.19L10.65 11.3525C10.1475 11.6 9.5925 11.75 9 11.75C6.93 11.75 5.25 10.07 5.25 8C5.25 7.4075 5.4 6.8525 5.6475 6.35ZM8.88 5.765L11.2425 8.1275L11.2575 8.0075C11.2575 6.7625 10.2525 5.7575 9.0075 5.7575L8.88 5.765Z" fill="#3C3E3E"/>
</svg>
