<svg width="18" height="16" viewBox="0 0 18 16" fill="none" xmlns="http://www.w3.org/2000/svg">
<path d="M9 2.375C5.25 2.375 2.0475 4.7075 0.75 8C2.0475 11.2925 5.25 13.625 9 13.625C12.75 13.625 15.9525 11.2925 17.25 8C15.9525 4.7075 12.75 2.375 9 2.375ZM9 11.75C6.93 11.75 5.25 10.07 5.25 8C5.25 5.93 6.93 4.25 9 4.25C11.07 4.25 12.75 5.93 12.75 8C12.75 10.07 11.07 11.75 9 11.75ZM9 5.75C7.755 5.75 6.75 6.755 6.75 8C6.75 9.245 7.755 10.25 9 10.25C10.245 10.25 11.25 9.245 11.25 8C11.25 6.755 10.245 5.75 9 5.75Z" fill="#3C3E3E"/>
</svg>
