<svg width="59" height="60" viewBox="0 0 59 60" fill="none" xmlns="http://www.w3.org/2000/svg">
<mask id="path-1-inside-1" fill="white">
<path d="M29.6172 0.689734C45.5984 0.689733 58.5537 13.8126 58.5537 30.0004C58.5537 46.1882 45.5984 59.311 29.6172 59.311C13.636 59.311 0.680725 46.1882 0.680724 30.0004C0.680723 13.8126 13.636 0.689735 29.6172 0.689734ZM29.6172 53.9818C42.6927 53.9818 53.2925 43.245 53.2925 30.0004C53.2925 16.7558 42.6927 6.01894 29.6172 6.01894C16.5417 6.01894 5.9419 16.7558 5.9419 30.0004C5.9419 43.245 16.5417 53.9818 29.6172 53.9818Z"/>
</mask>
<path d="M29.6172 0.689734C45.5984 0.689733 58.5537 13.8126 58.5537 30.0004C58.5537 46.1882 45.5984 59.311 29.6172 59.311C13.636 59.311 0.680725 46.1882 0.680724 30.0004C0.680723 13.8126 13.636 0.689735 29.6172 0.689734ZM29.6172 53.9818C42.6927 53.9818 53.2925 43.245 53.2925 30.0004C53.2925 16.7558 42.6927 6.01894 29.6172 6.01894C16.5417 6.01894 5.9419 16.7558 5.9419 30.0004C5.9419 43.245 16.5417 53.9818 29.6172 53.9818Z" stroke="#3C3E3E" stroke-width="6" mask="url(#path-1-inside-1)"/>
<mask id="path-2-inside-2" fill="white">
<path d="M58.5536 30.0001C58.5536 46.1879 45.5983 59.3108 29.6171 59.3108C13.636 59.3108 0.680664 46.1879 0.680664 30.0001C0.680664 13.8123 13.636 0.689453 29.6171 0.689453C45.5983 0.689453 58.5536 13.8123 58.5536 30.0001ZM5.94184 30.0001C5.94184 43.2447 16.5416 53.9815 29.6171 53.9815C42.6926 53.9815 53.2924 43.2447 53.2924 30.0001C53.2924 16.7555 42.6926 6.01866 29.6171 6.01866C16.5416 6.01866 5.94184 16.7555 5.94184 30.0001Z"/>
</mask>
<path d="M58.5536 30.0001C58.5536 46.1879 45.5983 59.3108 29.6171 59.3108C13.636 59.3108 0.680664 46.1879 0.680664 30.0001C0.680664 13.8123 13.636 0.689453 29.6171 0.689453C45.5983 0.689453 58.5536 13.8123 58.5536 30.0001ZM5.94184 30.0001C5.94184 43.2447 16.5416 53.9815 29.6171 53.9815C42.6926 53.9815 53.2924 43.2447 53.2924 30.0001C53.2924 16.7555 42.6926 6.01866 29.6171 6.01866C16.5416 6.01866 5.94184 16.7555 5.94184 30.0001Z" stroke="#3424C4" stroke-width="6" mask="url(#path-2-inside-2)"/>
<g clip-path="url(#clip0)">
<path d="M42.9523 22.7378C41.3318 24.3583 38.7045 24.3583 37.0839 22.7378C35.4633 21.1173 35.4634 18.4899 37.0839 16.8694L34.2145 14L13.8218 34.3927L16.6912 37.2622C18.3117 35.6417 20.9392 35.6417 22.5597 37.2622C24.1802 38.8827 24.1802 41.5101 22.5597 43.1306L25.429 46L45.8218 25.6073L42.9523 22.7378ZM29.7917 25.4341L28.4606 24.103L29.7864 22.7772L31.1175 24.1083L29.7917 25.4341ZM32.454 28.0964L31.1228 26.7653L32.4486 25.4395L33.7798 26.7706L32.454 28.0964ZM35.1162 30.7588L33.7851 29.4276L35.1109 28.1018L36.442 29.4329L35.1162 30.7588Z" fill="#3424C4"/>
</g>
<defs>
<clipPath id="clip0">
<rect width="32" height="32" fill="white" transform="translate(13.8218 14)"/>
</clipPath>
</defs>
</svg>
