<svg width="212" height="133" fill="none" xmlns="http://www.w3.org/2000/svg"><path d="M127.22 94.074l16.199-12.115c4.693-3.507 7.961-8.568 9.316-14.261a33.536 33.536 0 0112.723-19.242l32.917-25.068L159.984 7.16l-31.928 23.794a33.501 33.501 0 00-13.291 20.086l-.228 1.02a24.813 24.813 0 01-9.897 14.92L89.907 77.83l37.313 16.244z" fill="#fff"/><path d="M127.885 95.397a1 1 0 01-.998.116L88.595 78.85a1 1 0 01-.193-1.723l15.376-11.316a23.358 23.358 0 009.331-14.065l.228-1.02a34.899 34.899 0 0113.864-20.962l32.113-23.93a1 1 0 01.987-.119l39.364 16.64a1 1 0 01.216 1.716l-33.544 25.545a32.105 32.105 0 00-12.184 18.41c-1.438 6.05-4.936 11.408-9.855 15.092l-16.413 12.279zM94.21 76.484a1 1 0 00.194 1.723l32.09 13.955a1 1 0 00.998-.116l15.054-11.265c4.375-3.278 7.492-8.043 8.767-13.428a35.021 35.021 0 0113.272-20.074l29.528-22.481a1 1 0 00-.216-1.717L160.712 9.054a1 1 0 00-.987.12l-30.798 22.95c-6.504 4.637-11.027 11.463-12.735 19.233l-.228 1.02a26.291 26.291 0 01-10.469 15.805L94.21 76.484z" fill="#0E0E0E"/><path d="M110.548 77.369l12.886 5.563c1.215.511 3.175.175 4.378-.74l5.246-4.002c1.213-.917 1.206-2.076-.009-2.587l-12.886-5.563c-1.214-.511-3.175-.175-4.378.74l-5.245 4.002c-1.202.925-1.196 2.075.008 2.587z" fill="#fff"/><path d="M125.553 84.252c-.907.114-1.81.03-2.554-.283l-12.895-5.562c-.89-.374-1.464-1.075-1.568-1.895-.116-.927.368-1.88 1.337-2.607l5.236-4.001c1.548-1.167 3.9-1.543 5.5-.882l12.897 5.572c.89.374 1.463 1.065 1.568 1.894.117.927-.368 1.88-1.337 2.608l-5.236 4c-.834.621-1.894 1.023-2.948 1.156zM110.77 76.22c.01-.001.077.06.222.11l.011.01 12.886 5.563c.837.35 2.368.068 3.256-.6l5.236-4c.343-.262.446-.473.458-.534-.01.001-.077-.06-.224-.12l-12.895-5.563c-.744-.312-2.296-.127-3.256.6l-5.236 4c-.345.252-.447.463-.458.534zM146.491 57.103a1 1 0 01-1.311.533l-2.294-.97a1 1 0 01-.532-1.31l.093-.22a.999.999 0 011.31-.532l2.295.97a1 1 0 01.532 1.31l-.093.22zm-6.199-2.619a1 1 0 01-1.311.533l-2.295-.97a1 1 0 01-.532-1.31l.093-.22a1 1 0 011.311-.532l2.295.97a1 1 0 01.532 1.31l-.093.22zm-6.2-2.619a.999.999 0 01-1.31.533l-2.295-.97a1 1 0 01-.532-1.31l.093-.22a1 1 0 011.311-.532l2.294.97a1 1 0 01.532 1.31l-.093.22zm-6.322-2.342a.705.705 0 11-1.297-.554l.327-.766a.704.704 0 111.297.553l-.327.767zM130.191 42.268l-.095.224a1 1 0 00.532 1.31l18.065 7.631a1 1 0 001.311-.532l.094-.224a1 1 0 00-.532-1.31l-18.065-7.631a1 1 0 00-1.31.532zM155.748 19.554l-.094.224a1 1 0 00.534 1.309l17.932 7.539a1 1 0 001.31-.535l.094-.223a1 1 0 00-.534-1.31l-17.932-7.538a1 1 0 00-1.31.534zM149.066 24.5l-.094.224a.999.999 0 00.534 1.31l17.932 7.538a1 1 0 001.309-.534l.094-.223a1 1 0 00-.534-1.31l-17.932-7.539a1 1 0 00-1.309.534zM142.411 29.631l-.094.224a1 1 0 00.535 1.31l17.932 7.538a1 1 0 001.309-.534l.094-.224a1 1 0 00-.534-1.309l-17.932-7.539a1 1 0 00-1.31.534z" fill="#0E0E0E"/><path d="M11.63 102.875l10.501-2.305c.024-.003.034-.016.045-.018l17.597-13.354c2.05-1.558 5.746-1.965 8.255-.91l4.181 1.754 1.186-.906c2.05-1.558 5.746-1.965 8.255-.91l4.18 1.754 1.187-.906c1.532-1.163 3.984-1.685 6.18-1.43l.058-.007 13.374-5.87-.524-1.53c-3.167-1.398.946-2.626 1.487-2.836l12.902-5.303c.079-.033.167.015.178.096l1.399 11.101c.104.826-.305 1.705-1.298 2.457l-6.71 5.09a.153.153 0 00-.04.159l1.226 2.694c.018.045.069.074.117.08l3.898-.019c.06.004.123.032.131.102.141 1.117 1.397 11.267 1.396 11.444l.001.012c-.058 1.414-1.622 2.793-4.068 3.361a70.86 70.86 0 00-9.838 3.073l-7.349 2.936c-6.968 2.77-14.491 4.983-22.326 6.597-7.409 1.526-14.019 4.321-18.874 8.007l-.7.537-19.437-8.177c-3.008-1.264-4.84-3.231-5.248-5.438l-1.422-11.181c-.01-.081.03-.145.1-.154z" fill="#01FFA9"/><path d="M38.345 129.458a1 1 0 01-.989.122l-19.842-8.344c-3.52-1.483-5.749-3.874-6.274-6.727l-1.538-12.024a1 1 0 01.72-1.089l.826-.234 9.942-2.18a1 1 0 00.39-.18l17.131-12.995c2.525-1.914 6.92-2.409 9.977-1.127l2.808 1.184a.841.841 0 00.839-.107c2.536-1.916 6.919-2.41 9.978-1.117l2.806 1.174a.844.844 0 00.839-.108c1.703-1.29 4.225-1.964 6.734-1.83.163.009.327-.019.476-.084l9.453-4.152c.665-.292.78-1.21.611-1.918a2.356 2.356 0 01-.06-.629c.072-1.96 2.356-2.78 3.59-3.218l13.415-5.502a1 1 0 01.862.05l.75.412c.265.147.45.405.502.703l.084.477 1.399 11.1c.188 1.49-.536 2.965-1.971 4.056l-5.409 4.1a.434.434 0 00.263.78l3.288-.008a1 1 0 01.985.812l.156.813c1.423 11.382 1.411 11.572 1.407 11.727-.088 2.304-2.217 4.263-5.396 5.018-3.352.789-6.572 1.786-9.6 2.995l-7.328 2.91c-7.07 2.807-14.683 5.055-22.623 6.682-7.11 1.452-13.55 4.191-18.17 7.682l-1.03.776zM14.33 104.06a1 1 0 00-.78 1.104l1.123 8.817c.292 1.571 1.79 3.049 4.2 4.058l17.982 7.562c.328.138.704.09.992-.119 5.017-3.649 11.575-6.383 19.008-7.905 7.743-1.591 15.162-3.78 22.042-6.503l7.329-2.91c3.174-1.263 6.575-2.318 10.077-3.138 1.757-.419 2.58-1.228 2.707-1.648a.418.418 0 00.007-.179c-.095-.761-.694-5.583-1.086-8.773a.999.999 0 00-.997-.877l-2.093.01a1 1 0 01-.891-.54l-.296-.568-1.488-3.281a1 1 0 01.264-1.176l.588-.498 6.689-5.075c.485-.369.645-.697.625-.86l-.973-7.71a1 1 0 00-1.37-.8l-10.045 4.114c-.195.062-.296.286-.229.48l.772 2.243a1 1 0 01-.543 1.241l-14.2 6.225a1 1 0 01-.516.078l-.271-.031c-1.775-.202-3.766.226-4.898 1.09l-1.524 1.163a1 1 0 01-.994.127l-4.572-1.921c-1.922-.81-4.978-.484-6.522.68l-1.524 1.164a1 1 0 01-.994.127l-4.572-1.922c-1.922-.81-4.978-.484-6.52.692l-17.717 13.44c-.1.075-.212.131-.332.165l-.195.055-8.264 1.799z" fill="#0E0E0E"/><path d="M37.525 127.129a.393.393 0 01-.551.413l-18.8-7.903c-3.007-1.264-4.84-3.231-5.248-5.438l-1.421-11.181c-.009-.07.032-.122.1-.142l.322-.076 21.782-2.747a.396.396 0 01.446.346l3.37 26.728z" fill="#0E0E0E"/><path d="M37.397 129.297a2.12 2.12 0 01-1.083-.147l-18.812-7.913c-3.52-1.483-5.748-3.873-6.274-6.727l-1.645-12.867 1.977-.533 21.933-2.777a2.142 2.142 0 012.385 1.851l3.37 26.729a2.158 2.158 0 01-.828 1.972c-.29.225-.65.365-1.023.412zm-23.96-24.924l1.224 9.61c.293 1.57 1.791 3.048 4.2 4.057l16.652 7.003-2.91-23.086-19.166 2.416z" fill="#0E0E0E"/><path d="M46.59 74.978c-2.51-1.054-6.205-.648-8.255.911L18.731 90.761c-3.506 2.664-5.872 5.74-6.876 8.94l-.177.567c-1.01 3.236.926 6.314 5.083 8.059l18.9 7.952c.332.139.712.09.997-.128l.24-.184c4.855-3.686 11.453-6.48 18.874-8.007 7.846-1.615 15.358-3.827 22.326-6.597l7.329-2.91a70.639 70.639 0 019.837-3.072c2.951-.692 4.656-2.55 3.91-4.252l-.185-.426c-.78-1.782-3.972-2.727-7.11-2.106l-2.919.568c-3.91.765-7.757 1.664-11.553 2.686l-5.259 1.42c-.125.04-.231-.054-.156-.11L99.3 72.435c2.049-1.56 1.676-3.676-.833-4.73l-1.099-.465c-2.509-1.055-6.205-.648-8.254.91l-10.687 8.103a1 1 0 01-.99.125l-3.65-1.53c-2.51-1.056-6.205-.649-8.255.91l-.726.554a1 1 0 01-.994.128l-3.647-1.53c-2.51-1.055-6.205-.649-8.255.91l-.724.553a1 1 0 01-.997.127l-3.598-1.523z" fill="#fff"/><path d="M36.921 118.14a1 1 0 01-.995.128l-19.838-8.343c-4.968-2.092-7.35-6.083-6.07-10.18l.176-.567c1.114-3.544 3.7-6.932 7.487-9.81l19.605-14.871c2.524-1.915 6.919-2.41 9.976-1.128l2.809 1.184a.841.841 0 00.838-.107c2.525-1.914 6.907-2.408 9.978-1.116l2.806 1.174a.844.844 0 00.84-.109c2.524-1.914 6.907-2.407 9.976-1.127l2.726 1.15a1 1 0 00.993-.126l9.876-7.49c2.523-1.926 6.906-2.42 9.977-1.128l1.097.453c1.835.773 2.996 2.104 3.193 3.664.186 1.477-.537 2.963-1.983 4.056L83.721 86.49c-.867.658-.197 2.072.866 1.837 1.348-.297 2.7-.58 4.055-.848l2.92-.57c4.013-.789 7.918.551 9.043 3.105l.184.425c.462 1.042.419 2.194-.11 3.253-.792 1.59-2.623 2.825-5.01 3.386-3.341.788-6.573 1.786-9.588 2.994l-7.33 2.91c-7.07 2.806-14.682 5.055-22.622 6.682-7.11 1.452-13.55 4.191-18.17 7.681l-1.038.794zm5.414-41.94c-1.14.144-2.218.505-2.95 1.07L19.78 92.142c-3.204 2.437-5.382 5.23-6.265 8.072l-.177.566c-.733 2.338.8 4.556 4.106 5.936l17.983 7.563c.328.138.703.09.991-.119 5.028-3.65 11.575-6.384 19.008-7.905 7.744-1.591 15.163-3.78 22.043-6.503l7.328-2.91c3.175-1.263 6.576-2.318 10.078-3.138 1.504-.355 2.434-1.04 2.69-1.545.084-.176.052-.243.033-.3l-.184-.426c-.334-.773-2.576-1.59-5.186-1.096l-2.918.57c-3.853.757-7.69 1.643-11.427 2.658l-5.885 1.59a1 1 0 01-1.136-.482l-.656-1.189a1 1 0 01.246-1.26l.507-.41 27.318-20.727c.464-.354.659-.686.638-.85-.019-.15-.27-.544-1.092-.878l-1.097-.453c-1.923-.81-4.98-.495-6.523.68l-11.483 8.711a1 1 0 01-.992.125L73.155 76.5c-1.922-.81-4.978-.484-6.52.692l-1.524 1.163a1 1 0 01-.995.127l-4.571-1.921c-1.923-.81-4.979-.484-6.52.692l-1.539 1.159a1 1 0 01-.99.123l-4.574-1.923c-1.015-.452-2.33-.57-3.587-.411z" fill="#0E0E0E"/><path d="M76.172 75.87l-7.317 5.558a1 1 0 00-.192 1.401l.89 1.172a1 1 0 001.402.191l7.317-5.558a1 1 0 00.191-1.401l-.89-1.172a1 1 0 00-1.401-.192zM71.498 91.42l-4.048 3.076a1 1 0 00-.192 1.401l.89 1.172a1 1 0 001.402.191l4.048-3.075a1 1 0 00.191-1.401l-.89-1.172a1 1 0 00-1.401-.192zM62.56 75.88l-5.24 3.968a1 1 0 00-.194 1.401l.896 1.183a1 1 0 001.4.193l5.24-3.969a1 1 0 00.194-1.4l-.896-1.183a1 1 0 00-1.4-.193zM48.945 75.949l-3.899 2.962a1 1 0 00-.191 1.401l.89 1.172a1 1 0 001.401.191l3.9-2.962a1 1 0 00.19-1.401l-.89-1.172a1 1 0 00-1.4-.191zM97.415 75.025l-3.456.436 1.426 11.31 3.456-.436-1.426-11.31zM81.27 100.549l-3.456.436 1.428 11.322 3.456-.436-1.428-11.322zM46.394 111.495l-3.456.436 1.426 11.31 3.456-.436-1.426-11.31zM95.416 95.645l-3.456.436 1.426 11.31 3.456-.436-1.426-11.31z" fill="#0E0E0E"/></svg>