<svg width="22" height="22" viewBox="0 0 22 22" fill="none" xmlns="http://www.w3.org/2000/svg">
<path d="M18.7821 3.2184C14.49 -1.0728 7.50979 -1.0728 3.21769 3.2184C-1.07256 7.5096 -1.07256 14.4916 3.21769 18.7828C5.36374 20.9279 8.18202 22 11.0003 22C13.8187 22 16.636 20.9279 18.7821 18.7828C23.0733 14.4916 23.0733 7.5096 18.7821 3.2184ZM15.5391 14.243C15.8977 14.6016 15.8977 15.1813 15.5391 15.5398C15.3603 15.7187 15.1255 15.8086 14.8907 15.8086C14.6559 15.8086 14.4211 15.7187 14.2423 15.5398L11.0003 12.2969L7.75922 15.5389C7.57948 15.7177 7.34467 15.8076 7.1108 15.8076C6.87604 15.8076 6.64123 15.7177 6.46239 15.5389C6.10381 15.1803 6.10381 14.5998 6.46239 14.2421L9.70348 11.0001L6.46149 7.75812C6.10291 7.39954 6.10291 6.81901 6.46149 6.46134C6.81916 6.10276 7.3997 6.10276 7.75827 6.46134L11.0003 9.70333L14.2423 6.46134C14.6008 6.10276 15.1805 6.10276 15.539 6.46134C15.8976 6.81901 15.8976 7.39954 15.539 7.75812L12.2971 11.0001L15.5391 14.243Z" fill="black"/>
</svg>
