<svg width="153" height="48" fill="none" xmlns="http://www.w3.org/2000/svg"><path d="M85.2 20.394c-.976-1.127-2.223-1.996-3.749-2.595-1.525-.599-3.343-.898-5.467-.898-1.475 0-2.858.25-4.163.741-1.297.5-2.459 1.105-3.464 1.825l.05-13.8a.598.598 0 00-.599-.599h-6.686a.602.602 0 00-.599.6v38.134c0 .328.271.599.6.599h6.735c.328 0 .599-.27.599-.599V30.36c0-.977.143-1.868.435-2.673a6.483 6.483 0 011.219-2.096A5.367 5.367 0 0172 24.214c.734-.328 1.54-.484 2.416-.484.87 0 1.654.1 2.352.292.692.2 1.283.542 1.775 1.026.485.485.863 1.148 1.126 1.975.264.827.4 1.889.4 3.172v13.572c0 .327.27.598.598.598h6.786c.328 0 .599-.27.599-.599V30.038c0-2.053-.228-3.892-.691-5.517-.464-1.618-1.184-3.001-2.16-4.127zM105.751 38.385c.862 0 1.639-.107 2.33-.328a4.095 4.095 0 001.761-1.105c.485-.52.856-1.197 1.119-2.045.264-.848.392-1.91.392-3.18V18.52a.59.59 0 01.592-.591h6.707a.59.59 0 01.592.591v13.458c0 2.41-.342 4.448-1.019 6.123-.677 1.675-1.618 3.03-2.823 4.07-1.205 1.04-2.63 1.804-4.277 2.281-1.646.478-3.436.713-5.367.713-1.932 0-3.728-.235-5.368-.713-1.646-.477-3.072-1.233-4.276-2.28-1.205-1.041-2.146-2.403-2.823-4.07-.677-1.669-1.02-3.715-1.02-6.124V18.52a.59.59 0 01.592-.591h6.708a.59.59 0 01.591.591v13.209c0 1.254.129 2.31.385 3.172.257.855.62 1.546 1.105 2.06.485.52 1.069.883 1.768 1.105.684.213 1.468.32 2.331.32zM151.747 25.667c-.648-1.704-1.568-3.194-2.772-4.47-1.205-1.276-2.673-2.28-4.406-3.03-1.732-.748-3.685-1.118-5.852-1.118-1.596 0-3.015.22-4.262.663-1.248.442-2.345 1.012-3.3 1.703V5.965a.59.59 0 00-.592-.592h-6.686a.59.59 0 00-.592.592v37.458c0 .491.399.883.884.883l6.33.008a.59.59 0 00.591-.592v-.898c.278.192.571.378.877.563a12.767 12.767 0 004.149 1.575c.777.15 1.603.228 2.466.228 2.153 0 4.099-.37 5.845-1.104 1.739-.742 3.222-1.747 4.455-3.03a13.381 13.381 0 002.837-4.476c.663-1.704.991-3.529.991-5.46a15.237 15.237 0 00-.963-5.453zm-7.47 8.44c-.363.897-.862 1.674-1.504 2.316a6.657 6.657 0 01-2.238 1.49c-.855.349-1.768.52-2.737.52a7.166 7.166 0 01-2.752-.52 6.749 6.749 0 01-2.224-1.476 6.868 6.868 0 01-1.504-2.316c-.363-.906-.548-1.91-.548-3.016 0-1.083.185-2.074.563-2.965a6.979 6.979 0 011.511-2.288 6.727 6.727 0 012.238-1.476 7.167 7.167 0 012.737-.52c.984 0 1.903.171 2.759.52.855.35 1.596.841 2.231 1.476a6.801 6.801 0 011.475 2.288c.357.891.535 1.882.535 2.965.007 1.105-.178 2.103-.542 3.001z" fill="#fff"/><path d="M9.13 19.7a3.885 3.885 0 11-7.178 2.973 3.885 3.885 0 017.179-2.974zM51.976 24.104a3.885 3.885 0 11-7.178 2.973 3.885 3.885 0 017.178-2.974z" fill="#01FFA9" stroke="#01FFA9" stroke-width=".713"/><path d="M11.44 26.741l12.616 13.202a6.887 6.887 0 009.73.22l.121-.113a6.887 6.887 0 00.221-9.73L20.513 16.078a6.881 6.881 0 01.221-9.73 6.881 6.881 0 019.73.221l12.382 12.952" stroke="#01FFA9" stroke-width="8.648" stroke-miterlimit="10"/></svg>