<svg width="59" height="60" viewBox="0 0 59 60" fill="none" xmlns="http://www.w3.org/2000/svg">
<mask id="path-1-inside-1" fill="white">
<path d="M29.6172 0.689246C45.5984 0.689245 58.5537 13.8121 58.5537 29.9999C58.5537 46.1877 45.5984 59.3105 29.6172 59.3105C13.636 59.3105 0.680725 46.1877 0.680724 29.9999C0.680723 13.8121 13.636 0.689247 29.6172 0.689246ZM29.6172 53.9813C42.6927 53.9813 53.2925 43.2445 53.2925 29.9999C53.2925 16.7553 42.6927 6.01845 29.6172 6.01845C16.5417 6.01845 5.9419 16.7553 5.9419 29.9999C5.9419 43.2445 16.5417 53.9813 29.6172 53.9813Z"/>
</mask>
<path d="M29.6172 0.689246C45.5984 0.689245 58.5537 13.8121 58.5537 29.9999C58.5537 46.1877 45.5984 59.3105 29.6172 59.3105C13.636 59.3105 0.680725 46.1877 0.680724 29.9999C0.680723 13.8121 13.636 0.689247 29.6172 0.689246ZM29.6172 53.9813C42.6927 53.9813 53.2925 43.2445 53.2925 29.9999C53.2925 16.7553 42.6927 6.01845 29.6172 6.01845C16.5417 6.01845 5.9419 16.7553 5.9419 29.9999C5.9419 43.2445 16.5417 53.9813 29.6172 53.9813Z" stroke="#AAAAAA" stroke-width="6" mask="url(#path-1-inside-1)"/>
<g clip-path="url(#clip0)">
<path d="M42.9523 22.7378C41.3318 24.3583 38.7045 24.3583 37.0839 22.7378C35.4633 21.1173 35.4634 18.4899 37.0839 16.8694L34.2145 14L13.8218 34.3927L16.6912 37.2622C18.3117 35.6417 20.9392 35.6417 22.5597 37.2622C24.1802 38.8827 24.1802 41.5101 22.5597 43.1306L25.429 46L45.8218 25.6073L42.9523 22.7378ZM29.7917 25.4341L28.4606 24.103L29.7864 22.7772L31.1175 24.1083L29.7917 25.4341ZM32.454 28.0964L31.1228 26.7653L32.4486 25.4395L33.7798 26.7706L32.454 28.0964ZM35.1162 30.7588L33.7851 29.4276L35.1109 28.1018L36.442 29.4329L35.1162 30.7588Z" fill="#AAAAAA"/>
</g>
<defs>
<clipPath id="clip0">
<rect width="32" height="32" fill="white" transform="translate(13.8218 14)"/>
</clipPath>
</defs>
</svg>
