<svg width="32" height="32" viewBox="0 0 32 32" fill="none" xmlns="http://www.w3.org/2000/svg">
<path fill-rule="evenodd" clip-rule="evenodd" d="M13 24C19.0751 24 24 19.0751 24 13C24 6.92487 19.0751 2 13 2C6.92487 2 2 6.92487 2 13C2 19.0751 6.92487 24 13 24ZM26 13C26 20.1797 20.1797 26 13 26C5.8203 26 0 20.1797 0 13C0 5.8203 5.8203 0 13 0C20.1797 0 26 5.8203 26 13Z" fill="#3424C4"/>
<path d="M20.6878 23.4843C20.7468 23.5643 20.8125 23.6409 20.8849 23.7133L28.5858 31.4142C29.3668 32.1953 30.6332 32.1953 31.4142 31.4142C32.1953 30.6332 32.1953 29.3668 31.4142 28.5858L23.7133 20.8849C23.6409 20.8125 23.5643 20.7468 23.4843 20.6878C22.6998 21.7559 21.7559 22.6998 20.6878 23.4843Z" fill="#3424C4"/>
<path fill-rule="evenodd" clip-rule="evenodd" d="M13 6C13.5523 6 14 6.44772 14 7V12H19C19.5523 12 20 12.4477 20 13C20 13.5523 19.5523 14 19 14H14V19C14 19.5523 13.5523 20 13 20C12.4477 20 12 19.5523 12 19V14H7C6.44772 14 6 13.5523 6 13C6 12.4477 6.44772 12 7 12H12V7C12 6.44772 12.4477 6 13 6Z" fill="#3424C4"/>
</svg>
