<svg width="32" height="32" viewBox="0 0 32 32" fill="none" xmlns="http://www.w3.org/2000/svg">
<path d="M2 28C2 28 0 28 0 26C0 24 2 18 12 18C22 18 24 24 24 26C24 28 22 28 22 28H2Z" fill="#3424C4"/>
<path d="M12 16C15.3137 16 18 13.3137 18 10C18 6.68629 15.3137 4 12 4C8.68629 4 6 6.68629 6 10C6 13.3137 8.68629 16 12 16Z" fill="#3424C4"/>
<path fill-rule="evenodd" clip-rule="evenodd" d="M27 10C27.5523 10 28 10.4477 28 11V14H31C31.5523 14 32 14.4477 32 15C32 15.5523 31.5523 16 31 16H28V19C28 19.5523 27.5523 20 27 20C26.4477 20 26 19.5523 26 19V16H23C22.4477 16 22 15.5523 22 15C22 14.4477 22.4477 14 23 14H26V11C26 10.4477 26.4477 10 27 10Z" fill="#3424C4"/>
</svg>
