<svg width="28" height="28" viewBox="0 0 28 28" fill="none" xmlns="http://www.w3.org/2000/svg">
<path d="M25.4892 7.64559C24.0713 9.06352 21.7724 9.06352 20.3544 7.64559C18.9364 6.22765 18.9364 3.92864 20.3544 2.5107L17.8437 0L0 17.8437L2.51076 20.3544C3.9287 18.9365 6.2277 18.9365 7.64564 20.3544C9.06358 21.7724 9.06358 24.0714 7.64564 25.4893L10.1563 28L28 10.1563L25.4892 7.64559ZM13.9737 10.0049L12.809 8.84013L13.969 7.68004L15.1338 8.84477L13.9737 10.0049ZM16.3032 12.3344L15.1384 11.1696L16.2985 10.0096L17.4632 11.1743L16.3032 12.3344ZM18.6326 14.6639L17.4679 13.4991L18.628 12.339L19.7927 13.5038L18.6326 14.6639Z" fill="#3C3E3E"/>
</svg>
