<svg width="65" height="65" fill="none" xmlns="http://www.w3.org/2000/svg"><g clip-path="url(#clip0)"><path d="M59.7 27.907a1.905 1.905 0 00-2.238.646c-5.057 6.91-13.177 11.035-21.72 11.035-1.584 0-3.175-.143-4.75-.425v-3.268c0-2.805-1.586-4.06-3.158-4.06-1.03 0-2.055.501-3.044 1.49L13.996 44.12a6.086 6.086 0 000 8.597L24.79 63.509c.99.99 2.013 1.491 3.044 1.491 1.572 0 3.159-1.256 3.159-4.06v-2.968c15.325-.905 28.01-12.666 29.896-28.063a1.904 1.904 0 00-1.19-2.002zM29.088 54.219a1.904 1.904 0 00-1.904 1.905v4.393L16.689 50.023a2.273 2.273 0 010-3.21l10.495-10.495v4.393c0 .883.607 1.65 1.466 1.854 2.335.551 4.72.832 7.091.832 4.91 0 9.794-1.189 14.124-3.436a30.784 30.784 0 005.518-3.676C51.238 46.871 40.923 54.22 29.088 54.22z" fill="#000"/><path d="M6.5 30.5l2-5 1.5-3 3-3.5 3.5-3.5 4.5-3 5.5-2.5 5-1H37V2l14 14.5L37 32v-8l-10.5-1-9 2.5L10 31l-4 4 .5-4.5z" fill="#01FFA9"/><path d="M33.973 25.837v3.268c0 1.038.208 1.91.617 2.588.564.936 1.49 1.473 2.542 1.473 1.03 0 2.055-.502 3.044-1.491L50.97 20.88a6.086 6.086 0 000-8.596L40.176 1.49C39.186.5 38.163 0 37.132 0c-1.572 0-3.159 1.256-3.159 4.06v2.968C18.65 7.933 5.963 19.694 4.077 35.091a1.904 1.904 0 003.427 1.356c5.057-6.91 13.177-11.035 21.72-11.035 1.584 0 3.175.143 4.75.425zm-24.39 2.878c4.145-10.585 14.46-17.934 26.294-17.934a1.904 1.904 0 001.905-1.905V4.483l10.495 10.495a2.274 2.274 0 010 3.21L37.782 28.683v-4.394c0-.883-.607-1.65-1.466-1.854a30.854 30.854 0 00-7.092-.832c-4.91 0-9.793 1.189-14.123 3.437a30.758 30.758 0 00-5.518 3.675z" fill="#000"/></g><defs><clipPath id="clip0"><path fill="#fff" d="M0 0h65v65H0z"/></clipPath></defs></svg>