<svg width="50" height="50" viewBox="0 0 50 50" fill="none" xmlns="http://www.w3.org/2000/svg">
<circle cx="25" cy="25" r="25" fill="#01FFA9"/>
<g clip-path="url(#clip0)">
<path d="M16.9724 19.4835H18.642C18.9763 19.4835 19.2471 19.2126 19.2471 18.8785C19.2471 18.5443 18.9763 18.2734 18.642 18.2734H16.9724C16.0689 18.2734 15.334 19.0083 15.334 19.9118V22.0775C15.334 22.9811 16.0688 23.7159 16.9724 23.7159H24.0908C24.9943 23.7159 25.7292 22.9811 25.7292 22.0775V19.9118C25.7292 19.0083 24.9944 18.2734 24.0908 18.2734H20.5622C20.228 18.2734 19.9572 18.5443 19.9572 18.8785C19.9572 19.2126 20.228 19.4835 20.5622 19.4835H24.0908C24.3268 19.4835 24.5191 19.6758 24.5191 19.9118V22.0775C24.5191 22.3136 24.3268 22.5059 24.0908 22.5059H16.9724C16.7363 22.5059 16.5441 22.3136 16.5441 22.0775V19.9118C16.5441 19.6758 16.7363 19.4835 16.9724 19.4835Z" fill="#3C3E3E" stroke="#3C3E3E" stroke-width="0.25"/>
<path d="M27.8902 20.3185H31.6715C32.0057 20.3185 32.2765 20.0476 32.2765 19.7134C32.2765 19.3793 32.0057 19.1084 31.6715 19.1084H27.8902C27.556 19.1084 27.2852 19.3793 27.2852 19.7134C27.2852 20.0476 27.556 20.3185 27.8902 20.3185Z" fill="#3C3E3E" stroke="#3C3E3E" stroke-width="0.25"/>
<path d="M27.8902 22.88H31.6715C32.0057 22.88 32.2765 22.6091 32.2765 22.275C32.2765 21.9408 32.0057 21.6699 31.6715 21.6699H27.8902C27.556 21.6699 27.2852 21.9408 27.2852 22.275C27.2852 22.6091 27.556 22.88 27.8902 22.88Z" fill="#3C3E3E" stroke="#3C3E3E" stroke-width="0.25"/>
<path d="M15.939 26.3536H25.9204C26.2546 26.3536 26.5254 26.0827 26.5254 25.7486C26.5254 25.4145 26.2546 25.1436 25.9204 25.1436H15.939C15.6048 25.1436 15.334 25.4145 15.334 25.7486C15.334 26.0827 15.6049 26.3536 15.939 26.3536Z" fill="#3C3E3E" stroke="#3C3E3E" stroke-width="0.25"/>
<path d="M15.939 28.9142H25.9204C26.2546 28.9142 26.5254 28.6433 26.5254 28.3091C26.5254 27.975 26.2546 27.7041 25.9204 27.7041H15.939C15.6048 27.7041 15.334 27.975 15.334 28.3091C15.334 28.6433 15.6049 28.9142 15.939 28.9142Z" fill="#3C3E3E" stroke="#3C3E3E" stroke-width="0.25"/>
<path d="M15.939 32.8321H20.9297C21.2639 32.8321 21.5348 32.5612 21.5348 32.2271C21.5348 31.893 21.2639 31.6221 20.9297 31.6221H15.939C15.6048 31.6221 15.334 31.893 15.334 32.2271C15.334 32.5613 15.6049 32.8321 15.939 32.8321Z" fill="#3C3E3E" stroke="#3C3E3E" stroke-width="0.25"/>
<path d="M15.939 35.3937H25.9204C26.2546 35.3937 26.5254 35.1228 26.5254 34.7886C26.5254 34.4545 26.2546 34.1836 25.9204 34.1836H15.939C15.6048 34.1836 15.334 34.4545 15.334 34.7886C15.334 35.1228 15.6049 35.3937 15.939 35.3937Z" fill="#3C3E3E" stroke="#3C3E3E" stroke-width="0.25"/>
<path d="M34.7996 25.1432H30.0067H30.0067C29.2655 25.1432 28.6199 25.5578 28.2889 26.1665L28.2889 26.1665C28.2739 26.1942 28.2594 26.2222 28.2457 26.2507L28.2457 26.2507C28.2044 26.3362 28.1693 26.425 28.1407 26.5168C28.0835 26.7004 28.0526 26.8954 28.0526 27.0974V28.4192V32.6624C28.0526 35.551 30.4025 37.9009 33.2911 37.9009C33.8155 37.9009 34.3217 37.8223 34.7996 37.678V39.3469C34.7996 39.7979 34.4325 40.165 33.9816 40.165H13.4968C13.0459 40.165 12.6788 39.7979 12.6788 39.3469V33.8663C12.6788 33.5321 12.408 33.2612 12.0738 33.2612C11.7396 33.2612 11.4688 33.5321 11.4688 33.8663V39.3469C11.4688 40.4654 12.3784 41.3751 13.4968 41.3751H33.9816C35.1001 41.3751 36.0097 40.4654 36.0097 39.3469V37.2958C36.0097 37.2448 36.0032 37.1954 35.9912 37.1483C37.5104 36.2305 38.5296 34.564 38.5296 32.6624V28.4192V27.0974C38.5296 26.0197 37.6531 25.1432 36.5755 25.1432H36.0097V10.6531C36.0097 9.53467 35.1 8.625 33.9816 8.625H19.6036C18.8216 8.625 18.0856 8.92831 17.5309 9.47885L12.3461 14.3084L12.346 14.3084L12.3443 14.3101L12.3321 14.3219L12.3321 14.3219L12.3307 14.3233C11.7751 14.8789 11.4688 15.6183 11.4688 16.4041V31.946C11.4688 32.2801 11.7396 32.551 12.0738 32.551C12.408 32.551 12.6788 32.2801 12.6788 31.946V16.4042C12.6788 16.3954 12.6789 16.3867 12.6791 16.3779H17.4792C18.6363 16.3779 19.5774 15.4367 19.5774 14.2797V9.83532C19.5861 9.83516 19.5949 9.83508 19.6036 9.83508H33.9816C34.4325 9.83508 34.7996 10.2021 34.7996 10.6531V25.1432ZM18.3631 10.3575L18.3631 10.3575L18.3649 10.3558L18.3673 10.3534V14.2798C18.3673 14.7694 17.9688 15.1679 17.4792 15.1679H13.1988L18.3631 10.3575ZM37.3194 32.6623V32.685C37.3071 34.8958 35.5047 36.6908 33.291 36.6908C31.0698 36.6908 29.2627 34.8835 29.2627 32.6623V28.5441H37.3194V32.6623ZM36.5755 26.3533C36.9856 26.3533 37.3195 26.6872 37.3195 27.0973V27.3341H29.2627V27.0973C29.2627 26.6872 29.5966 26.3533 30.0067 26.3533H36.5755Z" fill="#3C3E3E" stroke="#3C3E3E" stroke-width="0.25"/>
<path d="M31.2716 31.1456C31.5606 30.9774 31.9308 31.0755 32.0988 31.3644L32.0989 31.3644L32.7551 32.4929L35.3502 29.9944C35.5909 29.7626 35.9738 29.7699 36.2057 30.0106L36.2057 30.0106C36.4374 30.2513 36.4301 30.6343 36.1895 30.866L36.1895 30.8661L33.0391 33.8992L33.0391 33.8992C32.9256 34.0084 32.7749 34.0684 32.6195 34.0684C32.5916 34.0684 32.5637 34.0664 32.5359 34.0626L32.5357 34.0626C32.3518 34.0368 32.1898 33.9281 32.0964 33.7675L31.2716 31.1456ZM31.2716 31.1456C30.9828 31.3135 30.8848 31.6839 31.0528 31.9727C31.0528 31.9727 31.0528 31.9727 31.0528 31.9727L32.0964 33.7674L31.2716 31.1456ZM32.6195 33.9434C32.7428 33.9434 32.8624 33.8958 32.9524 33.8092L31.3345 31.2536C31.1053 31.3869 31.0276 31.6807 31.1608 31.9099L32.2045 33.7046C32.2786 33.8321 32.4071 33.9184 32.553 33.9388C32.5752 33.9418 32.5974 33.9434 32.6195 33.9434Z" fill="#3C3E3E" stroke="#3C3E3E" stroke-width="0.25"/>
</g>
<defs>
<clipPath id="clip0">
<rect width="32.5" height="32.5" fill="white" transform="translate(8.75 8.75)"/>
</clipPath>
</defs>
</svg>
