<svg width="90" height="80" viewBox="0 0 90 80" fill="none" xmlns="http://www.w3.org/2000/svg">
<g clip-path="url(#clip0)">
<path d="M54.4463 21H67.4463V35L64.4551 34.5L62.9551 29.5H58.9551L58.4551 34.5L54.4463 35V21Z" fill="#01FFA9"/>
<path d="M22.9551 39.5H35.9551V53.5H22.9551V39.5Z" fill="#01FFA9"/>
<path d="M17.9551 2.5H30.9551V16.5H17.9551V2.5Z" fill="#01FFA9"/>
<path d="M85.5092 5.63176H72.8296C72.1182 5.63176 71.5416 6.21317 71.5416 6.93032C71.5416 7.64748 72.1182 8.22889 72.8296 8.22889H85.5092C86.2195 8.22889 86.7972 8.81133 86.7972 9.52745C86.7972 9.87373 86.6635 10.1989 86.4172 10.4461C86.1752 10.6911 85.8527 10.826 85.5092 10.826H33.302V8.22889H67.3913C68.1026 8.22889 68.6793 7.64748 68.6793 6.93032C68.6793 6.21317 68.1026 5.63176 67.3913 5.63176H33.302V3.46748C33.302 1.79684 31.9537 0.4375 30.2967 0.4375H18.2753C16.6182 0.4375 15.2699 1.79684 15.2699 3.46748V5.63176H5.30933C4.27601 5.63176 3.30554 6.03795 2.57979 6.77224C1.8482 7.50723 1.44531 8.48565 1.44531 9.52745C1.44531 11.6756 3.17863 13.4231 5.30933 13.4231H15.2699V15.5874C15.2699 17.2581 16.6182 18.6174 18.2753 18.6174H30.2967C31.9537 18.6174 33.302 17.2581 33.302 15.5874V13.4231H85.5092C86.5425 13.4231 87.513 13.017 88.2388 12.2827C88.9704 11.5477 89.3732 10.5692 89.3732 9.52745C89.3732 7.37928 87.6399 5.63176 85.5092 5.63176ZM15.2699 10.826H5.30933C4.59904 10.826 4.02133 10.2436 4.02133 9.52745C4.02133 9.18117 4.15511 8.85601 4.40137 8.60876C4.64335 8.36376 4.96586 8.22889 5.30933 8.22889H15.2699V10.826ZM30.726 15.5874C30.726 15.822 30.5294 16.0203 30.2967 16.0203H18.2753C18.0426 16.0203 17.8459 15.822 17.8459 15.5874V3.46748C17.8459 3.23288 18.0426 3.03463 18.2753 3.03463H30.2967C30.5294 3.03463 30.726 3.23288 30.726 3.46748V15.5874Z" fill="#0E0E0E"/>
<path d="M85.5092 42.6833H66.1422V37.1428H66.7043C68.3614 37.1428 69.7097 35.7835 69.7097 34.1128V31.9485H85.5092C86.5425 31.9485 87.513 31.5423 88.2388 30.808C88.9704 30.0731 89.3732 29.0946 89.3732 28.0528C89.3732 25.9047 87.6399 24.1571 85.5092 24.1571H69.7097V21.9929C69.7097 20.3222 68.3614 18.9629 66.7043 18.9629H54.6829C53.0259 18.9629 51.6776 20.3222 51.6776 21.9929V24.1571H5.30933C4.27601 24.1571 3.30554 24.5633 2.57979 25.2976C1.8482 26.0326 1.44531 27.011 1.44531 28.0528C1.44531 30.201 3.17863 31.9485 5.30933 31.9485H12.4148C13.1262 31.9485 13.7028 31.3671 13.7028 30.65C13.7028 29.9328 13.1262 29.3514 12.4148 29.3514H5.30933C4.59904 29.3514 4.02133 28.769 4.02133 28.0528C4.02133 27.7066 4.15511 27.3814 4.40137 27.1341C4.64335 26.8892 4.96586 26.7543 5.30933 26.7543H51.6776V29.3514H17.9747C17.2634 29.3514 16.6867 29.9328 16.6867 30.65C16.6867 31.3671 17.2634 31.9485 17.9747 31.9485H51.6776V34.1128C51.6776 35.7835 53.0259 37.1428 54.6829 37.1428H56.2172L56.1937 42.6833H38.8449V40.5191C38.8449 38.8484 37.4966 37.4891 35.8396 37.4891H23.8182C22.1611 37.4891 20.8128 38.8484 20.8128 40.5191V42.6833H5.30933C4.27601 42.6833 3.30554 43.0895 2.57979 43.8238C1.8482 44.5588 1.44531 45.5372 1.44531 46.579C1.44531 48.7272 3.17863 50.4747 5.30933 50.4747H20.8128V52.639C20.8128 54.3096 22.1611 55.669 23.8182 55.669H35.8396C37.4966 55.669 38.8449 54.3096 38.8449 52.639V50.4747H49.6776C49.2036 51.2784 48.93 52.2165 48.93 53.2133V56.5925C48.93 57.3097 49.5067 57.8911 50.218 57.8911C50.9293 57.8911 51.506 57.3097 51.506 56.5925V53.2133C51.506 51.7646 52.614 50.5602 53.996 50.4747H54.3592C54.9185 50.5204 55.3523 50.7654 55.7078 51.2312C56.1473 51.807 56.9019 52.0373 57.5852 51.8044C58.272 51.5705 58.7353 50.9228 58.7384 50.1928L58.7427 49.1848C58.7427 49.1819 58.7432 49.1791 58.7432 49.1762C58.7432 49.1737 58.7429 49.1713 58.7429 49.1689L58.7992 35.8584C58.7992 35.8537 58.7999 35.8491 58.7999 35.8442C58.7999 35.8402 58.7994 35.8363 58.7994 35.8323L58.8167 31.7484C58.8179 30.4266 59.8834 29.3514 61.1918 29.3514C61.8262 29.3514 62.4225 29.6006 62.8709 30.0531C63.3196 30.5061 63.5667 31.1083 63.5667 31.7492V43.5949C63.5667 45.8267 65.3665 47.6423 67.5788 47.6423H75.0937C78.091 47.6423 80.5294 50.1033 80.5294 53.1286V70.2674C80.5294 71.0968 79.8614 71.7713 79.0402 71.7713H78.8951H58.2869H58.0551C54.444 71.7713 51.5064 68.8063 51.5064 65.162V62.1618C51.5064 61.4446 50.9297 60.8632 50.2183 60.8632C49.507 60.8632 48.9303 61.4446 48.9303 62.1618V65.1618C48.9303 69.8777 52.4636 73.7746 56.9989 74.3048V77.6005C56.9989 78.6825 57.8719 79.5626 58.9452 79.5626H78.237C79.3101 79.5626 80.1831 78.6825 80.1831 77.6005V74.2023C81.8698 73.7027 83.1055 72.1284 83.1055 70.2673V53.1285C83.1055 52.199 82.9473 51.3065 82.6598 50.4747H85.5092C86.5425 50.4747 87.513 50.0685 88.2388 49.3342C88.9704 48.5992 89.3732 47.6208 89.3732 46.579C89.3732 44.4309 87.6399 42.6833 85.5092 42.6833ZM69.7097 26.7543H85.5092C86.2195 26.7543 86.7972 27.3367 86.7972 28.0528C86.7972 28.3991 86.6635 28.7243 86.4172 28.9715C86.1752 29.2165 85.8527 29.3514 85.5092 29.3514H69.7097V26.7543ZM20.8128 47.8776H5.30933C4.59904 47.8776 4.02133 47.2951 4.02133 46.579C4.02133 46.2327 4.15511 45.9076 4.40137 45.6603C4.64335 45.4153 4.96586 45.2805 5.30933 45.2805H20.8128V47.8776ZM36.2689 52.639C36.2689 52.8736 36.0723 53.0718 35.8396 53.0718H23.8182C23.5855 53.0718 23.3888 52.8736 23.3888 52.639V49.1895C23.3888 49.185 23.3895 49.1807 23.3895 49.1762C23.3895 49.1716 23.3888 49.1673 23.3888 49.1628V43.9954C23.3888 43.9909 23.3895 43.9866 23.3895 43.9821C23.3895 43.9776 23.3888 43.9732 23.3888 43.9687V40.5191C23.3888 40.2844 23.5855 40.0862 23.8182 40.0862H35.8396C36.0723 40.0862 36.2689 40.2844 36.2689 40.5191V52.639ZM56.1719 47.8776H54.4104C54.291 47.8715 54.1708 47.8682 54.0485 47.8705C53.997 47.8715 53.946 47.875 53.8948 47.8776H38.8449V45.2805H56.1829L56.1719 47.8776ZM64.6926 28.2177C63.7575 27.2739 62.514 26.7543 61.1911 26.7543C58.4638 26.7543 56.2428 28.9935 56.24 31.7416L56.2282 34.5457H54.6829C54.4502 34.5457 54.2536 34.3474 54.2536 34.1128V21.9929C54.2536 21.7583 54.4502 21.56 54.6829 21.56H66.7043C66.937 21.56 67.1337 21.7583 67.1337 21.9929V34.1128C67.1337 34.3474 66.937 34.5457 66.7043 34.5457H66.1422V31.7492C66.1422 30.415 65.6274 29.1608 64.6926 28.2177ZM77.6065 76.9654H59.5744V74.3683H77.6065V76.9654ZM86.4172 47.4977C86.1752 47.7427 85.8527 47.8776 85.5092 47.8776H81.1769C80.1056 46.6159 78.6575 45.6903 77.0092 45.2805H85.5092C86.2195 45.2805 86.7972 45.8629 86.7972 46.579C86.7972 46.9253 86.6635 47.2505 86.4172 47.4977Z" fill="#0E0E0E"/>
</g>
<defs>
<clipPath id="clip0">
<rect width="89" height="80" fill="white" transform="translate(0.955078)"/>
</clipPath>
</defs>
</svg>
