<svg width="148" height="36" fill="none" xmlns="http://www.w3.org/2000/svg"><path d="M111.588 11.86c-1.331 0-2.406 1.092-2.406 2.444 0 1.352 1.075 2.445 2.406 2.445 1.331 0 2.407-1.093 2.407-2.445 0-1.352-1.076-2.445-2.407-2.445zM113.556 17.621h-4.078a.366.366 0 00-.361.367V33.82c0 .202.163.36.361.36h4.078a.36.36 0 00.36-.36v-15.84a.364.364 0 00-.36-.36zM62.306 17.713h-4.063a.365.365 0 00-.36.366v.906s-1.034-.618-1.657-.877c-.85-.352-1.805-.532-2.874-.532-1.323 0-2.52.23-3.581.683-1.07.46-1.968 1.079-2.719 1.87a8.334 8.334 0 00-1.72 2.768 9.404 9.404 0 00-.602 3.38c0 1.2.206 2.322.602 3.38a8.035 8.035 0 001.727 2.753c.75.784 1.657 1.402 2.726 1.862 1.061.46 2.258.684 3.567.684 1.055 0 2.003-.173 2.846-.518.623-.252 1.67-.878 1.67-.878v.518c0 .202.163.367.361.367h4.07a.365.365 0 00.361-.367V18.08a.355.355 0 00-.353-.366zm-4.664 10.419c-.22.56-.531 1.042-.913 1.43a4.06 4.06 0 01-1.366.914 4.327 4.327 0 01-1.671.323 4.352 4.352 0 01-1.67-.323 4.074 4.074 0 01-1.367-.92 4.334 4.334 0 01-.92-1.439c-.227-.553-.34-1.172-.34-1.862 0-.669.113-1.287.333-1.833a4.28 4.28 0 01.906-1.417 3.96 3.96 0 011.36-.913 4.371 4.371 0 011.684-.324c.587 0 1.147.108 1.67.324.524.216.977.518 1.367.913.389.396.693.87.92 1.417.226.553.34 1.164.34 1.833a4.835 4.835 0 01-.333 1.877zM75.743 18.101h-1.918c-1.005 0-1.876.144-2.612.439-.488.194-1.31.647-1.31.647v-1.108a.365.365 0 00-.36-.366h-4.07a.365.365 0 00-.362.366v16c0 .2.163.366.361.366h4.056a.365.365 0 00.361-.367v-7.233c0-1.503.368-2.625 1.112-3.373.736-.747 1.77-1.121 3.093-1.121l1.656-.015a.366.366 0 00.361-.366v-3.51a.375.375 0 00-.368-.359zM87.536 30.571h-2.322c-.318 0-.622-.036-.898-.107a1.567 1.567 0 01-.722-.403c-.206-.194-.361-.46-.482-.791-.12-.33-.177-.748-.177-1.251V22.28h4.311a.366.366 0 00.361-.367V18.47a.365.365 0 00-.361-.367h-4.31l-.008-5.508a.365.365 0 00-.36-.367H78.49a.365.365 0 00-.361.367l.007 5.508.021 4.178v5.781c0 1.373.17 2.488.517 3.33.347.848.821 1.502 1.423 1.97a4.938 4.938 0 002.102.941c.8.166 1.65.245 2.548.245h2.761a.365.365 0 00.361-.367l.028-3.25a.36.36 0 00-.36-.36zM129.766 27.062a4.065 4.065 0 00-1.388-1.417 7.418 7.418 0 00-2.024-.848 27.568 27.568 0 00-2.421-.525 27.414 27.414 0 01-1.408-.223 5.375 5.375 0 01-.971-.259c-.254-.1-.438-.223-.558-.36a.793.793 0 01-.178-.532c-.007-.36.163-.668.511-.942.353-.273.892-.41 1.627-.41.624 0 1.104.144 1.445.432.261.223.431.474.509.762a.365.365 0 00.346.273l4.135.015a.369.369 0 00.361-.396 5.19 5.19 0 00-.432-1.797 4.846 4.846 0 00-1.281-1.726c-.56-.482-1.239-.856-2.039-1.122-.8-.266-1.706-.395-2.71-.395-1.232 0-2.301.122-3.215.374-.913.244-1.663.596-2.265 1.057a4.305 4.305 0 00-1.345 1.69c-.297.668-.438 1.416-.438 2.243 0 .633.078 1.18.233 1.646.156.468.361.87.63 1.209.262.337.567.618.906.84.34.23.694.418 1.062.569.368.15.737.273 1.112.36.375.086.714.165 1.026.23a78.37 78.37 0 001.833.395c.531.108.97.223 1.338.345.361.122.636.273.821.431a.82.82 0 01.283.64c0 .439-.205.784-.609 1.029-.403.244-1.062.36-1.968.36-.7 0-1.287-.152-1.74-.461-.369-.244-.603-.554-.701-.92a.365.365 0 00-.348-.28l-4.034-.015a.364.364 0 00-.361.395c.042.54.169 1.079.389 1.625a5.052 5.052 0 001.26 1.827c.566.539 1.296.977 2.18 1.316.885.337 1.947.503 3.186.503 1.14 0 2.18-.115 3.135-.338.949-.223 1.77-.575 2.457-1.05a5.004 5.004 0 001.606-1.79c.382-.72.574-1.568.574-2.546-.021-.891-.192-1.632-.531-2.214zM104.778 19.727c-.588-.69-1.345-1.222-2.265-1.589-.92-.366-2.025-.553-3.306-.553-.892 0-1.727.15-2.513.453a8.987 8.987 0 00-2.095 1.121l.028-6.55a.365.365 0 00-.36-.367h-4.043a.365.365 0 00-.36.367v21.485c0 .201.162.367.36.367h4.07a.366.366 0 00.362-.367v-8.255c0-.596.084-1.143.261-1.64.177-.495.425-.92.736-1.286.32-.36.694-.64 1.14-.841a3.509 3.509 0 011.458-.302c.531 0 .998.057 1.423.18.418.122.779.33 1.069.632.297.302.524.705.68 1.215.162.51.24 1.158.24 1.949v8.334c0 .2.163.366.361.366h4.099a.366.366 0 00.361-.366v-8.428c0-1.258-.142-2.387-.418-3.386-.262-1-.701-1.848-1.288-2.538zM12.87 25.646a7.522 7.522 0 00-2.024-.848 27.523 27.523 0 00-2.42-.525 21.425 21.425 0 01-1.41-.223 5.183 5.183 0 01-.97-.259c-.254-.1-.438-.223-.558-.36a.784.784 0 01-.177-.524c-.007-.36.163-.676.51-.95.353-.273.891-.41 1.627-.41.623 0 1.105.145 1.444.432.262.223.432.475.51.755a.364.364 0 00.347.273l4.134.015a.368.368 0 00.36-.396 5.186 5.186 0 00-.43-1.797 4.847 4.847 0 00-1.282-1.726c-.56-.482-1.239-.856-2.039-1.122-.8-.266-1.706-.395-2.704-.395-1.231 0-2.3.122-3.213.374-.914.244-1.664.597-2.266 1.057a4.294 4.294 0 00-1.345 1.69c-.297.668-.438 1.416-.438 2.243 0 .633.077 1.18.233 1.646.156.468.361.87.63 1.209.262.337.566.618.906.84.34.224.694.418 1.062.569.368.15.736.273 1.111.36.376.086.715.165 1.027.23a78.61 78.61 0 001.833.395c.531.108.97.223 1.338.345.361.122.637.273.821.432a.814.814 0 01.276.64c0 .438-.198.783-.602 1.02-.403.245-1.061.36-1.967.36-.701 0-1.289-.15-1.749-.453-.368-.244-.601-.554-.7-.92a.363.363 0 00-.347-.28l-4.035-.015a.366.366 0 00-.361.403c.042.539.17 1.078.39 1.625a5.06 5.06 0 001.26 1.826c.565.54 1.294.978 2.18 1.316.884.338 1.946.503 3.185.503 1.14 0 2.18-.115 3.135-.338.956-.223 1.77-.575 2.457-1.05a5.02 5.02 0 001.607-1.79c.382-.72.573-1.567.573-2.545 0-.892-.17-1.633-.51-2.215a4.245 4.245 0 00-1.408-1.417zM42.692 22.25c-.297-.992-.736-1.834-1.316-2.531a5.75 5.75 0 00-2.166-1.59c-.857-.366-1.848-.553-2.966-.553a8.95 8.95 0 00-1.806.173 8.9 8.9 0 00-1.564.467c-.481.194-.92.424-1.324.683-.403.26-.764.54-1.082.82a6.03 6.03 0 00-2.138-1.582c-.835-.374-1.791-.56-2.853-.56-1.005 0-1.918.164-2.74.488-.551.216-1.493.72-1.493.72v-.706a.365.365 0 00-.36-.366H16.82a.365.365 0 00-.361.366v16.366H21.279v-9.348c0-.057-.007-.115-.007-.172 0-1.719 1.374-3.114 3.065-3.114 1.657 0 3.009 1.338 3.058 3.013h.007v9.621h4.743v-9.348c0-.057-.007-.115-.007-.172 0-1.719 1.373-3.114 3.065-3.114 1.663 0 3.008 1.338 3.065 3.013h.007v9.621h4.87v-8.83c-.007-1.251-.156-2.365-.453-3.365z" fill="#fff"/><path d="M143.249 5.012v-.5h-9.294V1.5h12.23v.022h.014v12.431h-2.95v-8.94z" fill="#01FFA9" stroke="#01FFA9"/><path d="M136.453 11.919v-.5h-9.287V8.406h12.222v.015h.015V20.86h-2.95v-8.941z" fill="#01FFA9" stroke="#01FFA9"/><path d="M136.453 11.919v-.5h-9.287V8.406h12.222v.015h.015V20.86h-2.95v-8.941z" fill="#01FFA9" stroke="#01FFA9"/><path d="M146.685 1h-13.23v4.012h9.294v9.441h3.95V1.022h-.014V1z" stroke="#01FFA9" stroke-width="1.121" stroke-miterlimit="10"/><path d="M146.685 1h-13.23v4.012h9.294v9.441h3.95V1.022h-.014V1z" stroke="#01FFA9" stroke-width="1.121" stroke-miterlimit="10"/><path d="M139.888 7.906h-13.222v4.013h9.287v9.44h3.95V7.922h-.015v-.015z" stroke="#01FFA9" stroke-width="1.121" stroke-miterlimit="10"/></svg>