<svg width="81" height="80" viewBox="0 0 81 80" fill="none" xmlns="http://www.w3.org/2000/svg">
<rect x="22.5" y="30" width="42" height="7" fill="#01FFA9"/>
<rect x="22.5" y="44" width="42" height="7" fill="#01FFA9"/>
<rect x="22.5" y="59" width="42" height="7" fill="#01FFA9"/>
<path d="M52.9599 0H17.3634C15.561 0 14.0946 1.46641 14.0946 3.26875V8.59375H13.0585C10.6646 8.59375 8.7168 10.5414 8.7168 12.9355V24.6755C8.7168 27.0692 10.6643 29.0169 13.0582 29.0169H14.0946V76.7312C14.0946 78.5337 15.561 80 17.3634 80H69.0137C70.816 80 72.2824 78.5336 72.2824 76.7312V63.2622C72.2824 62.615 71.7577 62.0903 71.1105 62.0903C70.4634 62.0903 69.9387 62.615 69.9387 63.2622V76.7312C69.9387 77.2414 69.5237 77.6562 69.0137 77.6562H17.3635C16.8534 77.6562 16.4385 77.2412 16.4385 76.7312V22.678H21.5166C22.1638 22.678 22.6885 22.1533 22.6885 21.5061C22.6885 20.8589 22.1638 20.3342 21.5166 20.3342H13.0582C12.3384 20.3342 11.6588 20.5103 11.0605 20.8217V12.9355C11.0605 11.8338 11.957 10.9375 13.0585 10.9375H31.3827C32.4845 10.9375 33.3809 11.8338 33.3809 12.9355V18.3361C33.3809 19.4378 32.4846 20.3341 31.3827 20.3341H26.9851C26.3379 20.3341 25.8132 20.8587 25.8132 21.5059C25.8132 22.1531 26.3379 22.6778 26.9851 22.6778H31.3827C33.7768 22.6778 35.7246 20.7302 35.7246 18.3361V12.9355C35.7246 10.5414 33.777 8.59375 31.3829 8.59375H16.4384V3.26875C16.4384 2.75859 16.8534 2.34375 17.3634 2.34375H51.9424C55.6741 2.34375 58.7102 5.37969 58.7102 9.11141V10.3033C58.7102 12.1058 60.1766 13.572 61.979 13.572H63.1707C66.9024 13.572 69.9385 16.6081 69.9385 20.3398V57.7933C69.9385 58.4405 70.4632 58.9652 71.1104 58.9652C71.7576 58.9652 72.2823 58.4405 72.2823 57.7933V19.3225C72.2824 8.66797 63.6145 0 52.9599 0V0ZM13.0582 22.678H14.0946V26.6731H13.0582C11.9568 26.6731 11.0605 25.777 11.0605 24.6755C11.0605 23.5739 11.9568 22.678 13.0582 22.678ZM63.1709 11.2284H61.9791C61.4691 11.2284 61.0541 10.8134 61.0541 10.3034V9.11156C61.0541 6.99563 60.3295 5.04625 59.1149 3.49797C63.5345 5.22281 67.0598 8.74828 68.7846 13.1678C67.2362 11.9531 65.2866 11.2284 63.1709 11.2284Z" fill="black"/>
<path d="M23.0801 28.0625C21.5724 28.0625 20.3457 29.2892 20.3457 30.7969V71.0158C20.3457 72.5234 21.5724 73.7502 23.0801 73.7502H63.2991C64.8068 73.7502 66.0335 72.5234 66.0335 71.0158V30.7969C66.0335 29.2892 64.8068 28.0625 63.2991 28.0625H23.0801ZM48.536 38.1172H51.8121V42.9H42.2782V38.1172H43.0673C43.7145 38.1172 44.2391 37.5925 44.2391 36.9453C44.2391 36.2981 43.7145 35.7734 43.0673 35.7734H42.2782V30.4062H51.8121V35.7734H48.536C47.8888 35.7734 47.3641 36.2981 47.3641 36.9453C47.3641 37.5925 47.8888 38.1172 48.536 38.1172ZM42.278 64.2798V59.497H51.812V64.2798H42.278ZM51.8121 66.6236V71.4064H42.2782V66.6236H51.8121ZM28.0566 52.3703V57.1531H22.6895V52.3703H28.0566ZM22.6895 50.0266V45.2437H28.0566V50.0266H22.6895ZM30.4004 52.3703H39.9343V57.1531H30.4004V52.3703ZM42.278 52.3703H51.812V57.1531H42.278V52.3703ZM54.1559 52.3703H63.6898V57.1531H54.1559V52.3703ZM54.1559 50.0266V45.2437H63.6898V50.0266H54.1559ZM51.8121 50.0266H42.2782V45.2437H51.8121V50.0266ZM39.9343 50.0266H30.4004V45.2437H39.9343V50.0266ZM30.4004 42.9V38.1172H39.9343V42.9H30.4004ZM30.4004 35.7734V30.4062H39.9343V35.7734H30.4004ZM28.0566 42.9H22.6895V38.1172H28.0566V42.9ZM22.6895 59.497H28.0566V64.2798H22.6895V59.497ZM30.4004 59.497H39.9343V64.2798H30.4004V59.497ZM54.1559 59.497H63.6898V64.2798H54.1559V59.497ZM63.6898 42.9H54.1559V38.1172H63.6898V42.9ZM22.6895 30.7969C22.6895 30.5816 22.8648 30.4062 23.0801 30.4062H28.0566V35.7734H22.6895V30.7969ZM22.6895 71.0158V66.6236H28.0566V71.4064H23.0801C22.8648 71.4064 22.6895 71.2311 22.6895 71.0158ZM30.4004 66.6236H39.9343V71.4064H30.4004V66.6236ZM63.2991 71.4064H54.1559V66.6236H63.6898V71.0158C63.6898 71.2311 63.5145 71.4064 63.2991 71.4064ZM63.6898 30.7969V35.7734H54.1559V30.4062H63.2991C63.5145 30.4062 63.6898 30.5814 63.6898 30.7969Z" fill="black"/>
</svg>
