<svg width="33" height="32" viewBox="0 0 33 32" fill="none" xmlns="http://www.w3.org/2000/svg">
<path d="M29.9523 8.73781C28.3318 10.3583 25.7045 10.3583 24.0839 8.73781C22.4633 7.11731 22.4634 4.48987 24.0839 2.86937L21.2145 0L0.821777 20.3927L3.69121 23.2622C5.31171 21.6417 7.93915 21.6417 9.55965 23.2622C11.1802 24.8827 11.1802 27.5101 9.55965 29.1306L12.429 32L32.8218 11.6073L29.9523 8.73781ZM16.7917 11.4341L15.4606 10.103L16.7864 8.77719L18.1175 10.1083L16.7917 11.4341ZM19.454 14.0964L18.1228 12.7653L19.4486 11.4395L20.7798 12.7706L19.454 14.0964ZM22.1162 16.7588L20.7851 15.4276L22.1109 14.1018L23.442 15.4329L22.1162 16.7588Z" fill="#3424C4"/>
</svg>
