<svg width="226" height="240" fill="none" xmlns="http://www.w3.org/2000/svg"><path d="M75.928 66.327h-5.251V45.28c0-4.175 1.818-8.145 4.989-10.865l22.618-19.462c2.08-1.79 4.916-2.197 7.418-1.047 2.487 1.149 4.044 3.563 4.044 6.298V36.96h-5.251V20.218c0-.974-.684-1.396-.989-1.527-.291-.131-1.062-.378-1.804.247L79.084 38.386a9.1 9.1 0 00-3.156 6.894v21.047zM161.159 200.925a2.002 2.002 0 01-2.737-.716l-.627-1.072a2 2 0 01.716-2.736l38.638-22.626c3.156-1.891 5.134-5.382 5.134-9.091V82.931a2 2 0 012-2h1.251a2 2 0 012 2v81.753c0 5.542-2.952 10.763-7.709 13.614l-38.666 22.627z" fill="#0E0E0E"/><path d="M69.963 148.916l-2.648-4.523 40.364-23.637c3.156-1.891 5.135-5.382 5.135-9.105l-.015-83.753h5.251l.015 83.753c0 5.542-2.953 10.763-7.71 13.614l-40.392 23.651z" fill="#0E0E0E"/><path d="M212.888 117.6v-6.356a.233.233 0 00-.175-.219l-15.854-4.421a.11.11 0 01-.058-.029l-38.953-22.648a.223.223 0 00-.233 0l-13.629 7.87a.276.276 0 01-.189.028l-4.931-1.367c-.145-.043-.305.073-.305.218 0 1.266.014 5.964.029 6.11v.043c.087.83.523 1.63 1.338 2.095l50.225 29.207a7.15 7.15 0 007.157.014l14.196-8.203a2.71 2.71 0 001.367-2.284l.015-.058z" fill="#01FFA9"/><path d="M193.746 130.225c-1.44 0-2.88-.378-4.16-1.12L139.36 99.913c-1.076-.626-1.76-1.702-1.905-2.968-.015-.116-.029-.261-.044-6.254a1.373 1.373 0 011.746-1.324l4.567 1.266 13.294-7.695c.422-.247.96-.247 1.382.015l38.866 22.603 15.738 4.378c.596.16 1.003.699 1.003 1.31v6.37l-.014.175c-.044 1.251-.771 2.444-1.935 3.113l-14.196 8.203c-1.251.757-2.691 1.12-4.116 1.12zm-54.037-38.356c0 1.79.015 4.596.029 4.858.029.291.175.873.786 1.222l50.225 29.207a6.052 6.052 0 006.022.015l14.196-8.204c.48-.276.786-.771.8-1.338h1.15l-1.135-.015V111.956l-15.535-4.378-38.501-22.385-13.179 7.621c-.32.19-.712.233-1.061.131l-3.797-1.076z" fill="#0E0E0E"/><path d="M212.713 111.04l-15.855-4.422a.118.118 0 01-.058-.029l-3.273-1.906v24.408a6.978 6.978 0 003.782-.946l14.197-8.203a2.71 2.71 0 001.367-2.284v-.044-6.356c.014-.116-.058-.189-.16-.218z" fill="#0E0E0E"/><path d="M193.745 130.225h-.247l-1.105-.029V102.72l4.887 2.851 15.738 4.378c.596.16 1.004.698 1.004 1.309v6.4c-.059 1.396-.786 2.589-1.935 3.258l-14.196 8.204a8.232 8.232 0 01-4.146 1.105zm.931-23.563v21.221a5.812 5.812 0 002.08-.727l14.197-8.203c.48-.277.785-.771.8-1.339v-5.658l-15.535-4.378-1.542-.916z" fill="#0E0E0E"/><path d="M190.269 121.862l-50.327-29.266c-1.833-1.062-1.833-3.723 0-4.785l14.313-8.277a6.89 6.89 0 016.923.015l50.342 29.265c1.833 1.062 1.833 3.724 0 4.786l-14.313 8.276a6.952 6.952 0 01-6.938-.014z" fill="#fff"/><path d="M193.744 123.927a8.034 8.034 0 01-4.044-1.091l-50.341-29.265c-1.222-.713-1.95-1.978-1.935-3.375 0-1.41.727-2.676 1.949-3.374l14.313-8.277a8.02 8.02 0 018.058.015l50.342 29.265c1.222.713 1.949 1.979 1.934 3.375a3.842 3.842 0 01-1.949 3.374l-14.312 8.277a7.887 7.887 0 01-4.015 1.076zm-2.894-3.054a5.8 5.8 0 005.789 0l14.312-8.277c.509-.291.815-.814.815-1.411a1.62 1.62 0 00-.815-1.411l-50.342-29.265a5.832 5.832 0 00-5.789-.015l-14.312 8.277c-.509.29-.815.814-.815 1.41 0 .582.306 1.12.815 1.412l50.342 29.28z" fill="#0E0E0E"/><path d="M220.974 68.756l-8.32-.014-87.36-50.444-60.713 50.08-4.654-.014.407 6.516.015.014c.101 1.819 1.047 3.593 2.807 4.611l88.349 51.011a7.095 7.095 0 008.058-.669l60.218-49.658a4.606 4.606 0 001.673-3.476l-.422-7.884c-.014-.058-.029-.073-.058-.073z" fill="#fff"/><path d="M155.04 132.567a8.242 8.242 0 01-4.102-1.091l-88.35-51.01a6.816 6.816 0 01-3.316-4.859l-.029-.014-.058-.655-.48-7.723 5.47.014 61.003-50.313 87.782 50.677 9.105.014.087 1.135.422 7.869c-.043 1.818-.785 3.345-2.08 4.422l-60.218 49.658c-1.498 1.251-3.375 1.876-5.236 1.876zM61.425 74.138l.058.67c.088 1.57.902 2.908 2.24 3.68l88.349 51.01a5.979 5.979 0 006.764-.567l60.218-49.658c.786-.64 1.237-1.586 1.266-2.633l-.364-6.75-7.593-.014-.262-.145-86.676-50.036-60.436 49.818-3.855-.015.291 4.64z" fill="#0E0E0E"/><path d="M159.549 129.833l60.218-49.658a4.61 4.61 0 001.673-3.477l-.422-7.883c0-.03-.015-.044-.044-.044l-8.32-.014-4.349-2.502-44.553 29.76-8.625 17.731v17.687c1.585-.015 3.156-.538 4.422-1.6z" fill="#0E0E0E"/><path d="M154.007 132.596v-19.112l8.887-18.255 45.396-30.327 4.699 2.705 9.105.03.087 1.134.422 7.869c-.043 1.818-.785 3.346-2.08 4.422l-60.218 49.658c-1.425 1.178-3.244 1.833-5.12 1.862l-1.178.014zm2.269-18.589v16.175a5.737 5.737 0 002.56-1.222l60.218-49.658c.786-.64 1.236-1.586 1.266-2.633l-.364-6.749-7.593-.014-4-2.313-43.709 29.192-8.378 17.222zM63.476 79.07l-.058-7.594 2.283-1.73-.174-2.153-.8.654-4.655-.014.407 6.516.015.015c.102 1.818 1.047 3.592 2.807 4.61l.175-.305z" fill="#0E0E0E"/><path d="M63.753 80.93l-1.004-.58a6.732 6.732 0 01-3.302-4.83l-.029-.015-.058-.683-.48-7.724 5.469.015 2.167-1.79.393 4.946-2.327 1.76.043 7.331-.872 1.57zm-2.168-6.923l.059.684c.043.814.29 1.556.698 2.196l-.044-5.993 2.007-1.512H61.31l.276 4.625z" fill="#0E0E0E"/><path d="M151.098 123.404L62.763 72.393c-3.432-1.978-3.825-6.778-.77-9.295l59.476-49.047a6.438 6.438 0 017.302-.611l89.963 51.942c2.837 1.643 3.171 5.6.64 7.694l-60.218 49.659a7.096 7.096 0 01-8.058.669z" fill="#fff"/><path d="M154.647 125.484a8.253 8.253 0 01-4.102-1.091l-88.35-51.011a6.838 6.838 0 01-3.388-5.338 6.767 6.767 0 012.458-5.819l59.476-49.047a7.606 7.606 0 018.597-.713l89.963 51.942a5.835 5.835 0 012.895 4.568 5.856 5.856 0 01-2.095 4.989l-60.218 49.658a8.323 8.323 0 01-5.236 1.862zM125.556 13.731c-1.208 0-2.4.407-3.375 1.207L62.705 63.985a4.464 4.464 0 00-1.63 3.884 4.494 4.494 0 002.255 3.55l88.349 51.01a5.98 5.98 0 006.764-.567l60.218-49.658a3.495 3.495 0 001.28-3.04 3.55 3.55 0 00-1.76-2.793l-89.978-51.942a5.377 5.377 0 00-2.647-.698z" fill="#0E0E0E"/><path d="M152.232 117.498L68.014 68.596a1.255 1.255 0 01-.174-2.05l56.756-47.128c.8-.669 1.934-.77 2.851-.247l84.902 48.96c.654.378.741 1.309.16 1.789l-56.946 47.302a2.945 2.945 0 01-3.331.276z" fill="#fff"/><path d="M153.687 119.025a3.977 3.977 0 01-2.037-.552L67.432 69.571a2.387 2.387 0 01-1.178-1.862c-.058-.785.247-1.542.858-2.036l56.757-47.127a3.646 3.646 0 014.145-.35l84.902 48.96a2.238 2.238 0 011.105 1.746 2.223 2.223 0 01-.8 1.905l-56.945 47.302a4.11 4.11 0 01-2.589.916zm-27.491-99.054c-.306 0-.626.102-.873.32L68.567 67.418l.014.19 84.219 48.901a1.78 1.78 0 002.036-.174l56.945-47.302L126.88 20.16a1.316 1.316 0 00-.684-.19z" fill="#0E0E0E"/><path d="M93.92 67.883l50.675 29.019h.015l28.305-23.506c.015-.014.015-.029 0-.029l-50.4-29.25h-.014L93.919 67.853c-.014 0-.014.015 0 .03z" fill="#01FFA9"/><path d="M144.77 98.254l-.684-.334-51.229-29.31-.145-1.236.48-.407 29.193-24.233.698.393 50.938 29.571.073 1.251-.509.378-28.815 23.927zm-48.887-30.56l48.596 27.84 26.473-21.992-48.335-28.058-26.734 22.21z" fill="#0E0E0E"/><path d="M122.516 44.116l50.385 29.251c.014 0 .029 0 .029-.014l2.429-39.87s0-.014-.014-.014L124.959 4.22c-.014 0-.029 0-.029.014l-2.429 39.869c.015 0 .015 0 .015.014z" fill="#fff"/><path d="M173.443 74.369c-.356.182-.78.17-1.124-.033l-.015-.009-50.344-29.22a1.191 1.191 0 01-.594-1.005l2.418-39.922a1.172 1.172 0 011.771-.936L175.9 32.478c.36.21.584.59.593 1.006L174.076 73.4c-.025.412-.266.78-.633.968zm-49.675-32.124a2 2 0 00.992 1.85l44.348 25.753a2 2 0 003-1.608l1.998-32.9a2 2 0 00-.992-1.85L128.767 7.737c-1.287-.747-2.911.123-3.001 1.609l-1.998 32.899z" fill="#0E0E0E"/><path d="M127.562 41.135l41.222 23.781 1.513-28.552-41.207-23.782-1.528 28.553zM163.796 73.323l-39.548-22.956a1.135 1.135 0 00-1.139 1.962l39.548 22.957a1.135 1.135 0 001.139-1.963zM144.401 89.366l-39.548-22.957a1.135 1.135 0 00-1.139 1.962l39.548 22.957a1.133 1.133 0 101.139-1.962z" fill="#0E0E0E"/><path d="M89.744 200.16l8.015 1.964 8.756-3.331-1.149-2.095-2.807-.931s-3.651-.596-4.204-2.487c-.553-1.891-5.818 0-5.818 0l-3.622 3.098.83 3.782z" fill="#01FFA9"/><path d="M97.831 203.316l-9.047-2.225-1.12-5.135 4.495-3.752c1.003-.364 4.407-1.47 6.196-.553.553.291.945.742 1.105 1.309.233.785 2.051 1.484 3.288 1.687l.174.044 3.244 1.076 1.993 3.637-10.328 3.912zm-7.127-4.087l6.982 1.716 7.2-2.734-.306-.553-2.312-.771c-.742-.131-4.32-.902-5.004-3.273-.364-.218-2.37.073-4.145.684L90.18 196.8l.524 2.429z" fill="#0E0E0E"/><path d="M61.643 154.356s16.276-5.309 20.669-9.265c0 0-2.837 5.862.625 15.549 2.72 7.593 3.986 25.498 4.859 31.942.218 1.658 1.469 2.894 2.981 2.996l1.426.189c1.789.117 5.382-1.425 5.425-3.403.364-13.106 1.397-57.673-1.643-61.688-3.55-4.712-15.273-9.411-21.135-8.363-5.862 1.047-23.244 3.781-23.244 3.781l10.037 28.262z" fill="#fff"/><path d="M92.392 196.902c-.087 0-.175 0-.262-.015l-1.513-.203c-1.963-.117-3.665-1.789-3.956-3.971-.204-1.542-.436-3.753-.713-6.328-.829-7.854-2.065-19.723-4.087-25.381-2.095-5.862-1.993-10.386-1.513-13.193-6.225 3.636-17.803 7.433-18.37 7.622l-1.048.349-10.85-30.589 1.352-.218c.174-.03 17.44-2.75 23.214-3.782 6.168-1.106 18.43 3.738 22.24 8.785 3.04 4.015 2.473 40.829 1.877 62.4-.03.887-.466 1.746-1.28 2.487-1.28 1.179-3.462 2.037-5.091 2.037zm-6.516-56.567l-2.546 5.25c-.03.044-2.56 5.615.684 14.662 2.123 5.906 3.33 17.469 4.218 25.92.262 2.546.494 4.728.698 6.255.145 1.105.96 1.949 1.92 2.007l1.513.204c.843.072 2.632-.553 3.592-1.44.35-.32.539-.626.553-.873.975-34.618.422-58.545-1.41-60.975-3.36-4.45-14.604-8.901-20.03-7.927-4.843.873-17.702 2.909-21.905 3.578l9.193 25.92c3.636-1.236 15.68-5.483 19.2-8.683l4.32-3.898z" fill="#0E0E0E"/><path d="M107.999 196.873c-1.076-1.789-3.491-1.615-5.44-1.106.131.088.247.16.364.248 1.032.829.072 2.109-1.789 3.083-3.68 1.92-7.942 1.368-9.979-1.76l-.218-.64-.029-.611c-.654-.741-1.629-1.716-2.385-2.443-.684-.655-1.76-.422-2.138.48-.611 1.469-1.033 4.073.349 8.218l.669 6.298c.043.422.247.786.552 1.033.044.073.146.116.262.16.393.189 1.295.058 1.644-.131a14.529 14.529 0 002.109-.538c.349-.117.567-.48.553-.887l-.16-2.953c-.03-.451.407-.771.77-.567l.917.596a6.15 6.15 0 002.764.945 5.73 5.73 0 003.054-.596c4.553-2.255 10.095-5.6 8.131-8.829z" fill="#0E0E0E"/><path d="M88.784 210.822c-.349 0-.683-.058-.945-.175.014.015-.276-.058-.51-.334a2.408 2.408 0 01-.785-1.557l-.654-6.21c-1.44-4.364-.96-7.157-.306-8.742.291-.698.888-1.208 1.6-1.353a2.198 2.198 0 011.95.567c.712.684 1.687 1.644 2.37 2.415l.277.189.043.916.146.422c1.73 2.546 5.41 3.127 8.785 1.367 1.382-.727 1.775-1.381 1.746-1.527a2.472 2.472 0 00-.349-.276l-1.673-1.077 1.876-.538c3.927-1.033 5.658.233 6.415 1.498.538.888.669 1.848.392 2.837-.654 2.269-3.389 4.509-8.872 7.258a6.695 6.695 0 01-3.52.698 6.872 6.872 0 01-3.157-1.076l-.305-.204.13 2.342c.044.8-.421 1.513-1.148 1.76-.786.262-1.411.422-2.124.553a4.413 4.413 0 01-1.382.247zm-.262-1.789c.306.073.771 0 .931-.073l.277-.102a12.79 12.79 0 001.978-.509l-.204-2.953a1.515 1.515 0 01.67-1.338 1.314 1.314 0 011.381-.043l.975.625a4.95 4.95 0 002.356.8 4.927 4.927 0 002.604-.509c4.8-2.415 7.491-4.495 7.971-6.182a1.693 1.693 0 00-.204-1.44c-.596-.974-1.847-1.134-3.098-.974.058.203.073.421.058.654-.131 1.382-1.731 2.4-2.676 2.895-4.233 2.196-8.902 1.338-11.113-2.051l-.087-.189-.291-1.193c-.582-.64-1.484-1.513-2.138-2.153-.146-.131-.291-.145-.379-.116-.087.014-.247.087-.334.305-.553 1.324-.931 3.709.378 7.608l.044.189.669 6.298a.63.63 0 00.232.451z" fill="#0E0E0E"/><path d="M93.606 202.89l-.268-1.974a.873.873 0 10-1.73.234l.268 1.975a.873.873 0 001.73-.235z" fill="#01FFA9"/><path d="M56.71 236.974a1.999 1.999 0 01-2.746-.681l-.643-1.068a2 2 0 01.681-2.744l27.859-16.787a10.421 10.421 0 004.96-10.458l-3.972-27.14a2 2 0 011.69-2.268l1.235-.18a2 2 0 012.267 1.689l3.973 27.143a15.63 15.63 0 01-7.448 15.709L56.71 236.974zM14.44 211.694a1.999 1.999 0 01-2.745-.681l-.643-1.068a2 2 0 01.682-2.744l28.92-17.427c3.244-1.949 5.266-5.352 5.397-9.134l.986-26.188a2.001 2.001 0 012.076-1.924l1.254.049a2 2 0 011.921 2.074l-.986 26.193a16.308 16.308 0 01-7.942 13.425l-28.92 17.425z" fill="#0E0E0E"/><path d="M101.731 165.963v-5.687c0-.102-.059-.174-.16-.203l-14.182-3.957c-.015 0-.03-.014-.044-.014l-34.88-20.277a.2.2 0 00-.218 0l-33.513 19.084c-.043.029-.102.029-.16.015l-4.407-1.237a.214.214 0 00-.276.204c0 1.134.014 5.338.029 5.469v.043a2.411 2.411 0 001.192 1.877l44.946 26.138a6.436 6.436 0 006.414.015l34.022-19.375a2.446 2.446 0 001.222-2.051l.015-.044z" fill="#01FFA9"/><path d="M63.287 189.425a7.452 7.452 0 01-3.782-1.018l-44.96-26.138a3.583 3.583 0 01-1.76-2.749c-.03-.247-.03-4.015-.044-5.615 0-.421.19-.814.524-1.076a1.365 1.365 0 011.178-.233l4.044 1.135 33.192-18.895c.408-.232.931-.232 1.353 0l34.778 20.218 14.08 3.928c.582.16.989.698.989 1.294v5.717l-.014.16c-.044 1.149-.713 2.269-1.789 2.88l-34.022 19.389a7.535 7.535 0 01-3.767 1.003zm-48.262-34.298c0 1.6.014 3.957.014 4.189.03.233.146.698.64.989l44.946 26.139a5.278 5.278 0 005.265.014l34.022-19.389c.567-.32.64-.873.655-1.105h1.134l-1.134-.015v-4.975l-13.804-3.883-34.415-20.015-33.469 19.055-.625-.102-3.23-.902z" fill="#0E0E0E"/><path d="M17.585 154.647l-3.433-.96a.214.214 0 00-.276.204c0 1.134.014 5.338.03 5.469v.044a2.41 2.41 0 001.192 1.876l2.472 1.44v-8.073h.015z" fill="#0E0E0E"/><path d="M18.72 164.698l-4.175-2.429a3.583 3.583 0 01-1.76-2.749c-.03-.247-.03-4.015-.044-5.615 0-.421.19-.814.524-1.076a1.321 1.321 0 011.178-.233l4.262 1.193v10.909h.014zm-3.695-9.571c0 1.6.014 3.957.014 4.189.03.233.146.699.64.989l.757.437v-5.222l-1.411-.393zM101.584 160.087l-14.182-3.956c-.014 0-.029-.015-.043-.015L63.11 173.847v14.444a6.516 6.516 0 003.39-.844l34.021-19.374a2.446 2.446 0 001.222-2.051v-.044-5.687a.238.238 0 00-.16-.204z" fill="#0E0E0E"/><path d="M63.286 189.425h-.232l-1.106-.029V173.28l25.295-18.502.538.306 14.08 3.927c.596.16.989.683.989 1.294v5.717c-.058 1.309-.727 2.429-1.804 3.04l-33.992 19.36a7.53 7.53 0 01-3.768 1.003zm.946-14.996v12.64a4.998 4.998 0 001.687-.611l34.022-19.389c.567-.32.64-.873.655-1.105v-4.975l-13.033-3.636-23.331 17.076z" fill="#0E0E0E"/><path d="M60.175 181.818l-45.048-26.211c-1.643-.96-1.643-3.331 0-4.291l34.124-19.447a6.17 6.17 0 016.196.015l45.062 26.196c1.644.96 1.644 3.331 0 4.291l-34.124 19.447a6.194 6.194 0 01-6.21 0z" fill="#fff"/><path d="M63.287 183.782a7.396 7.396 0 01-3.68-.989l-45.062-26.197a3.578 3.578 0 01-1.804-3.127c0-1.309.67-2.473 1.804-3.127l34.138-19.448c2.255-1.309 5.076-1.294 7.33.015l45.063 26.196a3.581 3.581 0 011.803 3.128 3.592 3.592 0 01-1.803 3.127l-34.138 19.447a7.226 7.226 0 01-3.651.975zm-10.938-51.593c-.873 0-1.746.218-2.517.669L15.694 152.32c-.596.349-.67.916-.67 1.149 0 .233.059.815.67 1.164l45.062 26.196a5.072 5.072 0 005.062 0l34.138-19.447a1.32 1.32 0 00.669-1.149c0-.233-.058-.815-.67-1.164L54.88 132.873a5.086 5.086 0 00-2.53-.684z" fill="#0E0E0E"/><path d="M100.639 78.414l4.771-3.083c1.775-1.15 3.826-1.688 5.877-1.528 2.661.19 4.451.771 5.818 3.288l.145 1.222-4.669 1.614-.145.698 1.527.713s-1.367 4.902-9.818 3.724c-7.767-1.062-3.506-6.648-3.506-6.648z" fill="#fff"/><path d="M106.618 86.4c-.8 0-1.688-.058-2.648-.19-2.865-.392-4.669-1.44-5.352-3.112-1.018-2.458.887-5.076 1.105-5.353l.291-.261 4.771-3.084a10.638 10.638 0 016.589-1.717c2.967.219 5.135.946 6.735 3.884l.131.407.247 2.139-3.826 1.323.64.306-.261.93c-.059.19-1.411 4.728-8.422 4.728zm-5.179-7.142c-.407.611-1.119 1.993-.712 2.967.451 1.077 2.182 1.528 3.563 1.717 5.164.712 7.302-.975 8.117-2.066l-1.266-.582.48-2.21 4.408-1.528-.015-.102c-1.105-1.92-2.444-2.341-4.8-2.516-1.818-.13-3.607.335-5.178 1.353l-4.597 2.967z" fill="#0E0E0E"/><path d="M96.014 80.116l2.75-1.614c.421-.248.93-.218 1.294.102.887.756 2.487 2.4 3.418 4.989.233.654-.087 1.396-.684 1.672l-3.112 1.47c-.539.247-1.15.058-1.484-.466l-2.618-4.19c-.407-.683-.204-1.585.436-1.963z" fill="#0E0E0E"/><path d="M99.214 87.956c-.77 0-1.513-.392-1.963-1.12l-2.619-4.189a2.62 2.62 0 01-.32-1.978 2.42 2.42 0 011.135-1.542l2.749-1.614a2.21 2.21 0 012.618.218c.96.814 2.72 2.618 3.738 5.454a2.48 2.48 0 01-1.265 3.084l-3.113 1.47c-.305.145-.64.217-.96.217zm-2.618-6.865c-.03.014-.058.073-.073.13-.014.088-.014.175.03.233l2.618 4.19 3.141-1.426c.059-.029.131-.16.088-.247a10.974 10.974 0 00-3.084-4.51l-2.72 1.63z" fill="#0E0E0E"/><path d="M64.29 76.989c.67 2.066-1.004-2.633 0 0 2.75 7.33 6.051 15.287 6.051 15.287s7.927-3.854 13.76-5.934c5.178-1.847 9.484-4.99 10.386-5.673a.392.392 0 01.392-.073c.902.306 4.247 1.702 4.466 5.95a.568.568 0 01-.175.48c-2.036 1.876-20.145 18.239-33.6 21.236 0 0-7.767-7.098-11.593-20.364-3.854-13.236 8.684-15.927 10.313-10.909z" fill="#01FFA9"/><path d="M65.222 109.527l-.437-.393c-.32-.305-8.043-7.461-11.927-20.887-2.342-8.087 1.033-13.062 5.411-14.4 2.516-.77 4.93-.189 6.269 1.353.306.218.495.625.67 1.062.057.116.101.247.145.363 2.109 5.63 4.567 11.68 5.57 14.124 2.386-1.135 8.175-3.825 12.786-5.47 5.047-1.803 9.28-4.901 10.08-5.497.422-.32.93-.408 1.44-.233 2.4.8 5.033 3.054 5.236 6.967a1.767 1.767 0 01-.538 1.382c-2.05 1.876-20.378 18.444-34.124 21.498l-.581.131zm-4.742-33.76a5.66 5.66 0 00-1.542.233c-3.069.945-5.934 4.538-3.898 11.607 3.185 11.026 9.222 17.746 10.85 19.418 12.757-3.171 29.557-18.123 32.292-20.625-.248-2.938-2.313-4.16-3.331-4.582-1.338.99-5.498 3.855-10.371 5.6-5.702 2.036-13.556 5.847-13.644 5.891l-1.09.524-.466-1.12c-.03-.073-3.127-7.579-5.804-14.633-.174-.291-.29-.655-.422-1.033l-.043-.13c-.495-.8-1.47-1.15-2.531-1.15z" fill="#0E0E0E"/><path d="M124.379 192.989s2.269 2.458 5.41 2.4c3.142-.058 4.902 2.72 4.902 2.72l-4.305 5.251-8.567-.305-4.626-3.375-1.28-5.702 5.309-2.385 3.157 1.396z" fill="#01FFA9"/><path d="M130.894 204.524l-9.483-.335-5.251-3.84-1.571-7.025 6.618-2.982 3.84 1.702.16.174c.044.044 1.949 2.022 4.553 2.037 3.651-.088 5.789 3.112 5.876 3.243l.451.698-5.193 6.328zm-8.698-2.589l7.666.276 3.36-4.087c-.626-.655-1.877-1.586-3.419-1.586-3.083.058-5.425-1.963-6.08-2.589l-2.501-1.12-4 1.804.974 4.378 4 2.924z" fill="#0E0E0E"/><path d="M33.76 150.778s20.742 35.084 72.494-4.116c.218-.16.495 0 .422.291-.494 2.065-2.196 8.945.989 16.116 3.244 7.346 6.429 23.36 7.738 29.702.335 1.629 1.673 2.764 3.186 2.735l1.44.072c1.789-.043 4.233-1.702 4.145-3.68-.552-13.105-2.385-57.454-5.614-61.28-4.931-5.833-16.568-5.323-22.328-3.782-5.76 1.557-38.967 10.764-38.967 10.764L33.76 150.778z" fill="#fff"/><path d="M120.058 196.698l-1.528-.073c-1.963.044-3.796-1.483-4.232-3.636l-.291-1.44c-1.426-6.924-4.393-21.309-7.375-28.029-2.56-5.789-2.109-11.316-1.527-14.575-18.982 13.95-35.971 19.564-50.502 16.699-14.953-2.939-21.542-13.819-21.803-14.284l-.597-1.004 24.786-13.861c.334-.088 33.265-9.222 38.967-10.764 6.298-1.702 18.254-2.066 23.491 4.145 2.356 2.808 4.16 21.688 5.847 61.237l.029.727c.044 1.047-.378 2.065-1.207 2.953-1.062 1.12-2.647 1.876-4.058 1.905zm-1.499-2.342l1.528.073c.712-.014 1.731-.524 2.371-1.193.276-.305.611-.771.596-1.309l-.029-.727c-1.978-46.618-3.986-58.284-5.309-59.855-4.32-5.12-14.982-5.076-21.164-3.418-5.513 1.484-36.523 10.08-38.822 10.72l-22.312 12.509c1.949 2.662 8.261 10.022 19.68 12.248 14.327 2.807 31.316-3.142 50.487-17.673a1.424 1.424 0 011.629-.073c.509.32.742.931.596 1.527-.523 2.211-2.065 8.67.917 15.39 3.083 6.952 6.08 21.498 7.52 28.494l.291 1.44c.218 1.106 1.091 1.92 2.021 1.847z" fill="#0E0E0E"/><path d="M137.251 198.589c-.742-3.04-3.738-3.593-7.476-3.2 1.192.349 1.745.931 2.545 1.731 1.018 1.004-.131 2.255-2.211 3.055-3.971 1.527-8.247.523-10.196-2.75-.218-.218-.422-.421-.626-.669l-.625-.8-.175-.218c-.581-.814-1.44-1.876-2.152-2.72-.757-.902-2.095-.683-2.619.407-.727 1.542-1.265 4.19-.276 8.451l.087 6.779c0 .45.175.872.48 1.163.233.233.509.349.771.393.437.233 1.615.102 2.982-.16.393-.073.684-.436.727-.873l.262-3.462c.029-.32.364-.48.597-.276l.567.509c.596.538 1.28.975 2.007 1.28a6.595 6.595 0 004.829.131c4.917-1.731 11.549-4.509 10.502-8.771z" fill="#0E0E0E"/><path d="M115.506 211.215c-.48 0-.786-.073-1.004-.16a2.251 2.251 0 01-1.12-.611 2.535 2.535 0 01-.742-1.789l-.087-6.691c-1.033-4.524-.378-7.346.364-8.931.378-.8 1.105-1.353 1.934-1.469.786-.117 1.6.218 2.138.858.96 1.149 1.702 2.08 2.197 2.778l-.538.727.683-.538.626.8c.174.189.363.393.567.596l.131.175c1.687 2.822 5.44 3.811 9.134 2.385 1.382-.538 1.964-1.134 2.022-1.41 0-.03.015-.073-.116-.204-.815-.8-1.237-1.236-2.167-1.513l-4.248-1.251 4.408-.451c1.803-.189 7.272-.756 8.407 3.869 1.338 5.426-7.375 8.51-11.084 9.819a7.63 7.63 0 01-5.469-.146 7.976 7.976 0 01-2.036-1.251l-.189 2.444c-.059.829-.64 1.513-1.426 1.658-1.091.233-1.862.306-2.385.306zm-.349-17.891h-.073c-.247.029-.451.203-.582.465-.625 1.338-1.164 3.782-.218 7.884l.029.189.087 6.778c0 .218.088.422.218.553a.467.467 0 00.291.145l.291.102s.48.131 2.4-.247l.277-3.535c.043-.494.334-.916.785-1.091a1.222 1.222 0 011.266.218l.567.51c.523.48 1.12.858 1.76 1.12 1.338.567 2.822.596 4.203.116 4.684-1.658 10.822-4.276 9.964-7.753-.276-1.149-1.004-2.385-3.767-2.603.073.072.145.13.203.203.611.611.83 1.251.684 1.906-.291 1.411-2.08 2.283-3.113 2.691-4.465 1.716-9.061.48-11.214-3.026a8.51 8.51 0 01-.597-.64l-.858-1.091c-.451-.64-1.192-1.556-2.109-2.662-.145-.145-.32-.232-.494-.232z" fill="#0E0E0E"/><path d="M119.52 203.462v-2.778a.873.873 0 00-1.746 0v2.778a.873.873 0 001.746 0z" fill="#01FFA9"/><path d="M108.048 145.979c-.16.568-.732 1.027-1.319.97l-.183-.017c-.548-.053-.942-.537-.817-1.073.264-1.128.902-3.024 2.387-4.596.378-.4 1.012-.339 1.365.085l.176.21c.354.425.289 1.052-.072 1.47-.858.994-1.308 2.137-1.537 2.951zM30.908 93.57s-4.334 28.466-6.72 44.001c-2.385 15.534 17.644 23.709 30.546 25.265 12.901 1.557 26.4-5.411 30.429-12.014 4.029-6.604 10.21-9.848 10.21-9.848s-16.377-11.432-21.09-40.712c-4.698-29.28-21.018-33.95-21.935-33.935-.916.015-21.44 27.244-21.44 27.244z" fill="#0E0E0E"/><path d="M58.458 164.204c-1.28 0-2.575-.073-3.855-.233-9.76-1.178-22.254-5.847-28.145-13.615-2.967-3.912-4.102-8.261-3.39-12.945 2.386-15.535 6.72-44 6.72-44l.044-.291.175-.233c20.858-27.68 21.643-27.694 22.342-27.709.189 0 18.022 3.433 23.069 34.895 4.567 28.407 20.45 39.854 20.61 39.971l1.528 1.061-1.644.873c-.058.029-5.949 3.186-9.76 9.426-3.985 6.516-15.81 12.8-27.694 12.8zM31.985 94.036c-.45 2.997-4.436 29.091-6.676 43.709-.626 4.059.363 7.84 2.952 11.23 5.499 7.243 17.324 11.621 26.619 12.741 12.872 1.557 25.76-5.643 29.323-11.476 2.982-4.873 7.04-7.971 9.178-9.367-4.087-3.462-16.232-15.578-20.218-40.422-4.305-26.793-18.138-32.175-20.523-32.887-2.255 2.312-13.557 17.076-20.655 26.472z" fill="#0E0E0E"/><path d="M89.923 142.616a.85.85 0 01-1.195.225c-11.768-8.34-17.863-24.77-19.182-28.671a.838.838 0 01.565-1.07.902.902 0 011.114.568c1.31 3.807 7.343 19.806 18.469 27.726.393.28.5.822.23 1.222z" fill="#01FFA9"/><path d="M118.646 86.415s1.688-4.67 3.855-6.371c1.629-1.28 2.909.13 3.447.916a.58.58 0 00.771.19l4.844-2.692c.567-.32 1.251-.16 1.644.393.741 1.062 1.585 3.113.334 6.313-1.935 4.945-10.269 6.807-10.269 6.807l-4.626-5.556z" fill="#fff"/><path d="M122.836 93.207l-5.483-6.574.218-.611c.189-.51 1.862-5.018 4.218-6.88.96-.757 1.862-.815 2.444-.727 1.032.16 1.803.829 2.341 1.498l4.422-2.458c1.091-.597 2.4-.291 3.127.727.815 1.134 1.935 3.607.466 7.389-2.138 5.454-10.72 7.418-11.084 7.49l-.669.146zm-2.88-7.01l3.724 4.465c1.905-.538 7.403-2.357 8.8-5.935 1.033-2.632.465-4.305-.204-5.236l-5.018 2.647a1.708 1.708 0 01-2.255-.538c-.363-.538-.785-.873-1.105-.93-.073-.015-.305-.044-.698.261-1.353 1.076-2.633 3.767-3.244 5.265z" fill="#0E0E0E"/><path d="M115.403 88.523l2.516-2.647c.378-.407.931-.538 1.425-.32 1.164.524 3.317 1.76 5.033 4.233.437.625.277 1.527-.276 2.022l-2.953 2.603a1.257 1.257 0 01-1.716-.014l-3.957-3.637c-.64-.581-.669-1.614-.072-2.24z" fill="#0E0E0E"/><path d="M120.29 95.884a2.436 2.436 0 01-1.643-.655l-3.957-3.636a2.707 2.707 0 01-.858-1.891 2.77 2.77 0 01.727-1.964l2.517-2.647c.727-.771 1.789-.99 2.72-.567a13.673 13.673 0 015.498 4.625c.756 1.091.553 2.633-.451 3.52l-2.953 2.604a2.368 2.368 0 01-1.6.61zm-4.072-6.575a.388.388 0 00-.102.32c0 .117.043.233.116.291l3.957 3.636c.072.059.13.059.203 0l2.953-2.603c.131-.117.189-.393.087-.524-1.556-2.255-3.52-3.374-4.567-3.84l-2.647 2.72z" fill="#0E0E0E"/><path d="M65.804 80.858c.887-1.454 2.472-2.007 3.956-1.702.727.146 1.44.51 2.036 1.062 1.702 1.6 4.611 4.64 7.477 9.106 4.45 6.952 14.181 19.665 14.181 19.665s6.866-6.225 12.102-10.05c4.655-3.404 8.131-7.812 8.844-8.757a.455.455 0 01.364-.19c.96.03 4.64.379 5.92 4.553.058.16.029.35-.059.495-1.483 2.37-14.356 22.604-26.516 30.371-.829.524-1.862.407-2.604-.247-3.825-3.375-15.621-14.153-21.527-24.073-7.113-11.942-5.833-17.455-4.233-20.175.03 0 .044-.029.059-.058z" fill="#01FFA9"/><path d="M92.989 126.895a3.365 3.365 0 01-2.226-.859c-3.578-3.156-15.723-14.211-21.76-24.349-5.672-9.541-7.069-16.523-4.233-21.338l.059-.102c1.09-1.774 3.112-2.632 5.149-2.225.96.203 1.862.669 2.589 1.352 1.92 1.79 4.8 4.873 7.65 9.324 3.666 5.717 11.026 15.506 13.383 18.604 2.065-1.833 7.185-6.313 11.272-9.295 4.553-3.316 7.971-7.68 8.611-8.523.32-.422.844-.611 1.295-.64 2.603.058 5.803 1.498 6.982 5.367.145.48.072 1.018-.189 1.44-1.455 2.313-14.502 22.822-26.88 30.72-.495.364-1.091.524-1.702.524zM65.803 80.858l.931.655c-2.342 3.97-.916 10.37 4.233 19.011 5.862 9.847 17.789 20.712 21.309 23.796.378.335.858.378 1.236.145 11.651-7.432 24.088-26.705 26.037-29.803-.975-2.851-3.331-3.404-4.437-3.506-1.047 1.338-4.436 5.47-8.858 8.698-5.134 3.753-11.942 9.906-12.014 9.979l-.917.829-.756-.975c-.102-.131-9.804-12.829-14.24-19.738-2.735-4.262-5.47-7.185-7.287-8.887a3.054 3.054 0 00-1.499-.786c-1.12-.232-2.167.233-2.763 1.193l-.975-.61.975.596-.975-.597z" fill="#0E0E0E"/><path d="M95.313 114.015c-.041.583-.61.956-1.176.815l-.215-.054c-.504-.126-.825-.617-.795-1.136.081-1.404-.1-2.938-.256-3.925-.09-.57.269-1.201.815-1.384l.09-.03c.556-.186 1.14.145 1.235.723.193 1.172.434 3.13.302 4.991z" fill="#0E0E0E"/><path d="M63.578 62.385s-2.11 7.055-.306 10.415c1.804 3.345-6.764 2.429-6.764 2.429l-8.727-6.27s2.604-4.232 2.43-7.854c-.175-3.621-.568-3.985.276-3.723.829.247 13.09 5.003 13.09 5.003z" fill="#01FFA9"/><path d="M58.967 76.495c-1.018 0-1.95-.073-2.59-.146l-.29-.029-9.818-7.055.552-.901c.03-.044 2.415-3.986 2.27-7.215a36.866 36.866 0 00-.175-2.444c-.102-1.134-.16-1.76.436-2.24.568-.45 1.208-.261 1.484-.174.843.262 11.913 4.553 13.163 5.033l.975.378-.305 1.003c-.553 1.833-1.688 7.142-.393 9.542.684 1.266.305 2.182.014 2.604-.887 1.338-3.272 1.644-5.323 1.644zm-2.037-2.371c2.488.232 5.062-.015 5.47-.51-.015-.014-.03-.101-.117-.261-1.6-2.968-.61-8.044-.058-10.255-3.87-1.498-8.844-3.418-11.011-4.233.044.553.102 1.266.145 2.197.131 2.894-1.28 6.05-2.08 7.578l7.651 5.484z" fill="#0E0E0E"/><path d="M62.88 28.014s10.75-.421 14.226 8.786c3.49 9.207-3.622 16.204-3.622 16.204s-9.09-2.837-10.647-7.128c-1.556-4.29.043-17.862.043-17.862z" fill="#fff"/><path d="M73.79 54.284l-.655-.204c-.99-.305-9.673-3.142-11.375-7.825-1.63-4.495-.087-17.819-.014-18.386l.116-.96.974-.043c.117-.015 11.608-.35 15.346 9.512 3.709 9.79-3.578 17.106-3.898 17.411l-.495.495zm-9.892-25.12c-.45 4.305-1.09 13.28.015 16.32 1.018 2.822 6.502 5.236 9.236 6.196 1.455-1.687 5.6-7.345 2.91-14.487-2.604-6.851-9.572-7.884-12.16-8.03z" fill="#0E0E0E"/><path d="M56.698 29.265s-7.433-6.283-10.327 9.339c-2.008 10.85 2.196 17.367 10.298 23.563 2.516 1.935 5.353 2.255 7.84 1.498 3.345-1.003 5.716-4.203 6.778-7.84 1.906-6.487 2.27-12.567 1.018-18.589 1.528-6.458-2.69-5.498-10.327-7.621l-5.28-.35z" fill="#fff"/><path d="M61.993 65.178c-2.124 0-4.204-.712-6.022-2.109-9.513-7.287-12.611-14.429-10.72-24.684 1.178-6.37 3.287-10.138 6.298-11.214 2.516-.902 4.742.393 5.556.974l5.179.379c1.6.45 3.069.756 4.349 1.032 3.098.655 5.338 1.135 6.458 2.895.727 1.135.844 2.676.364 4.8 1.221 6.08.858 12.262-1.091 18.895-1.28 4.349-4.102 7.578-7.55 8.61-.93.291-1.876.422-2.821.422zM53.309 29.15c-.334 0-.67.058-1.018.175-1.498.538-3.535 2.632-4.8 9.469-2.007 10.836 2.502 16.814 9.876 22.458 2.037 1.556 4.451 2.022 6.822 1.309 2.706-.815 4.96-3.447 6.022-7.069 1.862-6.356 2.196-12.247.989-18.036l-.058-.248.058-.247c.378-1.6.378-2.69-.015-3.302-.61-.96-2.458-1.352-5.018-1.89-1.294-.277-2.749-.582-4.378-1.033l-5.542-.379-.276-.232c-.058-.03-1.236-.975-2.662-.975z" fill="#0E0E0E"/><path d="M61.657 80.436c3.404.451 8.931-3.883 6.27-6.269-.117-.116-.248-.203-.379-.29-2.313-1.499-9.09.64-13.454-2.182-3.273-2.124-3.273-4.306-3.055-5.251.16-.698-.087-1.47-.596-1.891-.393-.32-.975-.567-1.833-.495-2.37.175-4.19 3.244-3.2 6.167.99 2.924 4.596 6.866 8.8 8.35 3.185 1.12 4 1.41 7.447 1.861z" fill="#01FFA9"/><path d="M62.151 81.615c-.218 0-.436-.015-.654-.044-3.578-.48-4.451-.786-7.666-1.92-4.581-1.615-8.421-5.876-9.498-9.062a6.276 6.276 0 01.684-5.454c.858-1.295 2.138-2.11 3.505-2.211 1.339-.102 2.182.349 2.662.756.844.713 1.222 1.89.975 3.01-.146.64-.175 2.3 2.56 4.06 2.24 1.454 5.323 1.424 8.043 1.41 2.226-.015 4.146-.03 5.411.785.175.117.35.248.524.408 1.12 1.003 1.367 2.4.713 3.84-1.12 2.37-4.538 4.422-7.258 4.422zm-.349-2.299c1.804.248 4.757-1.41 5.528-3.098.32-.684.072-.974-.175-1.193a.886.886 0 00-.233-.174c-.683-.451-2.443-.436-4.16-.422-2.894.015-6.487.044-9.309-1.775-3.927-2.53-3.796-5.367-3.549-6.458.058-.29-.029-.625-.218-.785-.218-.19-.553-.262-1.018-.233-.67.058-1.324.48-1.79 1.193-.654 1.004-.814 2.298-.421 3.476.887 2.604 4.233 6.27 8.102 7.651 3.156 1.106 3.898 1.367 7.243 1.818z" fill="#0E0E0E"/><path d="M59.461 23.127c5.891.742 12.83 5.498 14.11 9.615 1.512 4.843.887 7.665-4.088 7.113-1.978-.219-3.564 5.163-4.305 7.054-.437 1.12-2.153 1.876-2.808 1.804-1.541-.175-3.68 1.934-3.898 4.29-.189 1.935.466 4.248 1.571 4.917-3.316 7.825 12.204 16.422-3.156 22.575-.407.16 10.618 15.432-3.637 23.781-11.869 6.953-35.898 4.422-41.236-9.163C2.676 71.389 35.33 66.909 36.887 46.618c1.222-15.854 12.989-24.698 22.574-23.49z" fill="#F7F7F7"/><path d="M37.338 109.178c-4.378 0-8.83-.683-12.887-2.08-6.793-2.356-11.477-6.356-13.513-11.578-5.556-14.138 3.142-21.89 11.549-29.367 6.21-5.528 12.64-11.244 13.28-19.608.64-8.276 4.102-15.374 9.774-20 4.262-3.476 9.382-5.12 14.066-4.538 6.313.8 13.63 5.848 15.055 10.4 1.076 3.448 1.032 5.731-.16 7.171-1.004 1.222-2.691 1.688-5.15 1.411-.392.073-1.207 1.062-2.734 5.31-.146.392-.262.741-.378 1.032-.64 1.629-2.866 2.647-4 2.516-.204-.029-.611.088-1.106.48-.843.684-1.44 1.775-1.542 2.793-.174 1.76.495 3.52 1.019 3.84l.843.51-.378.9c-1.076 2.532.262 5.296 1.673 8.22 1.44 3.01 2.938 6.108 1.76 9.163-.815 2.094-2.822 3.854-6.095 5.338 7.04 13.629 1.397 20.669-4.582 24.174-4.436 2.575-10.385 3.913-16.494 3.913zM57.687 24.16c-3.622 0-7.447 1.455-10.735 4.13-5.178 4.22-8.349 10.765-8.945 18.416-.698 9.28-7.462 15.301-14.007 21.134-8.19 7.287-15.928 14.182-10.938 26.85 2.269 5.79 7.854 8.772 12.145 10.255 8.974 3.113 20.524 2.415 27.462-1.643 7.622-4.466 8.8-11.462 3.607-21.382-.48-.916-.669-1.265-.465-1.804l.174-.48.48-.203c3.331-1.324 5.266-2.808 5.92-4.51.83-2.138-.393-4.668-1.687-7.345-1.382-2.865-2.938-6.094-1.993-9.309-1.105-1.28-1.542-3.563-1.367-5.367.16-1.615 1.062-3.287 2.37-4.35.903-.727 1.892-1.076 2.794-.974.305-.014 1.396-.538 1.614-1.09.102-.263.218-.597.35-.975 1.076-2.997 2.56-7.098 5.134-6.793 1.105.116 2.545.116 3.142-.596.436-.524.741-1.833-.262-5.048-1.15-3.694-7.797-8.145-13.164-8.829a15.075 15.075 0 00-1.629-.087z" fill="#0E0E0E"/><path d="M70.706 39.007c-.037.55-.544.933-1.09.86l-.273-.038c-.549-.074-.927-.581-.896-1.134.201-3.628-1.446-5.529-2.512-6.367-.44-.347-.673-.967-.447-1.48l.106-.242c.22-.501.807-.733 1.264-.432 1.847 1.218 4.172 4.069 3.848 8.833zM56.746 80.535c-.525.17-1.086-.118-1.28-.634-.617-1.628-1.39-3.043-2.312-4.227-.34-.436-.314-1.067.094-1.44l.197-.18c.407-.371 1.04-.345 1.385.086 1.129 1.415 2.062 3.114 2.788 5.06a.969.969 0 01-.622 1.254l-.25.081zM43.557 45.147c-.08.545-.568.946-1.116.89l-.281-.03a.974.974 0 01-.875-1.098c.901-6.388 3.734-10.246 5.05-11.732.358-.405.965-.377 1.328.025l.875.965-.757-.843.126.138c.361.394.345.997 0 1.407-1.158 1.378-3.547 4.792-4.35 10.278zM25.121 99.275c-.274.48-.89.648-1.352.344a14.466 14.466 0 01-6.387-9.686c-.091-.549.337-1.02.893-1.041l1.259-.048-1.135.043.156-.006c.544-.02 1.007.396 1.108.93.32 1.701 1.428 5.271 5.235 7.842.456.309.626.916.353 1.394l-.13.228z" fill="#0E0E0E"/><path d="M63.447 154.356l-6.866-34.123a7.906 7.906 0 00-3.796-5.28L10.749 90.88c-.524-.305-1.12-.422-1.63-.305-3.636.421-5.774 3.723-6.152 4.363-.044.058-.015.131.058.175l4.858 2.894.393-.174 5.527 28.96A7.766 7.766 0 0017.454 132c.015 0 .015.014.03.014l31.752 12.335c.029.015.044.029.058.044l3.07 3.854c.014.015.014.029.028.044l4.117 12.553c.014.058.058.087.116.087.785 0 6.56-.189 6.895-4.829l.029-.364c.043-.262-.044-1.076-.102-1.382z" fill="#fff"/><path d="M55.796 162.08l-.378-.887-4.058-12.379-2.808-3.519L16.8 132.931c-2.139-1.266-3.651-3.447-4.131-5.935L7.287 98.967l-4.858-2.894c-.611-.364-.8-1.12-.451-1.731.45-.742 2.85-4.437 7.01-4.917.67-.145 1.557 0 2.328.451l42.022 24.088A8.994 8.994 0 0157.687 120l6.865 34.124c.03.174.204 1.265.102 1.818l-.014.247c-.306 4.305-4.51 5.862-8.015 5.876l-.83.015zM9.12 96.189l5.803 30.386a6.578 6.578 0 003.113 4.436l31.898 12.378.247.276 3.302 4.262 3.884 11.84c1.6-.131 4.814-.771 5.033-3.738l.029-.364a5.464 5.464 0 00-.088-1.076l-6.865-34.124a6.692 6.692 0 00-3.258-4.509L10.18 91.869c-.334-.189-.654-.218-.829-.174-2.37.276-4.014 1.92-4.843 2.996l3.432 2.05 1.179-.552z" fill="#0E0E0E"/><path d="M63.535 156.204l.029-.364c.043-.276-.044-1.091-.102-1.396l-6.866-34.124a7.99 7.99 0 00-1.41-3.142c-1.964 1.993-4.902 3.127-4.902 3.127s-6.037 3.535-6.575 3.753c-.524.218-10.05 9.847-10.444 10.895-.072.218.088 1.512.393 3.418l15.578 6.051c.03.014.044.029.059.043l3.083 3.869c.015.015.015.03.03.044l4.116 12.567c.014.059.058.088.116.088.8 0 6.56-.189 6.895-4.829z" fill="#0E0E0E"/><path d="M55.825 162.167l-.378-.887-4.073-12.393-2.807-3.52-15.928-6.167-.101-.64c-.51-3.287-.466-3.636-.335-4 .495-1.309 10.284-11.229 11.084-11.549.392-.175 3.607-2.022 6.414-3.68l.16-.073c.03-.014 2.735-1.076 4.495-2.865l.93-.946.786 1.062a8.91 8.91 0 011.615 3.593l6.865 34.123c0 .015.218 1.208.102 1.819l-.014.247c-.306 4.32-4.524 5.876-8.03 5.891l-.785-.015zm-21.15-24.611l15.259 5.935.247.291 3.288 4.247 3.883 11.84c1.615-.131 4.815-.771 5.033-3.738l.029-.364a5.708 5.708 0 00-.087-1.091l-6.866-34.123a6.422 6.422 0 00-.553-1.615c-1.76 1.397-3.694 2.226-4.145 2.4-1.76 1.033-5.614 3.273-6.516 3.724-1.135.873-8.815 8.727-9.877 10.225.044.262.102.873.306 2.269zM12.581 91.927L10.75 90.88c-.524-.305-1.12-.422-1.63-.305-3.636.421-5.774 3.723-6.152 4.363-.044.058-.015.131.058.175l2.647 1.57c1.062-.727 1.208-1.207 1.208-1.207s1.803-1.963 5.701-3.549z" fill="#0E0E0E"/><path d="M5.701 98.036l-3.258-1.949c-.61-.363-.8-1.12-.45-1.73.45-.742 2.85-4.437 7.01-4.917.67-.145 1.557 0 2.328.451l3.869 2.21-2.168.874c-3.083 1.25-4.785 2.749-5.207 3.156-.204.35-.625.887-1.498 1.484l-.626.421zm-1.192-3.36l1.047.626c.204-.175.262-.277.262-.277l.073-.261.13-.073c.073-.073 1.382-1.47 4.073-2.88-.305-.16-.582-.175-.742-.146-2.37.306-4 1.95-4.843 3.011z" fill="#0E0E0E"/><path d="M58.793 158.24l-6.997-34.72a7.714 7.714 0 00-3.738-5.178L5.993 94.211c-1.687-.96-3.71.494-3.346 2.385l6.4 33.528a7.74 7.74 0 003.666 5.207l42.72 25.294c1.672 1.004 3.738-.465 3.36-2.385z" fill="#01FFA9"/><path d="M56.567 162.095a3.38 3.38 0 01-1.73-.48l-42.72-25.295a8.813 8.813 0 01-4.19-5.978l-6.4-33.528a3.37 3.37 0 011.367-3.403 3.356 3.356 0 013.666-.19l42.08 24.117a8.876 8.876 0 014.29 5.949l6.997 34.72c.262 1.338-.247 2.662-1.367 3.448-.611.421-1.295.64-1.993.64zM4.873 95.055c-.32 0-.568.145-.655.218-.13.102-.582.465-.45 1.134l6.4 33.528a6.546 6.546 0 003.097 4.436l42.72 25.294c.582.35 1.091.044 1.222-.043.146-.102.582-.48.451-1.149l-6.996-34.72a6.628 6.628 0 00-3.186-4.422L5.426 95.2a1.083 1.083 0 00-.553-.145z" fill="#0E0E0E"/><path d="M53.92 188.582a7.129 7.129 0 01-3.52-.931c-2.328-1.295-3.71-3.651-3.71-6.313 0-3.68-.407-7.374-1.207-10.967l-6.953-31.317a23.73 23.73 0 00-11.563-15.563l-1.979-1.12c-1.163-.655-2.501-.567-3.563.218-1.076.785-1.556 2.036-1.28 3.345l6.254 29.746a55.294 55.294 0 011.193 11.476v.32c0 1.048.713 1.557 1.018 1.731.306.175 1.12.509 2.008-.043l2.763 4.465c-2.269 1.396-5.003 1.469-7.33.175-2.328-1.295-3.71-3.651-3.71-6.313v-.32c0-3.477-.363-6.982-1.076-10.386L15.01 127.04c-.698-3.331.568-6.647 3.302-8.655 2.735-2.007 6.284-2.225 9.251-.567l1.978 1.12a28.992 28.992 0 0114.11 19.011l6.938 31.302a55.623 55.623 0 011.338 12.116c0 1.047.712 1.557 1.018 1.731.305.175 1.12.509 2.007-.044l2.764 4.466a7.454 7.454 0 01-3.797 1.062z" fill="#0E0E0E"/><path d="M60.721 161.093c-.461.152-.934-.156-1.034-.631-.1-.473.205-.929.659-1.095 2.608-.955 2.4-3.132 2.36-3.411l-6.799-34.617a.874.874 0 111.716-.337l6.799 34.663c.23 1.471-.304 4.305-3.701 5.428zM183.679 66.007l7.971 4.698a3.398 3.398 0 003.927-.334l14.066-11.956c.96-.815.843-2.328-.233-2.997l-7.796-4.8a3.394 3.394 0 00-3.971.306l-14.211 12.072a1.856 1.856 0 00.247 3.011z" fill="#01FFA9"/><path d="M193.381 72.305a4.517 4.517 0 01-2.298-.625l-7.971-4.698a2.966 2.966 0 01-1.454-2.313 2.962 2.962 0 011.047-2.53l14.211-12.074a4.51 4.51 0 015.309-.407l7.796 4.8a2.944 2.944 0 011.411 2.313 2.948 2.948 0 01-1.047 2.502l-14.066 11.956a4.551 4.551 0 01-2.938 1.076zm6.458-21.061c-.523 0-1.047.189-1.454.538l-14.211 12.073a.715.715 0 00-.247.61.688.688 0 00.349.553l7.971 4.698a2.257 2.257 0 002.603-.218l14.066-11.956c.247-.218.262-.495.247-.597a.724.724 0 00-.335-.552l-7.796-4.8a2.264 2.264 0 00-1.193-.35z" fill="#0E0E0E"/><path d="M183.679 63.855l7.971 4.698a3.399 3.399 0 003.927-.335l14.066-11.956c.96-.815.843-2.328-.233-2.997l-7.796-4.8a3.394 3.394 0 00-3.971.306l-14.211 12.073a1.856 1.856 0 00.247 3.01z" fill="#01FFA9"/><path d="M193.381 70.167a4.517 4.517 0 01-2.298-.625l-7.971-4.698a2.966 2.966 0 01-1.454-2.313A2.962 2.962 0 01182.705 60l14.211-12.073a4.51 4.51 0 015.309-.407l7.796 4.8a2.945 2.945 0 011.411 2.313 2.948 2.948 0 01-1.047 2.502L196.319 69.09a4.632 4.632 0 01-2.938 1.076zm6.458-21.076c-.523 0-1.047.189-1.454.538l-14.211 12.073c-.247.218-.262.494-.247.61a.688.688 0 00.349.553l7.971 4.699a2.257 2.257 0 002.603-.219l14.066-11.956c.247-.218.262-.495.247-.596a.725.725 0 00-.335-.553l-7.796-4.8a2.265 2.265 0 00-1.193-.35z" fill="#0E0E0E"/><path d="M139.016 27.658l22.204 12.103M138.124 33.011l15.149 8.03M137.169 37.865l20.446 10.801" stroke="#01FFA9" stroke-width="2" stroke-linecap="round" stroke-linejoin="bevel"/></svg>