<svg width="205" height="54" viewBox="0 0 205 54" fill="none" xmlns="http://www.w3.org/2000/svg">
<path d="M98.8624 23.5568C97.7293 22.2542 96.2819 21.2484 94.5119 20.5559C92.7419 19.8634 90.6329 19.5172 88.1681 19.5172C86.4561 19.5172 84.8515 19.8057 83.3379 20.3745C81.8326 20.9516 80.4844 21.6524 79.3182 22.485L79.3762 6.52453C79.3762 6.1453 79.0701 5.83203 78.6814 5.83203H70.9232C70.5428 5.83203 70.2285 6.1453 70.2285 6.52453V50.6302C70.2285 51.0095 70.5428 51.3227 70.9232 51.3227H78.7393C79.1197 51.3227 79.4341 51.0095 79.4341 50.6302V35.0819C79.4341 33.9525 79.5995 32.922 79.9386 31.9904C80.2777 31.0588 80.7491 30.2509 81.3529 29.5667C81.9567 28.8824 82.6845 28.3548 83.5447 27.9756C84.3966 27.5963 85.3312 27.415 86.3485 27.415C87.3576 27.415 88.2674 27.5304 89.0779 27.753C89.8802 27.9838 90.5667 28.3795 91.1374 28.9401C91.6998 29.5007 92.1382 30.2674 92.4442 31.2237C92.7502 32.18 92.9074 33.4084 92.9074 34.8923V50.589C92.9074 50.9682 93.2217 51.2815 93.6021 51.2815H101.476C101.856 51.2815 102.171 50.9682 102.171 50.589V34.711C102.171 32.3367 101.906 30.2097 101.369 28.3301C100.831 26.4587 99.9956 24.8593 98.8624 23.5568Z" fill="#0E0E0E"/>
<path d="M122.707 44.3645C123.708 44.3645 124.609 44.2409 125.411 43.9853C126.214 43.7297 126.892 43.301 127.454 42.7075C128.017 42.1057 128.447 41.3225 128.753 40.3414C129.059 39.3604 129.208 38.132 129.208 36.6646V21.3884C129.208 21.0091 129.514 20.7041 129.894 20.7041H137.677C138.058 20.7041 138.364 21.0091 138.364 21.3884V36.9531C138.364 39.7396 137.967 42.0974 137.181 44.0348C136.395 45.9721 135.303 47.5385 133.906 48.7421C132.508 49.9458 130.854 50.8279 128.943 51.3802C127.032 51.9326 124.956 52.2046 122.715 52.2046C120.474 52.2046 118.389 51.9326 116.487 51.3802C114.576 50.8279 112.922 49.954 111.524 48.7421C110.127 47.5385 109.035 45.9639 108.249 44.0348C107.463 42.1057 107.066 39.7396 107.066 36.9531V21.3884C107.066 21.0091 107.372 20.7041 107.753 20.7041H115.536C115.916 20.7041 116.222 21.0091 116.222 21.3884V36.6646C116.222 38.1155 116.371 39.3357 116.669 40.3332C116.967 41.3225 117.389 42.1222 117.951 42.7157C118.513 43.3175 119.192 43.738 120.002 43.9936C120.796 44.2409 121.706 44.3645 122.707 44.3645Z" fill="#0E0E0E"/>
<path d="M176.079 29.6574C175.326 27.687 174.259 25.964 172.861 24.4883C171.463 23.0126 169.76 21.8502 167.75 20.9846C165.74 20.119 163.474 19.6903 160.959 19.6903C159.107 19.6903 157.461 19.9459 156.013 20.457C154.566 20.9681 153.292 21.6276 152.184 22.4273V6.87078C152.184 6.49156 151.878 6.18652 151.497 6.18652H143.739C143.359 6.18652 143.053 6.49156 143.053 6.87078V50.1933C143.053 50.7621 143.516 51.2156 144.078 51.2156L151.423 51.2238C151.803 51.2238 152.109 50.9188 152.109 50.5395V49.5008C152.432 49.7234 152.771 49.9377 153.127 50.1521C153.813 50.5643 154.566 50.927 155.368 51.2403C156.179 51.5536 157.031 51.8009 157.94 51.974C158.842 52.1471 159.801 52.2378 160.802 52.2378C163.3 52.2378 165.558 51.8091 167.584 50.96C169.602 50.1026 171.323 48.9402 172.754 47.4563C174.185 45.9723 175.276 44.2493 176.045 42.279C176.815 40.3087 177.195 38.1982 177.195 35.9641C177.203 33.7382 176.823 31.6359 176.079 29.6574ZM167.411 39.4183C166.989 40.4571 166.41 41.3557 165.665 42.0976C164.929 42.8396 164.061 43.4167 163.068 43.8206C162.076 44.2246 161.017 44.4225 159.892 44.4225C158.751 44.4225 157.684 44.2246 156.7 43.8206C155.716 43.4167 154.855 42.8479 154.119 42.1141C153.383 41.3804 152.796 40.4818 152.374 39.4348C151.952 38.3878 151.737 37.2254 151.737 35.9476C151.737 34.6945 151.952 33.5486 152.391 32.518C152.821 31.4875 153.408 30.6054 154.144 29.8717C154.88 29.138 155.749 28.5691 156.741 28.1652C157.734 27.7612 158.792 27.5634 159.917 27.5634C161.059 27.5634 162.125 27.7612 163.118 28.1652C164.111 28.5691 164.971 29.138 165.707 29.8717C166.435 30.6054 167.005 31.4875 167.419 32.518C167.832 33.5486 168.039 34.6945 168.039 35.9476C168.047 37.2254 167.832 38.3796 167.411 39.4183Z" fill="#0E0E0E"/>
<path d="M8.31339 29.0079C10.8245 27.9711 12.0169 25.1017 10.9767 22.5988C9.93658 20.0959 7.05777 18.9073 4.5467 19.9441C2.03563 20.9808 0.8432 23.8503 1.88334 26.3532C2.92348 28.8561 5.80232 30.0447 8.31339 29.0079Z" fill="#01FFA9"/>
<path d="M58.0302 34.1017C60.5412 33.0649 61.7337 30.1954 60.6935 27.6925C59.6534 25.1896 56.7746 24.001 54.2635 25.0378C51.7524 26.0746 50.56 28.944 51.6001 31.447C52.6403 33.9499 55.5191 35.1384 58.0302 34.1017Z" fill="#01FFA9"/>
<path d="M13.2734 30.9018L27.9129 46.1698C30.9566 49.3438 36.0102 49.4592 39.2027 46.4254L39.3433 46.2935C42.5276 43.2596 42.6434 38.2225 39.5997 35.0403L23.8023 18.5687C20.7586 15.3947 20.8661 10.3576 24.0587 7.31556C27.243 4.28175 32.2966 4.38892 35.3485 7.57112L49.7151 22.5506" stroke="#01FFA9" stroke-width="10" stroke-miterlimit="10"/>
</svg>
