<svg width="24" height="26" viewBox="0 0 24 26" fill="none" xmlns="http://www.w3.org/2000/svg">
<path d="M11.5 9.31818C9.18954 9.31818 7.31818 11.1895 7.31818 13.5C7.31818 15.8105 9.18954 17.6818 11.5 17.6818C13.8105 17.6818 15.6818 15.8105 15.6818 13.5C15.6818 11.1895 13.8105 9.31818 11.5 9.31818ZM20.8464 12.4545C20.3655 8.095 16.905 4.63455 12.5455 4.15364V2H10.4545V4.15364C6.095 4.63455 2.63455 8.095 2.15364 12.4545H0V14.5455H2.15364C2.63455 18.905 6.095 22.3655 10.4545 22.8464V25H12.5455V22.8464C16.905 22.3655 20.3655 18.905 20.8464 14.5455H23V12.4545H20.8464ZM11.5 20.8182C7.45409 20.8182 4.18182 17.5459 4.18182 13.5C4.18182 9.45409 7.45409 6.18182 11.5 6.18182C15.5459 6.18182 18.8182 9.45409 18.8182 13.5C18.8182 17.5459 15.5459 20.8182 11.5 20.8182Z" fill="#0E0E0E"/>
</svg>
