<svg xmlns="http://www.w3.org/2000/svg" width="29" height="29" fill="none" xmlns:v="https://vecta.io/nano"><path d="M14.5 28.344C6.855 28.344.657 22.146.657 14.5S6.855.656 14.5.656 28.344 6.854 28.344 14.5 22.146 28.344 14.5 28.344z" fill="#fdfdfd"/><g fill="#338af3"><path d="M26.59 7.751C24.222 3.518 19.695.656 14.5.656S4.778 3.518 2.41 7.751h24.18z"/><path d="M26.59 7.751A13.84 13.84 0 0 0 14.5.656 13.84 13.84 0 0 0 2.41 7.751h24.18zM2.41 21.421a13.84 13.84 0 0 0 24.18 0H2.41z"/><path d="M2.41 21.421c2.368 4.233 6.895 7.095 12.09 7.095s9.722-2.862 12.09-7.095H2.41z"/></g><path d="M14.327 11.558l-1.384-1.384-.346 1.903-2.077-.173.865 1.73-1.73.865 1.73.865-.692 1.73 1.903-.173.346 2.076 1.384-1.557 1.384 1.557.346-2.076 1.904.173-.692-1.73 1.73-.865-1.904-.865.865-1.73-1.904.173-.346-1.903-1.384 1.384z" fill="#ffda44"/></svg>