<svg width="42" height="48" viewBox="0 0 42 48" fill="none" xmlns="http://www.w3.org/2000/svg">
<g clip-path="url(#clip0)">
<path d="M9.5 13.5L12.5 9.5L20.5 6L27.5 8.5L32 13.5L33.5 22L35.5 30L39.5 36.5H20.5H2.5L7 28.5L8.5 22L9.5 13.5Z" fill="#01FFA9"/>
<path d="M41.1919 33.9647C39.3807 32.0184 35.9916 29.0906 35.9916 19.5C35.9916 12.2156 30.8841 6.38438 23.9972 4.95375V3C23.9972 1.34344 22.6547 0 20.9991 0C19.3435 0 18.001 1.34344 18.001 3V4.95375C11.1141 6.38438 6.00659 12.2156 6.00659 19.5C6.00659 29.0906 2.61753 32.0184 0.806276 33.9647C0.243776 34.5694 -0.00559925 35.2922 -0.000911745 36C0.00940076 37.5375 1.21596 39 3.00846 39H38.9897C40.7822 39 41.9897 37.5375 41.9991 36C42.0038 35.2922 41.7544 34.5684 41.1919 33.9647ZM6.33003 34.5C8.3194 31.8778 10.4944 27.5316 10.5047 19.5544C10.5047 19.5356 10.4991 19.5187 10.4991 19.5C10.4991 13.7006 15.1997 9 20.9991 9C26.7985 9 31.4991 13.7006 31.4991 19.5C31.4991 19.5187 31.4935 19.5356 31.4935 19.5544C31.5038 27.5325 33.6788 31.8787 35.6682 34.5H6.33003ZM20.9991 48C24.3103 48 26.9963 45.3141 26.9963 42H15.0019C15.0019 45.3141 17.6878 48 20.9991 48Z" fill="black"/>
</g>
<defs>
<clipPath id="clip0">
<rect width="42" height="48" fill="white"/>
</clipPath>
</defs>
</svg>
