<svg width="29" height="29" viewBox="0 0 29 29" fill="none" xmlns="http://www.w3.org/2000/svg">
<path d="M14.5 29C22.5081 29 29 22.5081 29 14.5C29 6.49187 22.5081 0 14.5 0C6.49187 0 0 6.49187 0 14.5C0 22.5081 6.49187 29 14.5 29Z" fill="#6DA544"/>
<path d="M14.4997 5.67383L26.478 14.4999L14.4997 23.326L2.52148 14.4999L14.4997 5.67383Z" fill="#FFDA44"/>
<path d="M14.4995 19.5434C17.2849 19.5434 19.543 17.2854 19.543 14.5C19.543 11.7146 17.2849 9.45654 14.4995 9.45654C11.7141 9.45654 9.45605 11.7146 9.45605 14.5C9.45605 17.2854 11.7141 19.5434 14.4995 19.5434Z" fill="#F0F0F0"/>
<path d="M11.9781 14.1846C11.1011 14.1846 10.2547 14.318 9.45801 14.5655C9.49329 17.3205 11.7365 19.5433 14.4999 19.5433C16.2086 19.5433 17.7177 18.6927 18.63 17.3928C17.0692 15.4388 14.6676 14.1846 11.9781 14.1846Z" fill="#0052B4"/>
<path d="M19.4498 15.4663C19.5106 15.1534 19.5434 14.8306 19.5434 14.5C19.5434 11.7145 17.2853 9.45654 14.4999 9.45654C12.4215 9.45654 10.6374 10.714 9.86523 12.5094C10.5478 12.368 11.2544 12.2935 11.9782 12.2935C14.9075 12.2934 17.5575 13.5111 19.4498 15.4663Z" fill="#0052B4"/>
</svg>
