<svg xmlns="http://www.w3.org/2000/svg" width="25" height="25" fill="none" xmlns:v="https://vecta.io/nano"><path d="M18.525 6.632H16.96v-.993a.72.72 0 0 0-1.443 0v.993H8.96v-.993a.72.72 0 1 0-1.443 0v.993H5.953c-1.03 0-1.864.835-1.864 1.864v10.857c0 1.03.835 1.864 1.864 1.864h12.571c1.03 0 1.864-.835 1.864-1.864V8.496c0-1.03-.835-1.864-1.864-1.864zm.421 12.721a.42.42 0 0 1-.421.421H5.953a.42.42 0 0 1-.421-.421v-7.279h13.414v7.279zm0-8.721H5.532V8.496a.42.42 0 0 1 .421-.421h1.564v.993a.72.72 0 1 0 1.443 0v-.993h6.557v.993a.72.72 0 1 0 1.443 0v-.993h1.564a.42.42 0 0 1 .422.421v2.136z" fill="#0E0E0E" stroke="#0E0E0E" stroke-width=".3"/></svg>