<svg xmlns="http://www.w3.org/2000/svg" width="18" height="18" fill="#3424c4" xmlns:v="https://vecta.io/nano"><path d="M14.46.165c-.22-.22-.576-.22-.796 0l-1.852 1.852 4.171 4.171 1.852-1.852c.22-.22.22-.576 0-.796L14.46.165zm.728 6.818l-4.171-4.17-7.312 7.312h.233c.311 0 .563.252.563.563v.563h.563c.311 0 .563.252.563.563v.563h.563c.311 0 .563.252.563.563v.563h.563c.311 0 .563.252.563.563v.233l7.313-7.313zm-8.402 8.402a.56.56 0 0 1-.036-.197v-.562h-.562a.56.56 0 0 1-.562-.562V13.5h-.562a.56.56 0 0 1-.562-.562v-.562H3.94a.56.56 0 0 1-.562-.562v-.562h-.562a.56.56 0 0 1-.197-.036l-.2.2a.56.56 0 0 0-.125.189L.04 17.229a.56.56 0 0 0 .125.607c.159.159.398.208.607.125l5.625-2.25a.56.56 0 0 0 .189-.125l.2-.2z"/></svg>