<svg width="164" height="166" viewBox="0 0 164 166" fill="none" xmlns="http://www.w3.org/2000/svg">
<g clip-path="url(#clip0)">
<path d="M119.749 99.9557C119.286 98.3929 117.382 97.6621 115.426 97.6621C113.522 97.6621 111.617 98.3929 111.154 99.9557L101.221 132.722C101.169 132.931 101.118 133.139 101.118 133.243C101.118 134.911 103.537 136.055 105.339 136.055C106.471 136.055 107.345 135.692 107.603 134.702L109.558 127.773H121.344L123.301 134.702C123.558 135.692 124.432 136.055 125.565 136.055C127.366 136.055 129.785 134.859 129.785 133.243C129.785 133.087 129.734 132.93 129.682 132.722L119.749 99.9557ZM110.948 122.459L115.425 106.467L119.904 122.459H110.948Z" fill="black"/>
<path d="M146.33 67.7187H97.096V46.4342L113.097 34.8662C114.359 33.953 115.109 32.4801 115.109 30.9097C115.109 29.338 114.359 27.8651 113.097 26.952L96.9033 15.2446C95.6383 6.63002 88.2824 0 79.4262 0H17.671C7.92648 0 0 8.02315 0 17.8865V80.3961C0 90.2582 7.92648 98.2813 17.671 98.2813H66.904V119.566L50.9034 131.134C49.6409 132.047 48.8914 133.521 48.8914 135.092C48.8914 136.662 49.6409 138.136 50.9034 139.048L67.0967 150.755C68.3617 159.37 75.7176 166 84.5738 166H146.33C156.074 166 164 157.976 164 148.114V85.6051C164 75.7418 156.074 67.7187 146.33 67.7187ZM17.671 88.5548C13.2254 88.5548 9.60938 84.8947 9.60938 80.3949V17.8852C9.60938 13.3867 13.2254 9.72656 17.671 9.72656H79.4262C83.8706 9.72656 87.4866 13.3867 87.4866 17.8852C87.4866 19.4569 88.2361 20.9311 89.4986 21.843L102.037 30.9084L89.4986 39.9739C88.2361 40.887 87.4866 42.3612 87.4866 43.9316V67.7187H84.5738C74.8305 67.7187 66.904 75.7418 66.904 85.6039V88.5548H17.671ZM154.391 148.114C154.391 152.613 150.775 156.273 146.33 156.273H84.5738C80.1294 156.273 76.5134 152.613 76.5134 148.114C76.5134 146.543 75.7639 145.069 74.5014 144.157L61.963 135.092L74.5014 126.026C75.7639 125.113 76.5134 123.639 76.5134 122.068V85.6051C76.5134 81.1053 80.1294 77.4452 84.5738 77.4452H92.2788H92.2913H92.3038H146.33C150.775 77.4452 154.391 81.1053 154.391 85.6051V148.114Z" fill="black"/>
<path d="M63.3101 44.8321C64.8053 44.8321 66.019 43.6036 66.019 42.0889C66.019 40.5742 64.8053 39.3457 63.3101 39.3457H51.2571V32.6866C51.2571 31.1718 50.0434 29.9434 48.547 29.9434C47.0518 29.9434 45.8381 31.1718 45.8381 32.6866V39.3457H33.7851C32.2899 39.3457 31.0762 40.5742 31.0762 42.0889C31.0762 43.6036 32.2899 44.8321 33.7851 44.8321H37.52C38.1168 50.6237 40.5842 55.8581 44.2953 59.9121C41.2186 61.7763 37.6251 62.8528 33.7851 62.8528C32.2899 62.8528 31.0762 64.0801 31.0762 65.5948C31.0762 67.1095 32.2899 68.338 33.7851 68.338C39.2679 68.338 44.3541 66.6029 48.547 63.652C52.7411 66.6029 57.8273 68.338 63.3101 68.338C64.8053 68.338 66.019 67.1095 66.019 65.5948C66.019 64.0801 64.8053 62.8528 63.3101 62.8528C59.4701 62.8528 55.8766 61.7789 52.7999 59.9121C56.511 55.8581 58.9784 50.6237 59.5752 44.8321H63.3101ZM48.547 56.485C45.5828 53.3707 43.5696 49.3268 42.9803 44.8321H54.1149C53.5256 49.3268 51.5124 53.3707 48.547 56.485Z" fill="black"/>
</g>
<defs>
<clipPath id="clip0">
<rect width="164" height="166" fill="white"/>
</clipPath>
</defs>
</svg>
