<svg width="57" height="57" viewBox="0 0 57 57" fill="none" xmlns="http://www.w3.org/2000/svg">
<g clip-path="url(#clip0)">
<path d="M25.5 29.5C25.5 27.2909 27.2909 25.5 29.5 25.5H50.5C52.7091 25.5 54.5 27.2909 54.5 29.5V50.5C54.5 52.7091 52.7091 54.5 50.5 54.5H40.5H29.1231C27.2876 54.5 25.6877 53.2508 25.2425 51.4701L25.1875 51.2501C25.0669 50.7675 24.7706 50.3471 24.3566 50.0711L20.1609 47.274C19.5911 46.8941 19.5631 46.0668 20.1059 45.6493L24.7194 42.1004C25.2116 41.7219 25.5 41.1361 25.5 40.5152V29.5Z" fill="#01FFA9"/>
<path d="M41.6198 34.3222C41.4589 33.7856 40.797 33.5347 40.1173 33.5347C39.4555 33.5347 38.7936 33.7856 38.6327 34.3222L35.1802 45.5733C35.1624 45.6451 35.1445 45.7164 35.1445 45.7521C35.1445 46.3248 35.9851 46.7179 36.6114 46.7179C37.0049 46.7179 37.3089 46.5931 37.3985 46.253L38.0778 43.8738H42.1743L42.8544 46.253C42.9436 46.5931 43.2476 46.7179 43.6411 46.7179C44.2673 46.7179 45.108 46.307 45.108 45.7521C45.108 45.6986 45.0901 45.6446 45.0723 45.5733L41.6198 34.3222ZM38.5609 42.0491L40.1169 36.5579L41.6738 42.0491H38.5609Z" fill="black"/>
<path d="M32 27C32 29.2091 30.2091 31 28 31L7 31C4.79086 31 3 29.2091 3 27V6C3 3.79086 4.79086 2 7 2H17L28.3769 2C30.2124 2 31.8123 3.24919 32.2575 5.02986L32.3125 5.24987C32.4331 5.73255 32.7294 6.15292 33.1434 6.4289L37.3391 9.22604C37.9089 9.6059 37.9369 10.4332 37.3941 10.8507L32.7806 14.3996C32.2884 14.7781 32 15.3639 32 15.9848V27Z" fill="#01FFA9"/>
<path d="M50.8587 23.2528H33.7468V15.9443L39.308 11.9721C39.7467 11.6586 40.0072 11.1528 40.0072 10.6136C40.0072 10.0739 39.7467 9.56813 39.308 9.25459L33.6798 5.2346C33.2401 2.27657 30.6835 0 27.6055 0H6.14175C2.75494 0 0 2.75494 0 6.14175V27.6059C0 30.9923 2.75494 33.7472 6.14175 33.7472H23.2532V41.0557L17.692 45.0279C17.2533 45.3414 16.9928 45.8476 16.9928 46.3869C16.9928 46.9261 17.2533 47.4323 17.692 47.7454L23.3202 51.7654C23.7599 54.7234 26.3165 57 29.3945 57H50.8587C54.2451 57 57 54.2446 57 50.8583V29.3945C57 26.0077 54.2451 23.2528 50.8587 23.2528ZM6.14175 30.4074C4.59663 30.4074 3.33984 29.1506 3.33984 27.6055V6.14131C3.33984 4.59663 4.59663 3.33984 6.14175 3.33984H27.6055C29.1501 3.33984 30.4069 4.59663 30.4069 6.14131C30.4069 6.68099 30.6674 7.18719 31.1062 7.5003L35.4641 10.6131L31.1062 13.726C30.6674 14.0395 30.4069 14.5457 30.4069 15.085V23.2528H29.3945C26.0082 23.2528 23.2532 26.0077 23.2532 29.3941V30.4074H6.14175ZM53.6602 50.8583C53.6602 52.4034 52.4034 53.6602 50.8587 53.6602H29.3945C27.8499 53.6602 26.5931 52.4034 26.5931 50.8583C26.5931 50.319 26.3326 49.8128 25.8938 49.4997L21.5359 46.3869L25.8938 43.274C26.3326 42.9605 26.5931 42.4543 26.5931 41.915V29.3945C26.5931 27.8494 27.8499 26.5926 29.3945 26.5926H32.0725H32.0769H32.0812H50.8587C52.4034 26.5926 53.6602 27.8494 53.6602 29.3945V50.8583Z" fill="black"/>
<path d="M22.004 15.3941C22.5237 15.3941 22.9455 14.9723 22.9455 14.4522C22.9455 13.9321 22.5237 13.5103 22.004 13.5103H17.8149V11.2237C17.8149 10.7036 17.3931 10.2817 16.8729 10.2817C16.3533 10.2817 15.9314 10.7036 15.9314 11.2237V13.5103H11.7423C11.2226 13.5103 10.8008 13.9321 10.8008 14.4522C10.8008 14.9723 11.2226 15.3941 11.7423 15.3941H13.0404C13.2478 17.3828 14.1054 19.1802 15.3952 20.5722C14.3259 21.2123 13.0769 21.582 11.7423 21.582C11.2226 21.582 10.8008 22.0034 10.8008 22.5235C10.8008 23.0436 11.2226 23.4654 11.7423 23.4654C13.6479 23.4654 15.4157 22.8696 16.8729 21.8564C18.3307 22.8696 20.0984 23.4654 22.004 23.4654C22.5237 23.4654 22.9455 23.0436 22.9455 22.5235C22.9455 22.0034 22.5237 21.582 22.004 21.582C20.6694 21.582 19.4204 21.2132 18.3511 20.5722C19.6409 19.1802 20.4985 17.3828 20.7059 15.3941H22.004ZM16.8729 19.3954C15.8427 18.3261 15.143 16.9375 14.9382 15.3941H18.8081C18.6033 16.9375 17.9036 18.3261 16.8729 19.3954Z" fill="black"/>
</g>
<defs>
<clipPath id="clip0">
<rect width="57" height="57" fill="white"/>
</clipPath>
</defs>
</svg>
