<svg xmlns="http://www.w3.org/2000/svg" width="19" height="16" fill="none" xmlns:v="https://vecta.io/nano"><path d="M10.104.762c-.499-.85-1.706-.85-2.205 0L.185 13.887c-.514.875.103 1.988 1.102 1.988h15.428c.999 0 1.617-1.113 1.102-1.988L10.104.762zM9 4.625a1.02 1.02 0 0 1 1.013 1.119L9.618 9.69a.62.62 0 0 1-.618.56.62.62 0 0 1-.618-.56l-.395-3.946A1.02 1.02 0 0 1 9 4.625zm.002 6.75c.621 0 1.125.504 1.125 1.125s-.504 1.125-1.125 1.125-1.125-.504-1.125-1.125.504-1.125 1.125-1.125z" fill="#343a40"/></svg>