<svg width="25" height="25" fill="none" xmlns="http://www.w3.org/2000/svg"><g clip-path="url(#clip0)" fill="#0E0E0E"><path d="M.522 8.336a.521.521 0 01-.52-.521V.523c0-.287.233-.52.52-.52h7.292a.52.52 0 010 1.041h-6.77v6.77c0 .288-.234.522-.522.522zM24.48 8.334a.52.52 0 01-.521-.521v-6.77h-6.771a.52.52 0 010-1.043h7.291A.52.52 0 0125 .521v7.292a.52.52 0 01-.52.52zM7.812 25H.521A.521.521 0 010 24.48v-7.292a.521.521 0 011.042 0v6.77h6.77a.521.521 0 010 1.042zM24.48 25h-7.292a.521.521 0 010-1.041h6.77v-6.771a.521.521 0 011.042 0v7.291c0 .288-.233.521-.52.521z"/><path d="M8.854 9.377a.524.524 0 01-.369-.152L.152.892A.521.521 0 01.89.155l8.333 8.333a.521.521 0 01-.368.89zM16.146 9.375a.521.521 0 01-.369-.889L24.11.153a.522.522 0 01.737.737l-8.333 8.333a.52.52 0 01-.368.152zM24.48 25a.523.523 0 01-.37-.152l-8.333-8.333a.521.521 0 01.737-.737l8.333 8.333a.521.521 0 01-.368.89zM.521 25a.521.521 0 01-.369-.889l8.333-8.333a.522.522 0 01.737.737L.89 24.848A.519.519 0 01.52 25z"/></g><defs><clipPath id="clip0"><path fill="#fff" d="M0 0h25v25H0z"/></clipPath></defs></svg>