<svg width="62" height="62" viewBox="0 0 62 62" fill="none" xmlns="http://www.w3.org/2000/svg">
<path d="M7 11L17.8315 9.5872C18.274 9.52947 18.7038 9.39809 19.103 9.1985L24.5 6.5L29.2313 2.55724C29.9678 1.94351 31.0362 1.93869 31.7782 2.54577L36 6L40.5074 8.25369C40.8343 8.41713 41.182 8.535 41.5409 8.60401L54 11V26L52.5332 37.7342C52.5112 37.9106 52.4657 38.0833 52.398 38.2477L49.1523 46.1301C49.0518 46.3743 48.9039 46.5961 48.7172 46.7828L44.1519 51.3481C44.0509 51.4491 43.9394 51.539 43.8192 51.6162L37.1723 55.8892C37.0577 55.9629 36.9359 56.0246 36.8088 56.0735L31.218 58.2239C30.7558 58.4016 30.2442 58.4016 29.782 58.2239L24.2235 56.086C24.075 56.0289 23.9339 55.9542 23.8031 55.8637L17.6483 51.6026C17.5496 51.5344 17.4573 51.4573 17.3725 51.3725L12.7468 46.7468C12.5835 46.5835 12.4497 46.3932 12.3514 46.1842L8.63546 38.2878C8.54572 38.0971 8.48668 37.8935 8.46054 37.6843L7 26V11Z" fill="#01FFA9"/>
<path d="M55.9406 16.2498L55.9387 16.2032C55.9127 15.628 55.8953 15.0193 55.8848 14.3422C55.8359 11.0399 53.2109 8.30843 49.9082 8.12383C43.0223 7.73956 37.6954 5.49421 33.144 1.0579L33.1052 1.02089C31.6206 -0.340297 29.3812 -0.340297 27.8962 1.02089L27.8573 1.0579C23.3059 5.49421 17.979 7.73956 11.0931 8.12429C7.79089 8.30843 5.16539 11.0399 5.1165 14.3426C5.10644 15.0152 5.08862 15.6238 5.06258 16.2032L5.05984 16.3115C4.92596 23.3331 4.75963 32.0719 7.68306 40.0037C9.29053 44.3655 11.725 48.1571 14.9185 51.2738C18.5557 54.8232 23.3196 57.6411 29.0778 59.6488C29.2651 59.7142 29.4598 59.7672 29.6581 59.8069C29.9377 59.8627 30.2192 59.8906 30.5007 59.8906C30.7821 59.8906 31.0641 59.8627 31.3432 59.8069C31.5415 59.7672 31.7376 59.7137 31.9258 59.6479C37.6772 57.6365 42.4361 54.8173 46.07 51.2683C49.2621 48.1507 51.6966 44.3582 53.3055 39.9955C56.2399 32.0399 56.074 23.2847 55.9406 16.2498ZM50.0083 38.7796C46.9249 47.1395 40.6307 52.8808 30.7661 56.3306C30.731 56.3425 30.6935 56.353 30.6546 56.3608C30.5528 56.3809 30.449 56.3809 30.3458 56.3603C30.3074 56.3526 30.2699 56.3425 30.2352 56.3306C20.3601 52.8872 14.0618 47.1491 10.9807 38.7887C8.2862 31.4774 8.43882 23.4556 8.57361 16.3787L8.57452 16.3394C8.60194 15.7312 8.62022 15.0943 8.63027 14.3943C8.6522 12.928 9.82011 11.7148 11.2891 11.633C15.1858 11.4155 18.6091 10.6625 21.7546 9.33104C24.896 8.00138 27.686 6.12706 30.2832 3.60116C30.4152 3.48967 30.5866 3.48921 30.7182 3.60116C33.3158 6.12706 36.1058 8.00138 39.2467 9.33104C42.3922 10.6625 45.8155 11.4155 49.7126 11.633C51.1817 11.7148 52.3496 12.928 52.3711 14.3947C52.3816 15.0984 52.3998 15.7353 52.4273 16.3394C52.5616 23.4245 52.7105 31.4527 50.0083 38.7796Z" fill="black"/>
<path d="M30.4998 15.0205C22.2696 15.0205 15.5742 21.7163 15.5742 29.9461C15.5742 38.1763 22.2696 44.8721 30.4998 44.8721C38.7296 44.8721 45.4254 38.1763 45.4254 29.9461C45.4254 21.7163 38.7296 15.0205 30.4998 15.0205ZM30.4998 41.3574C24.2074 41.3574 19.0885 36.2385 19.0885 29.9461C19.0885 23.6537 24.2074 18.5347 30.4998 18.5347C36.7917 18.5347 41.9107 23.6537 41.9107 29.9461C41.9107 36.2385 36.7917 41.3574 30.4998 41.3574Z" fill="black"/>
<path d="M34.7894 25.3124L27.8568 32.245L25.9752 30.3633C25.2889 29.677 24.1763 29.677 23.49 30.3633C22.8041 31.0496 22.8041 32.1623 23.49 32.8481L26.6145 35.9726C26.9576 36.3157 27.4072 36.4871 27.8568 36.4871C28.3065 36.4871 28.7561 36.3157 29.0992 35.9726L37.2746 27.7972C37.9605 27.1109 37.9605 25.9983 37.2746 25.3124C36.5883 24.6257 35.4757 24.6257 34.7894 25.3124Z" fill="black"/>
</svg>
