<svg width="40" height="40" viewBox="0 0 40 40" fill="none" xmlns="http://www.w3.org/2000/svg">
<circle cx="20" cy="20" r="19.5" fill="white" stroke="#3C3E3E"/>
<g clip-path="url(#clip0)">
<path d="M13.5769 15.6118H14.9127C15.1938 15.6118 15.4217 15.3839 15.4217 15.1028C15.4217 14.8217 15.1938 14.5938 14.9127 14.5938H13.5769C12.8403 14.5938 12.2412 15.1928 12.2412 15.9295V17.662C12.2412 18.3987 12.8402 18.9978 13.5769 18.9978H19.2717C20.0083 18.9978 20.6074 18.3987 20.6074 17.662V15.9295C20.6074 15.1928 20.0083 14.5938 19.2717 14.5938H16.4488C16.1676 14.5938 15.9398 14.8217 15.9398 15.1028C15.9398 15.3839 16.1676 15.6118 16.4488 15.6118H19.2717C19.4467 15.6118 19.5893 15.7544 19.5893 15.9295V17.662C19.5893 17.8371 19.4467 17.9797 19.2717 17.9797H13.5769C13.4019 17.9797 13.2593 17.8371 13.2593 17.662V15.9295C13.2593 15.7544 13.4019 15.6118 13.5769 15.6118Z" fill="#3C3E3E" stroke="#3C3E3E" stroke-width="0.25"/>
<path d="M22.3118 16.2803H25.3368C25.618 16.2803 25.8458 16.0524 25.8458 15.7712C25.8458 15.4901 25.618 15.2622 25.3368 15.2622H22.3118C22.0306 15.2622 21.8027 15.4901 21.8027 15.7712C21.8027 16.0524 22.0306 16.2803 22.3118 16.2803Z" fill="#3C3E3E" stroke="#3C3E3E" stroke-width="0.25"/>
<path d="M22.3118 18.3291H25.3368C25.618 18.3291 25.8458 18.1012 25.8458 17.8201C25.8458 17.539 25.618 17.311 25.3368 17.311H22.3118C22.0306 17.311 21.8027 17.539 21.8027 17.8201C21.8027 18.1012 22.0306 18.3291 22.3118 18.3291Z" fill="#3C3E3E" stroke="#3C3E3E" stroke-width="0.25"/>
<path d="M12.7502 21.1079H20.7353C21.0165 21.1079 21.2443 20.88 21.2443 20.5989C21.2443 20.3178 21.0165 20.0898 20.7353 20.0898H12.7502C12.4691 20.0898 12.2412 20.3178 12.2412 20.5989C12.2412 20.88 12.4691 21.1079 12.7502 21.1079Z" fill="#3C3E3E" stroke="#3C3E3E" stroke-width="0.25"/>
<path d="M12.7502 23.1567H20.7353C21.0165 23.1567 21.2443 22.9288 21.2443 22.6477C21.2443 22.3666 21.0165 22.1387 20.7353 22.1387H12.7502C12.4691 22.1387 12.2412 22.3666 12.2412 22.6477C12.2412 22.9288 12.4691 23.1567 12.7502 23.1567Z" fill="#3C3E3E" stroke="#3C3E3E" stroke-width="0.25"/>
<path d="M12.7502 26.291H16.7428C17.024 26.291 17.2518 26.0631 17.2518 25.782C17.2518 25.5009 17.024 25.2729 16.7428 25.2729H12.7502C12.4691 25.2729 12.2412 25.5009 12.2412 25.782C12.2412 26.0631 12.4691 26.291 12.7502 26.291Z" fill="#3C3E3E" stroke="#3C3E3E" stroke-width="0.25"/>
<path d="M12.7502 28.3398H20.7353C21.0165 28.3398 21.2443 28.1119 21.2443 27.8308C21.2443 27.5497 21.0165 27.3218 20.7353 27.3218H12.7502C12.4691 27.3218 12.2412 27.5497 12.2412 27.8308C12.2412 28.1119 12.4691 28.3398 12.7502 28.3398Z" fill="#3C3E3E" stroke="#3C3E3E" stroke-width="0.25"/>
<path d="M27.8151 20.0896H24.0058H24.0057C23.4033 20.0896 22.8786 20.4266 22.6095 20.9212L22.6095 20.9213C22.5973 20.9437 22.5856 20.9665 22.5744 20.9896L22.5744 20.9897C22.5409 21.0592 22.5123 21.1314 22.4891 21.206C22.4426 21.3553 22.4175 21.5138 22.4175 21.6779V22.7354V26.1299C22.4175 28.4546 24.3086 30.3457 26.6333 30.3457C27.0436 30.3457 27.44 30.2859 27.8151 30.1759V31.4775C27.8151 31.8245 27.5326 32.107 27.1857 32.107H10.7979C10.4509 32.107 10.1685 31.8245 10.1685 31.4775V27.093C10.1685 26.8119 9.94061 26.584 9.65942 26.584C9.37824 26.584 9.15039 26.8119 9.15039 27.093V31.4775C9.15039 32.3861 9.88932 33.125 10.7979 33.125H27.1857C28.0942 33.125 28.8331 32.3861 28.8331 31.4775V29.8366C28.8331 29.8002 28.8292 29.7647 28.8218 29.7306C30.0357 28.9901 30.8491 27.6539 30.8491 26.1299V22.7354V21.6779C30.849 20.802 30.1367 20.0896 29.2608 20.0896H28.8331V8.52251C28.8331 7.61393 28.0942 6.875 27.1857 6.875H15.6833C15.0512 6.875 14.4562 7.12015 14.0078 7.56505L9.8602 11.4284L9.86018 11.4284L9.85844 11.4301L9.84871 11.4395L9.8487 11.4395L9.84729 11.4409C9.39808 11.8901 9.15039 12.488 9.15039 13.1233V25.5568C9.15039 25.8379 9.37824 26.0658 9.65942 26.0658C9.94061 26.0658 10.1685 25.8379 10.1685 25.5568V13.1273H13.9838C14.9233 13.1273 15.6873 12.3632 15.6873 11.4238V7.89307H27.1857C27.5326 7.89307 27.8151 8.17551 27.8151 8.52251V20.0896ZM13.9838 12.1093H10.623L14.6693 8.34031V11.4238C14.6693 11.8017 14.3616 12.1093 13.9838 12.1093ZM29.8309 26.1299V26.1481C29.821 27.9029 28.3903 29.3276 26.6332 29.3276C24.8701 29.3276 23.4355 27.893 23.4355 26.1299V22.8603H29.8309V26.1299ZM29.2608 21.1076C29.5751 21.1076 29.831 21.3636 29.831 21.6778V21.8422H23.4356V21.6778C23.4356 21.3636 23.6915 21.1076 24.0058 21.1076H29.2608Z" fill="#3C3E3E" stroke="#3C3E3E" stroke-width="0.25"/>
<path d="M26.096 27.1545C26.1946 27.1545 26.2903 27.1165 26.3623 27.0471L25.593 25.1416C25.4864 24.9582 25.2513 24.896 25.068 25.0027C24.8847 25.1093 24.8224 25.3444 24.9291 25.5277L25.764 26.9635C25.8232 27.0655 25.9261 27.1345 26.0428 27.1508C26.0606 27.1533 26.0783 27.1545 26.096 27.1545ZM28.2632 23.9773L26.21 25.954L25.6559 27.0264C25.7345 27.1615 25.8708 27.253 26.0255 27.2746L26.0257 27.2746C26.049 27.2779 26.0725 27.2795 26.096 27.2795C26.2267 27.2795 26.3535 27.2291 26.449 27.1372L26.449 27.1372L28.9693 24.7107L28.9693 24.7106C29.1718 24.5157 29.1779 24.1934 28.9829 23.9909L28.9829 23.9909C28.7879 23.7884 28.4657 23.7823 28.2632 23.9773ZM24.821 25.5905L25.6559 27.0263L25.0051 24.8947C24.7621 25.036 24.6797 25.3475 24.821 25.5905C24.821 25.5905 24.821 25.5905 24.821 25.5905Z" fill="#3C3E3E" stroke="#3C3E3E" stroke-width="0.25"/>
</g>
<defs>
<clipPath id="clip0">
<rect width="26" height="26" fill="white" transform="translate(7 7)"/>
</clipPath>
</defs>
</svg>
