<svg width="29" height="29" viewBox="0 0 29 29" fill="none" xmlns="http://www.w3.org/2000/svg">
<path d="M0 14.5001C0 16.2738 0.319057 17.9728 0.901889 19.5436L14.5 20.8045L28.0981 19.5436C28.6809 17.9728 29 16.2738 29 14.5001C29 12.7265 28.6809 11.0275 28.0981 9.45668L14.5 8.1958L0.901889 9.45668C0.319057 11.0275 0 12.7265 0 14.5001Z" fill="#FFDA44"/>
<path d="M28.0986 9.45655C26.0498 3.93499 20.7349 0 14.5005 0C8.26596 0 2.95109 3.93499 0.902344 9.45655H28.0986Z" fill="#D80027"/>
<path d="M0.902344 19.5435C2.95109 25.065 8.26596 29 14.5005 29C20.7349 29 26.0498 25.065 28.0986 19.5435H0.902344Z" fill="#D80027"/>
</svg>
