<svg width="22" height="22" viewBox="0 0 22 22" fill="none" xmlns="http://www.w3.org/2000/svg">
<path d="M6.13233 10.7375L2.09327 6.11401L6.13233 1.49049C6.45872 1.11644 6.42065 0.548439 6.04661 0.221748C5.67256 -0.104643 5.10486 -0.0662716 4.77787 0.307471L0.222105 5.52263C-0.0740352 5.86131 -0.0740352 6.36697 0.222105 6.70565L4.77791 11.9208C4.95593 12.124 5.20502 12.2284 5.45557 12.2284C5.66539 12.2284 5.87606 12.1552 6.04661 12.0063C6.42069 11.6796 6.45902 11.1116 6.13233 10.7375Z" fill="black"/>
<path d="M15.4657 5.21484H0.899164C0.402531 5.21484 0 5.61733 0 6.11401C0 6.61064 0.402531 7.01317 0.899164 7.01317H15.4657C18.0772 7.01317 20.2017 9.13759 20.2017 11.7488C20.2017 14.36 18.0772 16.4844 15.4657 16.4844H2.09808C1.60145 16.4844 1.19891 16.887 1.19891 17.3836C1.19891 17.8802 1.60145 18.2828 2.09808 18.2828H15.4657C19.0684 18.2828 22 15.3515 22 11.7488C22 8.14613 19.0687 5.21484 15.4657 5.21484Z" fill="black"/>
</svg>
