<svg width="29" height="29" viewBox="0 0 29 29" fill="none" xmlns="http://www.w3.org/2000/svg">
<g clip-path="url(#clip0)">
<path d="M14.5 29C22.5081 29 29 22.5081 29 14.5C29 6.49187 22.5081 0 14.5 0C6.49187 0 0 6.49187 0 14.5C0 22.5081 6.49187 29 14.5 29Z" fill="#F0F0F0"/>
<path d="M13.8691 14.5004H28.9996C28.9996 13.1917 28.8251 11.9238 28.5 10.7178H13.8691V14.5004Z" fill="#D80027"/>
<path d="M13.8691 6.93497H26.8713C25.9837 5.48656 24.8488 4.20631 23.5256 3.15234H13.8691V6.93497Z" fill="#D80027"/>
<path d="M14.4997 29.0003C17.9122 29.0003 21.0488 27.8208 23.5257 25.8481H5.47363C7.95053 27.8208 11.0871 29.0003 14.4997 29.0003Z" fill="#D80027"/>
<path d="M2.12772 22.0653H26.8713C27.5839 20.9026 28.1365 19.6316 28.5 18.2827H0.499023C0.862486 19.6316 1.41513 20.9026 2.12772 22.0653Z" fill="#D80027"/>
<path d="M6.71667 2.26438H8.03804L6.80894 3.15732L7.27843 4.60216L6.04939 3.70922L4.82034 4.60216L5.22589 3.35397C4.14371 4.25541 3.19521 5.31153 2.41357 6.4883H2.83696L2.05458 7.05669C1.93269 7.26003 1.81579 7.46659 1.70375 7.67622L2.07735 8.82608L1.38033 8.31966C1.20707 8.68675 1.04859 9.0621 0.906137 9.44528L1.31774 10.7122H2.83696L1.60786 11.6052L2.07735 13.05L0.848307 12.1571L0.112092 12.692C0.0384023 13.2843 0 13.8877 0 14.5H14.5C14.5 6.49192 14.5 5.54784 14.5 0C11.6356 0 8.96536 0.830918 6.71667 2.26438ZM7.27843 13.05L6.04939 12.1571L4.82034 13.05L5.28984 11.6052L4.06074 10.7122H5.57995L6.04939 9.26737L6.51883 10.7122H8.03804L6.80894 11.6052L7.27843 13.05ZM6.80894 7.38124L7.27843 8.82608L6.04939 7.93314L4.82034 8.82608L5.28984 7.38124L4.06074 6.4883H5.57995L6.04939 5.04345L6.51883 6.4883H8.03804L6.80894 7.38124ZM12.4795 13.05L11.2505 12.1571L10.0214 13.05L10.4909 11.6052L9.26182 10.7122H10.781L11.2505 9.26737L11.7199 10.7122H13.2391L12.01 11.6052L12.4795 13.05ZM12.01 7.38124L12.4795 8.82608L11.2505 7.93314L10.0214 8.82608L10.4909 7.38124L9.26182 6.4883H10.781L11.2505 5.04345L11.7199 6.4883H13.2391L12.01 7.38124ZM12.01 3.15732L12.4795 4.60216L11.2505 3.70922L10.0214 4.60216L10.4909 3.15732L9.26182 2.26438H10.781L11.2505 0.819533L11.7199 2.26438H13.2391L12.01 3.15732Z" fill="#0052B4"/>
</g>
<defs>
<clipPath id="clip0">
<rect width="29" height="29" fill="white"/>
</clipPath>
</defs>
</svg>
