<svg width="23" height="23" viewBox="0 0 23 23" fill="none" xmlns="http://www.w3.org/2000/svg">
<path d="M11.4842 4.7666C6.90088 4.7666 2.98671 7.61743 1.40088 11.6416C2.98671 15.6658 6.90088 18.5166 11.4842 18.5166C16.0675 18.5166 19.9817 15.6658 21.5675 11.6416C19.9817 7.61743 16.0675 4.7666 11.4842 4.7666ZM11.4842 16.2249C8.95421 16.2249 6.90088 14.1716 6.90088 11.6416C6.90088 9.1116 8.95421 7.05827 11.4842 7.05827C14.0142 7.05827 16.0675 9.1116 16.0675 11.6416C16.0675 14.1716 14.0142 16.2249 11.4842 16.2249ZM11.4842 8.8916C9.96255 8.8916 8.73421 10.1199 8.73421 11.6416C8.73421 13.1633 9.96255 14.3916 11.4842 14.3916C13.0059 14.3916 14.2342 13.1633 14.2342 11.6416C14.2342 10.1199 13.0059 8.8916 11.4842 8.8916Z" fill="#707573"/>
</svg>
