<svg width="22" height="22" viewBox="0 0 22 22" fill="none" xmlns="http://www.w3.org/2000/svg">
<path d="M11.0003 6.41667C13.5303 6.41667 15.5837 8.47 15.5837 11C15.5837 11.5958 15.4645 12.155 15.2537 12.6775L17.9303 15.3542C19.3145 14.1992 20.4053 12.705 21.0745 11C19.4887 6.97583 15.5745 4.125 10.9912 4.125C9.70783 4.125 8.47949 4.35417 7.34283 4.76667L9.32283 6.74667C9.84533 6.53583 10.4045 6.41667 11.0003 6.41667ZM1.83366 3.91417L3.92366 6.00417L4.34533 6.42583C2.82366 7.60833 1.63199 9.185 0.916992 11C2.50283 15.0242 6.41699 17.875 11.0003 17.875C12.4212 17.875 13.7778 17.6 15.0153 17.105L15.4003 17.49L18.0862 20.1667L19.2503 19.0025L2.99783 2.75L1.83366 3.91417ZM6.90283 8.98333L8.32366 10.4042C8.27783 10.5967 8.25033 10.7983 8.25033 11C8.25033 12.5217 9.47866 13.75 11.0003 13.75C11.202 13.75 11.4037 13.7225 11.5962 13.6767L13.017 15.0975C12.4028 15.4 11.7245 15.5833 11.0003 15.5833C8.47033 15.5833 6.41699 13.53 6.41699 11C6.41699 10.2758 6.60033 9.5975 6.90283 8.98333ZM10.8537 8.26833L13.7412 11.1558L13.7595 11.0092C13.7595 9.4875 12.5312 8.25917 11.0095 8.25917L10.8537 8.26833Z" fill="#707573"/>
</svg>
