<svg width="1440" height="1024" viewBox="0 0 1440 1024" fill="none" xmlns="http://www.w3.org/2000/svg">
<g clip-path="url(#clip0_8376_28906)">
<rect width="1440" height="1024" fill="#FAFAFA"/>
<path d="M65.4548 116.468L41.2331 92L34 99.3068L51.0158 116.503L34 133.692L41.2331 141.006L65.4548 116.53L65.4275 116.503L65.4548 116.468Z" fill="#01FFA9" stroke="black" stroke-width="2" stroke-miterlimit="10"/>
<path d="M40.4616 116.468L16.2331 92L9 99.3068L26.0227 116.503L9 133.692L16.2331 141.006L40.4616 116.53L40.4275 116.503L40.4616 116.468Z" fill="#01FFA9" stroke="black" stroke-width="2" stroke-miterlimit="10"/>
<path d="M15.4616 116.468L-8.7669 92L-16 99.3068L1.02266 116.503L-16 133.692L-8.7669 141.006L15.4616 116.53L15.4275 116.503L15.4616 116.468Z" fill="#01FFA9" stroke="black" stroke-width="2" stroke-miterlimit="10"/>
<path d="M115.462 117.468L91.2331 93L84 100.307L101.023 117.503L84 134.692L91.2331 142.006L115.462 117.53L115.428 117.503L115.462 117.468Z" fill="#01FFA9" stroke="black" stroke-width="2" stroke-miterlimit="10"/>
<path d="M140.462 117.468L116.233 93L109 100.307L126.023 117.503L109 134.692L116.233 142.006L140.462 117.53L140.428 117.503L140.462 117.468Z" fill="#01FFA9" stroke="black" stroke-width="2" stroke-miterlimit="10"/>
<path d="M165.462 117.468L141.233 93L134 100.307L151.023 117.503L134 134.692L141.233 142.006L165.462 117.53L165.428 117.503L165.462 117.468Z" fill="#01FFA9" stroke="black" stroke-width="2" stroke-miterlimit="10"/>
<path d="M90.4548 116.468L66.2331 92L59 99.3068L76.0158 116.503L59 133.692L66.2331 141.006L90.4548 116.53L90.4275 116.503L90.4548 116.468Z" fill="#01FFA9" stroke="black" stroke-width="2" stroke-miterlimit="10"/>
<circle cx="-4.99708" cy="623.066" r="91.869" transform="rotate(23.3016 -4.99708 623.066)" stroke="#F2F2F2" stroke-width="67"/>
<path d="M1375.45 615.468L1351.23 591L1344 598.307L1361.02 615.503L1344 632.692L1351.23 640.006L1375.45 615.53L1375.43 615.503L1375.45 615.468Z" fill="#01FFA9" stroke="black" stroke-width="2" stroke-miterlimit="10"/>
<path d="M1350.46 615.468L1326.23 591L1319 598.307L1336.02 615.503L1319 632.692L1326.23 640.006L1350.46 615.53L1350.43 615.503L1350.46 615.468Z" fill="#01FFA9" stroke="black" stroke-width="2" stroke-miterlimit="10"/>
<path d="M1325.46 615.468L1301.23 591L1294 598.307L1311.02 615.503L1294 632.692L1301.23 640.006L1325.46 615.53L1325.43 615.503L1325.46 615.468Z" fill="#01FFA9" stroke="black" stroke-width="2" stroke-miterlimit="10"/>
<path d="M1300.45 615.468L1276.23 591L1269 598.307L1286.02 615.503L1269 632.692L1276.23 640.006L1300.45 615.53L1300.43 615.503L1300.45 615.468Z" fill="#01FFA9" stroke="black" stroke-width="2" stroke-miterlimit="10"/>
<path d="M1275.45 615.468L1251.23 591L1244 598.307L1261.02 615.503L1244 632.692L1251.23 640.006L1275.45 615.53L1275.43 615.503L1275.45 615.468Z" fill="#01FFA9" stroke="black" stroke-width="2" stroke-miterlimit="10"/>
<path d="M1425.46 616.468L1401.23 592L1394 599.307L1411.02 616.503L1394 633.692L1401.23 641.006L1425.46 616.53L1425.43 616.503L1425.46 616.468Z" fill="#01FFA9" stroke="black" stroke-width="2" stroke-miterlimit="10"/>
<path d="M1450.46 616.468L1426.23 592L1419 599.307L1436.02 616.503L1419 633.692L1426.23 641.006L1450.46 616.53L1450.43 616.503L1450.46 616.468Z" fill="#01FFA9" stroke="black" stroke-width="2" stroke-miterlimit="10"/>
<path d="M1400.45 615.468L1376.23 591L1369 598.307L1386.02 615.503L1369 632.692L1376.23 640.006L1400.45 615.53L1400.43 615.503L1400.45 615.468Z" fill="#01FFA9" stroke="black" stroke-width="2" stroke-miterlimit="10"/>
<circle cx="1435.7" cy="139.697" r="85.369" transform="rotate(23.3016 1435.7 139.697)" stroke="#F2F2F2" stroke-width="54"/>
<circle cx="1355.5" cy="389.5" r="35.5" fill="#F2F2F2"/>
</g>
<defs>
<clipPath id="clip0_8376_28906">
<rect width="1440" height="1024" fill="white"/>
</clipPath>
</defs>
</svg>
