<svg width="539" height="372" fill="none" xmlns="http://www.w3.org/2000/svg"><path d="M438.715 96.21l-137.661 59.973a1.268 1.268 0 001.012 2.324l137.662-59.973a1.267 1.267 0 00-1.013-2.324zM444.364 100.087L306.703 160.06a1.268 1.268 0 001.012 2.324l137.661-59.973a1.267 1.267 0 10-1.012-2.324zM449.442 104.11L311.78 164.084a1.267 1.267 0 001.012 2.323l137.662-59.973a1.268 1.268 0 00-1.012-2.324zM455.219 107.937L317.558 167.91a1.266 1.266 0 101.012 2.323l137.661-59.973a1.267 1.267 0 10-1.012-2.323zM459.963 111.971l-137.639 60.036a1.267 1.267 0 001.014 2.323l137.638-60.036a1.267 1.267 0 10-1.013-2.323zM465.64 115.707l-137.613 60.085a1.267 1.267 0 101.014 2.323l137.613-60.085a1.267 1.267 0 00-1.014-2.323zM470.71 119.731l-137.613 60.084a1.267 1.267 0 101.014 2.323l137.613-60.085a1.266 1.266 0 10-1.014-2.322zM476.495 123.557l-137.614 60.084a1.268 1.268 0 001.014 2.323l137.614-60.084a1.268 1.268 0 00-1.014-2.323zM481.367 127.549l-137.598 60.087a1.266 1.266 0 101.014 2.322l137.598-60.086a1.267 1.267 0 10-1.014-2.323zM487.329 131.461l-137.614 60.085a1.267 1.267 0 001.014 2.322l137.614-60.084a1.267 1.267 0 00-1.014-2.323zM492.399 135.487l-137.613 60.084a1.266 1.266 0 101.014 2.323l137.613-60.085a1.267 1.267 0 10-1.014-2.322zM497.984 139.28l-137.598 60.086a1.267 1.267 0 101.014 2.322l137.598-60.086a1.266 1.266 0 10-1.014-2.322zM502.842 143.397l-137.614 60.084a1.268 1.268 0 001.014 2.323l137.614-60.084a1.268 1.268 0 00-1.014-2.323zM508.501 147.276L370.887 207.36a1.268 1.268 0 001.014 2.323l137.614-60.085a1.267 1.267 0 00-1.014-2.322zM513.571 151.301l-137.614 60.084a1.269 1.269 0 001.014 2.323l137.614-60.084a1.267 1.267 0 00-1.014-2.323zM519.355 155.125L381.741 215.21a1.267 1.267 0 101.015 2.323l137.613-60.085a1.267 1.267 0 00-1.014-2.323zM524.222 159.122l-137.598 60.086a1.267 1.267 0 001.014 2.322l137.599-60.086a1.267 1.267 0 10-1.015-2.322zM416.785 80.6l-137.662 59.974a1.267 1.267 0 101.012 2.323l137.662-59.973a1.267 1.267 0 00-1.012-2.323zM422.534 84.374l-137.661 59.973a1.268 1.268 0 001.012 2.324l137.662-59.973a1.267 1.267 0 00-1.013-2.324zM427.52 88.503l-137.661 59.973a1.267 1.267 0 101.012 2.324l137.661-59.974a1.267 1.267 0 10-1.012-2.323zM433.297 92.33l-137.662 59.972a1.268 1.268 0 001.013 2.324l137.661-59.973a1.268 1.268 0 00-1.012-2.324z" fill="#000"/><path d="M438.359 96.25l-137.648 59.99a1.267 1.267 0 101.012 2.323l137.648-59.99a1.267 1.267 0 00-1.012-2.323zM308.591 146.821L170.985 206.91a1.265 1.265 0 001.012 2.316l137.605-60.089a1.263 1.263 0 00-1.011-2.316z" fill="#000"/><path d="M314.24 150.696l-137.606 60.089a1.265 1.265 0 001.012 2.316l137.605-60.089a1.263 1.263 0 00-1.011-2.316zM319.31 154.734l-137.605 60.089a1.263 1.263 0 001.011 2.315l137.606-60.089a1.263 1.263 0 10-1.012-2.315zM325.102 158.552l-137.605 60.089a1.263 1.263 0 101.011 2.316l137.605-60.089a1.264 1.264 0 00-1.011-2.316zM329.954 162.683l-137.62 60.087a1.263 1.263 0 101.011 2.316l137.62-60.088a1.263 1.263 0 10-1.011-2.315zM335.61 166.554l-137.621 60.087a1.263 1.263 0 001.012 2.316l137.62-60.088a1.263 1.263 0 00-1.011-2.315zM340.604 170.543l-137.618 60.073a1.263 1.263 0 101.011 2.316l137.618-60.073a1.263 1.263 0 10-1.011-2.316zM346.29 174.463l-137.618 60.073a1.263 1.263 0 101.011 2.315l137.618-60.072a1.263 1.263 0 10-1.011-2.316zM351.348 178.388l-137.605 60.089a1.263 1.263 0 001.011 2.315l137.605-60.089a1.263 1.263 0 10-1.011-2.315zM357.102 182.265l-137.605 60.089a1.263 1.263 0 101.011 2.315l137.605-60.089a1.263 1.263 0 00-1.011-2.315zM362.369 186.337l-137.621 60.087a1.264 1.264 0 001.012 2.316l137.62-60.087a1.264 1.264 0 00-1.011-2.316zM367.954 190.114l-137.605 60.089a1.265 1.265 0 001.011 2.316l137.606-60.089a1.263 1.263 0 00-1.012-2.316zM372.802 194.257l-137.62 60.087a1.264 1.264 0 101.011 2.316l137.62-60.087a1.265 1.265 0 00-1.011-2.316zM378.46 198.134l-137.62 60.087a1.263 1.263 0 101.011 2.316l137.62-60.088a1.263 1.263 0 10-1.011-2.315zM383.472 202.212L245.84 262.268a1.263 1.263 0 101.01 2.316l137.632-60.056a1.263 1.263 0 10-1.01-2.316zM389.325 205.974l-137.621 60.087a1.263 1.263 0 001.012 2.316l137.62-60.088a1.263 1.263 0 00-1.011-2.315zM394.2 209.952l-137.605 60.089a1.265 1.265 0 001.011 2.316l137.606-60.089a1.263 1.263 0 00-1.012-2.316zM286.672 131.218l-137.606 60.089a1.263 1.263 0 001.011 2.315l137.606-60.089a1.263 1.263 0 00-1.011-2.315zM292.323 135.101L154.717 195.19a1.263 1.263 0 101.012 2.315l137.605-60.089a1.263 1.263 0 00-1.011-2.315zM297.589 139.171l-137.62 60.087a1.263 1.263 0 101.011 2.316l137.62-60.087a1.264 1.264 0 10-1.011-2.316zM303.364 142.989l-137.621 60.087a1.265 1.265 0 001.012 2.316l137.62-60.087a1.263 1.263 0 00-1.011-2.316zM308.435 147.028l-137.62 60.088a1.263 1.263 0 101.011 2.315l137.62-60.087a1.263 1.263 0 10-1.011-2.316z" fill="#000"/><path d="M357.354 187.095a.04.04 0 00-.018-.039l-11.478-5.685-.808-.09-.033.431a66.885 66.885 0 00-4.363-3.51l-68.549-50.483c-.014-.009-.019-.024-.01-.038.774-3.709.137-8.956.102-9.245-.005-.023-.014-.009-.036-.011l-20.484 1.282c-.023-.002-.033.019-.034.034l-1.725 15.446a.04.04 0 00.018.039l70.412 51.862c7.589 5.588 10.952 11.003 10.066 16.245-.878 5.242-6.658 1.926-14.905 5.528-7.965 3.483-21.149.181-30.136-.748-8.979-.928-11.335 8.147-18.924 2.552l-70.432-51.879-.805.353.191-1.104-1.497-5.53a.04.04 0 00-.035-.026l-16.4-.302c-.022-.002-.038.011-.041.033l-1.724 15.438c-.002.015.004.031.019.032l70.412 51.862c11.9 8.762 25.559 13.722 40.978 14.882 15.427 1.153 30.04-1.288 43.864-7.334 14.037-6.143 22.133-13.632 24.284-22.482.138-.562.324-1.689.324-1.689l1.767-15.824z" fill="#01FFA9"/><path d="M283.692 236.06c-14.409-1.61-27.417-6.625-38.714-14.945l-71.32-52.525.107-1.158L175.5 152l1.798-1.769 18.198.322.323 1.604 1.382 5.089 70.392 51.844c3.244 2.38 4.869 1.459 7.816-.207 2.491-1.417 5.598-3.185 10.151-2.714 2.067.231 4.334.544 6.71.899 7.874 1.15 16.795 2.469 22.448.003 3.809-1.668 7.174-1.975 9.628-2.188 3.644-.328 3.916-.545 4.139-1.87.742-4.433-2.386-9.26-9.303-14.352l-71.32-52.526.106-1.158L250 119l1.495-1.225 21.38-1.452 1.17 1.075.082.879c.022.138.588 4.679.07 8.574l67.606 49.793a65.359 65.359 0 013.447 2.71l1.469.284 12.701 6.286-.126 1.396-1.768 15.831c-.019.103-.224 1.333-.367 1.939-2.29 9.427-10.842 17.435-25.399 23.798-14.045 6.149-29.117 8.666-44.789 7.493a127.364 127.364 0 01-3.279-.321zm-105.931-69.284l69.526 51.2c11.546 8.497 24.988 13.388 39.97 14.499 15.032 1.131 29.478-1.283 42.931-7.176 13.39-5.855 21.183-12.973 23.177-21.158.126-.518.301-1.556.301-1.556l1.609-14.401-8.481-4.188-.133 1.733-2.931-2.57a66.969 66.969 0 00-4.24-3.406l-69.587-51.252.287-1.295c.421-2.023.365-4.812.237-6.754l-17.035 1.082-1.425 12.765 69.526 51.199c8.199 6.031 11.845 12.139 10.838 18.132-.748 4.484-4.249 4.805-7.629 5.111-2.31.207-5.183.471-8.415 1.88-6.679 2.922-16.184 1.523-24.581.285-2.317-.341-4.547-.651-6.54-.873-3.315-.34-5.509.907-7.824 2.224-3.172 1.806-6.776 3.856-12.056-.042l-69.525-51.207-3.099 1.357.745-4.252-1.008-3.736-13.227-.239-1.411 12.638z" fill="#000"/><path d="M190.271 164.23l-1.49 13.336c-.002.026-.034.035-.062.019l-13.157-8.519c-.014-.008-.02-.022-.019-.028l1.489-13.336c.003-.026.035-.041.063-.025l13.157 8.519c.014.008.02.021.019.034z" fill="#000"/><path d="M189.443 179.187a1.995 1.995 0 01-1.79-.214l-.108-.072-13.18-8.53a1.668 1.668 0 01-.755-1.549l1.462-13.095a1.992 1.992 0 013.033-1.471l.116.073 13.228 8.567c.52.337.81.933.755 1.55l-1.461 13.087a1.997 1.997 0 01-1.3 1.654zm-11.559-13.518a4.301 4.301 0 001.938 4.087l1.51.976c2.682 1.733 6.25.041 6.605-3.133a4.298 4.298 0 00-1.938-4.086l-1.51-.976c-2.681-1.734-6.25-.041-6.605 3.132zM262.933 128.052l-1.721 15.408c-.004.03-.036.049-.064.031l-11.227-8.267a.04.04 0 01-.018-.04l1.721-15.408c.003-.03.034-.041.062-.023l11.228 8.267c.014.001.02.017.019.032z" fill="#000"/><path d="M262.066 145.224a1.997 1.997 0 01-1.909-.06l-.012-.007-11.338-8.34a2.054 2.054 0 01-.83-1.847l1.719-15.397a1.998 1.998 0 013.137-1.409l.012.009 11.199 8.248c.581.428.896 1.129.829 1.848l-1.718 15.391a2.002 2.002 0 01-1.089 1.564zm-9.836-13.279a4.125 4.125 0 001.654 3.78c2.557 1.884 6.194.293 6.546-2.864l.175-1.561a4.128 4.128 0 00-1.654-3.781c-2.557-1.883-6.194-.292-6.547 2.865l-.174 1.561zM341.399 195.305l-14.901 13.142s-30.802 3.745-31.284 3.691c-.481-.053-11.478.353-11.478.353l-2.38 21.313c1.89.271 3.809.478 5.759.621 15.427 1.153 30.04-1.288 43.864-7.334 1.325-.58 6.095-3.34 7.318-3.946l3.109-27.839-.007-.001z" fill="#000"/><path d="M283.692 236.061a104.53 104.53 0 01-2.611-.329l-1.868-.269 2.776-24.854 1.679-.06c11.132-.414 11.591-.363 11.762-.344.848-.07 18.349-2.173 30.233-3.621l18.237-16.077-3.787 33.907-.953.471c-.476.239-1.524.82-2.683 1.463-1.816 1.012-3.902 2.167-4.722 2.525-14.045 6.149-29.117 8.666-44.79 7.494a80.635 80.635 0 01-3.273-.306zm-.19-3.944c1.236.153 2.49.271 3.754.367 15.025 1.13 29.47-1.284 42.932-7.176.757-.335 2.693-1.417 4.388-2.36a345.74 345.74 0 011.887-1.042l2.435-21.802-11.573 10.206-.6.068c-31.031 3.772-31.453 3.725-31.734 3.694-.487-.01-5.554.159-9.507.303l-1.982 17.742z" fill="#000"/><path d="M271.92 110.839c.025-.009.048.012.069.028l70.381 51.83c11.9 8.762 16.774 17.572 14.616 26.414-2.15 8.843-10.247 16.339-24.284 22.482-13.816 6.047-28.43 8.488-43.864 7.334-15.42-1.152-29.078-6.12-40.978-14.882l-70.377-51.835c-.028-.018-.024-.055.007-.067l20.227-8.849c.025-.009.048.012.069.028l70.38 51.838c7.589 5.588 15.88 8.846 24.86 9.774 8.987.929 17.463-.352 25.427-3.835 8.24-3.603 12.807-8.028 13.678-13.271.878-5.242-2.478-10.65-10.066-16.245l-70.378-51.835c-.028-.018-.024-.055.007-.067l20.226-8.842z" fill="#fff"/><path d="M285.423 220.563c-14.408-1.609-27.416-6.625-38.712-14.952l-70.369-51.823a1.993 1.993 0 01.363-3.425l.018-.008 20.186-8.83a2.036 2.036 0 012.099.285l70.316 51.783c7.27 5.358 15.404 8.479 23.904 9.405 8.609.887 16.833-.355 24.45-3.682 7.562-3.31 11.778-7.28 12.54-11.815.743-4.432-2.386-9.259-9.303-14.352l-70.369-51.824a1.995 1.995 0 01.363-3.425l.018-.008 20.047-8.843a2.174 2.174 0 012.246.3l70.316 51.783c12.537 9.231 17.701 18.8 15.35 28.438-2.29 9.427-10.843 17.435-25.4 23.805-14.045 6.149-29.117 8.666-44.789 7.493a80.69 80.69 0 01-3.274-.305zm-96.197-71.431c-3.524 1.545-4.055 6.323-.958 8.605l60.75 44.742c11.547 8.497 24.991 13.374 39.971 14.499 15.033 1.124 29.478-1.29 42.931-7.176 13.39-5.855 21.182-12.972 23.177-21.158 1.947-7.965-2.725-16.167-13.875-24.388l-67.202-49.488a4.999 4.999 0 00-4.968-.555l-5.609 2.453c-3.527 1.542-4.061 6.324-.962 8.607l60.743 44.736c8.198 6.038 11.845 12.138 10.838 18.131-.99 5.905-5.977 10.869-14.816 14.734-8.241 3.603-17.129 4.95-26.412 3.988-9.266-1.05-17.978-4.37-25.816-10.143l-67.206-49.495a5 5 0 00-4.973-.553l-5.613 2.461z" fill="#000"/><path d="M205.083 172.235l-3.875-.432-1.73 15.497 3.874.433 1.731-15.498zM278.918 138.644l-3.874-.433-1.731 15.498 3.874.432 1.731-15.497zM262.273 211.595l-3.875-.433-1.73 15.498 3.874.433 1.731-15.498zM168.458 202.362l-137.62 60.087a1.265 1.265 0 001.011 2.316l137.62-60.087a1.263 1.263 0 10-1.011-2.316zM174.027 206.188L36.409 266.26a1.264 1.264 0 001.01 2.316l137.619-60.072a1.264 1.264 0 10-1.011-2.316zM179.188 210.266l-137.62 60.088a1.263 1.263 0 101.01 2.316L180.2 212.582a1.263 1.263 0 00-1.011-2.316zM184.969 214.083L47.349 274.17a1.264 1.264 0 001.01 2.316l137.621-60.087a1.264 1.264 0 00-1.011-2.316zM189.63 218.177L52.01 278.264a1.263 1.263 0 101.01 2.316l137.621-60.088a1.263 1.263 0 10-1.011-2.315zM195.287 222.048l-137.62 60.087a1.264 1.264 0 001.01 2.316l137.621-60.087a1.264 1.264 0 00-1.011-2.316zM200.174 226.017L62.568 286.106a1.263 1.263 0 101.011 2.315l137.606-60.089a1.263 1.263 0 00-1.011-2.315zM205.948 229.837L68.342 289.926a1.263 1.263 0 101.011 2.316l137.606-60.089a1.265 1.265 0 00-1.011-2.316zM211.218 233.919l-137.62 60.087a1.264 1.264 0 001.011 2.316l137.62-60.087a1.264 1.264 0 00-1.011-2.316zM216.975 237.802l-137.62 60.087a1.264 1.264 0 001.011 2.316l137.62-60.087a1.264 1.264 0 00-1.011-2.316zM222.045 241.831l-137.62 60.087a1.264 1.264 0 001.01 2.316l137.621-60.087a1.264 1.264 0 00-1.011-2.316zM227.829 245.653l-137.62 60.088a1.263 1.263 0 101.01 2.315l137.621-60.087a1.263 1.263 0 00-1.011-2.316zM232.299 249.675L94.693 309.764a1.263 1.263 0 101.012 2.316l137.605-60.09a1.263 1.263 0 00-1.011-2.315zM238.147 253.614l-137.62 60.087a1.264 1.264 0 001.011 2.316l137.62-60.087a1.263 1.263 0 10-1.011-2.316zM243.026 257.581L105.421 317.67a1.263 1.263 0 101.011 2.316l137.605-60.089a1.263 1.263 0 10-1.011-2.316zM249.001 261.466L111.38 321.553a1.264 1.264 0 001.012 2.316l137.62-60.087a1.265 1.265 0 00-1.011-2.316zM254.078 265.487l-137.62 60.088a1.263 1.263 0 001.011 2.315l137.621-60.087a1.263 1.263 0 00-1.012-2.316zM146.377 186.78L8.757 246.852a1.263 1.263 0 101.012 2.316l137.618-60.073a1.263 1.263 0 10-1.01-2.315zM152.193 190.63l-137.62 60.087a1.264 1.264 0 001.01 2.316l137.621-60.087a1.263 1.263 0 00-1.011-2.316zM157.263 194.657l-137.62 60.087a1.264 1.264 0 001.011 2.316l137.62-60.087a1.264 1.264 0 10-1.011-2.316zM163.047 198.479l-137.62 60.088a1.263 1.263 0 101.01 2.316l137.621-60.088a1.263 1.263 0 00-1.011-2.316z" fill="#000"/><path d="M167.931 202.45L30.326 262.539a1.264 1.264 0 001.011 2.316l137.606-60.089a1.263 1.263 0 00-1.012-2.316z" fill="#000"/><path d="M211.37 243.778a2.72 2.72 0 00-2.359.635 2.72 2.72 0 01-3.423.161l-70.698-52.075a.843.843 0 01-.177-1.181.842.842 0 00.049-.932l-8.758-14.8c-.007-.012-.01-.025-.023-.031-.017-.009-.041-.005-.06-.002l-19.639 2.864c-.033.005-.079.008-.083.041l-1.725 15.446a.04.04 0 00.018.039l46.932 34.568c.028.019.024.056-.007.067L97.1 252.341c-.025.009-.048-.012-.069-.028L55.807 221.95c-.014-.009-.02-.024-.01-.046l1.582-4.731c.004-.013.008-.026.007-.039-.002-.015-.017-.025-.027-.036l-6.088-6.515c-.007-.008-.021-.01-.029-.011l-19.712.544c-.022-.002-.032.019-.033.034l-1.726 15.445a.042.042 0 00.019.04l106.893 78.73c.022.014.049-.002.074-.012l20.23-8.852c.015-.005.024-.019.025-.027l1.725-15.445c.004-.033-.041-.047-.071-.06l-18.342-7.504a.064.064 0 00-.036-.008c-.008.001-.015.007-.023.01l-4.932 2.614a1.283 1.283 0 00-.674 1.279c.127 1.113-1.133 1.842-2.035 1.178l-21.168-15.586c-.028-.018-.024-.055.007-.066l54.317-23.763c.025-.009.048.012.069.027l45.543 33.538c.022.015.049-.001.073-.011l20.229-8.844a.042.042 0 00.027-.035l1.724-15.438c.002-.022-.011-.039-.033-.041l-22.042-4.541z" fill="#01FFA9"/><path d="M137.528 307.135a2.03 2.03 0 01-2.098-.284L28.661 228.218a2.06 2.06 0 01-.83-1.848l1.72-15.4a2.039 2.039 0 011.814-1.801l19.8-.545a2.042 2.042 0 011.63.741l5.977 6.392c.465.496.654 1.191.505 1.855l-.046.136a5 5 0 001.778 5.607l34.001 25.042a5 5 0 004.969.555l39.7-17.366c3.526-1.543 4.061-6.324.962-8.607l-37.27-27.451a2.06 2.06 0 01-.829-1.848l1.72-15.408a2.043 2.043 0 011.769-1.799l19.609-2.863a2.05 2.05 0 011.983.864l9.617 16.243a.443.443 0 01-.025.492.444.444 0 00.094.623l68.471 50.429a2.26 2.26 0 002.847-.135 2.26 2.26 0 011.96-.528l23.186 4.763a2.034 2.034 0 011.617 2.178l-1.721 15.405a2.047 2.047 0 01-1.069 1.579l-20.351 8.901a2.032 2.032 0 01-2.099-.285l-42.268-31.118a5.001 5.001 0 00-4.968-.555l-39.699 17.366c-3.527 1.543-4.061 6.325-.961 8.607l9.881 7.277a.23.23 0 00.364-.211.231.231 0 01.121-.228l6.72-3.559a2.064 2.064 0 011.798-.066l18.289 7.476a2.047 2.047 0 011.263 2.08l-1.722 15.413a2.047 2.047 0 01-1.069 1.579l-20.371 8.935zM31.826 225.714c-.002 0-.002.002-.001.003l102.789 75.713a5.002 5.002 0 004.97.555l12.958-5.669a5 5 0 002.965-4.025l.704-6.305a5 5 0 00-3.076-5.183l-11.15-4.56a3.692 3.692 0 00-3.129.156l-.811.43a2.343 2.343 0 00-1.23 2.332c.23 2.031-2.07 3.361-3.716 2.149l-22.798-16.79a1.994 1.994 0 01.362-3.424l.019-.009 54.276-23.741a2.054 2.054 0 012.003.198l42.37 31.203a4.998 4.998 0 004.969.555l12.952-5.669a4.998 4.998 0 002.964-4.025l.583-5.219a5 5 0 00-3.965-5.453l-14.678-3.011a3.173 3.173 0 00-2.754.745 3.17 3.17 0 01-3.996.193l-72.936-53.716a1.234 1.234 0 01-.257-1.732c.298-.4.327-.939.073-1.367l-5.616-9.491a4.999 4.999 0 00-5.024-2.401l-9.858 1.435a5 5 0 00-4.248 4.393l-.691 6.185a4.998 4.998 0 002.004 4.58l43.709 32.197a2 2 0 01-.304 3.406l-.012.005-54.34 23.774a2.037 2.037 0 01-2.1-.285L55.892 224.45a4.075 4.075 0 01-1.46-4.538 4.075 4.075 0 00-.9-4.041l-1.576-1.683a4.999 4.999 0 00-3.794-1.582l-10.573.302a5 5 0 00-4.826 4.443l-.934 8.362-.002.001z" fill="#000"/><path d="M233.379 248.343l-20.226 8.842c-.025.009-.048-.012-.069-.028l-45.543-33.538c-.022-.014-.049.002-.073.012l-54.28 23.747c-.032.012-.036.049-.008.067l45.498 33.508c.021.017.016.054-.007.067l-20.227 8.849c-.025.009-.048-.013-.069-.028l-106.827-78.68c-.02-.017-.017-.054.007-.066l20.227-8.849c.025-.01.048.012.069.027l46.935 34.571c.022.014.049-.001.073-.012l54.28-23.746c.032-.012.036-.049.008-.067l-46.898-34.542c-.028-.018-.023-.055.008-.067l20.218-8.842c.025-.009.048.012.069.027l106.752 78.625c.05.037.141.102.083.123z" fill="#fff"/><path d="M139.26 291.641a2.037 2.037 0 01-2.099-.286L30.408 212.742a1.998 1.998 0 01.358-3.428l.014-.007 20.187-8.828a2.06 2.06 0 012.003.198l43.762 32.237a5 5 0 004.969.555l39.699-17.365c3.527-1.543 4.06-6.325.961-8.607l-37.253-27.433a1.997 1.997 0 01.362-3.425l.019-.008 20.178-8.821a2.055 2.055 0 012.003.198l106.855 78.698a2.002 2.002 0 01-.303 3.407l-.061.03-20.193 8.829a2.036 2.036 0 01-2.1-.286l-42.267-31.118a5.001 5.001 0 00-4.968-.555l-39.7 17.367c-3.527 1.542-4.061 6.324-.961 8.606l35.851 26.405a2 2 0 01-.304 3.405l-.012.006-20.247 8.839zm-95.957-83.559c-3.527 1.542-4.061 6.324-.962 8.607l94.012 69.245a5.001 5.001 0 004.969.556l5.609-2.453c3.526-1.542 4.061-6.324.961-8.607l-35.853-26.405a1.993 1.993 0 01.363-3.425l.018-.008 54.276-23.742a2.059 2.059 0 012.004.198l42.369 31.204a5.002 5.002 0 004.97.554l5.604-2.452c3.526-1.543 4.059-6.324.96-8.606l-94.02-69.248a5.002 5.002 0 00-4.97-.555l-5.603 2.452c-3.526 1.543-4.06 6.324-.961 8.607l37.246 27.43a2 2 0 01-.305 3.406l-.012.006-54.34 23.774a2.035 2.035 0 01-2.098-.286l-43.66-32.15a5 5 0 00-4.968-.555l-5.61 2.453z" fill="#000"/><path d="M138.426 289.896l-1.721 15.409c-.003.029.024.055.055.044l20.227-8.85c.016-.005.025-.019.026-.027l1.72-15.408a.04.04 0 00-.055-.044l-20.227 8.849c-.015.006-.024.02-.025.027z" fill="#000"/><path d="M137.555 307.124a1.998 1.998 0 01-2.793-2.015l.002-.02 1.717-15.373c.08-.72.535-1.345 1.196-1.643l20.199-8.835a1.996 1.996 0 012.786 2.012l-.002.022-1.717 15.375a2.05 2.05 0 01-1.069 1.579l-20.319 8.898zm5.221-17.027a4.803 4.803 0 00-2.847 3.866c-.41 3.675 3.312 6.416 6.699 4.934l6.019-2.634a4.802 4.802 0 002.848-3.868c.411-3.676-3.313-6.418-6.702-4.934l-6.017 2.636zM213.134 257.219l-1.721 15.408c-.003.03.024.055.055.044l20.219-8.843a.037.037 0 00.026-.034l1.721-15.409a.04.04 0 00-.055-.044l-20.188 8.826c-.025.011-.054.024-.057.052z" fill="#000"/><path d="M212.272 274.441a2 2 0 01-2.793-2.015l.002-.021 1.716-15.372a2.055 2.055 0 011.196-1.644l20.2-8.835a1.996 1.996 0 012.786 2.012l-.002.022-1.717 15.375a2.052 2.052 0 01-1.069 1.58l-20.319 8.898zm5.213-17.02a4.801 4.801 0 00-2.848 3.866c-.41 3.675 3.311 6.415 6.698 4.933l6.021-2.634a4.803 4.803 0 002.847-3.867c.411-3.674-3.311-6.415-6.698-4.933l-6.02 2.635zM167.521 223.671l-1.721 15.408a.043.043 0 01-.026.035l-40.075 17.531c-.025.009-.048-.012-.069-.028l-12.45-9.171c-.028-.018-.024-.055.008-.067l54.277-23.744c.024-.013.059.006.056.036z" fill="#000"/><path d="M126.514 258.412a2.055 2.055 0 01-2.003-.198l-12.48-9.191a1.994 1.994 0 01.363-3.425l.018-.008 54.258-23.73a1.996 1.996 0 012.786 2.012l-.003.022-1.717 15.375a2.051 2.051 0 01-1.069 1.58l-40.153 17.563zm-1.885-13.914c-3.39 1.482-3.902 6.08-.922 8.273a4.808 4.808 0 004.773.532l32.965-14.417a4.803 4.803 0 002.851-3.87c.411-3.676-3.313-6.419-6.702-4.937l-32.965 14.419zM44.283 220.565l-1.72 15.408c-.004.03-.036.049-.064.031l-12.718-9.364a.04.04 0 01-.018-.039l1.721-15.409a.04.04 0 01.064-.03l12.717 9.363c.014.009.02.025.018.04z" fill="#000"/><path d="M43.313 237.766a2.008 2.008 0 01-2.02-.238l-12.64-9.31a2.06 2.06 0 01-.829-1.848l1.72-15.397a1.997 1.997 0 013.136-1.409l.013.009 12.442 9.166c.081.06.169.112.26.154.575.264.92.864.86 1.494l-.036.372-1.719 15.393a2.004 2.004 0 01-1.187 1.614zm-11.185-14.807a4.8 4.8 0 001.924 4.399l.239.176c2.977 2.193 7.21.341 7.621-3.333a4.802 4.802 0 00-1.924-4.4l-.239-.176c-2.977-2.193-7.21-.341-7.621 3.334zM114.626 184.671l-1.721 15.409c-.004.03-.036.049-.064.031l-8.358-6.154a.04.04 0 01-.018-.04l1.721-15.408c.003-.03.035-.049.063-.031l8.359 6.154a.042.042 0 01.018.039z" fill="#000"/><path d="M113.644 201.89a2.01 2.01 0 01-1.988-.23l-8.287-6.118a2.063 2.063 0 01-.829-1.849l1.719-15.39a1.997 1.997 0 013.136-1.409l.013.009 8.329 6.136c.581.428.896 1.129.83 1.848l-1.718 15.379a2.008 2.008 0 01-1.205 1.624zm-6.942-10.341a2.585 2.585 0 001.033 2.365c1.601 1.181 3.88.186 4.101-1.791l.569-5.098a2.58 2.58 0 00-1.035-2.366c-1.601-1.179-3.878-.183-4.099 1.793l-.569 5.097zM57.769 243.939l1.298-11.624a1.948 1.948 0 10-3.874-.433l-1.299 11.624a1.948 1.948 0 103.875.433zM120.98 290.503l1.298-11.623a1.95 1.95 0 00-3.875-.433l-1.298 11.623a1.95 1.95 0 003.875.433zM177.986 245.206l1.299-11.623a1.95 1.95 0 00-3.875-.433l-1.298 11.623a1.95 1.95 0 003.874.433zM127.058 207.605l1.298-11.624a1.949 1.949 0 10-3.874-.432l-1.299 11.623a1.949 1.949 0 003.875.433z" fill="#000"/><path d="M486.579 147.359a4.46 4.46 0 00.097-.562l1.809-16.191c.001-.015-.004-.031-.018-.04l-10.78-5.908a.066.066 0 00-.028-.009l-6.467-.722c-.007-.001-.022-.003-.029-.011-4.246-4.69-7.196-10.449-14.446-11.814-.489-.09-.927-.202-1.33-.33a.302.302 0 01-.114-.065.345.345 0 00-.134-.07l-.428-.111c-1.833-.709-2.752-1.749-3.364-2.791-1.288-2.191-11.679-2.909-14.116-2.186l-.468.138c-.01.003-.021.004-.032.003l-.012-.002-7.414-1.99c-.034-.009-.081-.018-.077-.054l1.073-9.608c.003-.022-.01-.039-.033-.041l-13.596-2.299c-.012 0-.02-.013-.029-.02-9.222-7.195-20.787-16.87-31.72-17.109-12.45-.273-23.183 11.34-36.612 17.213l-12.659 5.54a2.007 2.007 0 01-2.714-1.221 2.007 2.007 0 00-1.814-1.387l-20.907-.992c-.022-.002-.038.011-.041.033l-1.724 15.439a.04.04 0 00.018.039l106.894 78.73c.022.014.049-.002.073-.012l47.657-20.849c13.145-5.755 20.846-12.178 23.102-19.284.128-.405.294-1.079.383-1.457zm-143.441-35.454c-.021-.017-.017-.054.007-.066l19.493-8.526c7.357-3.214 14.239-4.726 20.65-4.512 6.419.214 12.266 2.262 17.561 6.162 4.795 3.535 6.681 7.069 5.65 10.591-1.024 3.523-4.697 6.661-10.99 9.416l-21.702 9.494c-.024.009-.047-.012-.069-.027l-30.6-22.532zm117.708 35.483c-.971 3.731-4.974 7.132-11.992 10.204l-27.387 11.979c-.025.009-.048-.012-.069-.028l-34.267-25.235c-.02-.018-.016-.055.008-.067l26.851-11.747 1.087-.471c6.936-2.803 13.864-3.852 20.782-3.139 6.911.711 13.063 3.049 18.447 7.018 5.33 3.925 7.511 7.761 6.54 11.486z" fill="#01FFA9"/><path d="M416.218 190.718a2.061 2.061 0 01-2.004-.198l-106.878-78.717a2.047 2.047 0 01-.824-1.836l1.72-15.405a2.029 2.029 0 012.017-1.803l22.62 1.073c.647.03 1.207.459 1.406 1.075a1.555 1.555 0 002.103.948l11.144-4.874c4.762-2.078 9.239-4.953 13.569-7.725 7.9-5.058 15.365-9.842 23.864-9.65 10.842.228 22.006 8.998 30.978 16.037l.532.417a5.006 5.006 0 002.249.993l9.036 1.527a5 5 0 014.138 5.466l-.112 1.034a4.867 4.867 0 006.306 5.165l.812-.254c2.182-.673 3.758-1.159 4.928-1.304 1.496-.185 3.134.231 4.627.443 2.273.322 3.219 1.837 4.015 3.532.613 1.298 1.09 2.327 2.938 3.043l.845.289c.255.074.525.134.819.189 6.391 1.202 9.738 5.356 12.971 9.377.275.341.551.683.83 1.024.792.969 1.942 1.566 3.185 1.704l3.79.424c.309.034.607.139.869.307l10.641 5.828a2.04 2.04 0 011.051 1.98l-1.854 16.594-.018.074-.017.071c-.049.206-.3 1.263-.477 1.823-2.455 7.744-10.366 14.443-24.175 20.492l-47.644 20.837zm-105.711-81.415l.003.002 102.794 75.708a5 5 0 004.969.555l44.039-19.266c12.546-5.491 19.961-11.579 22.024-18.091.129-.421.312-1.18.38-1.458l1.314-11.761a5 5 0 00-2.565-4.939l-5.54-3.038a4.99 4.99 0 00-1.849-.585l-5.419-.606a1.36 1.36 0 01-1.007-.637 1.337 1.337 0 00-.147-.196c-.869-.973-1.68-1.987-2.491-2.994-3.05-3.783-5.685-7.055-10.666-7.986a14.456 14.456 0 01-1.612-.405l-.547-.212c-3.496-1.335-4.556-3.591-5.252-5.086-.695-1.496-.841-1.804-3.941-.906l-5.621 1.625c-.278.08-.487-.254-.293-.469.195-.216-.019-.551-.297-.466-.498.152-1.006.305-1.515.45l-.115.034c-.376.112-.78.084-1.137-.079a1.622 1.622 0 00-.256-.091l-4.491-1.193a5 5 0 01-3.688-5.368l.062-.575a5 5 0 00-4.138-5.466l-6.429-1.085a5.003 5.003 0 01-2.273-1.011l-1.274-1.01c-8.517-6.682-19.102-14.99-28.663-15.21-7.311-.156-14.289 4.307-21.673 9.04-4.459 2.855-9.072 5.805-14.111 8.01l-14.179 6.203a2.452 2.452 0 01-3.316-1.492 2.452 2.452 0 00-2.217-1.696l-12.778-.607a5 5 0 00-5.206 4.44l-.884 7.911c0 .003.002.006.005.006zm111.767 62.043a2.057 2.057 0 01-2.003-.199l-34.288-25.257a1.996 1.996 0 01.299-3.399l.018-.009 27.986-12.243c7.251-2.933 14.551-4.03 21.759-3.292 7.227.702 13.763 3.232 19.404 7.387 6.016 4.43 8.469 8.994 7.277 13.549-1.141 4.38-5.424 8.139-13.097 11.498l-27.355 11.965zm-23.395-30.113c-3.527 1.542-4.062 6.324-.963 8.607l21.452 15.801a5 5 0 004.969.556l23.732-10.381c6.412-2.809 10.077-5.805 10.889-8.909.747-2.865-1.216-6.039-5.817-9.433-5.08-3.74-11.017-6.061-17.491-6.649-6.57-.674-13.246.336-19.853 3.011l-16.918 7.397zm-24.261-4.996a2.05 2.05 0 01-2.006-.204l-30.603-22.504a2.027 2.027 0 01-.821-1.788 2.033 2.033 0 011.127-1.668l19.541-8.551c7.594-3.322 14.827-4.891 21.493-4.672 6.778.217 13.065 2.42 18.65 6.538 5.503 4.057 7.643 8.332 6.366 12.712-1.205 4.141-5.157 7.629-12.08 10.651l-21.667 9.486zm-19.731-27.406c-3.526 1.542-4.06 6.323-.962 8.605l17.775 13.096a5 5 0 004.971.555l18.047-7.901c5.717-2.504 9.047-5.252 9.899-8.18.29-.988 1.165-3.98-4.933-8.479-4.935-3.633-10.478-5.58-16.464-5.776-6.083-.199-12.749 1.261-19.798 4.344l-8.535 3.736z" fill="#000"/><path d="M475.469 161.389l3.549-31.78a.04.04 0 00-.063-.037l-18.621 12.936c-.017.013-.018.028-.012.043.733 1.627.935 3.24.517 4.836-.972 3.732-4.974 7.132-11.993 10.204l-26.511 11.598a1.695 1.695 0 01-1.689-.189 1.698 1.698 0 00-2.655.953l-.881 3.504-1.723 15.431a.04.04 0 00.055.044l47.653-20.847c4.865-2.127 8.977-4.353 12.355-6.668.009-.007.017-.013.019-.028z" fill="#000"/><path d="M416.236 190.714a1.996 1.996 0 01-2.786-2.012l.002-.022 1.724-15.431 1.326-5.337c.439-1.765 2.53-2.52 3.996-1.441a2.558 2.558 0 002.539.284l25.026-10.946c6.411-2.81 10.076-5.806 10.888-8.91.291-1.13.158-2.285-.407-3.541a1.985 1.985 0 01.771-2.511l.029-.017 18.477-12.844a1.996 1.996 0 013.124 1.824l-.002.022-3.546 31.751a2.062 2.062 0 01-.917 1.494c-3.412 2.342-7.674 4.641-12.611 6.805l-47.633 20.832zm4.573-19.186a.846.846 0 00-1.32.478l-.482 1.926-.364 3.296c-.422 3.823 3.45 6.671 6.974 5.13l36.702-16.054c3.493-1.526 6.615-3.121 9.331-4.756 1.272-.766 2.078-2.102 2.243-3.578l1.503-13.455c.476-4.268-4.295-7.111-7.822-4.661l-1.992 1.384c-1.751 1.216-2.377 3.443-2.642 5.559a8.597 8.597 0 01-.206 1.08c-1.141 4.38-5.431 8.138-13.097 11.498l-27.99 12.245a.849.849 0 01-.838-.092zM409.879 108.48c-1.99.928-2.71 3.337-3.132 5.492a6.465 6.465 0 01-.146.596c-1.023 3.523-4.696 6.661-10.989 9.415l-18.815 8.227c-.032.012-.036.049-.008.067 3.41 2.443 9.081 6.129 14.13 9.348.014.009.021.01.037.004l23.129-10.122 1.088-.471a44.849 44.849 0 0112.586-3.077c.034-.003.081-.004.085-.038l1.732-15.513c.003-.022-.011-.038-.033-.041l-19.193-4.101c-.016-.002-.03.009-.045.015l-.426.199z" fill="#000"/><path d="M391.767 143.397a2.06 2.06 0 01-1.909-.135c-4.475-2.847-10.581-6.799-14.206-9.402a1.984 1.984 0 01-.811-1.755 2.005 2.005 0 011.164-1.672l.024-.011 18.8-8.228c5.717-2.505 9.047-5.253 9.899-8.18.302-1.024.23-2.06-.209-3.166a1.952 1.952 0 01.989-2.489l3.984-1.859a2.028 2.028 0 011.543-.07l18.881 4.016a2.033 2.033 0 011.602 2.172l-1.728 15.475a2.032 2.032 0 01-1.806 1.794 42.677 42.677 0 00-12.075 2.949l-24.142 10.561zm-2.761-14.394c-3.605 1.577-4.041 6.477-.736 8.612l.59.382a4.984 4.984 0 004.699.373l20.83-9.117a47.311 47.311 0 017.817-2.403c2.252-.484 4.046-2.275 4.302-4.564l.433-3.878a5 5 0 00-3.924-5.444l-11.839-2.532a1.882 1.882 0 00-1.194.137c-.78.365-1.189 1.214-1.177 2.075a8.357 8.357 0 01-.339 2.47c-1.205 4.141-5.158 7.629-12.081 10.659l-7.381 3.23zM349.909 108.761c.013.017.028.018.044.013l12.688-5.551c5.03-2.197 9.824-3.541 14.406-4.133a.095.095 0 00.068-.043.1.1 0 00.015-.041l1.727-15.46a.03.03 0 00-.009-.027c-.201-.24-3.077-3.543-5.236-5.33a.047.047 0 00-.044-.005c-8.098 3.739-16.043 10.472-25.254 14.498l-3.017 1.32c-1.551.679-2.684 2.093-2.875 3.775-.102.89-.123 1.476-.022 1.52.294.123 4.31 5.334 7.509 9.464z" fill="#000"/><path d="M352.566 109.76a4.542 4.542 0 01-5.373-1.325c-1.941-2.509-4.481-5.789-5.586-7.135-.252-.305-.578-.547-.81-.868-.673-.933-.402-2.6.107-5.668a1.946 1.946 0 011.14-1.47l5.504-2.408c4.762-2.078 9.238-4.953 13.568-7.725 3.975-2.549 7.739-4.956 11.646-6.762a1.978 1.978 0 011.973.172l.03.022c2.246 1.855 5.021 5.008 5.553 5.623l.427.492c.301.347.35.846.121 1.244-.073.129-.12.27-.136.418l-1.657 14.836a2.048 2.048 0 01-1.652 1.783l-.072.014c-4.505.584-9.193 1.928-13.924 3.995l-10.859 4.762zm-8.18-11.954c-.066.567.139.92.5 1.363.938 1.151 2.523 3.19 5.378 6.879a.576.576 0 00.686.173l10.907-4.781c3.285-1.433 6.557-2.545 9.779-3.321 2.181-.526 3.892-2.294 4.141-4.524l.83-7.431c.142-1.272-.239-2.528-1.117-3.459a4.084 4.084 0 00-4.978-.762c-2.381 1.348-4.801 2.898-7.31 4.504-4.459 2.854-9.064 5.805-14.111 8.01l-3.452 1.508c-.668.291-1.169 1.118-1.253 1.841z" fill="#000"/><path d="M417.096 173.449L310.237 94.746c-.021-.017-.016-.054.007-.066l39.8-17.412c13.421-5.874 26.365-8.673 38.815-8.4 12.443.272 23.52 3.977 33.208 11.119 4.698 3.465 7.418 7.249 8.152 11.35.731 4.073-.6 7.997-3.985 11.774-.025.027 0 .067.032.056 8.888-2.555 17.816-2.983 26.779-1.3 9.006 1.696 16.738 4.923 23.205 9.68 10.035 7.391 13.928 14.644 11.679 21.751-2.249 7.106-9.95 13.537-23.102 19.283l-47.654 20.848c-.025.011-.053.036-.077.02zm-41.611-54.48c.023.015.05-.001.074-.011l21.665-9.479c6.293-2.755 9.959-5.893 10.99-9.416 1.031-3.522-.855-7.056-5.65-10.591-5.289-3.891-11.134-5.946-17.561-6.162-6.411-.213-13.292 1.29-20.65 4.512l-19.493 8.526c-.024.012-.028.05-.007.067l30.632 22.554zm13.37 9.841l34.298 25.26c.022.014.049-.001.074-.012l27.35-11.964c7.018-3.071 11.021-6.472 11.993-10.204.972-3.731-1.211-7.56-6.547-11.494-5.384-3.969-11.536-6.306-18.447-7.018-6.918-.712-13.846.336-20.782 3.14l-1.088.47-26.775 11.715c-.05.021-.118.073-.076.107z" fill="#fff"/><path d="M418.161 175.134a2.483 2.483 0 01-2.215-.111l-106.851-78.7a1.994 1.994 0 01.304-3.394l.015-.008 39.854-17.435c13.619-5.957 26.954-8.84 39.636-8.564 12.801.29 24.348 4.152 34.32 11.499 5.095 3.749 8.094 7.984 8.916 12.576.672 3.725 4.086 8.127 7.868 7.976 4.462-.178 8.942.151 13.4.985 9.257 1.739 17.333 5.116 24 10.023 10.735 7.904 14.9 15.945 12.383 23.907-2.454 7.736-10.365 14.435-24.174 20.484l-47.456 20.762zm-96.172-83.471c-3.526 1.543-4.059 6.324-.961 8.606l94.029 69.249a5 5 0 004.97.555l44.024-19.274c12.547-5.492 19.962-11.579 22.024-18.091 1.96-6.194-1.737-12.788-10.975-19.595-6.195-4.562-13.735-7.706-22.411-9.335-8.609-1.622-17.335-1.194-25.882 1.257a1.978 1.978 0 01-2.217-.854 1.998 1.998 0 01.153-2.334l.015-.019c3.015-3.36 4.166-6.682 3.542-10.157-.642-3.582-3.127-6.987-7.39-10.126-9.32-6.869-20.116-10.475-32.094-10.74-12.114-.265-24.897 2.507-37.995 8.237l-28.832 12.62zm102.024 64.181a2.061 2.061 0 01-1.821-.082l-34.487-25.428a1.966 1.966 0 01.3-3.35l.028-.013 27.986-12.243c7.251-2.933 14.551-4.03 21.759-3.293 7.226.71 13.763 3.232 19.404 7.388 6.015 4.429 8.468 8.993 7.276 13.555-1.141 4.381-5.424 8.14-13.097 11.498l-27.348 11.968zm-23.409-30.109c-3.525 1.544-4.059 6.324-.96 8.607l21.46 15.809a4.996 4.996 0 004.972.554l23.718-10.394c6.412-2.809 10.076-5.805 10.888-8.909.748-2.865-1.208-6.038-5.817-9.433-5.08-3.74-10.99-5.96-17.491-6.649-6.57-.673-13.245.336-19.852 3.011l-16.918 7.404zm-24.053-5.088a2.483 2.483 0 01-2.215-.111l-30.61-22.55a1.996 1.996 0 01.304-3.395l.015-.007 19.541-8.55c7.594-3.323 14.827-4.893 21.493-4.673 6.778.224 13.065 2.426 18.651 6.538 5.502 4.057 7.642 8.331 6.366 12.704-1.205 4.141-5.157 7.63-12.081 10.659l-21.464 9.385zm-19.938-27.313c-3.526 1.542-4.06 6.323-.962 8.606l17.786 13.104a5.001 5.001 0 004.972.554l18.039-7.901c5.718-2.504 9.048-5.252 9.9-8.18.29-.988 1.164-3.98-4.934-8.479-4.934-3.634-10.485-5.581-16.462-5.784-6.083-.2-12.749 1.261-19.799 4.344l-8.54 3.736z" fill="#000"/><path d="M319.445 101.548l-1.721 15.409a.04.04 0 01-.063.03l-9.189-6.772a.04.04 0 01-.018-.039l1.721-15.409c.003-.03.035-.048.062-.023l9.189 6.772c.014.009.021.017.019.032z" fill="#000"/><path d="M318.497 118.753a1.998 1.998 0 01-1.974-.189l-.012-.009-9.174-6.758a2.049 2.049 0 01-.824-1.837l1.717-15.379a2.013 2.013 0 013.193-1.395l9.132 6.742c.577.426.889 1.123.824 1.837l-1.719 15.39c-.078.7-.52 1.308-1.163 1.598zm-7.794-11.19a3.034 3.034 0 001.216 2.78c1.88 1.385 4.555.215 4.814-2.106l.455-4.073a3.034 3.034 0 00-1.218-2.781c-1.881-1.383-4.553-.212-4.812 2.107l-.455 4.073zM331.358 124.432l1.298-11.623a1.949 1.949 0 10-3.874-.432L327.483 124a1.949 1.949 0 103.875.432zM391.901 97.907l1.298-11.623a1.949 1.949 0 10-3.874-.433l-1.298 11.624a1.949 1.949 0 103.874.432zM442.336 128.981l1.298-11.623a1.948 1.948 0 10-3.874-.433l-1.298 11.624a1.949 1.949 0 103.874.432zM400.659 175.292l1.298-11.623a1.949 1.949 0 10-3.874-.433l-1.298 11.623a1.95 1.95 0 003.874.433zM320.821 37.655c-1.496.628-1.657 1.87-.348 2.774 1.309.911 3.579 1.135 5.074.507 1.488-.63 1.649-1.871.34-2.775-1.309-.904-3.579-1.127-5.066-.506zM328.599 40.6l-4.579 1.92c-.221.095-.241.28-.054.414l15.321 10.636a.861.861 0 00.75.069l4.579-1.919c.221-.095.248-.272.054-.414L329.349 40.67c-.188-.127-.53-.157-.75-.07zM274.089 77.646a8.505 8.505 0 01-2.194.573c-.799.098-1.602.106-2.425.022a11.516 11.516 0 01-2.424-.526 8.75 8.75 0 01-2.182-1.084c-.654-.455-1.12-.913-1.404-1.394-.284-.475-.398-.937-.348-1.382.042-.445.261-.863.634-1.249.382-.392.907-.731 1.583-1.008a8.266 8.266 0 012.186-.566 10.317 10.317 0 012.418-.03c.809.083 1.614.255 2.41.517a8.37 8.37 0 012.16 1.073c.662.457 1.134.93 1.433 1.413.291.482.412.946.354 1.397-.057.444-.276.862-.643 1.256-.38.377-.897.71-1.558.988zm-13.172-8.716c-1.487.621-2.61 1.336-3.361 2.152-.75.809-1.167 1.655-1.243 2.532-.075.876.17 1.773.737 2.67.568.895 1.432 1.75 2.588 2.554 1.155.804 2.476 1.469 3.948 1.986 1.472.517 3.017.862 4.61 1.032 1.601.171 3.222.165 4.864-.034 1.643-.2 3.195-.603 4.674-1.218 1.181-.499 2.077-1.066 2.694-1.695.457-.466 1.032-1.377 1.032-1.377l.493.348c.195.134.536.172.758.07l4.564-1.914c.228-.094.248-.28.053-.414L271.855 64.88a.894.894 0 00-.764-.078l-4.564 1.913c-.221.095-.241.28-.046.415l.877.608s-1.763.073-2.707.192a14.122 14.122 0 00-3.734 1zM279.212 61.396l-4.564 1.913c-.228.094-.249.28-.055.421l15.474 10.744c.195.134.536.172.757.07l4.556-1.907c.228-.094.249-.28.054-.414l-6.996-4.854c-1.455-1.01-2.124-1.94-2.014-2.79.11-.85.905-1.587 2.392-2.208l1.851-.79c.228-.096.241-.281.054-.415l-3.397-2.36a.877.877 0 00-.756-.076l-2.164.906c-1.125.466-1.962.98-2.511 1.527-.363.364-.845 1.053-.845 1.053l-1.072-.742a.894.894 0 00-.764-.078zM283.972 53.496c-.221.096-.249.28-.055.421l5.34 3.695 4.061 2.793 5.59 3.88c1.336.929 2.605 1.588 3.805 1.992 1.207.405 2.375.626 3.505.654 1.129.029 2.215-.09 3.279-.353a21.825 21.825 0 003.101-1.034l3.101-1.304c.22-.096.241-.28.053-.414l-3.122-2.194c-.194-.142-.536-.172-.757-.077l-2.612 1.096a6.003 6.003 0 01-1.119.347 3.875 3.875 0 01-1.2.069c-.409-.03-.84-.139-1.302-.303-.454-.163-.92-.418-1.415-.758l-5.548-3.852 4.848-2.032c.22-.095.241-.28.046-.415l-3.327-2.314a.877.877 0 00-.756-.077l-4.847 2.032-5.341-3.694a.876.876 0 00-.756-.078l-4.572 1.92zM301.722 46.074l-4.54 1.9c-.228.095-.249.28-.054.414l20.785 14.427a.895.895 0 00.764.078l4.572-1.92c.228-.094.249-.28.055-.42l-7.985-5.543c-.577-.402-1.012-.81-1.288-1.224-.276-.413-.418-.819-.412-1.208.006-.397.159-.755.468-1.103.3-.342.753-.636 1.344-.885a8.87 8.87 0 011.771-.545 6.192 6.192 0 011.809-.083c.616.061 1.264.231 1.94.494.676.263 1.388.666 2.154 1.194l8.061 5.595a.876.876 0 00.756.077l4.611-1.93c.228-.095.249-.28.054-.414l-8.151-5.658a20.498 20.498 0 00-3.75-2.084 15.928 15.928 0 00-3.921-1.09 15.161 15.161 0 00-4.087-.007c-1.387.19-2.811.586-4.251 1.19-.999.421-1.79.918-2.379 1.49s-1.014 1.154-1.273 1.733l-6.296-4.409a.877.877 0 00-.757-.07zM339.496 35.983c-1.378.581-2.463 1.165-3.242 1.76-.787.596-1.295 1.184-1.526 1.78-.239.589-.191 1.172.125 1.762.317.59.868 1.162 1.676 1.717.612.429 1.228.76 1.854.995.633.243 1.252.41 1.87.516.627.1 1.236.146 1.837.138a15.327 15.327 0 001.746-.12 16.602 16.602 0 001.592-.28c.508-.116.97-.222 1.372-.334.932-.219 1.75-.42 2.437-.598a19.906 19.906 0 011.837-.395c.534-.083.98-.115 1.338-.098.373.02.684.121.942.3.424.295.523.621.311.973-.219.35-.847.737-1.871 1.17a6.308 6.308 0 01-2.397.513c-.654.01-1.213-.083-1.678-.285a.918.918 0 00-.665-.022l-4.547 1.893s-.007-.001-.008.006c-.236.094-.244.303-.019.433.577.342 1.241.649 2.007.907.96.332 2.024.54 3.184.633 1.16.092 2.402.05 3.721-.14 1.326-.189 2.675-.578 4.068-1.165 1.275-.533 2.343-1.104 3.197-1.698.848-.603 1.434-1.22 1.753-1.86.311-.64.332-1.29.069-1.957-.272-.66-.872-1.328-1.819-1.98a8.174 8.174 0 00-2.719-1.25 11.132 11.132 0 00-2.929-.297c-1.008.03-2.043.162-3.103.381-1.06.227-2.139.481-3.23.787-.684.209-1.288.381-1.798.52-.518.136-.964.23-1.344.277a3.536 3.536 0 01-.978.025 1.719 1.719 0 01-.713-.267c-.356-.234-.473-.525-.337-.877.129-.346.603-.698 1.429-1.04.693-.29 1.383-.424 2.039-.388.507.026.94.112 1.312.267.209.083.47.097.651.02l4.664-1.94c.236-.1.244-.302.027-.44a10.064 10.064 0 00-2.221-1.005 12.542 12.542 0 00-3.11-.557 14.753 14.753 0 00-3.376.208 16.026 16.026 0 00-3.428 1.012zM209.715 90.394c-1.385.58-2.463 1.165-3.242 1.76-.787.595-1.295 1.183-1.527 1.78-.238.588-.19 1.171.126 1.761.317.59.868 1.163 1.676 1.718.612.428 1.228.76 1.854.994.633.244 1.252.41 1.87.517.626.1 1.236.145 1.837.137a15.327 15.327 0 001.746-.12 16.602 16.602 0 001.592-.28c.507-.115.969-.22 1.372-.334.932-.218 1.749-.42 2.437-.597a19.906 19.906 0 011.837-.395c.534-.083.98-.116 1.345-.097.365.025.677.12.935.299.424.295.523.62.311.972-.219.35-.847.738-1.871 1.171a6.318 6.318 0 01-2.397.513c-.654.009-1.213-.083-1.678-.285a.92.92 0 00-.666-.022l-4.546 1.892s-.008-.001-.008.007c-.236.094-.244.303-.019.433.577.342 1.24.648 2.007.906.96.333 2.017.541 3.176.64 1.16.092 2.402.051 3.721-.139 1.326-.19 2.674-.579 4.068-1.166 1.274-.533 2.343-1.103 3.197-1.698.847-.603 1.434-1.22 1.753-1.86.311-.64.331-1.29.068-1.957-.271-.66-.872-1.327-1.819-1.98a8.17 8.17 0 00-2.718-1.25 10.83 10.83 0 00-2.929-.297 17.95 17.95 0 00-3.103.382c-1.06.226-2.139.48-3.231.786a57.52 57.52 0 01-1.798.52c-.518.137-.963.23-1.343.277a3.536 3.536 0 01-.978.026 1.713 1.713 0 01-.713-.267c-.356-.235-.474-.526-.337-.878.129-.346.603-.698 1.429-1.04.692-.29 1.382-.424 2.038-.388.507.027.94.113 1.313.267.208.083.469.097.65.02l4.665-1.94c.236-.1.243-.302.026-.439a10.056 10.056 0 00-2.22-1.005 12.55 12.55 0 00-3.111-.558 14.748 14.748 0 00-3.375.208 15.637 15.637 0 00-3.42 1.006zM241.685 76.99c-.716.303-1.337.624-1.863.97-.519.347-.963.695-1.31 1.054a4.976 4.976 0 00-.826 1.085 4.49 4.49 0 00-.427 1.063 16.348 16.348 0 00-3.938-.058 13.42 13.42 0 00-3.746.97c-1.126.474-1.989 1.015-2.604 1.621-.405.405-.979 1.181-.979 1.181l-.683-.474a.893.893 0 00-.763-.078l-4.564 1.913c-.228.095-.249.28-.055.422l15.829 10.986 5.39-2.256.024-.012-9.035-6.275c-.056-.036-.119-.073-.175-.11-1.664-1.153-1.465-2.736.439-3.535 1.865-.782 4.671-.521 6.356.582h.007l9.3 6.455 5.335-2.24-9.034-6.274a4.036 4.036 0 01-.176-.11c-1.663-1.153-1.472-2.737.433-3.536 1.865-.782 4.671-.521 6.363.583h.007l9.3 6.454.063-.03 5.405-2.261-8.533-5.926a19.487 19.487 0 00-3.754-2.047 16.413 16.413 0 00-3.93-1.076 15.381 15.381 0 00-3.977-.055 13.88 13.88 0 00-3.879 1.015z" fill="#000"/></svg>