<svg xmlns="http://www.w3.org/2000/svg" width="337" height="370" fill="none" xmlns:v="https://vecta.io/nano"><style><![CDATA[.B{fill:#000}.C{fill:#fff}.D{fill:#39ffb0}]]></style><g class="B"><path d="M279.607 272.814l-1.254-.333-.309-.195-145.14 87.429 1.226.733 145.477-87.634zm4.473 1.203l-1.694-.46-146.253 88.104 1.226.734 146.721-88.378zm4.314 1.153l-1.693-.449-147.452 88.817 1.226.734 147.919-89.102zm4.474 1.192l-1.694-.449-148.687 89.57 1.216.733 149.165-89.854zm2.704.734L145.66 367.399l1.01.607.215.117 150.372-90.578-1.685-.449zm6.158 1.642l-1.694-.45-150.895 90.89a14.48 14.48 0 0 0 1.647.48l150.942-90.92zm3.847 1.516l-1.442-.597L154.157 370a13.44 13.44 0 0 0 3.173-.44l148.247-89.306zm-17.903 13.227a28.2 28.2 0 0 1 3.734-.782l18.941-11.409-1.956-.293-20.719 12.484zm-42.272 26.934l-.608-1.105-16.228 9.776c.543.088 1.067.264 1.563.528l15.273-9.199zm1.357 3.02l-.478-1.183-14.047 8.457 1.367.645 13.158-7.919zm50.386-30.961l.907.059 18.624-11.223-2.696.146-18.22 10.979 1.385.039zm6.756.43l21.992-13.247-2.732.577-1.02.215-20.439 12.318 2.199.137zm-56.244 33.875c-.065-.421-.15-.851-.271-1.31l-11.408 6.873 1.544.537 10.135-6.1zm.037 3.734c.075-.46.122-.968.131-1.545l-7.664 4.615c.674.136 1.338.224 1.993.273l5.54-3.343zm60.363-36.358l24.734-14.899c-.674-.088-1.432-.117-2.274-.097l-23.649 14.234a10.55 10.55 0 0 0 1.189.762zm28.215-13.11c-.168-.371-.449-.694-.851-.958l-24.978 15.046a13.85 13.85 0 0 0 1.788.391l24.041-14.479zm-2.508 5.338c1.049-1.037 1.788-1.975 2.218-2.806l-19.989 12.044c1.095-.097 2.293-.313 3.575-.684l14.196-8.554zm-132.45-24.158l-2.461.01-140.901 84.868 1.217.743 142.145-85.621zm6.411-.037l-2.461.009L61.097 349.04l1.217.743 145.412-87.595zm6.514-.03l-2.462.01-147.273 88.71c.515.206 1.039.382 1.572.528l148.163-89.248zm3.826-.03L69.117 351.856c.908.029 1.825-.02 2.723-.167l148.687-89.57-2.462.009zm6.515-.03L94.404 340.514a13.3 13.3 0 0 1 2.779-.206l129.867-78.22-2.47.01zm8.871-.048l-2.461.01-130.653 78.699c.533.137 1.058.313 1.572.528l131.542-79.237zm6.523-.031l-2.462.01-133.395 80.351 1.217.734 134.64-81.095zm6.41-.038l-2.461.01-136.633 82.306 1.226.734 137.868-83.05zm6.561-.039l-2.461.02-139.937 84.291 1.226.733 141.172-85.044zm6.41-.029l-2.461.01-143.175 86.246 1.226.734 144.41-86.99zm4.324 1.289l-1.188-.752-145.533 87.664 1.216.733 145.505-87.645zm3.041 1.918l-1.188-.753-145.458 87.625 1.216.733 145.43-87.605zm3.154 1.995l-1.198-.753-145.374 87.576 1.226.733 145.346-87.556zm3.098 1.964l-1.189-.752-145.299 87.517 1.217.743 145.271-87.508zm3.153 1.994l-1.197-.762-145.215 87.478 1.216.743 145.196-87.459zm-171.615-8.341l-2.47.02-91.582 55.168 1.207.743 92.845-55.931zm6.514-.029l-2.461.009-94.904 57.173 1.207.743 96.158-57.925zm6.289-.039l-2.462.019-98.113 59.098 1.207.743 99.368-59.86zm6.513-.029l-2.461.01-101.427 61.101 1.207.743 102.681-61.854zm6.411-.04l-2.461.02-104.693 63.057 1.207.743 105.947-63.82zm6.523-.029l-2.471.01-108.006 65.062 1.207.743 109.269-65.815zm6.401-.039l-2.461.02-111.272 67.026 1.207.743 112.526-67.789zm6.569-.029l-2.461.01-114.622 69.04 1.207.743 115.876-69.793zm6.411-.039l-2.462.01-117.888 71.015 1.207.743 119.143-71.768zm6.513-.028l-2.461.01-121.201 73.01 1.207.743 122.455-73.763zm6.29-.039l-2.462.02-124.411 74.935 1.207.743 125.665-75.698zm6.513-.03l-2.462.01-127.724 76.939 1.207.743 128.978-77.692zm6.41-.04l-2.461.01-130.99 78.914 1.207.743 132.244-79.667zm6.523-.028l-2.461.01-134.312 80.909 1.207.743 135.566-81.662zm3.94-.029L54.761 345.139l1.207.743 138.833-83.627-2.471.01zm-164.97.88l-2.209.01-11.268 6.638-8.488 5.113a5.43 5.43 0 0 0-1.6 2.434l23.565-14.195zm6.289-.03l-2.461.01-27.654 16.659c.047.44.15.87.299 1.29l29.816-17.959zm4.052-.019L4.88 282.864a5.43 5.43 0 0 0 .992.87l34.289-20.657-2.461.019zm8.872-.049l-2.461.01-36.301 21.86 1.226.733 37.537-22.603zm6.513-.038l-2.461.019-39.567 23.835 1.226.733 40.803-24.587zm6.41-.03l-2.461.01-42.796 25.78 1.226.733 44.031-26.523zm6.57-.039l-2.471.01-46.09 27.764 1.226.734 47.335-28.508zm6.401-.03l-2.461.01-49.31 29.7 1.226.733 50.545-30.443zm6.523-.04l-2.461.009-52.594 31.686 1.226.733 53.83-32.428z"/><path d="M82.818 262.851L3.093 310.872a3.33 3.33 0 0 0 .028 1.457l82.158-49.488-2.461.01zm6.513-.039L4.263 314.059c.094.068.159.156.262.215l.898.557 86.369-52.029-2.461.01zm8.872-.041l-2.461.009L7.36 316.012l1.207.743 89.635-53.984zM32.57 244.268l-18.686-2.522-3.165 4.623-1.825 11.397 1.421 4.633 3.57 6.268 4.352 2.522 12.922 1.457 1.412-28.378z"/></g><path d="M142.205 342.883l-128.33-76.962 127.152-63.25 128.331 64.156c1.996 1.195 1.754 3.297-.557 4.68l-118.79 71.039c-2.311 1.383-5.8 1.532-7.806.337z" class="C"/><path d="M145.605 344.742c-1.448 0-2.842-.317-3.903-.953L11.708 265.828l129.329-64.333 128.762 64.37c1.268.757 1.924 1.803 1.924 2.98 0 1.345-.881 2.644-2.418 3.559l-118.79 71.04c-1.421.868-3.201 1.298-4.91 1.298zM16.061 266.005l126.657 75.963c1.691 1.009 4.793.859 6.79-.336l118.789-71.04c.882-.523 1.403-1.177 1.403-1.728 0-.533-.53-.934-.845-1.121l-127.818-63.894-124.976 62.156z" class="B"/><path d="M260.662 265.472l.099-16.589-40.394 4.521-81.983-49.2-65.816 39.167-52.111 5.269c-4.451 12.61-.836 13.628-.836 13.628l121.029 72.628c1.996 1.196 5.494 1.046 7.805-.336l110.391-65.865c1.529-.925 1.816-3.223 1.816-3.223z" class="D"/><g class="B"><path d="M144.04 336.755c-1.448 0-2.842-.317-3.903-.953l-120.956-72.59c-.306-.131-.89-.495-1.34-1.401-1.205-2.429-.647-6.987 1.673-13.545l.216-.626 52.525-5.315 66.13-39.354 82.208 49.331 41.194-4.606-.107 17.907c-.036.29-.405 2.859-2.32 4.008l-110.4 65.865c-1.421.85-3.21 1.279-4.919 1.279zM21.195 249.611c-2.617 7.66-1.969 10.397-1.556 11.228a4.39 4.39 0 0 0 .243.402l.243.103 121.028 72.628c1.691 1.008 4.793.859 6.79-.337l110.39-65.864c.855-.514 1.223-1.85 1.313-2.392l.09-15.338-39.593 4.428-81.768-49.07-65.492 38.981-51.688 5.231z"/><path d="M145.434 335.596c1.079-.159 2.131-.504 3.012-1.037l110.391-65.864c1.529-.916 1.816-3.223 1.816-3.223l.099-16.59-40.394 4.521-26.725-16.039-49.719 21.868 1.52 76.364z"/></g><path d="M268.801 271.507l-118.79 71.039c-2.311 1.383-5.8 1.532-7.805.337l-124.68-74.776c-1.771-1.065-3.066-2.812-3.534-4.886-1.133-4.96-1.07-9.266.576-14.759.432-1.448 1.987-2.176 3.255-1.42l124.59 74.72c1.996 1.196 5.494 1.046 7.805-.336l118.79-71.04c2.311-1.382 3.426-9.219 1.429-10.424l-.054-.028c1.017 1.205.54 2.83-1.375 3.979l-118.79 71.04c-2.311 1.382-5.8 1.531-7.805.336L24.522 244.585l-10.152-6.258s-7.491-5.231-7.491 13.059 4.433 18.019 7.005 20.999l128.331 76.962c1.996 1.195 5.494 1.046 7.805-.337l118.79-71.039c1.609-.962 3.228-8.491 1.663-10.07-.26.701.243 2.13-1.672 3.606z" class="D"/><path d="M145.605 351.216c-1.448 0-2.842-.318-3.903-.953L13.237 273.216l-.108-.121c-.396-.458-.881-.859-1.385-1.28-2.617-2.167-5.881-4.867-5.881-20.429 0-7.931 1.421-12.732 4.217-14.283 2.41-1.335 4.766.281 4.865.346l10.108 6.221 117.881 70.704c1.691 1.009 4.793.859 6.789-.336l118.79-71.04c.791-.477 1.286-1.047 1.376-1.57.045-.28-.036-.542-.261-.803l-3.597-4.278 4.838 2.653c1.367.812 1.637 2.755 1.637 4.24 0 2.607-.927 6.829-2.977 8.053l-118.79 71.04c-2.625 1.578-6.501 1.728-8.821.336l-124.59-74.721c-.306-.186-.656-.214-.989-.074-.378.149-.656.476-.791.896-1.538 5.11-1.699 9.22-.557 14.199a6.66 6.66 0 0 0 3.057 4.213l124.68 74.776c1.691 1.009 4.793.86 6.789-.336l118.736-71.002c1.025-.804 1.07-1.495 1.115-2.149.018-.299.045-.616.153-.925l.54-1.522 1.124 1.13c1.061 1.065 1.043 3.307.836 5.007-.225 1.905-1.079 5.773-2.689 6.735l-118.789 71.04c-1.448.85-3.229 1.28-4.937 1.28zM14.523 271.554l128.195 76.878c1.691 1.009 4.793.859 6.789-.336l118.79-71.04c.432-.281 1.385-2.457 1.7-5.222-.171.168-.369.346-.585.514l-.099.065-118.789 71.04c-2.626 1.579-6.502 1.728-8.822.336l-124.68-74.776a8.78 8.78 0 0 1-4.02-5.549c-1.232-5.371-1.061-9.808.593-15.319.315-1.037 1.034-1.85 1.987-2.233.899-.364 1.897-.28 2.743.215l124.59 74.72c1.691 1.009 4.793.86 6.789-.336l118.79-71.04c.8-.486 1.726-2.784 1.915-5.296-.269.233-.575.448-.908.644l-118.79 71.04c-2.625 1.579-6.501 1.728-8.821.336l-117.89-70.703-10.161-6.268c-.099-.066-1.511-1.009-2.833-.262-1.169.654-3.12 3.139-3.12 12.405 0 14.545 2.842 16.889 5.117 18.776.512.449 1.034.878 1.52 1.411z" class="B"/><path d="M142.691 315.298l-130.12-77.943 122.971-73.543a8.11 8.11 0 0 1 8.372 0l125.93 75.439c1.996 1.196 1.753 3.298-.558 4.68l-118.789 71.04c-2.311 1.373-5.809 1.523-7.806.327z" class="C"/><path d="M146.09 317.167c-1.447 0-2.841-.318-3.902-.953l-131.64-78.859 124.5-74.458c2.895-1.738 6.492-1.738 9.388 0l125.929 75.439c1.196.72 1.862 1.766 1.862 2.943 0 1.345-.882 2.643-2.419 3.559l-118.79 71.04c-1.439.85-3.219 1.289-4.928 1.289zM14.612 237.355l128.592 77.028c1.69 1.009 4.793.859 6.789-.336l118.79-71.04c.881-.523 1.402-1.177 1.402-1.738 0-.532-.53-.924-.845-1.121l-125.929-75.439c-2.267-1.364-5.09-1.364-7.356 0L14.612 237.355z" class="B"/><path d="M159.004 294.561c-6.897-3.97-17.841-3.932-24.648.131l-81.723-49.013c6.888-4.129 6.888-10.827 0-14.955l76.156-45.483c6.889 4.129 18.057 4.129 24.945 0l81.463 48.855c-6.889 4.129-6.889 10.826 0 14.955l-76.193 45.51z" class="D"/><path d="M134.355 295.906l-83.746-50.227 1.52-.916c3.003-1.802 4.658-4.128 4.658-6.566 0-2.429-1.655-4.764-4.658-6.567l-1.529-.916 78.189-46.706.504.299c6.591 3.961 17.328 3.952 23.929 0l.512-.308 83.495 50.078-1.52.916c-3.004 1.802-4.658 4.128-4.658 6.566 0 2.429 1.654 4.764 4.658 6.567l-1.016 1.831c-3.66-2.195-5.674-5.175-5.674-8.398 0-2.765 1.492-5.361 4.235-7.426l-79.529-47.696c-7.014 3.895-17.904 3.895-24.927 0l-74.214 44.324c2.743 2.064 4.235 4.661 4.235 7.426s-1.493 5.362-4.235 7.426l79.78 47.855c7.149-3.96 18.048-3.923 25.134.159l-.989 1.85c-6.582-3.793-17.193-3.737-23.65.121l-.504.308zm11.079 26.669c1.502-.019 3.076-.392 4.308-1.13l118.789-71.04c2.311-1.383 3.426-9.22 1.43-10.425l-.054-.028c1.016 1.205.54 2.831-1.376 3.98l-118.789 71.039c-1.232.738-2.806 1.112-4.308 1.131v6.473zm4.11 26.446l118.789-71.04c1.61-.962 3.328-6.829 1.763-8.407-.243.691-.827 1.373-1.763 1.933l-118.789 71.04c-1.178.71-2.662 1.084-4.101 1.14v6.473c1.439-.056 2.923-.429 4.101-1.139z" class="B"/><path d="M147.646 323.117l-.468-1.551a25.44 25.44 0 0 0 5.198-2.363l106.461-63.642.782 1.411-106.461 63.641c-1.744 1.037-3.597 1.887-5.512 2.504zm-.099 7.277l-.279-.925a26.33 26.33 0 0 0 5.26-2.391l106.462-63.642.467.841-106.461 63.642c-1.717 1.018-3.552 1.858-5.449 2.475z" class="D"/><path d="M146.108 330.533c-1.78 0-3.534-.486-5.08-1.411L18.821 255.747l.584-1.055 122.207 73.375c1.367.822 2.914 1.252 4.487 1.252v1.214h.009z" class="B"/><path d="M63.233 338.072l18.632-11.004c5.395-3.186 9.505-8.258 11.681-14.292 2.95-8.174 8.588-15.002 15.925-19.262l37.939-22.839-61.391-36.617-36.725 21.587c-7.751 4.334-13.677 11.499-16.636 20.112l-.369 1.083c-2.194 6.408-6.609 11.733-12.383 14.937l-16.933 9.817 60.258 36.478z" class="C"/><path d="M63.225 339.296L.925 301.586l18.479-10.724c5.575-3.101 9.802-8.202 11.915-14.367l.369-1.083c3.039-8.875 9.118-16.226 17.113-20.691l37.21-21.877 63.424 37.822-39.459 23.764c-7.131 4.138-12.625 10.78-15.485 18.72-2.266 6.287-6.573 11.564-12.131 14.843l-19.136 11.303zM5.026 301.623l58.217 35.235 18.129-10.705c5.144-3.036 9.136-7.921 11.232-13.75 3.03-8.398 8.848-15.432 16.384-19.813l36.401-21.914-59.368-35.404-36.221 21.298c-7.563 4.223-13.3 11.163-16.177 19.552l-.369 1.083c-2.284 6.67-6.852 12.172-12.859 15.516l-15.368 8.902z" class="B"/><path d="M74.465 323.583l-46.311-27.426 46.311 27.426z" class="D"/><path d="M74.079 324.294l-2.716-1.606.773-1.411 2.716 1.607-.773 1.41zm-4.074-2.41l-2.716-1.606.773-1.411 2.716 1.607-.773 1.41zm-4.065-2.419l-2.716-1.607.773-1.41 2.716 1.607-.773 1.41zm-4.073-2.41l-2.716-1.607.773-1.41 2.716 1.606-.773 1.411zm-4.074-2.41l-2.716-1.607.773-1.41 2.716 1.606-.773 1.411zm-4.073-2.41l-2.716-1.607.773-1.41 2.716 1.606-.773 1.411zm-4.074-2.41l-2.716-1.607.773-1.41 2.716 1.606-.773 1.411zm-4.065-2.41l-2.716-1.607.773-1.41 2.716 1.606-.773 1.411zm-4.073-2.42l-2.716-1.606.773-1.411 2.716 1.607-.773 1.41zm-4.074-2.41l-2.716-1.606.773-1.411 2.716 1.607-.773 1.41zm-4.073-2.41l-2.716-1.606.773-1.411 2.716 1.607-.773 1.41zm-4.074-2.41l-1.52-.906.773-1.41 1.52.906-.773 1.41z" class="B"/><path d="M89.833 275.542l14.703 8.818c1.205.72 3.309.635 4.703-.205l16.735-10.033c1.394-.831 1.547-2.101.342-2.821l-14.703-8.818c-1.205-.719-3.309-.635-4.703.206l-16.735 10.032c-1.403.832-1.547 2.093-.342 2.821z" class="D"/><path d="M45.85 274.006l-.775 1.411 44.472 26.34.775-1.412-44.472-26.339zm4.494-6.287l-.775 1.412 44.472 26.339.775-1.411-44.472-26.34zm29.914-21.306l-.775 1.412 19.186 11.363.775-1.412-19.186-11.363zm-7.679 4.507l-.775 1.412 19.186 11.363.775-1.412-19.186-11.363zm-7.676 4.687l-.775 1.412 19.193 11.368.775-1.412-19.193-11.368zm-42.047 43.964l-.775 1.412 44.472 26.34.775-1.412-44.472-26.34zm4.103-121.803l-18.695-2.522-3.165 4.623-1.816 11.397 1.412 4.642 3.57 6.268 4.361 2.522 12.922 1.448 1.412-28.378z" class="B"/><path d="M136.595 276.382L8.264 199.42l135.938-68.583 128.331 64.156c1.996 1.195 1.753 3.297-.558 4.68L144.4 276.046c-2.311 1.383-5.809 1.541-7.805.336z" class="C"/><path d="M139.993 278.251c-1.447 0-2.841-.317-3.902-.952L6.105 199.337l138.106-69.676 128.771 64.38c1.268.756 1.924 1.802 1.924 2.979 0 1.346-.881 2.644-2.419 3.559l-127.575 76.374c-1.43.859-3.219 1.298-4.919 1.298zM10.431 199.505l126.667 75.972c1.69 1.009 4.793.86 6.789-.336l127.575-76.374c.882-.523 1.403-1.177 1.403-1.737 0-.533-.53-.934-.845-1.121l-127.818-63.894-133.771 67.49z" class="B"/><path d="M263.827 193.639l.099-16.59-49.171 9.855-73.198-54.543-74.592 44.501-52.111 5.269c-4.451 12.61-.836 13.629-.836 13.629l121.029 72.627c1.996 1.196 5.494 1.047 7.805-.336l119.177-71.199c1.519-.906 1.798-3.213 1.798-3.213z" class="D"/><g class="B"><path d="M138.428 270.265c-1.447 0-2.841-.318-3.902-.953L13.569 196.721c-.306-.13-.89-.495-1.34-1.401-1.205-2.428-.648-6.987 1.673-13.544l.216-.626 52.525-5.315 74.97-44.726 73.378 54.674 49.962-10.014-.108 18.01c-.018.112-.369 2.84-2.311 4.007l-119.186 71.19c-1.43.85-3.21 1.289-4.919 1.289zM15.583 183.121c-3.462 10.116-1.25 11.648-1.223 11.657l.153.075 121.029 72.628c1.69 1.009 4.793.859 6.789-.336l119.176-71.199c.855-.514 1.223-1.849 1.304-2.391l.09-15.236-48.388 9.696-73.027-54.412-74.223 44.277-51.679 5.241z"/><path d="M139.822 269.097c1.079-.159 2.131-.504 3.013-1.037l119.176-71.198c1.529-.915 1.816-3.223 1.816-3.223l.099-16.599-40.394 4.521-26.725-16.039-58.505 27.211 1.52 76.364z"/></g><path d="M271.974 199.673l-127.575 76.373c-2.311 1.383-5.8 1.532-7.805.337l-124.68-74.777a7.66 7.66 0 0 1-3.534-4.885c-1.133-4.96-1.07-9.266.576-14.759.432-1.448 1.987-2.177 3.255-1.42l124.59 74.72c1.996 1.196 5.494 1.046 7.805-.336l127.575-76.374c2.311-1.382 3.426-9.219 1.43-10.424l-.054-.028c1.016 1.205.54 2.83-1.376 3.979l-127.575 76.373c-2.311 1.383-5.8 1.532-7.805.337L18.91 178.085l-10.152-6.258s-7.491-5.231-7.491 13.059 4.433 18.019 7.005 20.999l128.331 76.962c1.996 1.195 5.494 1.046 7.805-.337l127.575-76.373c1.61-.962 3.229-8.491 1.664-10.07-.261.701.234 2.13-1.673 3.606z" class="D"/><path d="M139.993 284.724c-1.448 0-2.841-.317-3.903-.953L7.625 206.725l-.108-.121c-.396-.458-.881-.86-1.385-1.28-2.617-2.167-5.881-4.867-5.881-20.429 0-7.931 1.421-12.732 4.217-14.283 2.41-1.336 4.766.28 4.865.346l10.107 6.221 117.881 70.703c1.691 1.009 4.793.86 6.79-.336l127.575-76.374c.791-.476 1.286-1.046 1.376-1.569.045-.28-.036-.542-.261-.803l-3.579-4.269 4.82 2.643c1.367.813 1.636 2.756 1.636 4.241 0 2.606-.926 6.829-2.976 8.052l-127.575 76.374c-2.626 1.579-6.502 1.728-8.822.336l-124.59-74.72a1.06 1.06 0 0 0-.989-.075c-.369.15-.656.477-.791.897-1.538 5.11-1.7 9.22-.558 14.199a6.66 6.66 0 0 0 3.057 4.213l124.68 74.776c1.69 1.009 4.793.859 6.789-.336l127.53-76.346c1.016-.803 1.061-1.485 1.115-2.148.018-.299.045-.617.153-.935l.54-1.522 1.115 1.13c1.061 1.065 1.043 3.307.836 5.007-.225 1.906-1.079 5.773-2.698 6.735l-127.575 76.374c-1.439.859-3.219 1.298-4.928 1.298zM8.911 205.062l128.196 76.878c1.69 1.009 4.793.86 6.789-.336l127.575-76.374c.432-.28 1.385-2.456 1.7-5.221a6.8 6.8 0 0 1-.585.513l-.099.066-127.575 76.374c-2.626 1.578-6.502 1.728-8.822.336L11.411 202.521a8.78 8.78 0 0 1-4.02-5.548c-1.232-5.371-1.061-9.808.593-15.32.315-1.037 1.034-1.849 1.987-2.232.899-.365 1.906-.29 2.743.215l124.589 74.72c1.691 1.009 4.793.859 6.79-.336l127.575-76.374c.8-.486 1.726-2.784 1.915-5.297-.27.234-.575.449-.908.654l-127.575 76.374c-2.626 1.579-6.502 1.728-8.822.336L18.389 179.01l-10.161-6.268c-.099-.066-1.511-1-2.833-.262-1.169.654-3.12 3.139-3.12 12.405 0 14.545 2.842 16.889 5.117 18.776.504.43 1.034.869 1.52 1.401z" class="B"/><path d="M137.08 248.797L6.96 170.854l131.757-78.878a8.11 8.11 0 0 1 8.371 0l125.93 75.44c1.996 1.196 1.754 3.297-.557 4.68L144.885 248.47c-2.311 1.382-5.809 1.532-7.805.327z" class="D"/><path d="M140.479 250.666c-1.448 0-2.842-.318-3.903-.953L4.936 170.855l133.286-79.792c2.895-1.737 6.492-1.737 9.388 0l125.929 75.439c1.196.719 1.862 1.766 1.862 2.943 0 1.345-.882 2.643-2.419 3.559l-127.575 76.373c-1.439.859-3.229 1.289-4.928 1.289zM8.992 170.855l128.591 77.027c1.691 1.009 4.793.86 6.789-.336l127.576-76.373c.881-.523 1.402-1.177 1.402-1.738 0-.532-.53-.934-.845-1.121l-125.92-75.42c-2.276-1.364-5.09-1.364-7.356 0L8.992 170.855z" class="B"/><path d="M127.682 234.273c7.563-4.512 19.721-4.558 27.391-.14l93.44-55.907c-7.652-4.587-7.652-12.032 0-16.618l-89.951-53.946c-.35-.214-.782-.214-1.142-.009-7.688 4.26-19.675 4.148-27.148-.327l-93.395 55.879c7.653 4.587 7.653 12.032 0 16.618l90.805 54.45z" class="C"/><path d="M155.073 235.338l-.503-.29c-7.338-4.232-19.181-4.166-26.384.14l-1.016-1.831c7.724-4.614 19.837-4.773 27.876-.439l91.507-54.739c-3.111-2.289-4.802-5.175-4.802-8.267 0-3.083 1.691-5.969 4.802-8.267l-88.503-53.077c-8.003 4.353-19.999 4.306-27.769-.047l-91.452 54.712c3.111 2.288 4.802 5.175 4.802 8.267 0 3.531-2.221 6.81-6.25 9.229l-1.016-1.831c3.372-2.027 5.234-4.652 5.234-7.398s-1.861-5.371-5.234-7.398l-1.529-.916 95.436-57.093.513.308c7.077 4.241 18.812 4.381 26.159.308.674-.373 1.475-.364 2.122.028l91.471 54.861-1.52.916c-3.372 2.027-5.234 4.652-5.234 7.398s1.853 5.371 5.234 7.398l1.529.916-95.473 57.112zm-15.25 20.738c1.501-.019 3.075-.393 4.307-1.131l127.575-76.373c2.311-1.383 3.426-9.22 1.43-10.425l-.054-.028c1.016 1.205.54 2.831-1.376 3.979L144.13 248.472c-1.232.738-2.806 1.121-4.307 1.13v6.474zm4.109 26.454l127.575-76.373c1.61-.962 3.327-6.828 1.762-8.407-.242.691-.827 1.373-1.762 1.934l-127.575 76.373c-1.178.71-2.662 1.084-4.101 1.14v6.473c1.43-.056 2.914-.439 4.101-1.14z" class="B"/><path d="M142.035 256.626l-.468-1.551a25.77 25.77 0 0 0 5.198-2.363l115.247-68.976.782 1.402-115.247 68.975c-1.744 1.046-3.597 1.887-5.512 2.513zm-.1 7.267l-.278-.924a26.28 26.28 0 0 0 5.26-2.392l115.247-68.975.467.841-115.246 68.966a26.21 26.21 0 0 1-5.45 2.484z" class="D"/><path d="M140.497 264.043c-1.781 0-3.534-.486-5.081-1.411L13.21 189.257l.585-1.055 122.207 73.375c1.367.822 2.913 1.251 4.487 1.251v1.215h.009z" class="B"/><path d="M215.358 287.852s-.962 6.492-2.545 10.116c-1.591 3.624 9.442 9.481 9.442 9.481l2.86-6.221s-.611-6.66.926-13.031-10.683-.345-10.683-.345z" class="C"/><g class="B"><path d="M222.723 308.871l-.926-.495c-2.788-1.485-11.753-6.641-9.901-10.854 1.511-3.447 2.464-9.771 2.473-9.836l.081-.552.486-.242c1.439-.71 8.74-4.129 11.33-1.934.612.523 1.241 1.541.774 3.484-1.475 6.109-.909 12.611-.9 12.676l.027.29-3.444 7.463zm-6.447-20.298c-.279 1.681-1.169 6.707-2.536 9.827-.666 1.513 3.489 5.016 8.057 7.594l2.284-4.969c-.099-1.392-.414-7.314.98-13.087.099-.393.207-1.084-.09-1.336-.989-.841-5.179.318-8.695 1.971z"/><path d="M211.563 295.049s-1.906 3.708-1.385 8.51c.333 3.082 3.058 4.838 4.245 4.979.836.093 2.842 2.877 2.698 3.652-.162.869 9.379 10.705 13.47 8.855s-.665-11.387-.665-11.387l-18.363-14.609z"/><path d="M229.441 322.322c-2.554 0-5.684-2.102-8.058-4.063-.566-.467-5.557-4.652-5.26-6.268-.108-.421-1.43-2.214-1.924-2.438-1.529-.159-4.65-2.298-5.036-5.885-.54-5.063 1.421-8.959 1.502-9.127l.566-1.102 19.496 15.506.107.206c.351.701 3.382 6.959 2.141 10.602-.351 1.037-1.035 1.812-1.97 2.233-.494.243-1.016.336-1.564.336zm-11.304-10.285c.917 1.598 9.029 9.407 12.05 8.034.423-.196.701-.514.872-1 .783-2.279-1.043-6.884-1.924-8.724l-17.14-13.639c-.476 1.383-1.115 3.858-.8 6.726.279 2.597 2.635 3.97 3.345 4.045.899.103 1.853 1.196 2.491 2.092.693 1.009 1.07 1.831 1.106 2.466z"/></g><path d="M212.751 293.814c.216-.122 2.14 1.504 2.383 1.56.692.186 2.068.812 2.365 2.755.395 2.616 2.176 2.616 2.176 2.616v-2.971c0-.542.396-.99.917-1.037l4.595-.392c.504-.047.962.318 1.061.831l.774 4.11s.944 4.904 2.626 7.856c1.681 2.943 3.147 5.894 1.052 7.632-2.105 1.747-5.773 0-10.602-6.109-3.489-4.409-7.446-9.958-8.444-11.779-.576-1.056-.729-2.335-.279-3.447.234-.607.656-1.205 1.376-1.625z" class="D"/><path d="M228.919 318.475c-2.059 0-5.18-1.513-9.613-7.127-3.489-4.41-7.482-9.986-8.543-11.929-.764-1.401-.89-2.999-.332-4.381.377-.944.989-1.663 1.825-2.149.693-.401 1.259.019 2.635 1.046.252.187.476.365.611.449.855.261 2.617 1.102 2.995 3.578.036.261.099.485.162.681v-.868c0-1.084.809-1.999 1.852-2.083l4.595-.393c1.007-.084 1.943.636 2.14 1.682l.774 4.11c.009.047.935 4.764 2.5 7.52 1.492 2.615 3.74 6.557.809 8.995a3.68 3.68 0 0 1-2.41.869zm-16.078-23.447c-.234.215-.414.495-.54.822-.306.766-.225 1.71.225 2.523.899 1.644 4.667 6.977 8.345 11.639 4.064 5.128 7.491 7.361 9.181 5.95 1.304-1.083.558-3.045-1.286-6.277-1.744-3.064-2.707-7.978-2.743-8.183l-.773-4.11-4.577.411.018 4.007h-1.016c-.917 0-2.761-.728-3.183-3.512-.189-1.252-.981-1.728-1.619-1.896-.261-.075-.459-.215-1.169-.748l-.863-.626z" class="B"/><path d="M277.002 252.395s4.379 3.736 6.339 6.66c1.961 2.933 11.349-3.223 11.349-3.223l-3.31-5.128s-5.224-2.56-9.244-6.698c-4.019-4.147-5.134 8.389-5.134 8.389z" class="C"/><g class="B"><path d="M285.203 260.895c-1.142 0-2.095-.346-2.689-1.233-1.861-2.775-6.106-6.418-6.151-6.446l-.413-.355.045-.56c.189-2.093 1.016-8.986 3.822-10.051.692-.262 1.78-.299 3.048.999 3.849 3.97 8.911 6.474 8.956 6.492l.252.122 4.047 6.277-.881.579c-1.79 1.177-6.691 4.176-10.036 4.176zm-7.131-8.949c1.169 1.027 4.433 4.007 6.106 6.511.755 1.149 5.206-.579 9.082-2.952l-2.572-3.979c-1.124-.58-5.638-3.036-9.271-6.773-.189-.187-.647-.616-.917-.514-1.025.383-2.05 4.185-2.428 7.707z"/><path d="M283.314 262.585s1.529 3.288 6.016 4.549c2.878.813 6.511-.822 7.068-1.915.396-.766 3.624-1.69 4.263-1.27.719.467 13.03-5.138 12.868-9.771s-10.44-3.54-10.44-3.54l-19.775 11.947z"/><path d="M290.985 268.404c-.656 0-1.303-.075-1.924-.252-4.874-1.373-6.591-4.96-6.663-5.11l-.414-.878 20.781-12.554.216-.019c.756-.084 7.473-.719 10.279 1.822a3.76 3.76 0 0 1 1.277 2.727c.107 3.073-3.687 6.007-6.88 7.912-.629.374-6.213 3.662-7.544 2.784-.414-.056-2.5.57-2.887.962-.584 1.196-3.444 2.606-6.241 2.606zm-6.231-5.464c.71.934 2.194 2.428 4.847 3.176 2.517.709 5.548-.785 5.908-1.402.422-.831 1.753-1.354 2.805-1.634 1.142-.318 2.015-.374 2.599-.178 1.772-.299 11.735-5.277 11.618-8.696-.018-.477-.198-.869-.575-1.205-1.754-1.588-6.556-1.514-8.525-1.336l-18.677 11.275z"/></g><path d="M282.362 260.653c0-2.036 2.374-.747 2.518-.953.422-.597 1.483-1.7 3.336-1.27 2.491.579 3.147-1.149 3.147-1.149l-2.662-1.093c-.485-.196-.737-.747-.584-1.261l1.34-4.587c.144-.504.638-.812 1.133-.719l3.965.757s4.739.887 7.995.345 6.429-.878 7.221 1.785c.791 2.671-2.123 5.576-9.362 8.005-5.233 1.756-9.558 2.532-11.564 2.821-1.16.168-4.694.084-5.53-.756-.459-.458-.953-1.075-.953-1.925z" class="D"/><g class="B"><path d="M287.487 264.464c-1.627 0-3.974-.215-4.874-1.121-.539-.551-1.259-1.42-1.259-2.69 0-.981.396-1.514.738-1.785.755-.616 1.762-.439 2.401-.289.692-.738 1.987-1.635 3.965-1.177.252.056.477.084.666.093l-.782-.317c-.972-.393-1.493-1.514-1.187-2.551l1.339-4.586c.297-1.018 1.286-1.644 2.294-1.448l3.965.757c.045.009 4.604.85 7.653.345 2.886-.485 7.248-1.205 8.354 2.522.602 2.027.099 5.932-10.018 9.323-5.251 1.756-9.604 2.55-11.735 2.868-.297.018-.845.056-1.52.056zm-4.1-3.923v.112c0 .364.189.719.647 1.177.495.42 3.372.663 4.676.467 2.06-.309 6.286-1.075 11.394-2.784 6.087-2.036 9.343-4.54 8.704-6.688-.494-1.663-2.527-1.654-6.088-1.056-3.39.57-8.138-.308-8.336-.346l-3.965-.756-1.313 4.577 3.597 1.457-.378.981c-.332.888-1.672 2.401-4.307 1.784-1.196-.28-1.907.318-2.293.869-.432.617-1.115.448-1.52.346-.189-.056-.575-.159-.818-.14zm-113.8-65.036s-3.309 5.306.512 14.143c7.941 18.383 33.362 7.192 33.362 7.192s7.743 7.062 17.23 13.106a1.56 1.56 0 0 1 .44 2.205c-1.627 2.335-3.768 8.267-3.768 20.289 0 12.61-1.492 27.36-2.221 33.768-.207 1.812 1.007 3.466 2.743 3.755l4.451.747c1.682.281 3.282-.812 3.705-2.522l11.897-51.759c.647-5.68 0-6.492 0-6.492s5.341 7.164 17.445 11.228c9.226 3.092 19.514 10.032 23.884 13.162 1.187.85 2.815.504 3.588-.766l2.32-3.812c.684-1.12.468-2.587-.512-3.437l-41.393-36.524c-8.461-7.977-8.335-9.472-15.233-12.041l-24.09-8.725-34.36 6.483z"/><path d="M222.876 291.814c-.234 0-.467-.019-.701-.056l-4.451-.747c-2.285-.383-3.858-2.541-3.588-4.923.665-5.894 2.212-20.962 2.212-33.638 0-13.741 2.769-19.196 3.956-20.905.09-.131.09-.271.072-.355a.51.51 0 0 0-.225-.327c-8.129-5.175-15.062-11.172-16.896-12.788-3.957 1.56-26.528 9.509-34.09-7.978-4.002-9.257-.585-14.918-.441-15.151l.243-.383 35.052-6.614.252.094c.171.065 17.274 6.184 24.1 8.724 5.26 1.962 6.645 3.363 10.341 7.109 1.322 1.345 2.976 3.017 5.233 5.138 7.203 6.791 33.479 29.649 41.365 36.496 1.358 1.177 1.664 3.25.72 4.81l-2.32 3.812c-.522.859-1.34 1.448-2.302 1.644a3.39 3.39 0 0 1-2.725-.579c-4.038-2.887-14.424-9.939-23.623-13.022-8.102-2.718-13.228-6.763-15.845-9.295-.036 1.196-.153 2.504-.287 3.681-.558 4.904-9.263 40.952-11.924 51.89-.468 2.018-2.185 3.363-4.128 3.363zm-19.226-76.196l.477.439c.081.065 7.787 7.081 17.086 12.994a2.62 2.62 0 0 1 1.16 1.718c.134.71-.009 1.42-.423 2.009-.836 1.205-3.57 6.184-3.57 19.672 0 12.798-1.556 27.958-2.23 33.89-.144 1.252.692 2.391 1.897 2.597l4.451.738c1.178.196 2.267-.551 2.554-1.738l11.87-51.619c.54-4.736.144-5.81.126-5.857l.504-.215 1.16-.971c.009.009.018.018.027.028.054.065 5.332 6.968 16.959 10.873 9.451 3.167 20.036 10.35 24.154 13.292.342.243.755.337 1.169.243.414-.084.764-.336.989-.71l2.32-3.811c.405-.672.279-1.56-.306-2.064l-41.419-36.552c-2.284-2.158-3.947-3.84-5.287-5.194-3.57-3.615-4.766-4.829-9.613-6.632l-23.821-8.632-33.622 6.343c-.612 1.298-2.221 5.81.782 12.769 7.455 17.244 31.788 6.764 32.031 6.661l.575-.271z"/></g><path d="M186.934 191.565l-13.75 5.334c-.503.196-.449.943.072 1.065 4.37 1.008 15.593 3.465 17.778 2.727 19.936-6.716 30.008-10.845 31.698-11.555.045-.019.027-.093-.027-.084l-35.771 2.513z" class="C"/><path d="M189.793 201.868c-3.489 0-10.781-1.495-16.77-2.877-.675-.159-1.16-.738-1.205-1.458s.359-1.373 1.007-1.625l14.037-5.399 36.635-2.578.45 1.793-.828.383c-1.825.757-11.906 4.886-31.77 11.583-.36.131-.89.178-1.556.178zm-14.729-4.568c8.354 1.877 14.415 2.811 15.656 2.391 12.013-4.045 20.43-7.146 25.592-9.135l-29.162 2.055-12.086 4.689z" class="B"/><path d="M208.651 150.285s6.897 9.033 13.147 12.564c6.24 3.531 3.246-11.079 3.246-11.079l-8.525-11.452s-3.057-3.335-3.255-3.316c-.198.028-6.142.513-6.142.513l-1.852 6.819 3.381 5.951z" class="C"/><path d="M223.515 164.448c-.603 0-1.331-.178-2.203-.673-6.349-3.587-13.165-12.461-13.453-12.835l-.081-.121-3.606-6.343 2.158-7.958.711-.057 6.106-.504c.557-.084.701-.084 4.109 3.634l8.741 11.723.045.234c.342 1.681 1.915 10.163-.917 12.358-.378.29-.9.542-1.61.542zm-14.019-14.769c.584.757 7.05 8.996 12.787 12.237.531.299 1.241.598 1.628.299 1.295-.999.881-6.464.188-9.995l-8.389-11.265c-.981-1.065-2.222-2.373-2.752-2.877l-5.054.42-1.547 5.679 3.139 5.502z" class="B"/><path d="M178.418 124.259c-3.731.607-7.247 2.186-10.233 4.596-3.165 2.56-7.275 6.231-10.647 10.406-6.448 7.968-9.37 23.391-9.37 23.391s1.259 7.304 12.643 7.706l3.121-5.278s3.183 5.885 2.796 13.797-1.654 10.164-1.654 10.164v4.082c0 1.718 1.295 3.129 2.949 3.204 6.906.28 24.585-.411 37.966-13.19 0 0-.611-6.716 0-17.244.495-8.603-.027-14.133-.998-17.664-.171-.626.575-1.084 1.034-.626l2.653 2.662s-1.511-10.752 8.453-14.199c0 0-13.408-16.3-27.409-13.656l-11.304 1.849z" class="D"/><g class="B"><path d="M170.235 197.44a54.24 54.24 0 0 1-2.275-.047c-2.203-.093-3.921-1.962-3.921-4.25v-4.372l.135-.243c.009-.009 1.151-2.279 1.52-9.686.252-5.045-1.034-9.276-1.906-11.509l-2.437 4.12-.594-.019c-12.059-.43-13.551-8.248-13.605-8.575l-.036-.196.036-.197c.125-.644 3.057-15.777 9.594-23.866 3.507-4.335 7.815-8.136 10.8-10.556 3.094-2.513 6.799-4.175 10.692-4.81l11.277-1.85c14.397-2.718 27.777 13.33 28.335 14.021l.98 1.186-1.403.486c-9.01 3.12-7.823 12.648-7.76 13.05l.413 3.045-3.776-3.802c.863 4.064 1.088 9.631.692 16.59-.593 10.303-.009 17.02 0 17.085l.045.523-.369.355c-12.373 11.807-28.281 13.517-36.437 13.517zm-4.163-8.146v3.84c0 1.158.863 2.101 1.969 2.148 6.78.28 23.839-.402 36.878-12.564-.126-1.793-.477-7.94.036-16.879.44-7.567.117-13.396-.962-17.31-.207-.747.089-1.513.728-1.905.647-.402 1.448-.308 1.987.233l.891.897c.215-3.419 1.537-9.238 7.742-12.097-3.291-3.559-14.307-14.301-25.467-12.199l-11.303 1.849c-3.561.579-6.933 2.102-9.766 4.391-2.913 2.363-7.104 6.053-10.494 10.247-5.8 7.174-8.731 20.812-9.109 22.699.27 1.027 2.05 6.109 11.052 6.642l3.704-6.278.846 1.56c.135.252 3.327 6.24 2.922 14.367-.324 6.716-1.277 9.509-1.654 10.359z"/><path d="M186.016 146.438c-1.178 0-2.41-.131-3.705-.392-9.244-1.859-15.718-15.357-15.988-15.927l1.825-.934c.063.131 6.304 13.124 14.55 14.787 3.714.747 6.861.299 9.082-1.299 1.718-1.233 2.833-3.138 3.229-5.52l2.005.355c-.486 2.952-1.897 5.334-4.074 6.903-1.87 1.336-4.226 2.027-6.924 2.027zm9.47-11.967c-.09-6.221-3.238-11.358-3.274-11.414l1.709-1.14c.144.234 3.498 5.707 3.597 12.526l-2.032.028zm-30.647 31.079l-1.825-.925c.018-.028 1.448-3.12 2.194-6.856l1.987.429c-.8 4.017-2.293 7.221-2.356 7.352zm2.374-9.387l-2.023-.14c.18-2.849 0-4.961 0-4.979l2.023-.187c0 .103.18 2.289 0 5.306zm39.235-6.634c-4.29-3.989-5.369-7.576-5.414-7.725l1.942-.617c.009.028.999 3.213 4.829 6.772l-1.357 1.57z"/><path d="M203.983 148.494c-.368-1.598-1.618-3.895-1.627-3.914l1.762-1.046c.054.102 1.403 2.578 1.835 4.465l-1.97.495zm-29.832-17.455l-4.612 2.491.937 1.873 4.612-2.49-.937-1.874zm3.825 5.13l-3.989 3.314 1.27 1.649 3.989-3.315-1.27-1.648zm12.89 1.465l-1.585 1.321 3.36 4.35 1.585-1.321-3.36-4.35zM161.8 103.523s-1.331 6.716 4.2 12.367 11.114-5.539 11.114-5.539l-10.494-7.977-4.82 1.149z"/><path d="M169.291 118.545c-1.421 0-2.77-.635-4.002-1.896-5.854-5.979-4.541-13.031-4.478-13.33l.135-.663 5.908-1.411 11.573 8.799-.405.804c-.144.28-3.498 6.912-7.913 7.632a6.21 6.21 0 0 1-.818.065zm-6.583-14.152c-.153 1.728-.135 6.52 4.002 10.752.998 1.018 2.005 1.429 3.075 1.251 2.464-.401 4.874-3.773 6.007-5.735l-9.388-7.137-3.696.869zm27.445-12.012s5.081 3.979 4.811 12.041c-.27 8.052-10.521 1.943-10.521 1.943l4.487-10.93 1.223-3.055z"/><path d="M191.178 109.634c-3.156 0-6.735-2.064-7.23-2.363l-.782-.467 6.555-16.095 1.052.822c.225.177 5.504 4.409 5.216 12.919-.072 2.214-.827 3.755-2.248 4.567-.764.44-1.646.617-2.563.617zm-5.431-3.755c1.834.934 5.278 2.298 7.005 1.298.755-.439 1.151-1.354 1.205-2.793.171-5.277-2.068-8.64-3.426-10.181l-.657 1.644-4.127 10.032z"/></g><path d="M173.158 117.603s1.43 3.288.27 10.387c-.162.981-.009 1.99.486 2.849 1.888 3.232 7.086 10.92 12.985 9.248 4.127-1.168 4.991-4.353 4.946-6.95-.027-1.719-.594-3.363-1.385-4.876-.702-1.326-1.529-3.858-.693-7.594 1.304-5.82-8.201-9.062-8.201-9.062l-8.408 5.998z" class="C"/><path d="M185.217 141.375c-5.666 0-10.306-6.809-12.167-9.995-.612-1.037-.827-2.307-.621-3.568 1.08-6.614-.179-9.752-.197-9.78l-.333-.794.683-.495 8.813-6.296.477.159c.422.149 10.368 3.624 8.875 10.303-.737 3.316-.081 5.558.594 6.847.971 1.85 1.483 3.652 1.51 5.362.072 4.091-1.951 6.922-5.692 7.986-.656.178-1.304.271-1.942.271zm-10.854-23.353c.387 1.458.944 4.774.063 10.136-.126.766 0 1.513.359 2.12 1.43 2.447 6.484 10.294 11.844 8.781 2.841-.804 4.253-2.793 4.199-5.913-.027-1.383-.441-2.821-1.268-4.391-.854-1.616-1.681-4.371-.791-8.341.926-4.148-5.297-6.941-7.068-7.651l-7.338 5.259z" class="B"/><path d="M176.934 120.076a28.96 28.96 0 0 1-3.939-2.606l-1.097-.859c-.161-.131-.377-.141-.566-.047-.549.252-1.889.439-3.759-2.149-1.888-2.615-.917-3.96-.333-4.455a.56.56 0 0 0 .135-.645c-.665-1.41-2.706-6.137-1.699-9.472 1.187-3.951 5.233-9.752 13.075-9.257s10.692 2.466 12.598 7.772c.036.14 2.967 11.041 1.106 21.354-.279 1.56-1.466 2.793-2.976 3.036a17.61 17.61 0 0 1-3.364.196c-.818-.028-1.726-.168-2.643-.374a22.82 22.82 0 0 1-2.249-.616c-.683-.234-3.551-1.467-4.289-1.878z" class="C"/><g class="B"><path d="M186.763 124c-.225 0-.449 0-.683-.009-.81-.028-1.763-.159-2.824-.392l-2.347-.645.612-2.008c.71.233 1.429.429 2.158.588.944.206 1.78.327 2.464.346 1.115.037 2.194-.028 3.174-.187 1.07-.168 1.924-1.046 2.131-2.186 1.772-9.873-.971-20.419-1.088-20.859-1.583-4.418-3.66-6.511-11.681-7.015-9.073-.561-11.762 7.585-12.041 8.519-.71 2.354.387 6.025 1.646 8.688a1.62 1.62 0 0 1-.396 1.924c-.854.728-.198 2.036.504 3.008 1.196 1.662 2.113 2.017 2.535 1.821a1.53 1.53 0 0 1 1.592.168l1.097.86a27.58 27.58 0 0 0 3.795 2.512l-.944 1.869c-1.394-.766-2.77-1.672-4.074-2.7l-.881-.691c-.962.336-2.68.28-4.748-2.578-2.167-2.999-1.16-4.839-.459-5.614-.944-2.074-2.616-6.502-1.591-9.902 1.196-3.97 5.548-10.527 14.1-9.995 8.093.514 11.375 2.56 13.488 8.454.153.561 3.022 11.564 1.161 21.914-.36 2.018-1.898 3.578-3.822 3.886-.918.149-1.88.224-2.878.224z"/><path d="M162.448 105.008c-2.284-4.54-2.194-10.088.314-14.507.729-1.27 1.682-2.503 2.932-3.484 4.964-3.849 12.095-3.195 12.095-3.195s2.85-2.326 9.388 1.784 7.365 12.34 5.108 17.422l-3.283-3.737a.41.41 0 0 0-.584-.047c-.944.784-4.029 3.091-8.696 3.727-.234.028-.431-.197-.369-.43l1.017-3.942c.036-.131-.117-.234-.216-.131-1.088 1.196-4.658 4.204-10.692.766 0 0-1.862 3.195-.387 7.015.504 1.299.594 2.719.423 4.101-.063.477-.558.747-.962.505-1.511-.916-4.694-3.074-6.088-5.848z"/><path d="M168.868 111.997c-.288 0-.575-.075-.827-.234-1.79-1.074-5.009-3.307-6.493-6.268-2.455-4.885-2.329-10.836.342-15.525.881-1.551 1.96-2.83 3.201-3.793 4.631-3.596 10.881-3.512 12.446-3.428 1.061-.607 4.298-1.737 10.17 1.962 6.772 4.26 8.12 12.882 5.504 18.766l-.639 1.439-3.957-4.493c-1.42 1.093-4.442 3.008-8.758 3.596-.432.056-.89-.112-1.187-.467s-.405-.831-.297-1.28l.36-1.391c-1.889 1.027-4.838 1.7-8.786-.215-.377 1.074-.773 3.008.072 5.184.531 1.364.693 2.971.486 4.633-.072.579-.414 1.075-.917 1.336-.216.122-.468.178-.72.178zm7.743-27.155c-2.114 0-6.826.327-10.306 3.026-1.025.794-1.924 1.868-2.67 3.176-2.311 4.073-2.428 9.239-.288 13.48 1.151 2.279 3.741 4.166 5.206 5.1.063-1.093-.071-2.111-.413-2.989-1.646-4.26.377-7.809.467-7.959l.504-.859.854.486c5.315 3.027 8.39.616 9.469-.561l.54-.598.836.374c.459.262.683.822.558 1.345l-.747 2.896c3.876-.776 6.439-2.709 7.176-3.335a1.41 1.41 0 0 1 1.969.159l2.168 2.456c1.214-4.399.413-10.957-5.261-14.525-5.728-3.596-8.237-1.859-8.255-1.84l-.306.224-.395-.019c-.027 0-.432-.037-1.106-.037z"/></g><path d="M164.804 109.437c-2.015-1.504-3.202-3.83-3.256-3.933l1.799-.981c.009.019 1.034 1.999 2.644 3.204l-1.187 1.71zm6.133-12.125l-2.023-.131c.009-.15.251-3.596 3.606-5.707l1.052 1.803c-2.464 1.551-2.635 4.017-2.635 4.035zm4.981-5.735l-.53-2.036c.998-.28 4.02-1.439 4.757-2.989a1.48 1.48 0 0 0 .036-1.252l1.888-.785c.387 1 .351 2.036-.108 2.98-1.286 2.672-5.557 3.942-6.043 4.082zm17.473 9.668l-1.394-1.542.692.766-.701-.766c.018-.019 1.583-1.635 1.978-5.025l2.015.252c-.486 4.213-2.509 6.23-2.59 6.315z" class="D"/><path d="M171.79 117.527l-1.061-1.803c.027-.019.603-.43.801-1.626l2.005.364c-.369 2.158-1.601 2.971-1.745 3.065z" class="B"/><path d="M217.103 155.535c1.25 2.802 2.365 5.016 3.13 6.006 3.219 4.157 10.152.505 8.686-6.8-1.178-5.866-9.586-21.961-12.859-28.089-.836-1.569-2.05-2.896-3.525-3.839l-3.471-2.233c-.746-.476-1.601-.766-2.482-.822l-3.939.505-8.659-1.299a8.51 8.51 0 0 0-4.101.785c-1.43.663-2.653 1.709-3.561 3.036l-4.703 6.865c-1.232 4.101 3.489 2.317 3.489 2.317s.243-.243.657-.635c0 0 1.726.794 2.518-.318s2.544-3.755 2.544-3.755c1.484-.943 5.702.617 6.745.617 2.383 0 3.741-.598 6.061-.86 1.214-.14 1.753.477 2.383 1.57l1.483 2.596c.09.159.171.327.234.505.441 1.205 4.856 12.246 7.131 18.103l2.239 5.745z" class="C"/><g class="B"><path d="M223.649 164.355c-1.6 0-3.12-.748-4.208-2.149-.764-.981-1.825-3.017-3.255-6.221l1.843-.888c1.673 3.746 2.554 5.213 2.995 5.792 1.268 1.635 3.03 1.569 4.262.962 1.691-.831 3.39-3.129 2.635-6.884-1.169-5.82-10.054-22.746-12.751-27.8-.756-1.41-1.853-2.606-3.175-3.456l-3.471-2.233c-.575-.373-1.241-.598-1.915-.663l-3.966.514-8.794-1.317c-1.178-.075-2.41.177-3.543.7a7.87 7.87 0 0 0-3.148 2.681l-4.604 6.726c-.189.701-.099.99-.045 1.046.252.243 1.286.14 2.077-.121l.513-.495.495-.467.611.28c.261.112 1.052.345 1.286.019a213.36 213.36 0 0 0 2.491-3.681l.126-.187.216-.168c1.286-.813 3.399-.402 5.827.168.548.131 1.241.29 1.438.29 1.331 0 2.303-.196 3.418-.43.764-.159 1.564-.317 2.526-.43 1.907-.214 2.725.963 3.364 2.084l1.483 2.596a3.66 3.66 0 0 1 .306.664c.216.588 1.439 3.68 2.86 7.258l4.271 10.826-1.879.794-4.263-10.817-2.877-7.314a5.55 5.55 0 0 0-.153-.336l-1.475-2.597c-.593-1.046-.836-1.121-1.394-1.056-.881.094-1.627.252-2.356.402-1.124.233-2.284.467-3.813.467-.413 0-.953-.121-1.888-.346-1.106-.261-3.336-.784-4.172-.495l-2.41 3.559c-.801 1.131-2.114 1.149-3.085.888l-.198.196-.152.159-.207.074c-.495.187-3.04 1.056-4.362-.271-.737-.737-.89-1.868-.44-3.353l.144-.299 4.703-6.866c1.007-1.476 2.383-2.643 3.974-3.381a9.67 9.67 0 0 1 4.577-.878l8.615 1.289 3.894-.505.099.01c1.043.074 2.059.411 2.94.98l3.471 2.233c1.619 1.037 2.959 2.503 3.876 4.222 3.498 6.558 11.771 22.447 12.967 28.388.926 4.634-1.223 7.968-3.759 9.22-.863.421-1.717.617-2.545.617z"/><path d="M202.993 126.999s.828-1.877.243-4.063c-.584-2.177-2.05-3.989-2.05-3.989s-1.043-2.83 2.257-2.335 5.36-.084 4.766 2.335c-.584 2.42-.818 2.625-2.949 2.42 0 0 2.419 1.69 0 6.324.009.009-1.43 2.101-2.267-.692z"/><path d="M204.163 129.502c-.09 0-.189-.009-.279-.019-.845-.14-1.466-.868-1.852-2.167l-.117-.383.162-.364c.018-.056.656-1.607.188-3.335-.521-1.924-1.843-3.587-1.852-3.596l-.171-.299c-.063-.178-.602-1.747.279-2.886.611-.795 1.655-1.084 3.075-.869l2.024.215c1.501.121 2.697.214 3.345 1.149.396.569.476 1.307.243 2.27-.477 1.952-.9 2.886-2.087 3.166.414 1.243.45 3.129-.953 5.82-.216.308-.953 1.298-2.005 1.298zm-.09-2.485c.054.141.108.243.144.309.072-.066.162-.159.225-.243 1.834-3.531.305-4.792.233-4.839l-.818-.635c.135.336.252.7.351 1.065.521 1.877.117 3.577-.135 4.343zm-.899-6.893l2.185.196c1.439.14 1.448.14 1.87-1.626.099-.411.063-.551.063-.551-.162-.112-1.133-.187-1.834-.243l-2.158-.233c-.828-.122-1.151.028-1.205.103-.09.112-.054.457 0 .682.215.27.638.868 1.079 1.672z"/></g><path d="M205.97 121.319c-1.636 0-2.94-.383-3.012-.402l.557-2.027c.018.009 2.185.635 4.164.122l.494 2.045c-.746.196-1.501.262-2.203.262z" class="D"/><path d="M187.42 190.855l-13.75 5.334c-.503.196-.458.943.063 1.065 4.371 1.009 15.593 3.475 17.787 2.727 2.734-.934 17.14-10.957 17.14-10.957l-21.24 1.831z" class="C"/><path d="M190.279 201.159c-3.489 0-10.773-1.495-16.771-2.877-.674-.159-1.16-.738-1.205-1.457s.36-1.374 1.007-1.626l14.02-5.399 25.142-2.158-3.255 2.261c-1.484 1.037-14.604 10.126-17.382 11.079-.351.13-.882.177-1.556.177zm-14.73-4.568c8.354 1.878 14.424 2.812 15.656 2.391 1.682-.569 8.732-5.249 13.588-8.556l-17.149 1.476-12.095 4.689z" class="B"/><path d="M194.784 185.446c-3.983-2.569-5.557-3.083-5.557-3.083l.171-.476a4.22 4.22 0 0 1 3.489.168l1.61.832c.476.242.89-.766.908-1.318.054-1.345-.675-2.587-1.844-3.166l-1.402-.692a4.17 4.17 0 0 0-2.806-.317l-8.956 2.092s-13.543 1.355-21.744 5.138l-1.484.224 3.642-14.488c-7.374-1.252-10.584-4.428-11.87-6.287l-.198.14s-2.068 7.707-4.28 18.795c-1.538 7.707-.935 13.321-.432 16.03.234 1.242 1.232 2.185 2.446 2.223 1.889.056 5.189-.495 10.225-3.382 6.96-3.998 14.225-6.866 16.878-7.865.684-.252 1.385-.411 2.104-.476 1.385-.122 2.77.13 4.038.719l3.264 1.522a12.74 12.74 0 0 0 2.455.85l2.275.524a12.36 12.36 0 0 0 6.862-.383l2.517-.888c1.133-.401 1.664-1.756 1.097-2.849-.566-1.074-1.573-2.401-3.408-3.587z" class="C"/><g class="B"><path d="M146.711 202.326h-.27c-1.681-.047-3.084-1.317-3.417-3.073-.521-2.747-1.151-8.538.432-16.45 2.194-10.995 4.28-18.785 4.298-18.86l.099-.374 1.331-.934.576.832c1.151 1.672 4.145 4.661 11.213 5.866l1.106.187-.288 1.13-3.246 12.891c8.273-3.709 21.204-5.035 21.753-5.091l8.83-2.074c1.16-.271 2.383-.131 3.462.402l1.403.691c1.538.757 2.491 2.391 2.428 4.157-.027.598-.333 1.709-1.079 2.167-.297.187-.63.243-.953.177l.926.589c1.7 1.093 2.967 2.438 3.768 3.998.404.794.458 1.728.135 2.559-.324.841-.981 1.495-1.808 1.785l-2.509.887c-2.383.841-4.945.981-7.409.42l-2.275-.523c-.909-.205-1.808-.513-2.653-.915l-3.264-1.523a7.02 7.02 0 0 0-3.534-.626 7.2 7.2 0 0 0-1.844.411c-2.743 1.037-9.874 3.868-16.735 7.8-5.018 2.859-8.426 3.494-10.476 3.494zm2.581-36.197c-.719 2.821-2.248 9.107-3.849 17.104-1.511 7.547-.917 13.021-.422 15.618.143.785.755 1.345 1.474 1.373 1.79.056 4.865-.476 9.703-3.251 6.987-4.007 14.235-6.884 17.023-7.93.755-.28 1.555-.467 2.374-.533a8.85 8.85 0 0 1 4.532.813l3.264 1.523a11.4 11.4 0 0 0 2.257.775l2.275.523a11.27 11.27 0 0 0 6.313-.355l2.518-.887a.99.99 0 0 0 .575-.561.97.97 0 0 0-.045-.784c-.629-1.224-1.654-2.298-3.039-3.195-3.759-2.429-5.315-2.971-5.333-2.971l-1.016-.345.711-1.953.422-.168c1.394-.56 2.968-.476 4.299.215l1.034.533c.009-.047.018-.085.018-.122.036-.925-.459-1.775-1.268-2.167l-1.403-.691c-.665-.327-1.43-.411-2.149-.243l-8.957 2.092c-.26.038-13.596 1.401-21.554 5.073l-.27.084-2.986.448.369-1.532 3.363-13.395c-5.404-1.14-8.507-3.316-10.233-5.091z"/><path d="M155.073 187.362l-1.726-1.111c.045-.075 1.106-1.831 3.588-2.42l.449 2.055c-1.609.383-2.284 1.43-2.311 1.476z"/></g><path d="M189.785 199.336l10.323-27.688c.504-1.364 1.565-2.428 2.887-2.914l31.536-11.565c.558-.205 1.088.365.872.934l-10.692 28.641c-.521 1.401-1.618 2.475-2.985 2.942l-31.078 10.584c-.557.196-1.07-.365-.863-.934z" class="C"/><path d="M190.424 201.373c-.459 0-.9-.197-1.232-.552a1.8 1.8 0 0 1-.351-1.858l10.323-27.688c.621-1.653 1.889-2.933 3.498-3.521l31.537-11.565c.638-.233 1.321-.065 1.798.439.468.505.611 1.224.36 1.878l-10.692 28.64c-.639 1.7-1.952 2.999-3.624 3.568l-31.078 10.584c-.18.047-.36.075-.539.075zm43.784-42.951l-30.862 11.321c-1.053.383-1.88 1.224-2.275 2.298l-10.072 27.024 30.421-10.359c1.088-.374 1.943-1.214 2.356-2.326l10.432-27.958z" class="B"/><path d="M215.377 180.727c-1.187 1.616-2.842 2.373-3.696 1.701s-.576-2.532.62-4.148c1.187-1.616 2.842-2.373 3.696-1.7.846.672.567 2.531-.62 4.147z" class="D"/><path d="M212.436 183.728c-.512 0-.98-.15-1.376-.467-.71-.561-1.016-1.56-.845-2.718.144-.953.594-1.99 1.277-2.905.675-.916 1.52-1.644 2.365-2.027 1.034-.477 2.041-.43 2.752.14.71.56 1.016 1.55.845 2.718-.144.953-.593 1.99-1.268 2.905-1.124 1.504-2.545 2.354-3.75 2.354zm2.797-6.343c-.117 0-.306.038-.549.15-.539.243-1.115.756-1.573 1.382-.468.635-.792 1.345-.882 1.943-.062.449.018.682.072.729.189.149 1.259-.14 2.276-1.504.467-.635.782-1.345.872-1.943.063-.448-.018-.682-.072-.719-.027-.019-.072-.038-.144-.038z" class="B"/><path d="M239.584 230.882l-2.005-.327c0-.018.333-2.279-.279-4.951l1.978-.485c.711 3.092.324 5.66.306 5.763zm-3.795-9.015c-1.546-2.448-6.051-8.015-14.396-6.969-6.097.766-15.746 2.41-15.845 2.429l-.333-2.083c.099-.019 9.793-1.672 15.926-2.438 9.478-1.187 14.586 5.137 16.33 7.912l-1.682 1.149zm-64.691-12.778c-.144 0-.234-.009-.243-.009l.153-2.102c.225.019 5.719.327 7.203-7.071l1.987.429c-1.654 8.305-7.796 8.753-9.1 8.753zm45.04-15.16l-15.003 5.376.662 1.996 15.004-5.377-.663-1.995zm64.329 51.333l-4.271 6.63 1.689 1.174 4.271-6.63-1.689-1.174zm-63.827 37.732l-.27 2.092 7.781 1.083.27-2.093-7.781-1.082zm44.64-54.817l-1.28 1.64 16.381 13.794 1.28-1.64-16.381-13.794zm-35.13 42.201l-2.023 9.944 1.989.436 2.022-9.943-1.988-.437zm-3.669-68.463l-1.61-1.289c.135-.178 3.327-4.353 9.226-3.158l-.387 2.074c-4.703-.953-7.202 2.345-7.229 2.373z" class="D"/><path d="M296.758 257.757c-1.259 0-2.194-.196-2.275-.215l.414-2.064c.036.009 3.722.766 5.773-.99.962-.822 1.429-2.083 1.411-3.839l2.033-.019c.018 2.41-.711 4.259-2.158 5.492-1.565 1.327-3.633 1.635-5.198 1.635z" class="B"/><path d="M196.016 164.943l-.647-1.999 3.075-1.084.648 1.999-3.076 1.084zm-2.634-.888l.863-.551-.863.551c-.423-.663-1.044-1.756-1.601-3.166l1.879-.804a16.55 16.55 0 0 0 1.412 2.803l-1.69 1.167zm7.571-1.849l-1.933-.645c.288-.915.458-1.943.53-3.064l2.024.14c-.072 1.29-.288 2.485-.621 3.569zm-9.748-2.999c-.341-1.139-.575-2.316-.71-3.484l2.014-.243c.117 1.046.324 2.093.63 3.111l-1.934.616zm8.381-2.298c-.027-1.027-.126-2.111-.314-3.204l2.005-.355a25.37 25.37 0 0 1 .342 3.503l-2.033.056zm-6.951-1.756l-.881-1.905.144-.066 2.958-1.177.729 1.971-2.95 1.177zm4.469-1.784l-.728-1.971 1.754-.701c.791-.317 1.735-.121 2.347.496l-1.412 1.513-.207-.038-1.754.701z" class="C"/><path d="M159.3 166.111c-7.517-2.056-10.584-8.239-10.71-8.501l1.817-.953c.027.056 2.814 5.605 9.415 7.408l-.522 2.046z" class="B"/><path d="M226.294 235.31c-2.68-.439-4.721-1.952-4.811-2.008l1.187-1.71c.018.01 1.744 1.28 3.939 1.644l-.315 2.074z" class="D"/><path d="M97.693 200.728l14.19 8.491 14.109-8.267-14.055-8.603-14.244 8.379z" class="C"/><path d="M111.874 210.434l-16.222-9.705 16.303-9.594 16.07 9.837-16.151 9.462zm-12.13-9.696l12.139 7.268 12.068-7.072-12.023-7.361-12.184 7.165z" class="B"/><path d="M115.184 132.304l14.181 8.491 14.109-8.276-14.046-8.594-14.244 8.379z" class="C"/><path d="M129.356 142.01l-16.231-9.706 16.303-9.593 16.069 9.836-16.141 9.463zm-12.131-9.696l12.14 7.267 12.068-7.071-12.023-7.361-12.185 7.165z" class="B"/><path d="M43.856 156.049l14.181 8.482 14.109-8.267-14.046-8.603-14.244 8.388z" class="C"/><path d="M58.028 165.746l-16.222-9.705 16.303-9.594 16.069 9.837-16.15 9.462zm-12.131-9.696l12.14 7.268 12.068-7.072-12.023-7.361-12.185 7.165z" class="B"/><path d="M127.818 197.105l-14.838-.233 1.934 9.107s.692 1.383 1.6 1.915c2.222 1.327 5.819 1.327 8.04 0 .899-.542 1.6-1.915 1.6-1.915l1.664-8.874z" class="D"/><path d="M120.525 209.949c-1.628 0-3.255-.383-4.523-1.14-1.124-.672-1.907-2.176-1.988-2.344l-.09-.262-2.203-10.406 17.338.271-2.015 10.397c-.081.168-.863 1.672-1.987 2.344-1.277.757-2.905 1.14-4.532 1.14zm-4.658-4.353c.243.449.719 1.13 1.142 1.383 1.897 1.139 5.117 1.139 7.023 0 .423-.253.89-.925 1.142-1.374l1.412-7.472-12.338-.197 1.619 7.66z" class="B"/><path d="M129.31 194.067l.009-4.754c0-.15-.117-.271-.261-.271h-6.439a14.34 14.34 0 0 0-4.199 0h-6.43c-.144 0-.26.121-.26.271v4.754c-.045 1.887 1.564 3.793 4.891 4.83a13.09 13.09 0 0 0 7.806 0c3.318-1.037 4.937-2.943 4.883-4.83z" class="C"/><path d="M120.524 200.543c-1.421 0-2.842-.215-4.19-.636-3.579-1.121-5.675-3.306-5.612-5.866v-4.727c0-.728.576-1.326 1.277-1.326h6.43c1.322-.206 2.877-.206 4.343.009l6.304-.009c.342 0 .665.14.908.392s.369.589.369.944l-.009 4.736c.054 2.55-2.042 4.736-5.611 5.847-1.367.421-2.788.636-4.209.636zm-7.778-10.453v3.979c-.036 1.551 1.555 2.999 4.163 3.821a12.18 12.18 0 0 0 7.212 0c2.608-.813 4.208-2.27 4.172-3.793v-.028l.009-3.97h-5.683c-1.421-.196-2.778-.196-4.055-.009h-5.818z" class="B"/><path d="M126.748 185.138c3.435 2.064 3.435 5.409 0 7.464-3.435 2.064-9.01 2.064-12.454 0s-3.435-5.409 0-7.464 9.019-2.064 12.454 0z" class="D"/><g class="B"><path d="M120.525 195.217c-2.419 0-4.847-.569-6.735-1.7-1.988-1.195-3.085-2.839-3.085-4.642s1.097-3.456 3.085-4.643c3.776-2.26 9.684-2.26 13.47 0 1.988 1.196 3.085 2.84 3.085 4.643s-1.097 3.456-3.085 4.642c-1.897 1.131-4.316 1.7-6.735 1.7zm0-10.564c-2.086 0-4.173.467-5.719 1.392-1.34.803-2.069 1.802-2.069 2.821s.738 2.017 2.069 2.821c3.093 1.858 8.336 1.858 11.438 0 1.331-.804 2.068-1.803 2.068-2.821s-.737-2.018-2.068-2.821c-1.556-.925-3.642-1.392-5.719-1.392z"/><path d="M126.765 189.49c-3.435-2.064-9.011-2.064-12.455 0-.737.439-1.303.944-1.726 1.476.431.598 1.043 1.149 1.852 1.635 3.435 2.064 9.011 2.064 12.455 0 .737-.439 1.304-.944 1.726-1.476-.431-.598-1.043-1.149-1.852-1.635z"/><path d="M120.659 195.217c-2.419 0-4.847-.569-6.735-1.7-.899-.542-1.628-1.186-2.158-1.924l-.477-.663.504-.635c.512-.654 1.187-1.233 2.005-1.719 3.777-2.261 9.685-2.261 13.471 0 .899.542 1.627 1.186 2.158 1.915l.477.663-.504.635c-.522.654-1.196 1.233-1.996 1.719-1.898 1.14-4.317 1.709-6.745 1.709zm-6.663-4.222c.27.252.594.477.953.701 3.103 1.859 8.336 1.859 11.439 0a7.44 7.44 0 0 0 .827-.589c-.27-.252-.594-.485-.953-.7-3.094-1.859-8.336-1.859-11.439 0a5.14 5.14 0 0 0-.827.588z"/></g><path d="M120.57 171.79s-4.766 1.205-4.766 8.874 4.766 8.874 4.766 8.874 4.766-1.205 4.766-8.874-4.766-8.874-4.766-8.874z" class="D"/><path d="M120.57 190.631l-.243-.065c-.225-.056-5.549-1.495-5.549-9.902s5.315-9.845 5.549-9.901l.243-.066.242.066c.225.056 5.549 1.494 5.549 9.901s-5.315 9.846-5.549 9.902l-.242.065zm0-17.729c-.882.364-3.75 1.989-3.75 7.762s2.868 7.408 3.75 7.763c.872-.355 3.749-1.98 3.749-7.763 0-5.763-2.868-7.398-3.749-7.762z" class="B"/><path d="M107.181 205.846c-.314 0-.566.28-.53.607l1.573 9.621c0 .991.927 1.981 2.788 2.457a6.36 6.36 0 0 0 3.138 0c1.862-.476 2.788-1.466 2.788-2.457l1.574-9.621c.027-.327-.216-.607-.531-.607h-10.8z" class="D"/><path d="M112.594 219.784c-.611 0-1.223-.074-1.816-.224-2.554-.654-3.507-2.148-3.561-3.372l-1.565-9.546c-.054-.524.09-.972.378-1.318.297-.336.71-.532 1.151-.532h10.809c.44 0 .854.196 1.151.532s.44.785.396 1.243l-1.574 9.621c-.054 1.224-1.007 2.718-3.561 3.372-.594.15-1.205.224-1.808.224zm-4.837-12.881l1.492 9.173c0 .439.63 1.074 2.015 1.429.872.224 1.789.224 2.652 0 1.385-.355 2.015-.99 2.015-1.429l.018-.178 1.474-8.995h-9.666z" class="B"/><path d="M112.585 209.443c3.312 0 5.998-1.61 5.998-3.597s-2.686-3.596-5.998-3.596-5.998 1.61-5.998 3.596 2.685 3.597 5.998 3.597z" class="D"/><path d="M112.585 210.499c-1.708 0-3.417-.402-4.748-1.196-1.457-.878-2.266-2.102-2.266-3.456s.8-2.579 2.266-3.457c2.662-1.597 6.834-1.597 9.496 0 1.457.878 2.266 2.102 2.266 3.457s-.8 2.578-2.266 3.456c-1.331.803-3.039 1.196-4.748 1.196zm.009-7.184c-1.358 0-2.725.299-3.732.906-.791.477-1.25 1.065-1.25 1.626s.459 1.158 1.25 1.625c2.024 1.214 5.441 1.214 7.464 0 .791-.476 1.25-1.065 1.25-1.625s-.459-1.159-1.25-1.626c-1.016-.607-2.374-.906-3.732-.906z" class="B"/><g class="C"><path d="M3.282 223.072c-1.807 0-3.282-1.532-3.282-3.41s1.475-3.409 3.282-3.409 3.282 1.532 3.282 3.409-1.475 3.41-3.282 3.41zm0-5.203c-.953 0-1.727.803-1.727 1.793s.773 1.794 1.727 1.794 1.727-.803 1.727-1.794c-.009-.99-.782-1.793-1.727-1.793zM215.045 80.544h-1.565v8.248h1.565v-8.248z"/><path d="M218.228 83.851h-7.94v1.625h7.94v-1.625zm1.78 15.171h-2.814c-1.034 0-1.88-.878-1.88-1.952v-2.924c0-1.074.846-1.952 1.88-1.952h2.814c1.035 0 1.88.878 1.88 1.952v2.924c0 1.084-.836 1.952-1.88 1.952zm-2.805-5.194c-.18 0-.315.15-.315.327v2.924c0 .178.144.327.315.327h2.814c.18 0 .315-.149.315-.327v-2.924c0-.177-.144-.327-.315-.327h-2.814z"/></g><g class="B"><path d="M235.153 95.95l9.814-6.589c.092-.06.104-.179.035-.262l-12.467-15.704c-.091-.119-.275-.072-.298.072l-1.986 9.556v.024l-.47 6.553c0 .048.011.095.045.131l5.109 6.172c.046.083.149.107.218.048z"/><path d="M235.061 97.095a1.19 1.19 0 0 1-.919-.429l-5.418-6.553v-.596l.471-6.541 2.158-10.402.781-.298c.447-.119.941.048 1.239.429l12.777 16.097-.035.632c-.057.358-.252.691-.551.882l-9.814 6.577c-.23.131-.46.203-.689.203zm-4.202-7.781l4.363 5.278 8.333-5.588-10.664-13.44-1.595 7.697-.437 6.053z"/></g><path d="M272.333 48.493l-46.857-28.084c-1.171-.703-2.239-.81-3.054-.453l-9.16 5.695c-.138.083-.172.286-.057.405l10.951 12.022c.046.048.069.107.069.179v19.85c0 3.169 2.158 7.042 4.798 8.627l6.991 4.182.493.715c.345 2.097 2.273 10.867 10.859 16.943.333.238.563-.107.333-.548-1.125-2.228-3.248-7.066-2.605-10.867l.769-.346 14.452 8.662c.046.036.092.083.115.131l6.038 16.717c.057.154.229.214.355.131l9.069-5.66c.769-.536 1.24-1.573 1.24-3.038V57.096c.011-3.134-2.158-7.018-4.799-8.603z" class="C"/><path d="M266.697 103.636a1.18 1.18 0 0 1-.447-.083l-.46-.179-.321-.631-5.935-16.431-13.488-8.078c-.183 3.408 1.711 7.578 2.583 9.318.356.691.253 1.454-.229 1.906-.448.417-1.114.441-1.653.06-8.541-6.053-10.745-14.572-11.273-17.42l-.218-.322-6.784-4.063c-2.985-1.787-5.326-6.005-5.326-9.58V38.616l-10.733-11.772a1.4 1.4 0 0 1-.345-1.132 1.39 1.39 0 0 1 .643-.989l9.149-5.683c1.309-.584 2.72-.405 4.132.441l46.858 28.084c2.985 1.787 5.326 6.005 5.326 9.58v36.663c0 1.787-.608 3.193-1.71 3.956l-9.114 5.696c-.196.119-.425.178-.655.178zm-20.765-28.012l15.267 9.151.241.524 5.682 15.74 8.23-5.136c.46-.322.724-1.072.724-2.097V57.144c0-2.776-1.952-6.291-4.271-7.673l-46.857-28.084c-.815-.489-1.573-.62-2.112-.393l-8.173 5.088 10.549 11.581.069.62v19.851c0 2.776 1.951 6.291 4.27 7.673l7.324 4.504.665 1.168c.253 1.489 1.711 8.519 7.909 14.203-1.01-2.586-1.882-5.838-1.4-8.662l.103-.584 1.78-.81z" class="B"/><path d="M263.139 54.391l-46.984-28.155c-2.583-1.549-4.672-.298-4.672 2.8v36.818c0 3.098 2.089 6.851 4.672 8.4l7.232 4.337c.172.107.321.346.367.572.31 1.966 2.193 10.867 10.871 17.015.333.238.562-.107.333-.548-1.171-2.3-3.398-7.399-2.526-11.26.046-.179.207-.238.391-.131l30.316 18.171c2.583 1.549 4.672.298 4.672-2.8V62.791c0-3.098-2.089-6.851-4.672-8.4z" fill="#01ffa9"/><g class="B"><path d="M265.228 104.184c-.827 0-1.722-.274-2.617-.822l-29.295-17.563c-.184 3.396 1.699 7.554 2.594 9.318.345.691.253 1.454-.229 1.906-.448.417-1.114.441-1.653.072-8.931-6.327-10.951-15.549-11.307-17.634l-7.094-4.254c-2.916-1.752-5.2-5.862-5.2-9.353V29.036c0-1.906.677-3.36 1.905-4.099 1.217-.739 2.778-.608 4.362.345l46.984 28.155c2.916 1.752 5.212 5.862 5.212 9.353v36.818c0 1.906-.678 3.36-1.894 4.099a3.55 3.55 0 0 1-1.768.476zM232.65 83.083a1.44 1.44 0 0 1 .712.203l30.316 18.171c.896.536 1.711.655 2.239.333s.838-1.108.838-2.18V62.791c0-2.693-1.894-6.101-4.144-7.447l-46.984-28.155c-.896-.536-1.711-.655-2.239-.346-.528.322-.838 1.12-.838 2.18v36.818c0 2.693 1.894 6.1 4.144 7.447l7.232 4.337c.448.274.792.786.884 1.346.241 1.501 1.665 8.543 7.921 14.274-1.068-2.741-1.975-6.196-1.309-9.127l.126-.548.62-.381c.138-.072.31-.107.482-.107z"/><path d="M272.903 48.831l-8.18 5.163 1.103 1.884 8.18-5.163-1.103-1.884zm-43.822-26.079l-8.181 5.163 1.104 1.883 8.18-5.162-1.103-1.884zm47.173 35.335l-9.018 5.931 1.137 1.862 9.017-5.931-1.136-1.862zm.889 6.016l-9.332 5.862v31.92l9.022-5.135.31-2.288V64.103zM225.834.055l-.836 10.628 2.116.182.837-10.628-2.117-.182zM215.468 0l-1.946.884 4.764 11.247 1.945-.884L215.468 0zM205.19 9.428l-1.044 1.919 8.584 5.036 1.045-1.919-8.585-5.036z"/></g><path d="M242.97 82.2c-.586 0-1.263-.226-2.032-.691-1.114-.667-1.998-1.537-2.629-2.586-.643-1.06-.964-2.24-.964-3.491 0-1.382.379-2.276 1.136-2.669.746-.381 1.722-.203 2.985.56 1.125.679 1.997 1.549 2.606 2.597.608 1.061.918 2.216.918 3.467 0 1.37-.402 2.264-1.182 2.645-.253.107-.528.167-.838.167zm-3.651-8.531c-.137 0-.264.024-.356.071-.459.238-.551 1.049-.551 1.68 0 1.049.276 2.026.804 2.907.54.894 1.297 1.644 2.261 2.216.838.5 1.493.667 1.906.465.379-.179.562-.727.562-1.644 0-1.037-.252-2.014-.769-2.895s-1.262-1.632-2.227-2.216c-.677-.381-1.239-.584-1.63-.584zm4.603-.596l-5.9-3.539v-1.942c0-1.37.241-2.371.735-3.074.505-.727 1.377-1.179 2.594-1.37.941-.143 1.389-.369 1.596-.536.08-.072.344-.274.344-1.001 0-.405-.161-.834-.494-1.287-.355-.489-.826-.906-1.4-1.251-1.492-.894-3.272-1.299-5.28-1.239l-.391.012-2.548-7.518.689-.059c2.72-.226 5.579.548 8.506 2.3 2.399 1.442 4.316 3.229 5.693 5.326 1.389 2.121 2.09 4.325 2.09 6.553 0 1.644-.345 2.919-1.011 3.777-.677.87-1.744 1.418-3.179 1.656-1.401.25-1.757.465-1.825.524-.138.119-.219.358-.219.727v1.942zm-4.844-4.182l3.777 2.264v-.012c0-.715.206-1.251.62-1.585.252-.203.734-.477 2.319-.751 1.17-.191 2.02-.62 2.525-1.263.516-.655.769-1.692.769-3.074 0-2.002-.643-4.004-1.917-5.934-1.286-1.954-3.076-3.634-5.349-4.992-2.491-1.489-4.89-2.252-7.198-2.192l1.826 5.386c2.089-.072 3.891.453 5.464 1.394.7.417 1.274.941 1.721 1.549.471.643.712 1.299.712 1.942 0 .846-.264 1.477-.769 1.883-.448.346-1.125.596-2.078.739-.918.143-1.561.453-1.894.929-.356.5-.528 1.311-.528 2.419v1.299z" class="C"/><path d="M235.853 66.638v-1.62c0-1.239.206-2.157.631-2.752s1.171-.977 2.239-1.144c.849-.131 1.469-.346 1.836-.643.379-.298.563-.774.563-1.442 0-.524-.195-1.072-.597-1.62s-.919-1.013-1.561-1.394c-1.585-.953-3.444-1.394-5.568-1.311l-2.192-6.458c2.617-.215 5.349.524 8.196 2.228 2.342 1.406 4.19 3.122 5.521 5.159s1.998 4.123 1.998 6.243c0 1.525-.299 2.669-.896 3.432s-1.538 1.251-2.847 1.466c-1.102.191-1.79.405-2.077.643-.276.226-.414.62-.414 1.156v.965l-4.832-2.907zm-.677 6.208c0-1.156.275-1.883.837-2.18s1.389-.107 2.48.548c1.056.632 1.86 1.43 2.422 2.407s.838 2.037.838 3.181-.287 1.859-.872 2.145-1.378.119-2.388-.489c-1.045-.62-1.86-1.418-2.445-2.395-.586-.989-.872-2.061-.872-3.217z" class="B"/></svg>