<svg width="300" height="350" viewBox="0 0 300 350" fill="none" xmlns="http://www.w3.org/2000/svg">
<g clip-path="url(#clip0_7525_28105)">
<path d="M84.3748 270.558L92.8097 270.733C92.9561 270.739 93.1026 270.698 93.2314 270.622L125.53 251.977C127.51 250.835 130.509 250.712 132.225 251.702L205.485 293.999C205.532 294.029 205.579 294.046 205.632 294.064L229.952 302.235C230.286 302.346 230.509 302.657 230.509 303.008L230.503 309.118C230.714 309.979 230.169 310.939 228.916 311.666L188.545 334.973C186.566 336.115 183.566 336.238 181.85 335.248L84.6853 279.145C83.9004 278.694 83.543 278.084 83.5489 277.446V271.366C83.5489 270.915 83.9238 270.546 84.3748 270.558Z" fill="black"/>
<path d="M181.464 335.916L84.2985 279.818C83.3028 279.244 82.7639 278.401 82.7756 277.452V271.372C82.7756 270.944 82.9454 270.54 83.25 270.241C83.5605 269.942 83.9178 269.737 84.3923 269.79L92.8506 269.96L125.149 251.315C127.381 250.027 130.655 249.91 132.617 251.04L205.884 293.337L230.204 301.509C230.848 301.725 231.288 302.329 231.288 303.014L231.282 309.042C231.522 310.254 230.79 311.484 229.308 312.339L188.932 335.635C187.725 336.332 186.214 336.689 184.767 336.689C183.543 336.689 182.366 336.437 181.464 335.916ZM125.922 252.645L93.6296 271.29C93.3836 271.436 93.1376 271.547 92.8037 271.501L84.3688 271.325L84.3864 270.552L84.3278 277.452C84.322 277.932 84.732 278.272 85.0776 278.471L182.243 334.569C183.713 335.424 186.425 335.295 188.165 334.293L228.535 310.986C229.419 310.477 229.888 309.826 229.759 309.288L229.712 302.956L205.392 294.784C205.292 294.749 205.198 294.708 205.105 294.655L131.844 252.358C131.188 251.977 130.286 251.796 129.331 251.796C128.148 251.802 126.883 252.089 125.922 252.645Z" fill="black"/>
<path d="M84.6836 272.449L181.849 328.547C183.565 329.537 186.564 329.414 188.544 328.272L228.914 304.965C230.894 303.822 231.11 302.089 229.394 301.099L132.229 245.001C130.513 244.011 127.514 244.134 125.534 245.276L85.1639 268.583C83.184 269.731 82.9673 271.459 84.6836 272.449Z" fill="white"/>
<path d="M181.463 329.215L84.2983 273.117C83.3026 272.543 82.752 271.711 82.752 270.768C82.752 269.696 83.49 268.654 84.7787 267.916L125.149 244.608C127.375 243.326 130.655 243.203 132.617 244.333L229.782 300.431C230.778 301.005 231.329 301.837 231.329 302.78C231.329 303.852 230.591 304.894 229.302 305.632L188.932 328.939C187.725 329.637 186.214 329.994 184.767 329.994C183.543 329.994 182.365 329.736 181.463 329.215ZM125.922 245.944L85.5519 269.251C84.7669 269.702 84.2983 270.27 84.2983 270.768C84.2983 271.231 84.7201 271.577 85.0715 271.776L182.236 327.873C183.713 328.723 186.425 328.6 188.158 327.598L228.529 304.291C229.314 303.84 229.782 303.272 229.782 302.774C229.782 302.311 229.36 301.965 229.009 301.766L131.844 245.669C131.188 245.288 130.286 245.106 129.331 245.106C128.148 245.106 126.883 245.393 125.922 245.944Z" fill="black"/>
<path d="M185.377 329.684H184.188V335.442H185.377V329.684Z" fill="#03FFA7"/>
<path d="M226.724 306.728H225.535V312.486H226.724V306.728Z" fill="#03FFA7"/>
<path d="M88.486 274.487H87.2969V280.245H88.486V274.487Z" fill="#03FFA7"/>
<path d="M43.4952 50.2725C43.4191 50.1671 43.4484 50.0207 43.5655 49.9562L50.7703 45.9555C51.1569 45.6568 51.6899 45.6392 52.2874 45.9848L270.088 171.735C271.266 172.414 272.215 174.236 272.215 175.8V342.459C272.215 343.243 271.975 343.812 271.594 344.104L263.997 348.316L256.435 339.202L259.41 337.901L52.2874 218.32C51.11 217.64 50.1611 215.818 50.1611 214.254V59.299L43.4952 50.2725Z" fill="white"/>
<path d="M255.181 338.909L257.694 337.808L51.8952 218.988C50.4836 218.173 49.3824 216.094 49.3824 214.249V59.5569L42.8746 50.7296C42.7048 50.5011 42.6403 50.2082 42.6989 49.9329C42.7575 49.6518 42.9332 49.4175 43.1851 49.2769L50.2903 45.3406C50.9522 44.831 51.8132 44.8193 52.6684 45.3113L270.47 171.061C271.881 171.875 272.988 173.955 272.988 175.8V342.459C272.988 343.466 272.654 344.269 271.963 344.784L263.81 349.306L255.181 338.909ZM51.1455 46.6293L44.4972 50.3195L50.9346 59.0473V214.249C50.9346 215.543 51.7312 217.101 52.6802 217.646L261.115 337.995L257.683 339.495L264.184 347.326L271.126 343.484C271.278 343.367 271.442 343.039 271.442 342.453V175.8C271.442 174.505 270.645 172.947 269.696 172.402L51.9011 46.6468C51.784 46.5766 51.6375 46.5121 51.4794 46.5121C51.3681 46.5121 51.2568 46.5473 51.1455 46.6293Z" fill="black"/>
<path d="M44.6732 222.543L262.474 348.293C263.652 348.972 264.601 348.252 264.601 346.682V180.023C264.601 178.453 263.646 176.631 262.474 175.958L44.6732 50.208C43.4958 49.5285 42.5469 50.249 42.5469 51.8188V218.478C42.541 220.042 43.4958 221.863 44.6732 222.543Z" fill="black"/>
<path d="M262.087 348.96L44.2863 223.21C42.8747 222.396 41.7734 220.317 41.7734 218.472V51.8129C41.7734 50.7058 42.1835 49.833 42.8981 49.423C43.5366 49.054 44.3039 49.095 45.0654 49.5343L262.866 175.284C264.278 176.098 265.385 178.178 265.385 180.023V346.682C265.385 347.789 264.975 348.661 264.261 349.072C263.973 349.236 263.657 349.323 263.329 349.323C262.925 349.323 262.503 349.2 262.087 348.96ZM43.6654 50.7644C43.5014 50.8581 43.314 51.192 43.314 51.8188V218.478C43.314 219.772 44.1106 221.33 45.0537 221.875L262.855 347.625C262.978 347.695 263.288 347.853 263.476 347.736C263.64 347.642 263.827 347.314 263.827 346.682V180.023C263.827 178.728 263.03 177.17 262.082 176.625L44.2863 50.8757C44.1926 50.823 43.9993 50.7234 43.8294 50.7234C43.7709 50.7234 43.7123 50.7351 43.6654 50.7644Z" fill="black"/>
<path d="M44.99 219.432L262.159 344.813C262.504 345.012 262.785 344.801 262.785 344.338V179.208C262.785 178.746 262.504 178.212 262.159 178.013L44.99 52.6326C44.6444 52.4335 44.3633 52.6443 44.3633 53.1071V218.243C44.3633 218.7 44.6444 219.233 44.99 219.432Z" fill="#39FFB6"/>
<path d="M261.772 345.486L44.6032 220.1C44.0174 219.76 43.5957 218.975 43.5957 218.237V53.1011C43.5957 52.574 43.8183 52.1464 44.199 51.9238C44.5563 51.7188 44.9898 51.7305 45.3823 51.9589L262.551 177.34C263.136 177.679 263.564 178.464 263.564 179.202V344.338C263.564 344.865 263.347 345.293 262.961 345.516C262.791 345.615 262.603 345.662 262.41 345.662C262.199 345.662 261.982 345.603 261.772 345.486ZM45.1362 218.237C45.1362 218.454 45.2944 218.711 45.3764 218.764L262.012 343.84V179.208C262.012 178.991 261.854 178.734 261.772 178.681L45.1362 53.6107V218.237Z" fill="black"/>
<path d="M42.541 218.671V209.141L264.601 337.351V346.881C264.601 348.339 263.576 348.931 262.31 348.205L44.8313 222.636C43.5661 221.904 42.541 220.129 42.541 218.671Z" fill="black"/>
<path d="M261.929 348.866L44.4445 223.304C42.9449 222.437 41.7676 220.404 41.7676 218.67V207.799L264.987 336.677L265.374 336.899V346.88C265.374 347.859 264.987 348.643 264.319 349.03C264.026 349.2 263.692 349.282 263.341 349.282C262.89 349.282 262.41 349.147 261.929 348.866ZM43.314 210.476V218.67C43.314 219.86 44.1867 221.371 45.2177 221.962L262.702 347.525C263.054 347.73 263.37 347.788 263.546 347.683C263.722 347.583 263.827 347.279 263.827 346.869V337.778L43.314 210.476Z" fill="black"/>
<path d="M139.808 270.682L139.213 271.712L167.327 287.953L167.922 286.923L139.808 270.682Z" fill="#03FFA7"/>
<path d="M271.826 172.705L264.363 177.186L265.159 178.511L272.622 174.031L271.826 172.705Z" fill="black"/>
<path d="M64.0705 52.2005L56.6074 56.6807L57.4033 58.0065L64.8664 53.5264L64.0705 52.2005Z" fill="black"/>
<path d="M271.838 330.599L264.375 335.079L265.171 336.405L272.634 331.925L271.838 330.599Z" fill="black"/>
<path d="M212.415 320.915L213.006 319.884L208.291 317.143L207.693 318.168L212.415 320.915Z" fill="#03FFA7"/>
<path d="M185.178 325.659C185.981 325.659 186.783 325.437 187.492 325.003L192.377 322.221L191.715 320.909L186.684 323.685C185.793 324.236 184.674 324.254 183.761 323.732L100.092 276.011L99.3242 277.352L182.993 325.074C183.667 325.466 184.423 325.659 185.178 325.659Z" fill="black"/>
<path d="M96.916 275.97L97.6657 274.623L91.4626 271.167C91.2224 271.032 91.1931 270.803 91.1931 270.71C91.1931 270.616 91.2166 270.388 91.4567 270.247L100.091 265.186L99.3117 263.851L90.6777 268.911C90.0275 269.292 89.6409 269.972 89.6526 270.721C89.6585 271.477 90.0568 272.145 90.7187 272.514L96.916 275.97Z" fill="black"/>
<path d="M272.237 324.892L264.773 329.372L265.569 330.698L273.032 326.218L272.237 324.892Z" fill="black"/>
<path d="M68.8743 54.9077L61.4121 59.3887L62.2082 60.7144L69.6704 56.2334L68.8743 54.9077Z" fill="black"/>
<path d="M272.221 180.645L264.758 185.125L265.554 186.451L273.017 181.971L272.221 180.645Z" fill="black"/>
<path d="M228.975 293.402L81.3941 208.192C80.6619 207.771 80.0703 206.634 80.0703 205.656V100.132C80.0703 99.1542 80.6619 98.709 81.3941 99.1307L228.975 184.34C229.707 184.762 230.299 185.899 230.299 186.877V292.4C230.305 293.379 229.707 293.824 228.975 293.402Z" fill="white"/>
<path d="M229.508 294.14C229.244 294.14 228.963 294.058 228.688 293.906L81.1011 208.696C80.1931 208.175 79.4844 206.839 79.4844 205.662V100.132C79.4844 99.406 79.7597 98.832 80.2341 98.5567C80.6559 98.3165 81.1831 98.34 81.681 98.627L229.262 183.837C230.17 184.358 230.878 185.694 230.878 186.871V292.395C230.878 293.121 230.603 293.695 230.129 293.97C229.941 294.087 229.73 294.14 229.508 294.14ZM80.8668 99.5525C80.8433 99.5525 80.8258 99.5583 80.814 99.5642C80.7437 99.6052 80.6442 99.7868 80.6442 100.132V205.656C80.6442 206.418 81.1303 207.372 81.681 207.689L229.262 292.898C229.385 292.969 229.502 292.992 229.549 292.969C229.619 292.928 229.719 292.746 229.719 292.395V186.871C229.719 186.109 229.233 185.155 228.682 184.838L81.1011 99.6345C81.0132 99.5818 80.9253 99.5525 80.8668 99.5525Z" fill="black"/>
<path d="M74.1602 204.016L69.2808 201.198C68.5486 200.776 67.957 199.64 67.957 198.662V93.1382C67.957 92.16 68.5486 91.7149 69.2808 92.1366L74.1602 94.9541C74.8924 95.3758 75.484 96.5122 75.484 97.4904V203.014C75.484 203.992 74.8924 204.443 74.1602 204.016Z" fill="white"/>
<path d="M74.6872 204.754C74.4177 204.754 74.1424 204.678 73.8671 204.52L68.9878 201.702C68.0799 201.181 67.3711 199.846 67.3711 198.668V93.1386C67.3711 92.4123 67.6464 91.8383 68.1209 91.563C68.5426 91.317 69.0698 91.3462 69.5677 91.6333L74.447 94.4507C75.3549 94.9721 76.0637 96.3076 76.0637 97.4849V203.009C76.0637 203.735 75.7884 204.309 75.3139 204.584C75.1265 204.701 74.9098 204.754 74.6872 204.754ZM74.447 203.518C74.57 203.589 74.6813 203.618 74.734 203.589C74.7926 203.553 74.9039 203.389 74.9039 203.014V97.4908C74.9039 96.7293 74.4177 95.7745 73.8671 95.4582L68.9878 92.6408C68.8648 92.5705 68.7476 92.5412 68.7008 92.5705C68.6422 92.6056 68.5309 92.7696 68.5309 93.1386V198.662C68.5309 199.424 69.0171 200.379 69.5677 200.695L74.447 203.518Z" fill="black"/>
<path d="M246.207 303.354L236.367 297.672C235.635 297.25 235.043 296.114 235.043 295.136V189.606C235.043 188.628 235.635 188.183 236.367 188.604L246.207 194.286C246.94 194.708 247.531 195.844 247.531 196.823V302.346C247.537 303.324 246.94 303.775 246.207 303.354Z" fill="white"/>
<path d="M246.74 304.092C246.471 304.092 246.19 304.01 245.92 303.858L236.08 298.176C235.172 297.655 234.463 296.319 234.463 295.142V189.606C234.463 188.88 234.738 188.306 235.213 188.031C235.634 187.785 236.162 187.814 236.659 188.101L246.5 193.783C247.408 194.304 248.117 195.64 248.117 196.817V302.341C248.117 303.067 247.842 303.641 247.367 303.916C247.174 304.033 246.963 304.092 246.74 304.092ZM246.5 302.85C246.623 302.921 246.734 302.95 246.787 302.921C246.857 302.88 246.957 302.698 246.957 302.346V196.823C246.957 196.056 246.471 195.107 245.92 194.79L236.08 189.109C235.957 189.038 235.839 189.009 235.793 189.038C235.734 189.073 235.623 189.237 235.623 189.606V295.13C235.623 295.892 236.109 296.846 236.659 297.163L246.5 302.85Z" fill="black"/>
<path d="M228.975 193.496L81.3941 108.292C80.6619 107.87 80.0703 106.734 80.0703 105.756V100.132C80.0703 99.1542 80.6619 98.709 81.3941 99.1307L228.975 184.34C229.707 184.762 230.299 185.899 230.299 186.877V192.5C230.305 193.472 229.707 193.923 228.975 193.496Z" fill="white"/>
<path d="M229.508 194.234C229.238 194.234 228.963 194.152 228.688 193.999L81.1011 108.796C80.1931 108.274 79.4844 106.939 79.4844 105.761V100.138C79.4844 99.4119 79.7597 98.8379 80.2341 98.5625C80.6559 98.3224 81.1831 98.3458 81.681 98.6328L229.262 183.842C230.17 184.364 230.878 185.699 230.878 186.877V192.5C230.878 193.226 230.603 193.8 230.129 194.076C229.941 194.181 229.73 194.234 229.508 194.234ZM80.8668 99.5525C80.8433 99.5525 80.8258 99.5583 80.814 99.5642C80.7437 99.6052 80.6442 99.7868 80.6442 100.132V105.756C80.6442 106.517 81.1303 107.472 81.681 107.788L229.262 192.998C229.385 193.068 229.502 193.097 229.549 193.068C229.619 193.027 229.719 192.846 229.719 192.5V186.877C229.719 186.115 229.233 185.16 228.682 184.844L81.1011 99.6345C81.0132 99.5818 80.9253 99.5525 80.8668 99.5525Z" fill="black"/>
<path d="M215.603 181.194C215.603 182.196 214.9 182.606 214.027 182.102C213.16 181.598 212.451 180.38 212.451 179.378C212.451 178.377 213.154 177.967 214.027 178.47C214.9 178.974 215.603 180.193 215.603 181.194Z" fill="black"/>
<path d="M220.798 184.2C220.798 185.202 220.095 185.612 219.222 185.108C218.355 184.604 217.646 183.386 217.646 182.384C217.646 181.383 218.349 180.973 219.222 181.476C220.095 181.974 220.798 183.193 220.798 184.2Z" fill="black"/>
<path d="M87.04 106.974C87.04 107.975 86.3371 108.385 85.4643 107.881C84.5974 107.378 83.8887 106.159 83.8887 105.158C83.8887 104.156 84.5916 103.746 85.4643 104.25C86.3371 104.748 87.04 105.972 87.04 106.974Z" fill="black"/>
<path d="M92.2432 109.973C92.2432 110.974 91.5403 111.384 90.6675 110.88C89.8006 110.377 89.0918 109.158 89.0918 108.157C89.0918 107.155 89.7947 106.745 90.6675 107.249C91.5344 107.747 92.2432 108.971 92.2432 109.973Z" fill="black"/>
<path d="M225.993 187.199C225.993 188.201 225.29 188.611 224.417 188.107C223.551 187.603 222.842 186.385 222.842 185.383C222.842 184.382 223.545 183.972 224.417 184.475C225.29 184.973 225.993 186.192 225.993 187.199Z" fill="black"/>
<path d="M241.867 296.149H240.707V289.899H241.867V296.149ZM241.867 286.42H240.707V279.467H241.867V286.42ZM241.867 275.994H240.707V269.035H241.867V275.994ZM241.867 265.561H240.707V258.608H241.867V265.561ZM241.867 255.129H240.707V248.176H241.867V255.129ZM241.867 244.703H240.707V237.75H241.867V244.703ZM241.867 234.27H240.707V227.317H241.867V234.27ZM241.867 223.838H240.707V216.885H241.867V223.838ZM241.867 213.412H240.707V206.459H241.867V213.412ZM241.867 202.979H240.707V196.026H241.867V202.979Z" fill="black"/>
<path d="M63.7575 197.678H62.5977V192.916H63.7575V197.678ZM63.7575 189.436H62.5977V182.483H63.7575V189.436ZM63.7575 179.01H62.5977V172.057H63.7575V179.01ZM63.7575 168.578H62.5977V161.625H63.7575V168.578ZM63.7575 158.151H62.5977V151.198H63.7575V158.151ZM63.7575 147.719H62.5977V140.766H63.7575V147.719ZM63.7575 137.287H62.5977V130.334H63.7575V137.287ZM63.7575 126.86H62.5977V119.907H63.7575V126.86ZM63.7575 116.428H62.5977V109.475H63.7575V116.428ZM63.7575 105.996H62.5977V99.0426H63.7575V105.996ZM63.7575 95.5691H62.5977V88.6162H63.7575V95.5691Z" fill="black"/>
<path d="M231.418 135.688L231.02 136.373L231.418 135.688C231.424 135.688 231.418 135.688 231.418 135.688Z" fill="black"/>
<path d="M292.623 328.002L260.541 306.195C258.473 305 256.792 301.796 256.792 299.037L253.934 262.251C253.934 259.492 258.52 257.794 260.588 258.989L295.241 279.127C297.309 280.322 298.99 283.526 298.99 286.285L298.943 323.498C298.937 326.263 294.69 329.197 292.623 328.002Z" fill="black"/>
<path d="M293.741 329.045C293.185 329.045 292.675 328.922 292.236 328.664L292.189 328.635L260.101 306.827C257.834 305.521 256.019 302.082 256.019 299.031L253.16 262.304C253.16 260.892 254.015 259.627 255.503 258.766C257.337 257.706 259.58 257.524 260.962 258.321L295.616 278.459C297.929 279.794 299.745 283.233 299.745 286.279L299.698 323.492C299.698 325.448 298.047 327.276 296.412 328.219C295.481 328.769 294.561 329.045 293.741 329.045ZM293.027 327.352C293.612 327.674 294.614 327.504 295.651 326.907C297.133 326.051 298.17 324.651 298.17 323.503L298.216 286.29C298.216 283.824 296.676 280.849 294.854 279.794L260.201 259.656C259.316 259.147 257.594 259.346 256.276 260.101C255.802 260.377 254.701 261.132 254.701 262.251L257.559 298.978C257.559 301.508 259.1 304.484 260.927 305.532L293.027 327.352Z" fill="black"/>
<path d="M292.189 327.791L257.536 307.652C255.468 306.457 253.787 303.253 253.787 300.494L253.834 263.281C253.834 260.523 255.509 259.251 257.583 260.446L292.236 280.585C294.304 281.78 295.985 284.984 295.985 287.743L295.938 324.956C295.938 327.714 294.263 328.985 292.189 327.791Z" fill="#39FFB6"/>
<path d="M293.683 329.009C293.085 329.009 292.447 328.822 291.808 328.453L257.161 308.315C254.847 306.979 253.031 303.541 253.031 300.489L253.078 263.276C253.078 261.548 253.687 260.201 254.759 259.586C255.685 259.053 256.827 259.117 257.981 259.785L292.634 279.923C294.948 281.259 296.764 284.697 296.764 287.749L296.717 324.962C296.717 326.696 296.108 328.037 295.036 328.652C294.614 328.886 294.157 329.009 293.683 329.009ZM292.576 327.129C293.038 327.393 293.706 327.65 294.263 327.328C294.837 327 295.176 326.116 295.176 324.962L295.223 287.749C295.223 285.283 293.683 282.307 291.861 281.253L257.208 261.114C256.745 260.851 256.077 260.599 255.521 260.915C254.947 261.243 254.607 262.128 254.607 263.282L254.56 300.489C254.56 302.955 256.101 305.931 257.922 306.985L292.576 327.129Z" fill="black"/>
<path d="M297.45 281.384L294.631 283.14L295.098 283.89L297.918 282.135L297.45 281.384Z" fill="#39FFB6"/>
<path d="M262.161 259.613L259.342 261.369L259.809 262.12L262.628 260.364L262.161 259.613Z" fill="#39FFB6"/>
<path d="M298.817 321.393L295.998 323.148L296.466 323.899L299.285 322.144L298.817 321.393Z" fill="#39FFB6"/>
<path d="M299.699 289.77H298.814V292.944H299.699V289.77Z" fill="#39FFB6"/>
<path d="M282.614 310.007L266.177 300.518C265.381 300.061 264.742 298.831 264.742 297.771V279.308C264.742 278.248 265.387 277.762 266.177 278.219L282.614 287.708C283.41 288.165 284.049 289.395 284.049 290.455V308.918C284.049 309.978 283.41 310.47 282.614 310.007Z" fill="white"/>
<path d="M283.187 310.769C282.906 310.769 282.608 310.687 282.321 310.517L265.884 301.028C264.912 300.465 264.15 299.036 264.15 297.771V279.308C264.15 278.535 264.437 277.926 264.941 277.633C265.386 277.375 265.943 277.404 266.47 277.709L282.906 287.198C283.879 287.76 284.64 289.19 284.64 290.455V308.918C284.64 309.691 284.353 310.3 283.849 310.593C283.644 310.71 283.422 310.769 283.187 310.769ZM265.609 278.64C265.58 278.64 265.55 278.646 265.533 278.658C265.457 278.699 265.328 278.886 265.328 279.308V297.771C265.328 298.609 265.861 299.657 266.47 300.008L282.906 309.498C283.059 309.586 283.187 309.615 283.258 309.574C283.334 309.533 283.463 309.345 283.463 308.924V290.461C283.463 289.623 282.93 288.575 282.321 288.223L265.884 278.734C265.779 278.675 265.679 278.64 265.609 278.64Z" fill="black"/>
<path d="M277.162 295.808V290.378C277.162 290.22 277.051 290.026 276.916 289.95L271.885 287.045C271.75 286.969 271.639 287.027 271.639 287.185V292.615C271.639 292.774 271.527 292.838 271.392 292.756L270.385 292.176C270.174 292.053 270.063 292.27 270.192 292.533L274.21 300.546C274.31 300.746 274.497 300.851 274.597 300.769L278.615 297.395C278.744 297.284 278.632 296.938 278.422 296.815L277.414 296.235C277.273 296.159 277.162 295.966 277.162 295.808Z" fill="white"/>
<path d="M274.507 301.238C274.466 301.238 274.425 301.233 274.384 301.227C274.15 301.18 273.939 300.998 273.81 300.746L269.792 292.733C269.628 292.405 269.663 292.065 269.88 291.855C270.067 291.673 270.354 291.65 270.6 291.796L271.192 292.136V287.186C271.192 286.952 271.303 286.747 271.485 286.641C271.666 286.536 271.901 286.542 272.1 286.659L277.132 289.564C277.401 289.722 277.6 290.062 277.6 290.378V295.797L278.631 296.435C278.883 296.582 279.07 296.88 279.1 297.179C279.117 297.402 279.041 297.607 278.889 297.736L274.871 301.109C274.771 301.191 274.642 301.238 274.507 301.238ZM270.917 292.997L274.542 300.231L278.145 297.208L277.19 296.617C276.921 296.459 276.721 296.119 276.721 295.808V290.378L272.076 287.666V292.616C272.076 292.85 271.965 293.055 271.784 293.161C271.602 293.266 271.368 293.26 271.169 293.143L270.917 292.997Z" fill="black"/>
<path d="M114.477 65.8181L121.465 61.302C121.53 61.261 121.542 61.179 121.495 61.1204L112.615 50.3484C112.55 50.2664 112.421 50.3015 112.398 50.4011L110.986 56.9557C110.986 56.9615 110.986 56.9674 110.986 56.9732L110.646 61.4718C110.646 61.507 110.652 61.5363 110.676 61.5597L114.319 65.7947C114.354 65.8416 114.425 65.8533 114.477 65.8181Z" fill="black"/>
<path d="M114.407 66.5973C114.155 66.5973 113.909 66.4919 113.739 66.2928L109.891 61.8176V61.4076L110.23 56.9207L111.765 49.7803L112.316 49.5753C112.644 49.4933 112.989 49.6046 113.206 49.8682L122.297 60.9038L122.273 61.3373C122.232 61.5833 122.092 61.8059 121.887 61.9406L114.893 66.4568C114.741 66.5505 114.577 66.5973 114.407 66.5973ZM111.419 61.267L114.53 64.8869L120.458 61.0561L112.866 51.8363L111.724 57.114L111.419 61.267Z" fill="black"/>
<path d="M140.955 33.2618L107.59 14.0022C106.752 13.5219 105.997 13.4458 105.411 13.6976L98.8856 17.6046C98.7861 17.6632 98.7626 17.7979 98.8446 17.8858L106.641 26.1332C106.67 26.1684 106.688 26.2094 106.688 26.2562V39.875C106.688 42.0482 108.228 44.7075 110.103 45.797L115.076 48.6672C115.199 48.8371 115.304 48.9894 115.427 49.1592C115.673 50.6002 117.05 56.61 123.159 60.7864C123.399 60.9505 123.558 60.7103 123.399 60.4116C122.597 58.8886 121.086 55.5674 121.548 52.9608C121.8 52.8495 121.841 52.8319 122.099 52.7265L132.391 58.666C132.426 58.6894 132.455 58.7187 132.467 58.7597L136.766 70.2288C136.807 70.3342 136.93 70.3752 137.024 70.3225L143.479 66.439C144.024 66.07 144.364 65.3553 144.364 64.3537V39.1838C144.369 37.0107 142.835 34.3514 140.955 33.2618Z" fill="white"/>
<path d="M137.111 71.1425L136.619 71.0312C136.361 70.9375 136.156 70.7383 136.057 70.4806L131.833 59.2107L122.227 53.6636C122.098 56.0066 123.445 58.8651 124.072 60.0542C124.324 60.5286 124.254 61.0558 123.908 61.3662C123.586 61.6533 123.117 61.665 122.737 61.4072C116.651 57.2542 115.081 51.4143 114.712 49.4579L114.554 49.2411L109.721 46.4529C107.595 45.2229 105.925 42.3351 105.925 39.8808V26.4787L98.2871 18.4012C98.088 18.1903 98.0001 17.9091 98.0411 17.6221C98.0821 17.3351 98.252 17.0891 98.5039 16.9485L105.017 13.0474C105.943 12.6432 106.956 12.7721 107.964 13.3461L141.328 32.6116C143.455 33.8417 145.124 36.7294 145.124 39.1837V64.336C145.124 65.5602 144.691 66.5209 143.906 67.0539L137.111 71.1425ZM122.151 51.8712L133.011 58.1387L133.186 58.4902L137.24 69.3032L143.097 65.777C143.42 65.5602 143.619 65.0389 143.619 64.336V39.1837C143.619 37.28 142.225 34.8726 140.579 33.9178L107.214 14.6523C106.634 14.3126 106.095 14.2189 105.714 14.3887L99.8921 17.8798L107.401 25.8227L107.448 26.2444V39.8632C107.448 41.7669 108.842 44.1744 110.488 45.1291L115.702 48.2161L116.182 49.0185C116.358 50.0378 117.4 54.8585 121.811 58.7596C121.091 56.9848 120.47 54.7531 120.815 52.8142L120.886 52.4101L122.151 51.8712Z" fill="black"/>
<path d="M134.405 37.3042L100.952 17.9919C99.1128 16.9317 97.625 17.7927 97.625 19.9132V45.1709C97.625 47.2913 99.1128 49.8745 100.952 50.9347L106.101 53.9045C106.23 53.9748 106.335 54.1446 106.359 54.2969C106.581 55.6442 107.917 61.7477 114.102 65.971C114.342 66.135 114.501 65.8949 114.342 65.5961C113.511 64.0146 111.917 60.5177 112.544 57.87C112.573 57.747 112.691 57.706 112.819 57.7763L134.405 70.2412C136.244 71.3014 137.732 70.4403 137.732 68.3199V43.068C137.732 40.9476 136.238 38.3703 134.405 37.3042Z" fill="#05FFA3"/>
<path d="M135.892 71.4651C135.306 71.4651 134.668 71.2777 134.024 70.9086L113.165 58.8655C113.036 61.1968 114.371 64.0436 115.01 65.2561C115.262 65.7306 115.192 66.2577 114.846 66.5623C114.524 66.8493 114.055 66.8669 113.674 66.6033C107.325 62.2688 105.878 55.9426 105.626 54.5075L100.577 51.5905C98.4975 50.3897 96.8691 47.5722 96.8691 45.1706V19.9129C96.8691 18.6066 97.3495 17.605 98.2222 17.1012C99.095 16.5975 100.196 16.6795 101.333 17.3355L134.785 36.6479C136.864 37.8487 138.493 40.6661 138.493 43.0677V68.3255C138.493 69.6317 138.013 70.6333 137.14 71.1371C136.759 71.3538 136.337 71.4651 135.892 71.4651ZM112.69 56.9911C112.86 56.9911 113.03 57.038 113.194 57.1317L134.779 69.5965C135.412 69.9656 135.998 70.0476 136.378 69.8308C136.759 69.6141 136.976 69.0635 136.976 68.3313V43.0677C136.976 41.2226 135.623 38.8796 134.029 37.96L100.577 18.6476C99.9444 18.2786 99.3586 18.1966 98.9779 18.4133C98.5971 18.6301 98.3804 19.1807 98.3804 19.9129V45.1706C98.3804 47.0157 99.7335 49.3587 101.333 50.2784L106.481 53.2481C106.804 53.4356 107.044 53.787 107.108 54.1736C107.278 55.1987 108.297 60.037 112.743 63.9616C111.976 62.0872 111.337 59.709 111.812 57.6999L111.9 57.3308L112.339 57.0614C112.444 57.0145 112.567 56.9911 112.69 56.9911Z" fill="black"/>
<path d="M141.352 33.4941L135.525 37.0361L136.31 38.3275L142.137 34.7854L141.352 33.4941Z" fill="black"/>
<path d="M110.152 15.5908L104.326 19.1328L105.111 20.4242L110.937 16.8821L110.152 15.5908Z" fill="black"/>
<path d="M143.756 39.8365L137.33 43.9004L138.138 45.1777L144.564 41.1138L143.756 39.8365Z" fill="black"/>
<path d="M144.367 43.9639L137.73 47.988V69.8894L144.156 66.369L144.367 64.7991V43.9639Z" fill="black"/>
<path d="M107.844 0.0369164L107.244 7.32812L108.75 7.45205L109.35 0.160839L107.844 0.0369164Z" fill="black"/>
<path d="M100.445 -0.000320441L99.0605 0.606445L102.442 8.32036L103.826 7.7136L100.445 -0.000320441Z" fill="black"/>
<path d="M93.1421 6.46459L92.3984 7.78027L98.5077 11.2335L99.2514 9.91782L93.1421 6.46459Z" fill="black"/>
<path d="M121.331 57.2019L117.09 54.7534V52.6623C115.936 51.6372 114.887 50.3427 114.038 48.89L112.462 49.0306L110.482 43.9287L112.128 43.7822C112 43.0852 111.941 42.4818 111.941 41.9195C111.941 41.2752 112.017 40.666 112.187 40.0275L110.576 38.0184L112.808 34.8436L114.501 36.9465C115.262 36.5892 116.141 36.4896 117.096 36.6594V34.375L121.336 36.8235V38.9146C122.49 39.9397 123.539 41.2342 124.388 42.6869L125.964 42.5463L127.944 47.6482L126.298 47.7946C126.427 48.4917 126.485 49.095 126.485 49.6573C126.485 50.3017 126.403 50.9108 126.239 51.5493L127.85 53.5585L125.618 56.7332L123.925 54.6304C123.164 54.9818 122.28 55.0814 121.331 54.9174V57.2019ZM118.226 54.1032L120.194 55.2396V53.4355L120.926 53.658C122.028 53.9919 123.012 53.9099 123.761 53.4296L124.189 53.1543L125.554 54.8471L126.427 53.6053L124.98 51.8012L125.068 51.5142C125.261 50.8757 125.349 50.2899 125.349 49.6632C125.349 49.0189 125.255 48.3101 125.056 47.4139L124.915 46.7813L126.339 46.6524L125.214 43.7529L123.756 43.8818L123.574 43.5596C122.713 42.0074 121.612 40.6426 120.393 39.6058L120.194 39.4359V37.4795L118.226 36.3431V38.1473L117.494 37.9247C116.387 37.5908 115.409 37.6728 114.659 38.1531L114.231 38.4284L112.866 36.7297L111.994 37.9715L113.44 39.7757L113.353 40.0627C113.159 40.7011 113.071 41.2869 113.071 41.9137C113.071 42.558 113.165 43.2726 113.364 44.163L113.505 44.7956L112.082 44.9244L113.206 47.8239L114.665 47.6951L114.846 48.0172C115.707 49.5695 116.809 50.9343 118.021 51.9711L118.22 52.1409V54.1032H118.226ZM120.458 49.9444C120.224 49.9444 119.983 49.9092 119.737 49.8331C117.371 49.1243 115.403 45.7152 115.977 43.3136C116.129 42.6751 116.469 42.189 116.967 41.9019C117.465 41.6149 118.062 41.5622 118.689 41.7496C121.049 42.4584 123.023 45.8675 122.455 48.2691C122.303 48.9076 121.963 49.3996 121.465 49.6808C121.155 49.8565 120.815 49.9444 120.458 49.9444ZM120.059 48.7436C120.382 48.8431 120.669 48.8256 120.885 48.6967C121.102 48.5678 121.26 48.3277 121.342 48.0055C121.77 46.2131 120.124 43.3605 118.355 42.8333C118.033 42.7396 117.746 42.7513 117.529 42.8802C117.312 43.009 117.154 43.2492 117.072 43.5713C116.65 45.3696 118.296 48.2164 120.059 48.7436Z" fill="white"/>
<path d="M123.734 47.1567C123.734 46.3893 123.605 45.5868 123.429 44.7844L124.958 44.6496L123.406 40.6489L121.889 40.7837C121.01 39.2021 119.868 37.767 118.585 36.6717V34.6508L115.48 32.8584V34.8793C114.192 34.4927 113.055 34.6098 112.177 35.1721L110.66 33.286L109.107 35.4943L110.636 37.398C110.455 37.9955 110.332 38.6457 110.332 39.413C110.332 40.1803 110.461 40.9828 110.636 41.7853L109.107 41.92L110.66 45.9207L112.177 45.786C113.055 47.3675 114.198 48.8026 115.48 49.898V51.9189L118.585 53.7113V51.6904C119.874 52.077 121.01 51.9599 121.889 51.3975L123.406 53.2837L124.958 51.0754L123.429 49.1717C123.605 48.5801 123.734 47.924 123.734 47.1567ZM117.718 46.7876C115.656 46.1726 113.846 43.0388 114.344 40.9418C114.578 39.9577 115.369 39.5009 116.341 39.7879C118.403 40.4029 120.213 43.5367 119.715 45.6337C119.481 46.6178 118.69 47.0747 117.718 46.7876Z" fill="black"/>
<path d="M27.73 250.466L1.35932 250.507C1.06058 250.507 0.814557 250.753 0.820415 251.052L0.832124 274.206H0.837987C0.896562 275.009 1.49404 275.847 2.63626 276.503L10.5732 281.083C12.7698 282.354 16.0969 282.489 17.9947 281.394L26.9978 276.198C27.9116 275.671 28.3216 274.95 28.263 274.206H28.2689V251.011C28.2747 250.706 28.0287 250.466 27.73 250.466Z" fill="#05FFA3"/>
<path d="M14.761 282.946C13.1677 282.946 11.4925 282.553 10.1628 281.786L2.22586 277.205C1.18907 276.608 0.492034 275.852 0.187442 275.02H0.0234313L0.017568 274.206L0.00585938 251.051C0.00585938 250.302 0.615043 249.692 1.35895 249.692L27.7296 249.651C28.4794 249.651 29.0886 250.261 29.0886 251.01V275.02H28.9948C28.784 275.764 28.2392 276.42 27.4074 276.901L18.4044 282.096C17.4086 282.665 16.1141 282.946 14.761 282.946ZM1.6401 274.071L1.64596 274.142C1.68697 274.704 2.19658 275.302 3.04006 275.794L10.977 280.374C12.91 281.487 15.9384 281.634 17.5902 280.685L26.5932 275.489C27.0091 275.249 27.4953 274.839 27.4543 274.265L27.3899 273.392H27.4602V251.286L1.63426 251.327L1.6401 274.071Z" fill="black"/>
<path d="M27.7306 250.488L15.5938 250.506V282.101C16.4958 282.014 17.3334 281.791 17.9953 281.41L26.9984 276.215C27.9122 275.687 28.3222 274.967 28.2636 274.223H28.2695V251.027C28.2753 250.734 28.0293 250.488 27.7306 250.488Z" fill="black"/>
<path d="M26.9977 252.497L17.9946 257.693C16.0909 258.794 12.7697 258.654 10.5731 257.383L2.63613 252.802C0.439555 251.531 0.199393 249.615 2.10309 248.514L11.1061 243.319C13.0098 242.217 16.3311 242.358 18.5277 243.629L26.4646 248.21C28.6612 249.475 28.9014 251.396 26.9977 252.497Z" fill="white"/>
<path d="M14.761 259.252C13.1677 259.252 11.4925 258.859 10.1628 258.092L2.22586 253.511C0.814191 252.697 0 251.555 0 250.383C0 249.358 0.603318 248.45 1.69282 247.818L10.6959 242.622C12.8573 241.374 16.4773 241.509 18.9316 242.932L26.8686 247.513C28.2802 248.327 29.0944 249.469 29.0944 250.641C29.0944 251.666 28.4911 252.574 27.4016 253.207L18.3985 258.402C17.4145 258.97 16.1141 259.252 14.761 259.252ZM14.3158 243.395C13.2498 243.395 12.2423 243.6 11.5101 244.028L2.50703 249.223C2.10872 249.458 1.6284 249.844 1.6284 250.383C1.6284 250.951 2.15558 251.596 3.04007 252.105L10.977 256.686C12.91 257.799 15.9384 257.945 17.5902 256.996L26.5932 251.801C26.9916 251.566 27.4719 251.18 27.4719 250.641C27.4719 250.073 26.9447 249.428 26.0602 248.919L18.1232 244.338C17.0513 243.711 15.6396 243.395 14.3158 243.395Z" fill="black"/>
<path d="M12.2378 257.805H10.6094V281.457H12.2378V257.805Z" fill="black"/>
<path d="M25.8141 255.614H24.5605V274.868H25.8141V255.614Z" fill="#05FFA3"/>
<path d="M46.0053 275.072L19.6346 275.113C19.3359 275.113 19.0898 275.359 19.0898 275.658L19.1016 283.794H19.1074C19.166 284.597 19.7635 285.434 20.9057 286.09L28.8427 290.671C31.0392 291.942 34.3663 292.077 36.2642 290.981L45.2672 285.786C46.181 285.259 46.591 284.538 46.5324 283.794H46.5383V275.617C46.5441 275.312 46.304 275.072 46.0053 275.072Z" fill="#05FFA3"/>
<path d="M33.0364 292.533C31.4432 292.533 29.7679 292.141 28.4382 291.374L20.5013 286.793C19.4645 286.195 18.7674 285.434 18.4628 284.608H18.2988L18.293 283.794L18.2812 275.658C18.2812 274.908 18.8904 274.299 19.6343 274.299L46.005 274.258C46.7548 274.258 47.364 274.867 47.364 275.617V284.608H47.2702C47.0594 285.352 46.5146 286.008 45.6828 286.488L36.6798 291.684C35.684 292.258 34.3895 292.533 33.0364 292.533ZM19.9155 283.659L19.9214 283.729C19.9624 284.292 20.472 284.889 21.3155 285.381L29.2524 289.962C31.1854 291.081 34.2138 291.221 35.8597 290.266L44.8628 285.071C45.2787 284.831 45.7649 284.421 45.7238 283.847L45.6594 282.974H45.7297V275.88L19.9038 275.921L19.9155 283.659Z" fill="black"/>
<path d="M46.006 275.096L33.8691 275.113V291.696C34.7712 291.608 35.6088 291.386 36.2707 291.005L45.2738 285.809C46.1876 285.282 46.5976 284.562 46.539 283.818H46.5449V275.64C46.5449 275.342 46.3047 275.096 46.006 275.096Z" fill="black"/>
<path d="M45.2731 277.105L36.27 282.3C34.3663 283.402 31.0451 283.261 28.8485 281.99L20.9115 277.409C18.7149 276.138 18.4748 274.223 20.3785 273.122L29.3815 267.926C31.2852 266.825 34.6065 266.965 36.803 268.236L44.74 272.817C46.9366 274.082 47.1768 276.004 45.2731 277.105Z" fill="white"/>
<path d="M33.0364 283.859C31.4432 283.859 29.7679 283.466 28.4382 282.699L20.5013 278.119C19.0896 277.304 18.2754 276.162 18.2754 274.991C18.2754 273.966 18.8787 273.058 19.9682 272.425L28.9713 267.229C31.1327 265.982 34.7468 266.116 37.207 267.54L45.144 272.12C46.5556 272.935 47.3698 274.077 47.3698 275.248C47.3698 276.273 46.7665 277.181 45.677 277.814L36.6739 283.01C35.684 283.578 34.3895 283.859 33.0364 283.859ZM32.5912 268.003C31.5252 268.003 30.5177 268.208 29.7855 268.635L20.7824 273.831C20.3841 274.065 19.9038 274.452 19.9038 274.991C19.9038 275.559 20.431 276.203 21.3155 276.713L29.2524 281.293C31.1854 282.412 34.2138 282.553 35.8656 281.604L44.8686 276.408C45.267 276.174 45.7473 275.787 45.7473 275.248C45.7473 274.68 45.2201 274.036 44.3356 273.526L36.3986 268.946C35.3208 268.319 33.915 268.003 32.5912 268.003Z" fill="black"/>
<path d="M30.5112 282.412H28.8828V291.052H30.5112V282.412Z" fill="black"/>
<path d="M44.0894 280.228H42.8359V284.468H44.0894V280.228Z" fill="#05FFA3"/>
<path d="M23.5575 219.151C23.4814 219.028 23.2881 219.046 23.1417 219.303L11.1864 240.742L10.1906 240.841L6.9631 238.897L6.26021 238.053L1.74989 235.757C1.53316 235.628 1.18171 236.138 1.33401 236.36L10.5362 249.786L14.7361 252.053C14.7771 252.076 14.8298 252.047 14.8356 252L15.6498 245.446L26.539 224.487L28.0268 221.523C28.0737 221.43 28.0327 221.318 27.9448 221.277L23.5575 219.151Z" fill="#05FFA3"/>
<path d="M14.8018 252.709L14.4679 252.568L10.1392 250.231L10.0571 250.114L0.854942 236.683C0.585495 236.29 0.743653 235.763 1.04239 235.453C1.33526 235.142 1.72772 235.072 2.04989 235.265L6.70662 237.684L7.35096 238.452L10.3324 240.244L10.8303 240.191L22.6391 219.016C22.8207 218.688 23.1078 218.495 23.4182 218.489C23.6291 218.489 23.7755 218.554 23.9102 218.671L28.198 220.756C28.3795 220.844 28.5201 221.002 28.5846 221.195C28.649 221.389 28.6373 221.6 28.5436 221.781L27.0557 224.745L16.2076 245.616L15.3699 252.369L14.8018 252.709ZM10.9358 249.341L14.3507 251.186L15.1298 245.182L27.3252 221.629L23.5354 219.784L11.545 241.287L10.0571 241.439L6.51919 239.272L5.88657 238.522L2.23733 236.665L10.9358 249.341Z" fill="black"/>
<path d="M5.84579 238.657L15.048 252.082C15.0773 252.123 15.1534 252.088 15.1827 252.006L28.0576 221.735C28.2333 221.325 27.8701 221.201 27.6475 221.6L15.458 243.46C15.4287 243.519 15.376 243.548 15.3409 243.525L6.24994 238.054C6.04493 237.925 5.69349 238.434 5.84579 238.657Z" fill="black"/>
<path d="M14.8012 252.715L14.5669 252.416L5.36471 238.985C5.09526 238.593 5.25342 238.065 5.55215 237.755C5.84503 237.445 6.23747 237.368 6.55963 237.562L15.1937 242.757L27.1489 221.319C27.4418 220.797 27.9397 220.686 28.2794 220.856C28.5957 221.008 28.83 221.424 28.5957 221.969L15.7208 252.241C15.6154 252.487 15.3987 252.657 15.1468 252.68L14.8012 252.715ZM6.8408 239.079L14.9945 250.976L24.8352 227.85L15.8497 243.958L15.5334 244.093C15.3694 244.134 15.1937 244.11 15.0472 244.023L6.8408 239.079Z" fill="black"/>
<path d="M291.875 269.404L259.881 247.661C257.819 246.472 256.144 243.274 256.144 240.52L253.291 203.835C253.291 201.082 257.86 199.395 259.928 200.584L294.481 220.669C296.543 221.858 298.218 225.057 298.218 227.81L298.172 264.917C298.172 267.67 293.937 270.593 291.875 269.404Z" fill="black"/>
<path d="M292.993 270.44C292.437 270.44 291.933 270.317 291.494 270.06L291.447 270.03L259.453 248.287C257.192 246.981 255.382 243.554 255.382 240.514L252.529 203.887C252.529 202.481 253.379 201.216 254.866 200.361C256.694 199.306 258.932 199.119 260.308 199.916L294.862 220.001C297.17 221.331 298.98 224.763 298.98 227.803L298.933 264.917C298.933 266.867 297.287 268.689 295.653 269.632C294.727 270.171 293.813 270.44 292.993 270.44ZM292.279 268.753C292.864 269.076 293.866 268.906 294.897 268.308C296.379 267.453 297.41 266.059 297.41 264.911L297.457 227.797C297.457 225.337 295.922 222.368 294.1 221.319L259.547 201.234C258.668 200.724 256.946 200.923 255.634 201.679C255.159 201.954 254.058 202.71 254.058 203.823L256.911 240.45C256.911 242.969 258.451 245.938 260.267 246.987L292.279 268.753Z" fill="black"/>
<path d="M291.447 269.192L256.893 249.107C254.832 247.917 253.156 244.719 253.156 241.966L253.203 204.859C253.203 202.106 254.878 200.84 256.94 202.035L291.494 222.121C293.556 223.31 295.231 226.508 295.231 229.261L295.184 266.369C295.184 269.116 293.509 270.381 291.447 269.192Z" fill="#39FFB6"/>
<path d="M292.935 270.405C292.337 270.405 291.704 270.217 291.066 269.854L256.512 249.769C254.205 248.439 252.395 245.007 252.395 241.966L252.441 204.853C252.441 203.125 253.051 201.784 254.117 201.169C255.042 200.636 256.178 200.706 257.327 201.368L291.88 221.453C294.188 222.783 295.998 226.216 295.998 229.256L295.951 266.363C295.951 268.091 295.342 269.433 294.276 270.048C293.86 270.288 293.409 270.405 292.935 270.405ZM291.827 268.53C292.29 268.794 292.952 269.046 293.509 268.724C294.077 268.396 294.417 267.511 294.417 266.363L294.463 229.256C294.463 226.795 292.929 223.826 291.107 222.777L256.553 202.692C256.091 202.428 255.429 202.176 254.872 202.498C254.304 202.826 253.964 203.711 253.964 204.859L253.917 241.972C253.917 244.433 255.452 247.402 257.274 248.451L291.827 268.53Z" fill="black"/>
<path d="M296.683 222.913L293.873 224.662L294.337 225.408L297.147 223.659L296.683 222.913Z" fill="#39FFB6"/>
<path d="M261.499 201.207L258.689 202.957L259.154 203.703L261.963 201.953L261.499 201.207Z" fill="#39FFB6"/>
<path d="M298.046 262.817L295.236 264.566L295.701 265.312L298.51 263.563L298.046 262.817Z" fill="#39FFB6"/>
<path d="M298.933 231.282H298.055V234.451H298.933V231.282Z" fill="#39FFB6"/>
<path d="M265.474 219.473L281.91 228.962C282.707 229.419 283.345 230.649 283.345 231.709V250.172C283.345 251.233 282.701 251.719 281.91 251.262L265.474 241.773C264.678 241.316 264.039 240.086 264.039 239.025V220.562C264.039 219.502 264.678 219.01 265.474 219.473Z" fill="white"/>
<path d="M264.9 218.712C265.181 218.712 265.48 218.794 265.767 218.964L282.203 228.453C283.175 229.015 283.937 230.445 283.937 231.71V250.173C283.937 250.946 283.65 251.555 283.146 251.848C282.701 252.106 282.144 252.076 281.617 251.772L265.181 242.283C264.209 241.72 263.447 240.291 263.447 239.026V220.563C263.447 219.79 263.734 219.181 264.238 218.888C264.443 218.77 264.666 218.712 264.9 218.712ZM282.478 250.841C282.508 250.841 282.537 250.835 282.555 250.823C282.631 250.782 282.76 250.595 282.76 250.173V231.71C282.76 230.872 282.226 229.824 281.617 229.472L265.181 219.983C265.029 219.895 264.9 219.866 264.83 219.907C264.753 219.948 264.625 220.135 264.625 220.557V239.02C264.625 239.858 265.158 240.906 265.767 241.258L282.203 250.747C282.308 250.805 282.402 250.841 282.478 250.841Z" fill="black"/>
<path d="M270.928 233.672V239.102C270.928 239.26 271.039 239.453 271.174 239.529L276.205 242.435C276.34 242.511 276.451 242.452 276.451 242.294V236.864C276.451 236.706 276.563 236.642 276.697 236.724L277.705 237.304C277.916 237.427 278.027 237.21 277.898 236.946L273.88 228.933C273.78 228.734 273.593 228.629 273.493 228.711L269.475 232.085C269.346 232.196 269.457 232.541 269.668 232.664L270.676 233.244C270.816 233.32 270.928 233.514 270.928 233.672Z" fill="white"/>
<path d="M273.581 228.242C273.622 228.242 273.663 228.248 273.704 228.254C273.938 228.301 274.149 228.482 274.278 228.734L278.296 236.747C278.46 237.075 278.425 237.415 278.209 237.626C278.021 237.808 277.734 237.831 277.488 237.685L276.896 237.345V242.294C276.896 242.529 276.785 242.734 276.604 242.839C276.422 242.945 276.188 242.939 275.989 242.822L270.957 239.916C270.687 239.758 270.488 239.418 270.488 239.102V233.684L269.457 233.045C269.206 232.899 269.018 232.6 268.989 232.301C268.971 232.079 269.047 231.874 269.2 231.745L273.218 228.371C273.318 228.289 273.446 228.242 273.581 228.242ZM277.172 236.484L273.546 229.25L269.944 232.272L270.898 232.864C271.168 233.022 271.367 233.362 271.367 233.672V239.102L276.012 241.814V236.865C276.012 236.63 276.123 236.425 276.305 236.32C276.486 236.214 276.721 236.22 276.92 236.337L277.172 236.484Z" fill="black"/>
<path d="M144.967 175.952L140.07 173.316C139.83 173.187 139.625 173.31 139.613 173.591L138.442 205.954C138.43 206.235 138.618 206.563 138.858 206.692L143.79 209.346C144.036 209.48 144.235 209.357 144.247 209.076L144.657 197.666C144.686 196.834 144.821 196.137 145.055 195.569C145.295 195 145.612 194.573 146.016 194.28C146.42 193.987 146.889 193.841 147.439 193.858C147.99 193.87 148.581 194.051 149.22 194.391C149.858 194.737 150.426 195.129 150.93 195.569C151.434 196.008 151.856 196.529 152.195 197.133C152.541 197.742 152.793 198.45 152.963 199.259C153.127 200.067 153.197 201.016 153.156 202.106L152.74 213.627C152.728 213.909 152.916 214.242 153.156 214.371L158.129 217.048C158.369 217.177 158.574 217.054 158.586 216.773L159.008 205.122C159.072 203.377 158.955 201.725 158.668 200.161C158.375 198.597 157.895 197.144 157.215 195.797C156.536 194.456 155.646 193.226 154.55 192.118C153.455 191.011 152.131 190.039 150.573 189.201C149.495 188.622 148.476 188.282 147.504 188.194C146.537 188.1 145.67 188.165 144.909 188.376L145.371 176.684C145.395 176.42 145.213 176.081 144.967 175.952Z" fill="black"/>
<path d="M180.628 206.276L175.719 203.634C175.479 203.505 175.28 203.628 175.268 203.903L174.864 215.109C174.823 216.193 174.694 217.036 174.477 217.657C174.26 218.272 173.962 218.705 173.598 218.951C173.229 219.197 172.79 219.285 172.275 219.197C171.765 219.115 171.191 218.899 170.558 218.559C169.926 218.219 169.358 217.815 168.854 217.358C168.35 216.895 167.934 216.351 167.589 215.718C167.255 215.091 167.003 214.359 166.839 213.533C166.681 212.707 166.616 211.758 166.657 210.692L167.061 199.487C167.073 199.212 166.886 198.884 166.646 198.755L161.737 196.113C161.497 195.984 161.292 196.107 161.28 196.376L160.87 207.799C160.794 209.849 160.981 211.712 161.426 213.393C161.872 215.08 162.522 216.603 163.371 217.962C164.221 219.326 165.246 220.527 166.435 221.581C167.624 222.636 168.93 223.544 170.342 224.305C171.759 225.067 173.077 225.57 174.301 225.816C175.52 226.063 176.586 225.981 177.505 225.57C178.419 225.16 179.151 224.376 179.696 223.227C180.247 222.079 180.557 220.48 180.628 218.436L181.038 207.014C181.049 206.733 180.868 206.405 180.628 206.276Z" fill="black"/>
<path d="M193.421 230.913C192.701 230.526 192.033 230.017 191.424 229.384C190.815 228.757 190.287 228.043 189.842 227.252C189.397 226.467 189.052 225.612 188.811 224.698C188.577 223.784 188.472 222.859 188.507 221.921C188.542 221.002 188.706 220.235 189.005 219.631C189.303 219.022 189.696 218.571 190.182 218.284C190.668 217.997 191.231 217.874 191.869 217.915C192.507 217.962 193.181 218.173 193.89 218.553C194.61 218.94 195.278 219.455 195.893 220.082C196.508 220.715 197.041 221.429 197.481 222.214C197.92 223.005 198.254 223.843 198.494 224.745C198.728 225.641 198.828 226.549 198.793 227.469C198.757 228.406 198.593 229.185 198.301 229.806C198.008 230.427 197.621 230.884 197.129 231.176C196.649 231.475 196.086 231.604 195.448 231.557C194.804 231.51 194.124 231.294 193.421 230.913ZM189.139 200.008L184.242 197.373C184.008 197.244 183.803 197.361 183.791 197.642L182.643 229.431C182.626 229.847 182.907 230.339 183.264 230.532L187.898 233.033C188.138 233.162 188.337 233.045 188.349 232.764L188.378 232.008C188.577 232.278 188.782 232.553 189.005 232.828C189.426 233.367 189.889 233.888 190.393 234.392C190.891 234.896 191.43 235.365 191.992 235.804C192.554 236.237 193.158 236.624 193.796 236.97C195.372 237.819 196.807 238.276 198.107 238.334C199.402 238.393 200.526 238.129 201.464 237.52C202.407 236.923 203.145 236.026 203.684 234.843C204.217 233.654 204.515 232.242 204.58 230.597C204.638 228.956 204.457 227.287 204.041 225.582C203.619 223.878 202.987 222.25 202.143 220.697C201.3 219.139 200.257 217.71 199.015 216.392C197.773 215.074 196.356 213.985 194.763 213.129C193.597 212.503 192.548 212.134 191.623 212.011C190.697 211.893 189.877 211.94 189.157 212.163L189.567 200.746C189.561 200.459 189.374 200.137 189.139 200.008Z" fill="black"/>
<path d="M94.3124 161.131C92.6288 159.667 90.8282 160.385 90.2933 162.731C89.7584 165.077 90.6891 168.156 92.3793 169.621C94.0628 171.085 95.8687 170.375 96.4036 168.03C96.9399 165.677 96.0026 162.596 94.3124 161.131Z" fill="black"/>
<path d="M96.3523 172.277L106.496 189.213C108.043 191.792 111.311 192.505 113.798 190.804L113.907 190.731C116.389 189.029 117.148 185.555 115.603 182.971L107.573 169.586C106.026 167.007 106.78 163.533 109.268 161.826C111.75 160.124 115.019 160.832 116.571 163.417L126.088 179.903" stroke="black" stroke-width="6" stroke-miterlimit="10"/>
<path d="M130.312 183.131C128.629 181.667 126.828 182.385 126.293 184.731C125.758 187.077 126.688 190.163 128.379 191.621C130.063 193.085 131.87 192.368 132.405 190.022C132.932 187.683 131.996 184.595 130.312 183.131Z" fill="black"/>
</g>
<defs>
<clipPath id="clip0_7525_28105">
<rect width="299.901" height="350" fill="white"/>
</clipPath>
</defs>
</svg>
