<svg width="30" height="30" viewBox="0 0 30 30" fill="none" xmlns="http://www.w3.org/2000/svg">
<path d="M15 30C23.2843 30 30 23.2843 30 15C30 6.71573 23.2843 0 15 0C6.71573 0 0 6.71573 0 15C0 23.2843 6.71573 30 15 30Z" fill="#6DA544"/>
<path d="M15.0001 5.8696L27.3913 15L15.0001 24.1305L2.60876 15L15.0001 5.8696Z" fill="#FFDA44"/>
<path d="M15 20.2173C17.8814 20.2173 20.2173 17.8815 20.2173 15C20.2173 12.1185 17.8814 9.78262 15 9.78262C12.1185 9.78262 9.78259 12.1185 9.78259 15C9.78259 17.8815 12.1185 20.2173 15 20.2173Z" fill="#F0F0F0"/>
<path d="M12.3913 14.6739C11.484 14.6739 10.6085 14.8119 9.7843 15.0679C9.82081 17.9179 12.1414 20.2174 15 20.2174C16.7677 20.2174 18.3288 19.3375 19.2726 17.9927C17.6579 15.9714 15.1735 14.6739 12.3913 14.6739Z" fill="#0052B4"/>
<path d="M20.1207 15.9996C20.1835 15.6759 20.2174 15.342 20.2174 15C20.2174 12.1185 17.8815 9.78262 15.0001 9.78262C12.85 9.78262 11.0043 11.0835 10.2056 12.9408C10.9116 12.7945 11.6426 12.7174 12.3914 12.7174C15.4217 12.7174 18.1631 13.977 20.1207 15.9996Z" fill="#0052B4"/>
</svg>
